<svg width="17" height="15" viewBox="0 0 17 15" fill="none" xmlns="http://www.w3.org/2000/svg">
<path d="M1.47826 3.57143H3.8213L5.17391 2.14286H9.6087V3.57143H5.82435L4.47174 5H1.47826V13.5714H13.3043V7.14286H14.7826V13.5714C14.7826 14.3571 14.1174 15 13.3043 15H1.47826C0.665216 15 0 14.3571 0 13.5714V5C0 4.21429 0.665216 3.57143 1.47826 3.57143ZM11.087 9.28571C11.087 11.2571 9.4313 12.8571 7.3913 12.8571C5.3513 12.8571 3.69565 11.2571 3.69565 9.28571C3.69565 7.31429 5.3513 5.71429 7.3913 5.71429C9.4313 5.71429 11.087 7.31429 11.087 9.28571ZM7.3913 7.14286C6.17174 7.14286 5.17391 8.10714 5.17391 9.28571C5.17391 10.4643 6.17174 11.4286 7.3913 11.4286C8.61087 11.4286 9.6087 10.4643 9.6087 9.28571C9.6087 8.10714 8.61087 7.14286 7.3913 7.14286ZM13.3043 3.57143H11.087V2.14286H13.3043V0H14.7826V2.14286H17V3.57143H14.7826V5.71429H13.3043V3.57143Z" fill="#333333"/>
</svg>
