<svg width="14" height="14" viewBox="0 0 14 14" fill="none" xmlns="http://www.w3.org/2000/svg">
<path d="M0 11.6667C0 12.0944 0.35 12.4444 0.777778 12.4444H4.66667V10.8889H0.777778C0.35 10.8889 0 11.2389 0 11.6667ZM0 2.33333C0 2.76111 0.35 3.11111 0.777778 3.11111H7.77778V1.55556H0.777778C0.35 1.55556 0 1.90556 0 2.33333ZM7.77778 13.2222V12.4444H13.2222C13.65 12.4444 14 12.0944 14 11.6667C14 11.2389 13.65 10.8889 13.2222 10.8889H7.77778V10.1111C7.77778 9.68333 7.42778 9.33333 7 9.33333C6.57222 9.33333 6.22222 9.68333 6.22222 10.1111V13.2222C6.22222 13.65 6.57222 14 7 14C7.42778 14 7.77778 13.65 7.77778 13.2222ZM3.11111 5.44444V6.22222H0.777778C0.35 6.22222 0 6.57222 0 7C0 7.42778 0.35 7.77778 0.777778 7.77778H3.11111V8.55556C3.11111 8.98333 3.46111 9.33333 3.88889 9.33333C4.31667 9.33333 4.66667 8.98333 4.66667 8.55556V5.44444C4.66667 5.01667 4.31667 4.66667 3.88889 4.66667C3.46111 4.66667 3.11111 5.01667 3.11111 5.44444ZM14 7C14 6.57222 13.65 6.22222 13.2222 6.22222H6.22222V7.77778H13.2222C13.65 7.77778 14 7.42778 14 7ZM10.1111 4.66667C10.5389 4.66667 10.8889 4.31667 10.8889 3.88889V3.11111H13.2222C13.65 3.11111 14 2.76111 14 2.33333C14 1.90556 13.65 1.55556 13.2222 1.55556H10.8889V0.777778C10.8889 0.35 10.5389 0 10.1111 0C9.68333 0 9.33333 0.35 9.33333 0.777778V3.88889C9.33333 4.31667 9.68333 4.66667 10.1111 4.66667Z" fill="#333333"/>
</svg>
