<svg width="18" height="16" viewBox="0 0 18 16" fill="none" xmlns="http://www.w3.org/2000/svg">
<path d="M14.9527 6.76923C14.9521 6.10868 14.7803 5.46036 14.455 4.89181C14.1297 4.32326 13.663 3.85528 13.1033 3.53662C13.5251 3.08174 13.7611 2.47629 13.7622 1.84615H12.5718C12.5714 2.17247 12.4459 2.48534 12.2227 2.71608C11.9995 2.94682 11.6969 3.0766 11.3813 3.07692C10.4458 3.0782 9.54812 3.45864 8.88094 4.13655C8.21376 4.81447 7.83028 5.73581 7.81283 6.70277C7.04966 5.89915 6.62125 4.8185 6.61937 3.69231C6.61781 3.14807 6.44165 2.61974 6.1185 2.19011C5.79535 1.76047 5.34347 1.4538 4.83366 1.31815V0H3.64318V1.31815C3.13337 1.4538 2.68149 1.76047 2.35834 2.19011C2.03519 2.61974 1.85903 3.14807 1.85747 3.69231V6.76923H0.666992V7.38462C0.666992 9.66956 1.54497 11.8609 3.10777 13.4766C4.67057 15.0923 6.79019 16 9.00033 16C11.2105 16 13.3301 15.0923 14.8929 13.4766C16.4557 11.8609 17.3337 9.66956 17.3337 7.38462V6.76923H14.9527ZM11.3813 4.30769C12.0125 4.30851 12.6177 4.56811 13.064 5.02956C13.5103 5.49101 13.7614 6.11664 13.7622 6.76923H9.00033C9.00111 6.11664 9.25222 5.49101 9.69856 5.02956C10.1449 4.56811 10.7501 4.30851 11.3813 4.30769ZM3.04794 3.69231C3.04794 3.36589 3.17337 3.05284 3.39663 2.82202C3.61988 2.59121 3.92269 2.46154 4.23842 2.46154C4.55415 2.46154 4.85696 2.59121 5.08021 2.82202C5.30347 3.05284 5.4289 3.36589 5.4289 3.69231C5.43127 4.7887 5.74867 5.85965 6.3408 6.76923H3.04794V3.69231ZM9.00033 14.7692C7.20956 14.7669 5.48477 14.0703 4.16676 12.8169C2.84876 11.5636 2.03342 9.84473 1.88187 8H16.1194C15.9678 9.84484 15.1524 11.5638 13.8343 12.8172C12.5161 14.0705 10.7912 14.7671 9.00033 14.7692Z" fill="#333333"/>
</svg>
