<svg width="256" height="256" viewBox="0 0 256 256" fill="none" xmlns="http://www.w3.org/2000/svg">
<rect x="0.5" y="0.5" width="255" height="255" rx="24" fill="url(#paint0_linear_1235_14842)"/>
<path fill-rule="evenodd" clip-rule="evenodd" d="M202.374 128.24V109.291L202.376 103.702V102.654C202.376 99.5554 200.979 96.8473 198.49 95.0138L165.174 70.8245L133.519 47.8592C130.158 45.4138 125.79 45.4138 122.472 47.8592L90.8163 70.8245L88.7636 72.3086V63.0521C88.7636 59.8213 86.1447 57.2024 82.9139 57.2024H80.5985C77.3676 57.2024 74.7054 59.8213 74.708 63.0521V82.5239L57.5057 95.0113C54.9735 96.8447 53.6195 99.5503 53.6195 102.651V103.699L53.6169 109.291V128.24L53.6195 139.59C59.8185 143.563 67.1115 147.406 75.0573 150.767L81.8684 153.475C83.8752 154.306 85.8413 154.48 87.9807 154.044L95.5338 152.516C98.0226 151.994 100.379 152.21 102.781 153.128L123.405 161.355H123.449V161.398H123.492H123.535L123.579 161.441H123.622L123.665 161.485L123.709 161.528H123.752H123.795V161.571H123.839L123.882 161.615L123.926 161.658H123.969V161.701H124.012V161.745H124.056L124.099 161.788L124.142 161.831L124.186 161.875L124.229 161.918L124.272 161.962H124.316V162.005L124.359 162.048L124.402 162.092L124.446 162.135V162.178L124.489 162.222V162.265L124.576 162.352V162.395H124.619V162.438L124.662 162.482V162.525L124.706 162.568L124.749 162.655V162.698V162.742L124.793 162.785V162.829L124.836 162.872V162.915V162.959V163.002C124.879 163.045 124.879 163.132 124.879 163.175V163.219H124.923V163.262V163.305V163.349V163.392V163.435V163.479V163.522V163.565V163.652V163.696V163.739V163.782V163.826V163.869C124.879 164.088 124.836 164.305 124.749 164.524L124.226 165.878C123.747 167.146 122.306 167.755 121.039 167.276L99.9071 158.891C98.9024 158.455 97.7676 158.978 97.3749 159.983H97.3316C96.9389 160.987 97.4616 162.122 98.423 162.515L119.555 170.943C120.822 171.422 121.432 172.863 120.952 174.13L120.429 175.484C119.907 176.752 118.466 177.361 117.199 176.882L96.0668 168.454C95.1054 168.061 93.9273 168.584 93.5346 169.545V169.589C93.1419 170.593 93.6213 171.728 94.626 172.121L115.758 180.548C117.025 181.028 117.635 182.469 117.155 183.736L116.587 185.09C116.107 186.357 114.667 186.967 113.399 186.444L92.79 178.279C90.3879 177.318 88.5545 175.877 87.0704 173.781L82.4855 167.276C81.7434 166.228 80.9147 165.399 79.9533 164.7C75.1058 162.78 70.6101 160.901 66.4179 158.981C61.7897 156.884 57.5541 154.745 53.6246 152.519V153.916V172.603V201.609C53.6246 206.803 57.8576 210.995 63.0545 210.995H192.951C198.146 210.995 202.381 206.806 202.381 201.609V153.493C195.614 157.16 187.755 160.653 178.455 164.32C177.014 164.886 176.009 165.848 175.397 167.288C173.345 172.049 168.413 176.634 161.819 179.253C151.341 183.402 140.6 181.132 137.849 174.145C137.675 173.753 137.543 173.36 137.456 172.967C137.434 172.924 137.423 172.869 137.412 172.814C137.402 172.76 137.391 172.705 137.369 172.661C137.369 172.588 137.356 172.529 137.344 172.476C137.334 172.433 137.326 172.394 137.326 172.355V172.312C137.319 172.279 137.313 172.247 137.306 172.216C137.27 172.039 137.239 171.886 137.239 171.7V171.657C137.106 170.259 137.239 168.818 137.675 167.378H137.718C137.763 167.164 137.847 166.952 137.932 166.738L137.938 166.722V166.679C137.969 166.604 137.994 166.528 138.019 166.453C138.067 166.31 138.115 166.168 138.2 166.024C138.723 164.713 139.509 163.405 140.47 162.137L140.557 162.094L140.73 161.875L140.817 161.745L140.947 161.571L141.077 161.441L141.25 161.222L141.337 161.135L141.556 160.916L141.643 160.829L141.816 160.61L141.903 160.48L142.122 160.261L142.209 160.217L142.428 159.998L142.558 159.868L142.732 159.695L142.905 159.521L143.035 159.391L143.165 159.261L143.385 159.088L143.471 159.001L143.734 158.782H143.777L144.083 158.519C144.17 158.432 144.303 158.3 144.433 158.213L144.782 157.95L144.869 157.864L145.175 157.644L145.261 157.558L145.524 157.384L145.743 157.254L145.917 157.124L146.136 156.994L146.309 156.864L146.529 156.734L146.702 156.604L146.921 156.474L147.095 156.344L147.314 156.214L147.533 156.084L147.753 155.997L147.926 155.867L148.189 155.737L148.362 155.65L148.581 155.52L148.844 155.39L149.018 155.303L149.237 155.173L149.499 155.043L149.673 154.957L149.936 154.827L150.155 154.74L150.374 154.61L150.637 154.523L150.856 154.436V154.393C150.868 154.389 150.881 154.385 150.894 154.381C150.908 154.376 150.923 154.372 150.938 154.367C151.054 154.331 151.188 154.289 151.292 154.22H151.335C151.401 154.198 151.477 154.166 151.554 154.133C151.63 154.101 151.707 154.068 151.772 154.046C158.409 151.425 165.134 151.338 169.848 153.434C171.203 154 172.554 154.044 173.865 153.564L174.127 153.478C184.735 149.548 194.428 145.348 202.374 140.24V128.24Z" fill="white"/>
<defs>
<linearGradient id="paint0_linear_1235_14842" x1="39.5242" y1="265.024" x2="197.573" y2="16.5333" gradientUnits="userSpaceOnUse">
<stop stop-color="#F31212"/>
<stop offset="1" stop-color="#F39C12"/>
</linearGradient>
</defs>
</svg>
