<svg width="130" height="108" viewBox="0 0 130 108" fill="none" xmlns="http://www.w3.org/2000/svg">
              <path
                d="M123.822 64.065C125.525 60.8325 126.5 57.1575 126.5 53.25C126.5 43.3185 120.261 34.8645 111.499 31.533C111.499 31.5225 111.5 31.512 111.5 31.5C111.5 14.103 97.397 0 80 0C65.324 0 53.0285 10.0515 49.5305 23.6355C47.3165 22.908 44.957 22.5 42.5 22.5C30.962 22.5 21.4655 31.1895 20.165 42.378C12.359 44.0295 6.5 50.9535 6.5 59.25C6.5 68.7765 14.2235 76.5 23.75 76.5C24.0155 76.5 24.278 76.482 24.539 76.467C24.533 76.7295 24.5 76.986 24.5 77.25C24.5 94.233 38.267 108 55.25 108C64.9055 108 73.5125 103.542 79.151 96.579C82.418 99.917 86.96 102 92 102C98.975 102 105.011 98.025 107.999 92.223C109.577 92.726 111.256 93 113 93C122.113 93 129.5 85.613 129.5 76.5C129.5 71.5335 127.295 67.0905 123.822 64.065Z"
                fill="#FDEAEA"
              />
              <path
                d="M107.75 69.75V70.5H112.25V69.75C112.25 69.75 118.613 69.75 120.5 69.75C124.228 69.75 127.25 66.7275 127.25 63C127.25 59.5005 124.577 56.6565 121.167 56.3175C121.201 56.046 121.25 55.7805 121.25 55.5C121.25 51.7725 118.228 48.75 114.5 48.75C112.343 48.75 110.445 49.779 109.209 51.354C109 47.4 105.757 44.25 101.75 44.25C97.608 44.25 94.25 47.6085 94.25 51.75C94.25 52.419 94.365 53.055 94.53 53.673C93.567 52.5075 92.129 51.75 90.5 51.75C87.8285 51.75 85.649 53.7525 85.3175 56.3325C85.046 56.2995 84.7805 56.25 84.5 56.25C80.7725 56.25 77.75 59.2725 77.75 63C77.75 66.7275 80.7725 69.75 84.5 69.75C88.2275 69.75 98.75 69.75 98.75 69.75H107.75Z"
                fill="#F7BFBF"
              />
              <path
                d="M101.75 43.5C97.201 43.5 93.5 47.2005 93.5 51.75C93.5 51.774 93.5 51.7965 93.5 51.8205C92.597 51.288 91.565 51 90.5 51C87.7535 51 85.3835 52.8915 84.713 55.5075C84.6425 55.503 84.572 55.5 84.5 55.5C80.3645 55.5 77 58.8645 77 63C77 67.1355 80.3645 70.5 84.5 70.5H107.75C108.164 70.5 108.5 70.164 108.5 69.75C108.5 69.336 108.164 69 107.75 69H84.5C81.191 69 78.5 66.309 78.5 63C78.5 59.691 81.191 57 84.5 57C84.6755 57 84.845 57.0255 85.0145 57.048L85.226 57.0765C85.2575 57.081 85.2875 57.0825 85.319 57.0825C85.688 57.0825 86.012 56.805 86.0615 56.427C86.348 54.1875 88.256 52.5 90.5 52.5C91.8275 52.5 93.085 53.1015 93.952 54.15C94.099 54.327 94.313 54.423 94.53 54.423C94.647 54.423 94.765 54.396 94.873 54.339C95.186 54.1785 95.343 53.82 95.253 53.4795C95.081 52.827 95 52.278 95 51.75C95 48.0285 98.028 45 101.75 45C105.322 45 108.27 47.808 108.461 51.3945C108.477 51.7065 108.686 51.975 108.984 52.0695C109.059 52.0935 109.136 52.1055 109.212 52.1055C109.437 52.1055 109.656 52.002 109.8 51.8175C110.957 50.3445 112.668 49.5 114.5 49.5C117.809 49.5 120.5 52.191 120.5 55.5C120.5 55.6755 120.475 55.845 120.452 56.0145L120.423 56.226C120.399 56.427 120.457 56.628 120.583 56.7855C120.708 56.943 120.893 57.0435 121.092 57.063C124.176 57.3705 126.5 59.9235 126.5 63C126.5 66.309 123.809 69 120.5 69H112.25C111.836 69 111.5 69.336 111.5 69.75C111.5 70.164 111.836 70.5 112.25 70.5H120.5C124.635 70.5 128 67.1355 128 63C128 59.4045 125.467 56.3805 121.996 55.6845C121.999 55.623 122 55.5615 122 55.5C122 51.3645 118.635 48 114.5 48C112.736 48 111.061 48.624 109.726 49.746C108.829 46.14 105.583 43.5 101.75 43.5Z"
                fill="#472B29"
              />
              <path
                d="M99.5 54C97.395 54 95.586 55.4985 95.13 57.5115C94.58 57.1785 93.951 57 93.312 57C91.5094 57 90.0154 58.3455 89.7829 60.102C89.4784 60.033 89.1889 60 88.9054 60C86.6119 60 84.6889 61.8 84.5284 64.098C84.5149 64.305 84.6709 64.485 84.8764 64.5C84.8854 64.5 84.8944 64.5 84.9034 64.5C85.0984 64.5 85.2634 64.3485 85.2769 64.152C85.4104 62.2455 87.0034 60.75 88.9054 60.75C89.2489 60.75 89.6104 60.813 90.0124 60.9405C90.0454 60.951 90.0799 60.9555 90.1129 60.9555C90.1954 60.9555 90.2779 60.9255 90.3469 60.8745C90.4429 60.8055 90.4999 60.6825 90.4999 60.5625C90.4999 59.0115 91.7614 57.75 93.312 57.75C93.983 57.75 94.64 58.002 95.159 58.4595C95.229 58.521 95.318 58.554 95.406 58.554C95.454 58.554 95.501 58.545 95.546 58.5255C95.678 58.473 95.768 58.35 95.778 58.2075C95.934 56.268 97.568 54.75 99.5 54.75C99.812 54.75 100.137 54.801 100.523 54.9105C100.557 54.921 100.593 54.9255 100.628 54.9255C100.791 54.9255 100.938 54.816 100.986 54.6525C101.043 54.453 100.928 54.246 100.728 54.189C100.275 54.06 99.884 54 99.5 54ZM120.324 56.25C118.335 56.25 116.562 57.5955 116.013 59.523C115.956 59.7225 116.072 59.9295 116.271 59.9865C116.307 59.9955 116.342 60 116.375 60C116.538 60 116.688 59.892 116.735 59.727C117.192 58.122 118.668 57 120.324 57C120.5 57 120.669 57.021 120.837 57.0435C120.855 57.0465 120.872 57.048 120.89 57.048C121.071 57.048 121.233 56.91 121.259 56.7225C121.287 56.517 121.143 56.328 120.938 56.301C120.737 56.274 120.533 56.25 120.324 56.25Z"
                fill="#472B29"
              />
              <path
                d="M16.25 55.5H1.25C0.836 55.5 0.5 55.164 0.5 54.75C0.5 54.336 0.836 54 1.25 54H16.25C16.664 54 17 54.336 17 54.75C17 55.164 16.6655 55.5 16.25 55.5ZM20.75 55.5H19.25C18.836 55.5 18.5 55.164 18.5 54.75C18.5 54.336 18.836 54 19.25 54H20.75C21.164 54 21.5 54.336 21.5 54.75C21.5 55.164 21.1655 55.5 20.75 55.5ZM28.2365 58.5H14.75C14.336 58.5 14 58.164 14 57.75C14 57.336 14.336 57 14.75 57H28.2365C28.6505 57 28.9865 57.336 28.9865 57.75C28.9865 58.164 28.6505 58.5 28.2365 58.5ZM11.75 58.5H10.25C9.836 58.5 9.5 58.164 9.5 57.75C9.5 57.336 9.836 57 10.25 57H11.75C12.164 57 12.5 57.336 12.5 57.75C12.5 58.164 12.1655 58.5 11.75 58.5ZM7.25 58.5H4.25C3.836 58.5 3.5 58.164 3.5 57.75C3.5 57.336 3.836 57 4.25 57H7.25C7.664 57 8 57.336 8 57.75C8 58.164 7.6655 58.5 7.25 58.5ZM16.25 61.5H13.25C12.836 61.5 12.5 61.164 12.5 60.75C12.5 60.336 12.836 60 13.25 60H16.25C16.664 60 17 60.336 17 60.75C17 61.164 16.664 61.5 16.25 61.5ZM20.75 48C20.4845 48 19.5155 48 19.25 48C18.836 48 18.5 48.336 18.5 48.75C18.5 49.164 18.836 49.5 19.25 49.5C19.5155 49.5 20.4845 49.5 20.75 49.5C21.164 49.5 21.5 49.164 21.5 48.75C21.5 48.336 21.164 48 20.75 48ZM20.75 51C20.4845 51 13.5155 51 13.25 51C12.836 51 12.5 51.336 12.5 51.75C12.5 52.164 12.836 52.5 13.25 52.5C13.5155 52.5 20.4845 52.5 20.75 52.5C21.164 52.5 21.5 52.164 21.5 51.75C21.5 51.336 21.164 51 20.75 51ZM28.25 54C27.9845 54 24.0155 54 23.75 54C23.336 54 23 54.336 23 54.75C23 55.164 23.336 55.5 23.75 55.5C24.0155 55.5 27.9845 55.5 28.25 55.5C28.664 55.5 29 55.164 29 54.75C29 54.336 28.664 54 28.25 54Z"
                fill="#611515"
              />
              <path
                d="M101.75 15H86.75C86.336 15 86 14.664 86 14.25C86 13.836 86.336 13.5 86.75 13.5H101.75C102.164 13.5 102.5 13.836 102.5 14.25C102.5 14.664 102.164 15 101.75 15ZM107.75 15H104.75C104.336 15 104 14.664 104 14.25C104 13.836 104.336 13.5 104.75 13.5H107.75C108.164 13.5 108.5 13.836 108.5 14.25C108.5 14.664 108.164 15 107.75 15ZM115.25 18H100.25C99.836 18 99.5 17.664 99.5 17.25C99.5 16.836 99.836 16.5 100.25 16.5H115.25C115.664 16.5 116 16.836 116 17.25C116 17.664 115.666 18 115.25 18ZM97.25 18H95.75C95.336 18 95 17.664 95 17.25C95 16.836 95.336 16.5 95.75 16.5H97.25C97.664 16.5 98 16.836 98 17.25C98 17.664 97.664 18 97.25 18ZM92.705 18H89.75C89.336 18 89 17.664 89 17.25C89 16.836 89.336 16.5 89.75 16.5H92.705C93.119 16.5 93.455 16.836 93.455 17.25C93.455 17.664 93.119 18 92.705 18ZM106.25 12H98.75C98.336 12 98 11.664 98 11.25C98 10.836 98.336 10.5 98.75 10.5H106.25C106.664 10.5 107 10.836 107 11.25C107 11.664 106.666 12 106.25 12ZM101.75 21H98.75C98.336 21 98 20.664 98 20.25C98 19.836 98.336 19.5 98.75 19.5H101.75C102.164 19.5 102.5 19.836 102.5 20.25C102.5 20.664 102.164 21 101.75 21Z"
                fill="#611515"
              />
              <path
                d="M71 19.125C61.7506 19.125 52.88 22.7993 46.3397 29.3397C39.7993 35.88 36.125 44.7506 36.125 54C36.125 63.2494 39.7993 72.12 46.3397 78.6603C52.88 85.201 61.7506 88.875 71 88.875C80.2494 88.875 89.12 85.201 95.66 78.6603C102.201 72.12 105.875 63.2494 105.875 54C105.875 44.7506 102.201 35.88 95.66 29.3397C89.12 22.7993 80.2494 19.125 71 19.125Z"
                fill="#F7BFBF"
              />
              <path
                d="M71 89.925C51.191 89.925 35.075 73.8092 35.075 54.0002C35.075 34.1912 51.191 18.0752 71 18.0752C90.809 18.0752 106.925 34.1912 106.925 54.0002C106.925 73.8092 90.809 89.925 71 89.925ZM71 20.1752C52.3475 20.1752 37.1749 35.3492 37.1749 54.0002C37.1749 72.6512 52.3475 87.825 71 87.825C89.6525 87.825 104.825 72.6512 104.825 54.0002C104.825 35.3492 89.6525 20.1752 71 20.1752Z"
                fill="#611515"
              />
              <path
                d="M98.934 46.4804C98.613 46.4804 98.316 46.2734 98.217 45.9509C98.09 45.5384 97.955 45.1304 97.809 44.7254C97.247 43.1534 96.536 41.6234 95.699 40.1729C95.49 39.8144 95.613 39.3554 95.973 39.1484C96.324 38.9399 96.788 39.0629 96.998 39.4214C97.881 40.9499 98.63 42.5624 99.222 44.2184C99.375 44.6429 99.518 45.0749 99.651 45.5099C99.773 45.9059 99.552 46.3259 99.155 46.4474C99.081 46.4699 99.008 46.4804 98.934 46.4804Z"
                fill="#472B29"
              />
              <path
                d="M71 84.053C54.428 84.053 40.9475 70.6129 40.9475 54.0904C40.9475 37.5679 54.428 24.1279 71 24.1279C79.5995 24.1279 87.8045 27.8134 93.511 34.2379C93.941 34.7239 94.358 35.2249 94.756 35.7379C95.011 36.0649 94.951 36.5359 94.624 36.7909C94.298 37.0429 93.826 36.9859 93.571 36.6589C93.193 36.1714 92.798 35.6974 92.3885 35.2354C86.9675 29.1304 79.172 25.6294 71 25.6294C55.256 25.6294 42.4475 38.3974 42.4475 54.0919C42.4475 69.7849 55.256 82.554 71 82.554C86.744 82.554 99.553 69.7864 99.553 54.0919C99.553 52.6669 99.446 51.2299 99.233 49.8214C99.172 49.4119 99.452 49.0294 99.863 48.9679C100.27 48.9184 100.654 49.1869 100.715 49.5979C100.939 51.0814 101.053 52.5934 101.053 54.0919C101.053 70.6114 87.572 84.053 71 84.053Z"
                fill="#611515"
              />
              <path
                d="M47.75 89.25C47.75 89.25 50.1005 89.25 53 89.25C55.8995 89.25 58.25 86.899 58.25 84C58.25 81.328 56.2475 79.149 53.6675 78.8175C53.7095 78.549 53.75 78.2805 53.75 78C53.75 75.1005 51.3995 72.75 48.5 72.75C46.952 72.75 45.575 73.4325 44.615 74.4975C44.039 71.7855 41.6345 69.75 38.75 69.75C35.4365 69.75 32.75 72.4365 32.75 75.75C32.75 76.0365 32.795 76.311 32.834 76.587C32.192 76.071 31.388 75.75 30.5 75.75C28.658 75.75 27.1325 77.0805 26.8175 78.8325C26.549 78.7905 26.2805 78.75 26 78.75C23.1005 78.75 20.75 81.101 20.75 84C20.75 86.899 23.1005 89.25 26 89.25C28.8995 89.25 37.25 89.25 37.25 89.25V90H47.75V89.25Z"
                fill="#F7BFBF"
              />
              <path
                d="M50.375 82.5C50.168 82.5 50 82.332 50 82.125C50 80.29 51.4925 78.7979 53.327 78.7979C53.378 78.8114 54.4325 78.7964 55.193 79.002C55.3925 79.056 55.511 79.261 55.457 79.461C55.403 79.662 55.1975 79.78 54.998 79.725C54.332 79.545 53.348 79.545 53.3285 79.548C51.9065 79.548 50.75 80.704 50.75 82.125C50.75 82.332 50.582 82.5 50.375 82.5ZM40.25 88.5C40.0511 88.5 39.8603 88.579 39.7197 88.72C39.579 88.86 39.5 89.051 39.5 89.25C39.5 89.449 39.579 89.64 39.7197 89.78C39.8603 89.921 40.0511 90 40.25 90C40.4489 90 40.6397 89.921 40.7803 89.78C40.921 89.64 41 89.449 41 89.25C41 89.051 40.921 88.86 40.7803 88.72C40.6397 88.579 40.4489 88.5 40.25 88.5Z"
                fill="#472B29"
              />
              <path
                d="M53 90H47.75C47.336 90 47 89.664 47 89.25C47 88.836 47.336 88.5 47.75 88.5H53C55.481 88.5 57.5 86.481 57.5 84C57.5 81.756 55.8125 79.848 53.573 79.562C53.372 79.535 53.1905 79.43 53.069 79.268C52.9475 79.106 52.8965 78.9015 52.928 78.702C52.9625 78.471 53 78.24 53 78C53 75.519 50.981 73.5 48.5 73.5C47.225 73.5 46.043 74.0325 45.1715 75C44.984 75.2085 44.69 75.297 44.4215 75.222C44.1485 75.1485 43.94 74.9295 43.8815 74.6535C43.37 72.2475 41.2115 70.5 38.75 70.5C35.855 70.5 33.5 72.855 33.5 75.75C33.5 75.9645 33.5315 76.17 33.5615 76.377C33.605 76.6815 33.467 77.034 33.1985 77.187C32.93 77.34 32.6045 77.364 32.3645 77.172C31.817 76.7325 31.1735 76.5 30.5 76.5C29.051 76.5 27.812 77.5365 27.5555 78.966C27.4835 79.366 27.1115 79.635 26.702 79.574C26.471 79.538 26.24 79.5 26 79.5C23.519 79.5 21.5 81.519 21.5 84C21.5 86.481 23.519 88.5 26 88.5H37.25C37.664 88.5 38 88.836 38 89.25C38 89.664 37.664 90 37.25 90H26C22.691 90 20 87.309 20 84C20 80.691 22.691 78 26 78C26.0885 78 26.174 78.003 26.261 78.009C26.882 76.23 28.5665 75 30.5 75C31.0235 75 31.5335 75.0915 32.0165 75.27C32.264 71.7705 35.189 69 38.75 69C41.4965 69 43.949 70.6905 44.9795 73.161C45.9995 72.414 47.2325 72 48.5 72C51.809 72 54.5 74.691 54.5 78C54.5 78.072 54.4985 78.1425 54.494 78.213C57.1085 78.885 59 81.253 59 84C59 87.309 56.309 90 53 90Z"
                fill="#472B29"
              />
              <path
                d="M44.75 88.5C44.5115 88.5 43.4885 88.5 43.25 88.5C42.836 88.5 42.5 88.836 42.5 89.25C42.5 89.664 42.836 90 43.25 90C43.4885 90 44.5115 90 44.75 90C45.164 90 45.5 89.664 45.5 89.25C45.5 88.836 45.164 88.5 44.75 88.5Z"
                fill="#472B29"
              />
              <path
                d="M82.6668 70L70.6112 61.3889L58.5557 70V42.4444C58.5557 41.5309 58.9186 40.6548 59.5645 40.0089C60.2105 39.3629 61.0866 39 62.0001 39H79.2223C80.1359 39 81.012 39.3629 81.6579 40.0089C82.3039 40.6548 82.6668 41.5309 82.6668 42.4444V70Z"
                fill="#FDFCEE"
                stroke="#472B29"
                stroke-width="1.77143"
                stroke-linecap="round"
                stroke-linejoin="round"
              />
            </svg>