<svg width="18" height="18" viewBox="0 0 18 18" fill="none" xmlns="http://www.w3.org/2000/svg">
<path fill-rule="evenodd" clip-rule="evenodd" d="M8.3125 0C3.72163 0 0 3.72163 0 8.3125C0 12.9034 3.72163 16.625 8.3125 16.625C10.2928 16.625 12.1113 15.9326 13.5391 14.7766L16.0063 17.2437C16.348 17.5854 16.902 17.5854 17.2437 17.2437C17.5854 16.902 17.5854 16.348 17.2437 16.0063L14.7766 13.5391C15.9326 12.1113 16.625 10.2928 16.625 8.3125C16.625 3.72163 12.9034 0 8.3125 0ZM1.75 8.3125C1.75 4.68813 4.68813 1.75 8.3125 1.75C11.9369 1.75 14.875 4.68813 14.875 8.3125C14.875 11.9369 11.9369 14.875 8.3125 14.875C4.68813 14.875 1.75 11.9369 1.75 8.3125Z" fill="#E63131"/>
</svg>
