<svg width="33" height="33" viewBox="0 0 33 33" fill="none" xmlns="http://www.w3.org/2000/svg">
<path d="M3.72917 32.8125C2.83407 32.8125 1.97562 32.4569 1.34269 31.824C0.709751 31.1911 0.354172 30.3326 0.354172 29.4375C0.354234 24.3951 2.35737 19.5592 5.92292 15.9938L16.1604 5.75625C19.7259 2.1907 24.5618 0.187562 29.6042 0.1875C30.4993 0.1875 31.3577 0.543079 31.9907 1.17601C32.6236 1.80895 32.9792 2.66739 32.9792 3.5625C32.9791 8.60491 30.976 13.4408 27.4104 17.0063L17.1729 27.2437C13.6074 30.8093 8.77158 32.8124 3.72917 32.8125Z" fill="#F09E3E"/>
<path d="M0.698984 25.8493C0.470429 27.0317 0.354971 28.2332 0.354172 29.4375C0.354172 30.3326 0.709751 31.1911 1.34269 31.824C1.97562 32.4569 2.83407 32.8125 3.72917 32.8125C8.77158 32.8125 13.6074 30.8093 17.1729 27.2438L27.4104 17.0063C30.976 13.4408 32.9791 8.60492 32.9792 3.56252C32.9801 2.79033 32.7149 2.04141 32.2282 1.44189C25.5204 13.7376 11.1356 21.5625 0.698984 25.8493Z" fill="#F09235"/>
<path d="M15.6604 14.8125H23.9792C23.287 15.8506 22.3493 16.7019 21.2492 17.2906C20.1491 17.8794 18.9207 18.1874 17.673 18.1875H9.35417C10.0463 17.1494 10.9841 16.2981 12.0841 15.7094C13.1842 15.1206 14.4126 14.8126 15.6604 14.8125Z" fill="#D68033"/>
<path d="M21.8479 8.0625H30.1667C29.4745 9.10064 28.5368 9.95186 27.4367 10.5406C26.3366 11.1294 25.1082 11.4374 23.8605 11.4375H15.5417C16.2338 10.3994 17.1716 9.54814 18.2716 8.95938C19.3717 8.37063 20.6001 8.06256 21.8479 8.0625Z" fill="#D68033"/>
<path d="M9.47286 21.5625H17.7917C17.0995 22.6006 16.1618 23.4519 15.0617 24.0406C13.9616 24.6294 12.7332 24.9374 11.4855 24.9375H3.16667C3.85882 23.8994 4.79655 23.0481 5.89664 22.4594C6.99672 21.8706 8.22514 21.5626 9.47286 21.5625Z" fill="#D68033"/>
</svg>
