<svg width="29" height="29" viewBox="0 0 29 29" fill="none" xmlns="http://www.w3.org/2000/svg">
<path d="M14.0653 6.20538C6.2988 6.20538 0.00280762 8.59798 0.00280762 11.5491C0.00280762 17.5139 3.24021 20.2401 4.22247 22.8189C4.37871 23.229 4.56658 24.2015 4.56658 24.2015C5.70178 26.4723 9.52305 28.1429 14.0654 28.1429V17.4554V16.8929V6.20538H14.0653Z" fill="#59666F"/>
<path d="M14.0653 6.20538C21.8318 6.20538 28.1278 8.59798 28.1278 11.5491C28.1278 17.5139 24.8907 20.2401 23.9082 22.8189C23.7519 23.229 23.564 24.2015 23.564 24.2015C22.4288 26.4723 18.6076 28.1429 14.0654 28.1429V17.4554V16.8929V6.20538H14.0653Z" fill="#4B5A64"/>
<path d="M14.0653 16.8929C21.8318 16.8929 28.1278 14.5004 28.1278 11.5491C28.1278 8.59786 21.8318 6.20538 14.0653 6.20538C6.2988 6.20538 0.00280762 8.59786 0.00280762 11.5491C0.00280762 14.5004 6.2988 16.8929 14.0653 16.8929Z" fill="#59666F"/>
<path d="M14.0653 16.3304C20.8326 16.3304 26.4373 14.5043 27.4198 12.1213C25.568 9.99204 20.2894 8.45551 14.0653 8.45551C7.84127 8.45551 2.56256 9.99218 0.710876 12.1213C1.69356 14.5041 7.2981 16.3304 14.0653 16.3304Z" fill="#F9C953"/>
<path d="M14.0653 16.3304C20.3363 16.3304 25.5298 14.5816 26.4403 12.2998C24.7245 10.2607 19.8328 8.78937 14.0653 8.78937C8.29778 8.78937 3.40607 10.2607 1.69031 12.2998C2.60078 14.5816 7.79428 16.3304 14.0653 16.3304Z" fill="#F1BC3A"/>
<path d="M9.56531 12.6741C9.56531 12.8294 9.50245 12.9554 9.42468 12.9554H7.73718C7.65949 12.9554 7.59656 12.8294 7.59656 12.6741V11.2679C7.59656 11.1126 7.65949 10.9866 7.73718 10.9866H9.42468C9.50245 10.9866 9.56531 11.1126 9.56531 11.2679V12.6741Z" fill="#A4D66E"/>
<path d="M12.6591 12.3929C12.6591 12.5481 12.7851 12.6741 12.9403 12.6741H16.3153C16.4708 12.6741 16.5966 12.5481 16.5966 12.3929V11.8304H12.6591V12.3929Z" fill="#8BC34F"/>
<path d="M16.3153 10.9866H12.9403C12.7851 10.9866 12.6591 11.1126 12.6591 11.2679V11.8304H16.5966V11.2679C16.5966 11.1126 16.4708 10.9866 16.3153 10.9866Z" fill="#A4D66E"/>
<path d="M20.1282 12.1116L20.8211 11.4184C20.931 11.3087 20.931 11.1305 20.8211 11.0207L20.4234 10.623L18.9348 12.1117H20.1282V12.1116Z" fill="#8BC34F"/>
<path d="M20.4233 10.6229L20.0257 10.2253C19.9159 10.1154 19.7378 10.1154 19.628 10.2253L17.7418 12.1116H18.9348L20.4233 10.6229Z" fill="#A4D66E"/>
<path d="M11.5219 14.1418C11.4673 13.9963 11.3052 13.9225 11.1598 13.9772L10.3699 14.2732C10.2245 14.3278 10.1506 14.4899 10.2053 14.6354L10.3136 14.924H11.8154L11.5219 14.1418Z" fill="#F97450"/>
<path d="M8.70937 14.3547C8.64693 14.4969 8.481 14.5618 8.33875 14.4995L3.70305 12.4655C3.56074 12.403 3.49605 12.2371 3.55842 12.0948L3.67148 11.8373C3.73392 11.695 3.89985 11.6303 4.0421 11.6927L8.67801 13.7267C8.82025 13.7892 8.88494 13.9551 8.82257 14.0974L8.70937 14.3547Z" fill="#F4F4F4"/>
<path d="M7.74118 15.36C7.67882 15.5022 7.51295 15.567 7.37064 15.5047L2.73458 13.4707C2.59227 13.4082 2.52772 13.2423 2.59016 13.1L2.70301 12.8425C2.76552 12.7003 2.93153 12.6356 3.0737 12.6979L7.70954 14.7319C7.85186 14.7944 7.91668 14.9604 7.8541 15.1026L7.74118 15.36Z" fill="#F4F4F4"/>
<path d="M23.6232 13.2391C23.5558 12.9357 22.6407 12.8811 21.5792 13.117C20.5178 13.353 19.712 13.7902 19.7794 14.0936C19.8469 14.3969 20.762 14.4516 21.8234 14.2157C22.8849 13.9797 23.6907 13.5425 23.6232 13.2391Z" fill="#F97450"/>
<path d="M17.9133 14.069C17.8459 13.7658 16.9308 13.7112 15.8694 13.9469C14.8079 14.1826 14.002 14.6195 14.0693 14.9227C14.1367 15.2259 15.0517 15.2806 16.1132 15.0448C17.1747 14.8091 17.9806 14.3722 17.9133 14.069Z" fill="#F97450"/>
<path d="M14.0653 8.45538C20.2894 8.45538 25.568 9.99199 27.4198 12.1212C27.5203 11.8774 27.5728 11.6275 27.5728 11.3734C27.5728 8.63559 21.5253 6.41632 14.0654 6.41632C6.60543 6.41632 0.557922 8.63559 0.557922 11.3734C0.557922 11.6276 0.610375 11.8774 0.710922 12.1212C2.56253 9.99199 7.84124 8.45538 14.0653 8.45538Z" fill="#F97450"/>
<path d="M12.3828 10.9866C12.2276 10.9866 12.1016 10.8606 12.1016 10.7053C12.1016 10.5691 11.6139 10.2624 11.3794 10.1149C10.8638 9.79044 10.3307 9.45519 10.4186 8.96792C10.4927 8.55631 11.0001 8.44058 11.4903 8.32878C11.6789 8.28575 11.9815 8.21671 12.0888 8.14885C12.0092 8.03129 11.6208 7.83751 11.4049 7.72979C10.8906 7.4728 10.3585 7.20709 10.4162 6.73389C10.4664 6.32192 10.9332 6.08546 11.4273 5.83515C11.6458 5.72455 12.0471 5.52113 12.1024 5.40638C12.038 5.30387 11.6457 5.15593 11.4321 5.07521C10.9292 4.88558 10.4093 4.68941 10.4141 4.23378C10.4188 3.78631 10.89 3.48369 11.3886 3.16328C11.64 3.0017 12.1081 2.70097 12.1018 2.5621C12.0936 2.38056 11.8313 1.98962 11.6205 1.67532C11.3038 1.2036 10.9766 0.715768 10.9766 0.299377C10.9766 0.144127 11.1026 0.0181274 11.2578 0.0181274C11.4131 0.0181274 11.5391 0.144127 11.5391 0.299377C11.5391 0.544276 11.8432 0.997862 12.0877 1.36208C12.3884 1.81053 12.6484 2.19781 12.6638 2.53686C12.6847 2.99903 12.1803 3.32324 11.6926 3.63655C11.4489 3.79335 10.9998 4.08205 10.9773 4.22956C11.0419 4.32723 11.4233 4.47123 11.6307 4.54928C12.1023 4.72724 12.5898 4.91117 12.6598 5.31378C12.7445 5.7988 12.2041 6.07267 11.6815 6.33732C11.4599 6.44954 10.9988 6.68312 10.9746 6.80279C11.01 6.90397 11.4304 7.11413 11.6564 7.22706C12.151 7.47399 12.6626 7.72937 12.6641 8.17339C12.666 8.63788 12.1078 8.76528 11.6156 8.87771C11.4189 8.92243 11.0598 9.00428 10.9725 9.08288C10.9933 9.2079 11.4881 9.5191 11.6791 9.63934C12.1856 9.95799 12.6642 10.2589 12.6642 10.7058C12.6641 10.8607 12.5382 10.9866 12.3828 10.9866Z" fill="#F4F4F4"/>
<path d="M15.05 10.9866C14.8948 10.9866 14.7687 10.8606 14.7687 10.7054C14.7687 10.5691 14.2809 10.2624 14.0466 10.1149C13.5311 9.79045 12.9978 9.4552 13.0857 8.96793C13.16 8.55632 13.6673 8.44059 14.1576 8.32879C14.346 8.28576 14.6488 8.21671 14.7558 8.14886C14.6761 8.0313 14.2881 7.83752 14.0721 7.7298C13.5576 7.47281 13.0257 7.2071 13.0832 6.73389C13.1335 6.32193 13.6003 6.08547 14.0943 5.83516C14.3129 5.72456 14.7142 5.52114 14.7695 5.40639C14.7052 5.30388 14.3127 5.15594 14.0991 5.07522C13.5963 4.88552 13.0764 4.68942 13.0811 4.23372C13.0858 3.78625 13.5569 3.48363 14.0557 3.16321C14.3072 3.00164 14.7752 2.70091 14.7689 2.56204C14.7607 2.3805 14.4984 1.98956 14.2877 1.67526C13.971 1.20353 13.6436 0.715707 13.6436 0.299316C13.6436 0.144066 13.7697 0.0180664 13.9249 0.0180664C14.0802 0.0180664 14.2061 0.144066 14.2061 0.299316C14.2061 0.544215 14.5102 0.9978 14.7546 1.36202C15.0557 1.81047 15.3155 2.19775 15.3309 2.5368C15.3517 2.99896 14.8475 3.32318 14.3596 3.63649C14.1159 3.79329 13.6668 4.08199 13.6446 4.2295C13.7092 4.32717 14.0905 4.47117 14.2977 4.54921C14.7694 4.72718 15.257 4.91111 15.327 5.31372C15.4114 5.79874 14.8712 6.07261 14.3487 6.33726C14.127 6.44948 13.6659 6.68306 13.6415 6.80273C13.6771 6.90391 14.0976 7.11407 14.3233 7.227C14.8181 7.47393 15.3294 7.72931 15.3311 8.17333C15.3327 8.63782 14.7749 8.76522 14.2824 8.87765C14.0859 8.92237 13.7267 9.00421 13.6393 9.08282C13.6602 9.20784 14.155 9.51904 14.3462 9.63928C14.8528 9.95793 15.3311 10.2589 15.3311 10.7058C15.3312 10.8607 15.2054 10.9866 15.05 10.9866Z" fill="#F4F4F4"/>
<path d="M17.7169 10.9866C17.5617 10.9866 17.4357 10.8606 17.4357 10.7054C17.4357 10.5691 16.9481 10.2624 16.7135 10.1149C16.198 9.79045 15.6649 9.4552 15.7528 8.96793C15.827 8.55632 16.3343 8.44059 16.8245 8.32879C17.0129 8.28576 17.3156 8.21671 17.423 8.14886C17.3435 8.0313 16.955 7.83752 16.7391 7.7298C16.2248 7.47281 15.6927 7.2071 15.7504 6.73389C15.8005 6.32193 16.2673 6.08547 16.7613 5.83516C16.98 5.72456 17.3812 5.52114 17.4364 5.40639C17.3722 5.30388 16.9797 5.15594 16.7663 5.07522C16.2634 4.88552 15.7434 4.68942 15.7482 4.23372C15.7531 3.78625 16.2242 3.48363 16.7228 3.16321C16.9743 3.00164 17.4422 2.70091 17.4359 2.56204C17.4277 2.3805 17.1654 1.98956 16.9547 1.67526C16.638 1.20353 16.3107 0.715707 16.3107 0.299316C16.3107 0.144066 16.4367 0.0180664 16.5919 0.0180664C16.7474 0.0180664 16.8732 0.144066 16.8732 0.299316C16.8732 0.544215 17.1775 0.9978 17.4219 1.36202C17.7227 1.81047 17.9825 2.19775 17.9979 2.5368C18.019 2.99896 17.5145 3.32318 17.0266 3.63649C16.7832 3.79329 16.3339 4.08199 16.3114 4.2295C16.376 4.32717 16.7576 4.47117 16.9648 4.54921C17.4364 4.72718 17.924 4.91111 17.994 5.31372C18.0786 5.79874 17.5381 6.07261 17.0157 6.33726C16.7941 6.44948 16.3329 6.68306 16.3087 6.80273C16.3441 6.90391 16.7646 7.11407 16.9904 7.227C17.4852 7.47393 17.9967 7.72931 17.9981 8.17333C18.0001 8.63782 17.4419 8.76522 16.9497 8.87765C16.7529 8.92237 16.3938 9.00421 16.3066 9.08282C16.3274 9.20784 16.8222 9.51904 17.0132 9.63928C17.5198 9.95793 17.9982 10.2589 17.9982 10.7058C17.9982 10.8607 17.8724 10.9866 17.7169 10.9866Z" fill="#F4F4F4"/>
</svg>
