<svg width="23" height="28" viewBox="0 0 23 28" fill="none" xmlns="http://www.w3.org/2000/svg">
<g clip-path="url(#clip0_5_5744)">
<path d="M16.5349 5.16001L18.0499 0.450012H16.5349L15.2449 5.31001L16.5349 5.16001Z" fill="#004459"/>
<path d="M2.56992 9.11997C2.47992 9.20997 2.32992 9.20997 2.25492 9.11997C0.37992 7.07997 0.42492 3.88497 2.41992 1.90497C4.41492 -0.0750337 7.59492 -0.135034 9.64992 1.73997C9.73992 1.82997 9.73992 1.96497 9.64992 2.05497L2.56992 9.11997Z" fill="#F9AF28"/>
<path d="M9.65001 2.07004L6.47001 5.23504L6.39501 5.32504H6.38001L5.82501 5.88004L5.75001 5.97004L2.58501 9.12004C2.49501 9.22504 2.34501 9.21004 2.25501 9.12004C2.04501 8.89504 1.85001 8.65504 1.70001 8.40004L5.01501 5.08504L5.03001 5.07004L5.57001 4.53004H5.58501L6.29001 3.81004L8.03001 2.07004C8.13501 1.98004 8.12001 1.84504 8.03001 1.75504C7.43001 1.18504 6.71001 0.795036 5.94501 0.585036C5.75001 0.525036 5.51001 0.480036 5.30001 0.450036C5.42001 0.435036 5.55501 0.405036 5.67501 0.405036C5.75001 0.405036 5.84001 0.390036 5.91501 0.390036C7.25001 0.330036 8.60001 0.795036 9.65001 1.75504C9.74001 1.83004 9.74001 1.98004 9.65001 2.07004Z" fill="#E5991F"/>
<path d="M5.58487 4.51501L5.02987 5.07001H5.01487L2.14987 2.20501C2.22487 2.10001 2.31487 1.99501 2.40487 1.92001C2.50987 1.81501 2.59987 1.72501 2.70487 1.63501L5.58487 4.51501Z" fill="#F2F2F2"/>
<path d="M6.37983 5.32497L5.82483 5.87997L5.01483 5.06997H5.04483L5.58483 4.52997H5.59983L6.34983 5.29497C6.34983 5.27997 6.36483 5.29497 6.37983 5.32497Z" fill="#E0DEE1"/>
<path d="M5.01491 5.08495L4.29491 5.80495L0.874908 5.41495C0.889908 5.14495 0.919908 4.88995 0.979908 4.63495L5.01491 5.08495Z" fill="#F2F2F2"/>
<path d="M6.39495 5.32495L5.74995 5.96995L4.29495 5.80495L5.01495 5.08495V5.06995H5.04495L5.65995 5.14495L6.15495 5.18995C6.22995 5.20495 6.28995 5.23495 6.34995 5.27995C6.34995 5.27995 6.36495 5.29495 6.39495 5.32495Z" fill="#E0DEE1"/>
<path d="M6.30486 3.79489L5.58486 4.51489L5.13486 0.47989C5.17986 0.44989 5.23986 0.44989 5.29986 0.44989C5.50986 0.49489 5.74986 0.52489 5.94486 0.58489L6.30486 3.79489Z" fill="#F2F2F2"/>
<path d="M5.94479 0.584954C5.74979 0.524954 5.50979 0.479954 5.29979 0.449954C5.41979 0.434954 5.55479 0.404954 5.67479 0.404954C5.74979 0.404954 5.83979 0.389954 5.91479 0.389954L5.94479 0.584954Z" fill="#F2F2F2"/>
<path d="M6.46988 5.23504L6.39488 5.32504H6.37988L5.82488 5.88004C5.76488 5.82004 5.71988 5.74504 5.70488 5.64004L5.65988 5.14504L5.58488 4.51504H5.59988L6.30488 3.79504L6.46988 5.23504Z" fill="#E0DEE1"/>
<path d="M2.41967 9.56979C2.40467 9.56979 2.40467 9.56979 2.41967 9.56979C2.23967 9.56979 2.08967 9.49479 1.98467 9.37479C-0.0403292 7.16979 0.0346709 3.76479 2.14967 1.64979C4.27967 -0.465207 7.68467 -0.540207 9.88967 1.48479C10.0097 1.58979 10.0847 1.75479 10.0847 1.90479C10.0847 2.06979 10.0247 2.21979 9.90467 2.33979L2.83967 9.38979C2.71967 9.50979 2.56967 9.56979 2.41967 9.56979ZM6.10967 0.749793C4.86467 0.749793 3.61967 1.22979 2.67467 2.17479C0.874671 3.97479 0.769671 6.83979 2.41967 8.74479L9.25967 1.91979C8.35967 1.13979 7.23467 0.749793 6.10967 0.749793Z" fill="#004459"/>
<path d="M17.1499 27.3301H10.4149C10.1899 27.3301 10.1299 27.0301 10.3249 26.9251L12.6499 25.7401C12.8449 25.6351 12.9649 25.4401 12.9649 25.2151V19.7551C12.9649 19.5451 13.0399 19.3651 13.1749 19.2301C13.3249 19.0501 13.5649 18.9451 13.8199 18.9601C14.2549 18.9751 14.5849 19.3351 14.5849 19.7851V25.2151C14.5849 25.4251 14.7049 25.6351 14.8999 25.7401L17.2249 26.9251C17.4349 27.0301 17.3749 27.3301 17.1499 27.3301Z" fill="#E0DEE1"/>
<path d="M16.3399 27.33H10.4149C10.1899 27.33 10.1299 27.03 10.3249 26.925L12.6499 25.74C12.8449 25.635 12.9649 25.44 12.9649 25.215V19.755C12.9649 19.545 13.0399 19.365 13.1749 19.23C13.4149 19.38 13.5649 19.65 13.5649 19.935V25.365C13.5649 25.59 13.6849 25.8 13.8949 25.89L16.2199 27.06C16.3399 27.135 16.3699 27.24 16.3399 27.33Z" fill="#F2F2F2"/>
<path d="M17.1498 27.705H10.4148C10.1448 27.705 9.90484 27.525 9.84484 27.255C9.78484 26.985 9.90484 26.715 10.1598 26.595L12.4848 25.425C12.5598 25.395 12.6048 25.32 12.6048 25.23V19.77C12.6048 19.455 12.7398 19.14 12.9648 18.915C13.2048 18.69 13.5198 18.6 13.8348 18.585C14.4648 18.615 14.9598 19.14 14.9598 19.785V25.215C14.9598 25.29 15.0048 25.365 15.0798 25.41L17.4048 26.58C17.6448 26.7 17.7798 26.97 17.7198 27.24C17.6598 27.525 17.4198 27.705 17.1498 27.705ZM11.1048 26.955H16.4748L14.7498 26.085C14.4198 25.92 14.2248 25.59 14.2248 25.23V19.8C14.2248 19.56 14.0448 19.365 13.8198 19.35C13.6848 19.32 13.5948 19.38 13.5048 19.47C13.4148 19.545 13.3698 19.665 13.3698 19.785V25.245C13.3698 25.605 13.1598 25.935 12.8448 26.1L11.1048 26.955Z" fill="#004459"/>
<path d="M21.6649 6.37503L22.0249 5.68503C22.1599 5.43003 22.0249 5.16003 21.7399 5.16003H5.62994C5.34494 5.16003 5.20994 5.43003 5.34494 5.68503L5.85494 6.63003C7.18994 9.12003 7.38494 11.52 6.67994 13.41C6.39494 14.19 6.31994 15.03 6.49994 15.855C7.09994 18.63 10.3249 20.565 13.7749 20.565C17.2249 20.565 20.4499 18.63 21.0499 15.855C21.2299 15 21.1549 14.145 20.8399 13.335C20.1049 11.415 20.2849 8.95503 21.6649 6.37503Z" fill="#F2F2F2"/>
<path d="M15.2748 5.16003L12.5748 16.455C12.5298 16.635 12.6948 16.815 12.9348 16.86C12.9648 16.86 12.9948 16.86 13.0248 16.86C13.2348 16.86 13.4148 16.755 13.4598 16.59L16.5198 5.16003H15.2748Z" fill="#004459"/>
<path d="M20.855 13.35C20.105 11.415 20.3 8.95503 21.665 6.37503L22.025 5.68503C22.16 5.43003 22.025 5.16003 21.74 5.16003H19.28C19.565 5.16003 19.715 5.43003 19.595 5.68503L19.265 6.37503C18.035 8.94003 17.975 11.415 18.83 13.35C19.19 14.145 19.31 15 19.175 15.87C18.755 18.435 16.055 20.28 12.965 20.535C13.235 20.55 13.49 20.565 13.76 20.565C17.21 20.565 20.435 18.63 21.035 15.855C21.245 15.015 21.17 14.16 20.855 13.35Z" fill="#E0DEE1"/>
<path d="M13.7749 20.94C10.0399 20.94 6.7549 18.795 6.1399 15.945C5.9449 15.045 6.0049 14.145 6.3349 13.29C7.0399 11.4 6.7549 9.10497 5.5249 6.82497L5.0149 5.86497C4.8799 5.60997 4.8799 5.33997 5.0149 5.11497C5.1499 4.91997 5.3749 4.78497 5.6299 4.78497H21.7399C21.9949 4.78497 22.2199 4.90497 22.3549 5.11497C22.4899 5.33997 22.4899 5.60997 22.3549 5.86497L21.9949 6.55497C20.7349 8.92497 20.4499 11.295 21.1999 13.215C21.5449 14.1 21.6199 15.03 21.4249 15.945C20.8099 18.795 17.5249 20.94 13.7749 20.94ZM21.6949 5.51997L5.6299 5.53497L6.1849 6.46497C7.5199 8.95497 7.8199 11.46 7.0399 13.545C6.7699 14.28 6.7099 15.03 6.8749 15.78C7.4149 18.285 10.3849 20.19 13.7749 20.19C17.1649 20.19 20.1349 18.3 20.6749 15.78C20.8399 15 20.7799 14.235 20.4799 13.485C19.6399 11.355 19.9399 8.75997 21.3199 6.19497L21.6949 5.51997Z" fill="#004459"/>
<path d="M18.2748 9.94504C18.2898 9.78004 18.1548 9.63004 17.9598 9.63004C17.5398 9.61504 17.0898 9.61504 16.6098 9.67504C14.7798 9.90004 14.0598 10.62 12.5448 10.935C11.8248 11.085 10.8798 11.16 9.63483 10.935C9.42483 10.89 9.24483 11.01 9.22983 11.19C9.19983 12.225 8.98983 13.2 8.59983 14.085C8.34483 14.67 8.26983 15.27 8.37483 15.87C8.71983 17.97 11.1198 19.485 13.7898 19.485C16.4598 19.485 18.8598 17.97 19.2048 15.87C19.3098 15.255 19.2198 14.64 18.9498 14.04C18.3948 12.825 18.1548 11.445 18.2748 9.94504Z" fill="#F9AF28"/>
<path d="M18.9349 14.04C18.3799 12.825 18.1549 11.445 18.2749 9.94504C18.2899 9.78004 18.1549 9.63004 17.9599 9.63004C17.5399 9.61504 17.0899 9.61504 16.6099 9.67504C16.3999 9.70504 16.2049 9.73504 16.0249 9.76504C16.0549 9.81004 16.0849 9.87004 16.0849 9.94504C16.0549 11.445 16.3549 12.825 16.9699 14.04C17.2699 14.64 17.3899 15.255 17.3149 15.87C17.1199 17.76 15.2149 19.17 12.9349 19.44C13.2049 19.47 13.4899 19.485 13.7749 19.485C16.4299 19.485 18.8449 17.97 19.1899 15.87C19.2949 15.255 19.2049 14.64 18.9349 14.04Z" fill="#E5991F"/>
<path d="M13.9999 10.455L12.5599 16.455C12.5149 16.635 12.6799 16.815 12.9199 16.86C12.9499 16.86 12.9799 16.86 13.0099 16.86C13.2199 16.86 13.3999 16.755 13.4449 16.59L15.2149 9.97504C14.7949 10.125 14.4049 10.29 13.9999 10.455Z" fill="#01333F"/>
<path d="M8.92982 12.015C8.91482 12.015 8.88482 12.015 8.86982 12C8.77982 11.985 8.71982 11.88 8.74982 11.775C9.54482 9.3 7.77482 6.51 7.74482 6.48C7.69982 6.39 7.71482 6.27 7.80482 6.21C7.89482 6.165 8.01482 6.18 8.05982 6.27C8.14982 6.39 9.94982 9.24 9.10982 11.895C9.07982 11.97 9.00482 12.015 8.92982 12.015Z" fill="#F2F2F2"/>
<path d="M7.90985 14.97C7.86485 14.97 7.81985 14.955 7.77485 14.91C7.69985 14.835 7.69985 14.715 7.77485 14.64C8.38985 14.025 8.50985 12.855 8.50985 12.84C8.50985 12.75 8.59985 12.66 8.70485 12.675C8.80985 12.69 8.88485 12.78 8.86985 12.885C8.86985 12.945 8.73485 14.205 8.02985 14.91C7.99985 14.955 7.95485 14.97 7.90985 14.97Z" fill="#F2F2F2"/>
</g>
<defs>
<clipPath id="clip0_5_5744">
<rect width="21.96" height="27.705" fill="white" transform="translate(0.499954 6.10352e-05)"/>
</clipPath>
</defs>
</svg>
