<svg width="34" height="34" viewBox="0 0 34 34" fill="none" xmlns="http://www.w3.org/2000/svg">
<path d="M9.12492 22.0625L16.1528 5.61613C16.9162 4.13175 18.0739 2.88645 19.4988 2.01699C20.9236 1.14752 22.5605 0.687523 24.2297 0.6875C26.6386 0.6875 28.9488 1.64442 30.6522 3.34776C32.3555 5.05109 33.3124 7.36131 33.3124 9.77019V9.98337C33.3128 11.5997 32.8818 13.1868 32.0641 14.5811C31.2464 15.9753 30.0714 17.126 28.6605 17.9146L11.9374 24.875L9.12492 22.0625Z" fill="#FCAC2B"/>
<path d="M11.9374 24.875L9.12489 22.0625L4.22045 26.9669C3.93057 26.7648 3.59716 26.6338 3.24721 26.5845C2.89727 26.5352 2.54063 26.569 2.2062 26.6833C1.87177 26.7975 1.56895 26.9889 1.32227 27.242C1.07559 27.495 0.891989 27.8026 0.786339 28.1399C0.68069 28.4771 0.655963 28.8345 0.714163 29.183C0.772363 29.5316 0.911853 29.8616 1.12133 30.1462C1.33081 30.4308 1.60439 30.6621 1.9199 30.8213C2.23541 30.9805 2.58399 31.0631 2.93739 31.0625C2.93677 31.4159 3.0194 31.7645 3.17859 32.08C3.33779 32.3955 3.56906 32.6691 3.85368 32.8786C4.1383 33.088 4.46826 33.2275 4.81684 33.2857C5.16541 33.3439 5.52279 33.3192 5.86003 33.2135C6.19727 33.1079 6.50487 32.9243 6.75793 32.6776C7.01099 32.4309 7.20239 32.1281 7.31661 31.7937C7.43084 31.4593 7.46468 31.1026 7.4154 30.7527C7.36611 30.4027 7.23509 30.0693 7.03295 29.7794L11.9374 24.875Z" fill="#E5E5E5"/>
<path d="M22.6249 10.25C23.3449 2.32772 20.3749 1.81247 20.3749 1.81247L20.0779 1.69379C18.3921 2.55933 17.0195 3.9309 16.1528 5.6161L9.12492 22.0625L11.9374 24.875L25.4408 19.2528L25.4374 19.25C25.4374 19.25 22.0624 16.4375 22.6249 10.25Z" fill="#A3603E"/>
<path d="M22.8302 14.2797C23.5446 17.6716 25.4374 19.25 25.4374 19.25L25.4408 19.2528L11.9374 24.875L28.6605 17.9123C30.0711 17.1239 31.2458 15.9735 32.0635 14.5797C32.8813 13.186 33.3124 11.5993 33.3124 9.98333V9.77014C33.3125 7.84799 32.6992 5.97596 31.5619 4.42639C29.6258 8.19008 26.3937 11.4976 22.8302 14.2797Z" fill="#FA962A"/>
<path d="M25.4373 19.25C25.4373 19.25 23.5445 17.6716 22.8302 14.2797C18.6526 17.4434 14.1379 20.1352 9.36841 22.306L11.9373 24.875L25.4407 19.2528L25.4373 19.25Z" fill="#8F5436"/>
<path d="M27.6874 10.8125C28.9301 10.8125 29.9374 9.80514 29.9374 8.5625C29.9374 7.31986 28.9301 6.3125 27.6874 6.3125C26.4448 6.3125 25.4374 7.31986 25.4374 8.5625C25.4374 9.80514 26.4448 10.8125 27.6874 10.8125Z" fill="#E5E5E5"/>
</svg>
