<svg width="22" height="18" viewBox="0 0 22 18" fill="none" xmlns="http://www.w3.org/2000/svg">
<path d="M21.5959 7.55927V12.4073C21.5923 12.8611 21.4545 13.3036 21.1999 13.6793C20.0359 15.5033 16.4239 16.8833 11.9959 17.0873C11.6726 17.1134 11.3481 17.1214 11.0239 17.1113C10.9519 17.1113 10.8799 17.1233 10.8199 17.1233C10.7357 17.1256 10.6515 17.1215 10.5679 17.1113C5.73188 17.0633 1.69988 15.6233 0.451878 13.6793C0.25867 13.3751 0.13948 13.0299 0.103878 12.6713H0.0558777V7.69127L21.5959 7.55927Z" fill="#964A17"/>
<path d="M19.7959 7.61926V12.4673C19.7923 12.9211 19.6545 13.3636 19.3999 13.7393C18.3079 15.4553 15.0679 16.7753 11.0239 17.1113C10.9519 17.1113 10.8799 17.1233 10.8199 17.1233C10.7357 17.1256 10.6515 17.1215 10.5679 17.1113C5.73188 17.0633 1.69988 15.6233 0.451878 13.6793C0.25867 13.3751 0.13948 13.0298 0.103878 12.6713H0.0558777V7.73926L19.7959 7.61926Z" fill="#AB5A1D"/>
<path d="M12.0008 11.157V17.0932C11.6162 17.1113 11.227 17.1203 10.8289 17.1203C10.7384 17.1203 10.6524 17.1203 10.5619 17.1158V11.157H12.0008Z" fill="#ED9C54"/>
<path d="M21.5959 7.69124C21.5923 8.14503 21.4545 8.58762 21.1999 8.96324C20.463 9.93474 19.4576 10.669 18.3079 11.0752C15.9268 12.0033 13.387 12.4558 10.8319 12.4072C5.88788 12.4072 1.72388 10.9432 0.451878 8.96324C0.202478 8.58511 0.0651872 8.14412 0.0558777 7.69124C0.112081 7.14685 0.302711 6.62497 0.610624 6.17253C0.918538 5.72008 1.33408 5.35126 1.81988 5.09924C4.57145 3.57503 7.68892 2.83614 10.8319 2.96324C16.7839 2.96324 21.5959 5.07525 21.5959 7.69124Z" fill="#ED9C54"/>
<path d="M20.0839 8.48317C20.0803 8.93696 19.9425 9.37955 19.6879 9.75517C19.326 10.2875 18.8557 10.7373 18.3079 11.0752C15.9268 12.0032 13.387 12.4557 10.8319 12.4072C5.88788 12.4072 1.72388 10.9432 0.451878 8.96317C0.202478 8.58504 0.0651872 8.14405 0.0558777 7.69117C0.112081 7.14679 0.302711 6.6249 0.610624 6.17246C0.918538 5.72002 1.33408 5.3512 1.81988 5.09917C4.20937 4.1713 6.75701 3.71884 9.31988 3.76717C15.2599 3.76719 20.0839 5.86719 20.0839 8.48317Z" fill="#FFB366"/>
<path d="M19.5079 5.78326C19.5079 5.78484 19.5077 5.78642 19.5071 5.78789C19.5065 5.78936 19.5056 5.7907 19.5045 5.79182C19.5033 5.79294 19.502 5.79382 19.5005 5.79441C19.4991 5.795 19.4975 5.79529 19.4959 5.79526V5.85526C19.4787 6.19723 19.3711 6.52851 19.1839 6.81526C18.2602 7.92459 16.9863 8.68641 15.5719 8.97532H15.5599C14.0188 9.39222 12.4283 9.59807 10.8319 9.58726C6.84791 9.58726 3.49991 8.41126 2.47991 6.81526C2.27246 6.51076 2.15973 6.15169 2.15591 5.78326V3.91126H2.71991L3.30797 3.89926C3.75942 3.56972 4.24647 3.29197 4.75997 3.07126C6.69372 2.31709 8.75678 1.95014 10.832 1.99126C13.4191 1.87017 15.9861 2.49942 18.224 3.80326H19.496V5.77126L19.5079 5.78326Z" fill="#964A17"/>
<path d="M18.1999 4.25931V6.32331H18.1879C18.1725 6.66188 18.0646 6.98974 17.8759 7.27131C17.2851 8.04641 16.486 8.63742 15.5719 8.97531H15.5599C14.0188 9.39221 12.4283 9.59807 10.8319 9.58725C6.84792 9.58725 3.49991 8.41125 2.47991 6.81525C2.27246 6.51075 2.15973 6.15168 2.15591 5.78325V4.25925C2.33031 4.12252 2.51949 4.00579 2.71991 3.91125C3.36356 3.55002 4.04853 3.26798 4.75991 3.07125C6.31133 2.64351 7.91467 2.4335 9.52391 2.44725C12.1123 2.32941 14.6795 2.96287 16.9159 4.27125L18.1999 4.25931Z" fill="#AB5A1D"/>
<path d="M19.5032 3.90623C19.498 4.2718 19.3871 4.62805 19.1837 4.93189C18.1613 6.52597 14.812 7.70605 10.8289 7.70605C6.84585 7.70605 3.49652 6.52597 2.47411 4.93189C2.27078 4.62804 2.15981 4.2718 2.15463 3.90623C2.15463 1.80555 6.03648 0.106445 10.8289 0.106445C15.6213 0.106445 19.5032 1.80555 19.5032 3.90623Z" fill="#FFB366"/>
<path d="M18.1995 3.92674C18.1932 4.19998 18.0979 4.46369 17.928 4.67783C17.0593 5.84516 14.2134 6.70934 10.829 6.70934C7.44461 6.70934 4.59872 5.84516 3.72999 4.67783C3.56017 4.46368 3.46485 4.19997 3.45853 3.92674C3.45853 2.38841 6.75691 1.14417 10.829 1.14417C14.9011 1.14417 18.1995 2.38841 18.1995 3.92674Z" fill="#AB5A1D"/>
<path d="M17.9239 4.67929C17.0113 5.57648 15.8323 6.15337 14.5639 6.32329C13.3371 6.58405 12.086 6.71278 10.8319 6.70729C7.44787 6.70729 4.60387 5.84329 3.72787 4.67929C4.20336 4.12649 4.82202 3.71544 5.51587 3.49129C7.22261 2.89146 9.02317 2.60289 10.8319 2.63929C14.2158 2.63928 17.0718 3.50331 17.9239 4.67929Z" fill="#ED9C54"/>
<path d="M16.3519 5.13522C15.8763 5.68799 15.2577 6.09903 14.5639 6.32322C13.3371 6.58398 12.086 6.71272 10.8319 6.70722C7.44787 6.70722 4.60387 5.84322 3.72787 4.67922C4.20336 4.12642 4.82202 3.71537 5.51587 3.49122C6.74261 3.23046 7.99374 3.10173 9.24787 3.10722C12.6438 3.10722 15.4878 3.95925 16.3519 5.13522Z" fill="#FFB366"/>
<path d="M10.8228 4.76519C10.4733 4.79516 10.1217 4.74285 9.79618 4.61244C9.47062 4.48203 9.18015 4.27716 8.94804 4.01424C8.79196 3.8135 8.70373 3.56834 8.69607 3.31418C8.68841 3.06001 8.76174 2.80999 8.90546 2.60022C9.13513 2.31558 9.42801 2.08842 9.76084 1.93679C10.0937 1.78517 10.4573 1.71325 10.8228 1.72676C11.3673 1.7234 11.8999 1.88697 12.3487 2.19545C12.5039 2.30484 12.6376 2.44209 12.7428 2.60022C13.3339 3.49757 12.6708 4.76519 10.8228 4.76519Z" fill="#FCEDC0"/>
<path d="M10.4846 4.43765C9.94054 4.46225 9.40268 4.31403 8.94804 4.01424C8.79196 3.8135 8.70373 3.56834 8.69607 3.31418C8.68841 3.06001 8.76174 2.80999 8.90546 2.60022C9.13513 2.31558 9.42801 2.08842 9.76084 1.93679C10.0937 1.78517 10.4573 1.71325 10.8228 1.72676C11.3673 1.7234 11.8999 1.88697 12.3487 2.19545C12.3679 2.2192 12.3857 2.2441 12.4019 2.27002C12.9931 3.16742 12.33 4.43765 10.4846 4.43765Z" fill="#FFFAE8"/>
<path d="M10.8238 2.5631C10.7523 2.56862 10.6812 2.5485 10.6231 2.50637C10.5651 2.46423 10.524 2.40281 10.5071 2.33312L10.3954 1.4233C10.3843 1.35958 10.387 1.29423 10.4032 1.23162C10.4194 1.16901 10.4487 1.11055 10.4892 1.06015C10.5298 1.00975 10.5806 0.968557 10.6382 0.939306C10.6959 0.910054 10.7592 0.893418 10.8238 0.890503C10.8884 0.89342 10.9516 0.910058 11.0093 0.93931C11.067 0.968562 11.1178 1.00976 11.1583 1.06016C11.1988 1.11056 11.2281 1.16901 11.2443 1.23162C11.2605 1.29424 11.2632 1.35958 11.2522 1.4233L11.1404 2.33312C11.1235 2.40281 11.0824 2.46421 11.0244 2.50635C10.9664 2.54849 10.8953 2.5686 10.8238 2.5631Z" fill="#FFFAE8"/>
<path d="M10.3399 2.53245C10.2725 2.5576 10.1985 2.55837 10.1306 2.53464C10.0627 2.5109 10.0053 2.46416 9.9683 2.40252L9.57974 1.56877C9.5494 1.51221 9.53133 1.44988 9.52672 1.38586C9.52211 1.32184 9.53106 1.25757 9.553 1.19724C9.57493 1.13692 9.60934 1.0819 9.65399 1.03579C9.69864 0.989675 9.75252 0.953503 9.8121 0.929638C9.87475 0.912375 9.94036 0.908664 10.0046 0.91875C10.0688 0.928837 10.1301 0.95249 10.1844 0.988134C10.2387 1.02378 10.2849 1.07059 10.3197 1.12546C10.3545 1.18033 10.3772 1.24199 10.3864 1.30633L10.5695 2.21879C10.5761 2.29008 10.5564 2.36133 10.5141 2.41911C10.4718 2.47688 10.4099 2.5172 10.3399 2.53245Z" fill="#FFFAE8"/>
<path d="M11.3075 2.53245C11.3748 2.5576 11.4489 2.55837 11.5167 2.53464C11.5846 2.5109 11.642 2.46416 11.6791 2.40252L12.0676 1.56877C12.098 1.51221 12.116 1.44988 12.1206 1.38586C12.1253 1.32184 12.1163 1.25756 12.0944 1.19724C12.0724 1.13692 12.038 1.0819 11.9934 1.03579C11.9487 0.989673 11.8948 0.953502 11.8353 0.929638C11.7726 0.912375 11.707 0.908664 11.6428 0.91875C11.5786 0.928837 11.5173 0.95249 11.463 0.988134C11.4086 1.02378 11.3625 1.07059 11.3277 1.12546C11.2929 1.18033 11.2701 1.24199 11.261 1.30633L11.0779 2.21879C11.0713 2.29008 11.091 2.36133 11.1333 2.41911C11.1755 2.47688 11.2375 2.5172 11.3075 2.53245Z" fill="#FFFAE8"/>
<path d="M6.56555 5.8436C6.21613 5.87357 5.86454 5.82126 5.53899 5.69085C5.21343 5.56044 4.92295 5.35556 4.69085 5.09265C4.53477 4.89191 4.44653 4.64675 4.43887 4.39259C4.43121 4.13842 4.50453 3.8884 4.64824 3.67863C4.87791 3.39399 5.1708 3.16684 5.50363 3.01522C5.83646 2.8636 6.20006 2.79168 6.56555 2.80519C7.11012 2.80183 7.64265 2.9654 8.09144 3.27388C8.2467 3.38327 8.38033 3.52052 8.48554 3.67865C9.07671 4.57601 8.41364 5.8436 6.56555 5.8436Z" fill="#FCEDC0"/>
<path d="M6.22738 5.516C5.68335 5.5406 5.14549 5.39238 4.69085 5.09258C4.53477 4.89184 4.44653 4.64668 4.43887 4.39252C4.43121 4.13835 4.50453 3.88833 4.64824 3.67856C4.87792 3.39393 5.17081 3.1668 5.50364 3.01519C5.83647 2.86358 6.20007 2.79168 6.56555 2.8052C7.11012 2.80183 7.64265 2.9654 8.09144 3.27388C8.11068 3.29764 8.12846 3.32254 8.14468 3.34845C8.73586 4.24581 8.07279 5.516 6.22738 5.516Z" fill="#FFFAE8"/>
<path d="M6.56658 3.64139C6.49509 3.64691 6.42396 3.6268 6.36594 3.58466C6.30792 3.54253 6.26679 3.48112 6.24991 3.41143L6.13817 2.50155C6.12714 2.43782 6.12981 2.37248 6.146 2.30987C6.16218 2.24725 6.19152 2.1888 6.23204 2.1384C6.27257 2.088 6.32336 2.0468 6.38104 2.01755C6.43872 1.9883 6.50196 1.97167 6.56657 1.96875C6.63118 1.97167 6.69442 1.9883 6.7521 2.01755C6.80978 2.0468 6.86057 2.088 6.9011 2.1384C6.94162 2.1888 6.97095 2.24725 6.98714 2.30987C7.00332 2.37248 7.00599 2.43782 6.99497 2.50155L6.88321 3.41138C6.86635 3.48107 6.82523 3.54249 6.76721 3.58464C6.7092 3.62678 6.63808 3.6469 6.56658 3.64139Z" fill="#FFFAE8"/>
<path d="M6.08288 3.61082C6.01551 3.63597 5.94147 3.63675 5.8736 3.61301C5.80572 3.58928 5.7483 3.54253 5.71129 3.48089L5.32273 2.64714C5.29238 2.59058 5.27431 2.52825 5.2697 2.46423C5.26509 2.40021 5.27405 2.33594 5.29598 2.27561C5.31791 2.21529 5.35232 2.16027 5.39697 2.11416C5.44162 2.06804 5.4955 2.03187 5.55508 2.00801C5.61773 1.99074 5.68334 1.98703 5.74754 1.99712C5.81174 2.00721 5.87305 2.03086 5.92739 2.0665C5.98173 2.10215 6.02784 2.14896 6.06267 2.20383C6.09749 2.2587 6.12022 2.32036 6.12934 2.3847L6.31246 3.29717C6.31907 3.36846 6.29937 3.43971 6.25708 3.49748C6.21479 3.55526 6.15283 3.59557 6.08288 3.61082Z" fill="#FFFAE8"/>
<path d="M7.05026 3.61082C7.11763 3.63597 7.19167 3.63675 7.25954 3.61301C7.32742 3.58928 7.38484 3.54253 7.42186 3.48089L7.81042 2.64714C7.84076 2.59058 7.85883 2.52825 7.86344 2.46423C7.86805 2.40021 7.8591 2.33594 7.83717 2.27561C7.81523 2.21529 7.78082 2.16027 7.73617 2.11416C7.69152 2.06804 7.63764 2.03187 7.57806 2.00801C7.51541 1.99074 7.4498 1.98703 7.3856 1.99712C7.3214 2.00721 7.26009 2.03086 7.20575 2.0665C7.15142 2.10215 7.1053 2.14896 7.07047 2.20383C7.03565 2.2587 7.01292 2.32036 7.0038 2.3847L6.82068 3.29717C6.81407 3.36846 6.83377 3.43971 6.87606 3.49748C6.91835 3.55526 6.98031 3.59557 7.05026 3.61082Z" fill="#FFFAE8"/>
<path d="M15.08 5.84359C14.7305 5.87357 14.379 5.82126 14.0534 5.69085C13.7278 5.56044 13.4374 5.35556 13.2053 5.09265C13.0492 4.89191 12.9609 4.64675 12.9533 4.39259C12.9456 4.13842 13.0189 3.8884 13.1626 3.67863C13.3923 3.39399 13.6852 3.16685 14.018 3.01523C14.3509 2.8636 14.7145 2.79169 15.08 2.80519C15.6245 2.80183 16.1571 2.9654 16.6058 3.27388C16.7611 3.38328 16.8947 3.52052 17 3.67865C17.5911 4.57601 16.9281 5.84359 15.08 5.84359Z" fill="#FCEDC0"/>
<path d="M14.7418 5.516C14.1978 5.54059 13.6599 5.39238 13.2053 5.09258C13.0492 4.89184 12.9609 4.64668 12.9533 4.39252C12.9456 4.13835 13.0189 3.88833 13.1626 3.67856C13.3923 3.39394 13.6852 3.1668 14.0181 3.01519C14.3509 2.86359 14.7145 2.79168 15.08 2.80519C15.6245 2.80183 16.1571 2.9654 16.6058 3.27388C16.6251 3.29764 16.6429 3.32254 16.6591 3.34845C17.2503 4.24581 16.5872 5.516 14.7418 5.516Z" fill="#FFFAE8"/>
<path d="M15.0808 3.6414C15.0093 3.64691 14.9382 3.6268 14.8802 3.58467C14.8221 3.54253 14.781 3.48112 14.7641 3.41143L14.6524 2.50155C14.6414 2.43782 14.644 2.37248 14.6602 2.30987C14.6764 2.24725 14.7057 2.1888 14.7463 2.1384C14.7868 2.088 14.8376 2.0468 14.8953 2.01755C14.9529 1.9883 15.0162 1.97167 15.0808 1.96875C15.1454 1.97167 15.2086 1.9883 15.2663 2.01756C15.324 2.04681 15.3748 2.088 15.4153 2.1384C15.4558 2.1888 15.4852 2.24726 15.5014 2.30987C15.5175 2.37248 15.5202 2.43782 15.5092 2.50155L15.3974 3.41138C15.3806 3.48107 15.3394 3.54249 15.2814 3.58463C15.2234 3.62678 15.1523 3.6469 15.0808 3.6414Z" fill="#FFFAE8"/>
<path d="M14.5971 3.61082C14.5297 3.63597 14.4557 3.63675 14.3878 3.61301C14.3199 3.58928 14.2625 3.54253 14.2255 3.48089L13.8369 2.64714C13.8066 2.59058 13.7885 2.52825 13.7839 2.46423C13.7793 2.40021 13.7883 2.33594 13.8102 2.27561C13.8321 2.21529 13.8665 2.16027 13.9112 2.11416C13.9558 2.06804 14.0097 2.03187 14.0693 2.00801C14.132 1.99074 14.1976 1.98703 14.2618 1.99712C14.326 2.00721 14.3873 2.03086 14.4416 2.0665C14.4959 2.10215 14.5421 2.14896 14.5769 2.20383C14.6117 2.2587 14.6344 2.32036 14.6436 2.3847L14.8267 3.29717C14.8333 3.36846 14.8136 3.43971 14.7713 3.49748C14.729 3.55526 14.6671 3.59557 14.5971 3.61082Z" fill="#FFFAE8"/>
<path d="M15.5645 3.61082C15.6318 3.63597 15.7059 3.63675 15.7738 3.61301C15.8416 3.58928 15.8991 3.54253 15.9361 3.48089L16.3246 2.64714C16.355 2.59058 16.3731 2.52825 16.3777 2.46423C16.3823 2.40021 16.3733 2.33593 16.3514 2.27561C16.3295 2.21528 16.295 2.16027 16.2504 2.11415C16.2057 2.06804 16.1519 2.03187 16.0923 2.00801C16.0296 1.99074 15.964 1.98703 15.8998 1.99712C15.8356 2.00721 15.7743 2.03086 15.72 2.0665C15.6656 2.10215 15.6195 2.14896 15.5847 2.20383C15.5499 2.2587 15.5271 2.32036 15.518 2.3847L15.3349 3.29717C15.3283 3.36846 15.348 3.43971 15.3903 3.49748C15.4326 3.55525 15.4945 3.59557 15.5645 3.61082Z" fill="#FFFAE8"/>
</svg>
