<svg width="23" height="29" viewBox="0 0 23 29" fill="none" xmlns="http://www.w3.org/2000/svg">
<path d="M20.4012 4.44531H2.40123L4.21248 26.3828H18.59L20.4012 4.44531Z" fill="#F4F4F4"/>
<path d="M4.65123 26.3828C4.65123 26.3828 4.77498 28.6328 5.49498 28.6328H17.3075C18.0275 28.6328 18.1512 26.3828 18.1512 26.3828H4.65123Z" fill="#D8D8D8"/>
<path d="M19.8387 2.75781H2.96373C2.96373 2.75781 3.52623 0.507812 4.08873 0.507812H18.7137C19.2762 0.507812 19.8387 2.75781 19.8387 2.75781Z" fill="#4B5A64"/>
<path d="M22.0731 4.44531H0.713593C0.713593 4.44531 0.714436 2.75781 1.27609 2.75781H21.6518C22.2135 2.75781 22.0731 4.44531 22.0731 4.44531Z" fill="#4B5A64"/>
<path d="M6.61998 4.44531L7.74498 26.3828H15.0575L16.1825 4.44531H6.61998Z" fill="white"/>
<path d="M15.9012 2.75781H6.90123L6.61998 4.44531H16.1825L15.9012 2.75781Z" fill="#59666F"/>
<path d="M16.4637 2.75781H17.0262L17.3075 4.44531H16.745L16.4637 2.75781Z" fill="#59666F"/>
<path d="M16.745 4.44531H17.3075L15.9012 26.3828H15.3387L16.745 4.44531Z" fill="white"/>
<path d="M20.3548 5.00781L20.4012 4.44531H2.40123L2.44764 5.00781H20.3548Z" fill="#BEBEBE"/>
<path d="M19.2169 18.7891L19.9135 10.3516H2.88889L3.58554 18.7891H19.2169Z" fill="#F1BC3A"/>
<path d="M15.8254 18.7891H16.3879L16.9288 10.3516H16.3663L15.8254 18.7891Z" fill="#F9C953"/>
<path d="M15.4467 18.7891L15.8795 10.3516H6.92279L7.35535 18.7891H15.4467Z" fill="#F9C953"/>
<path d="M6.90123 2.75781L7.18248 0.507812H15.62L15.9012 2.75781H6.90123Z" fill="#59666F"/>
<path d="M16.4637 2.75781H17.0262L16.745 0.507812H16.1825L16.4637 2.75781Z" fill="#59666F"/>
<path d="M18.0949 26.9453C18.1376 26.6229 18.151 26.3828 18.151 26.3828H4.65096C4.65096 26.3828 4.66446 26.6229 4.70692 26.9453H18.0949Z" fill="#BEBEBE"/>
<path d="M11.4012 18.2266C13.4205 18.2266 15.0575 16.5896 15.0575 14.5703C15.0575 12.551 13.4205 10.9141 11.4012 10.9141C9.38194 10.9141 7.74498 12.551 7.74498 14.5703C7.74498 16.5896 9.38194 18.2266 11.4012 18.2266Z" fill="white"/>
<path d="M13.6511 14.5704C13.6511 13.114 13.0382 11.9158 11.6809 11.7723C11.6787 11.815 11.668 11.8578 11.6453 11.8974C11.6289 11.9267 10.6604 13.6634 11.5699 14.3455C12.6856 15.1821 11.9911 16.8355 11.7306 17.3606C13.0521 17.1927 13.6511 16.0087 13.6511 14.5704Z" fill="#966A4D"/>
<path d="M11.2325 14.7952C10.1169 13.9586 10.8113 12.3051 11.0719 11.7802C9.75029 11.9478 9.15123 13.1322 9.15123 14.5704C9.15123 16.0271 9.76414 17.2252 11.1215 17.3685C11.1238 17.3257 11.1345 17.2828 11.1571 17.2433C11.1669 17.226 12.145 15.4797 11.2325 14.7952Z" fill="#966A4D"/>
</svg>
