<svg width="29" height="22" viewBox="0 0 29 22" fill="none" xmlns="http://www.w3.org/2000/svg">
<path d="M20.5478 7.87438C23.217 7.87438 25.3818 7.02712 25.3818 5.98115H27.9038C27.9038 2.73201 24.6106 0.0970459 20.5478 0.0970459C16.4846 0.0970459 13.1915 2.73187 13.1915 5.98115H15.7138C15.7138 7.02712 17.8784 7.87438 20.5478 7.87438Z" fill="#F14315"/>
<path d="M18.8397 12.3607L17.3755 12.5087L16.1337 0.169981L17.598 0.0219727L18.8397 12.3607Z" fill="#EFB21A"/>
<path d="M24.9572 13.5497L23.491 13.4403L24.4012 1.073L25.8697 1.18093L24.9572 13.5497Z" fill="#F1BC3A"/>
<path d="M20.7537 13.3385L19.2868 13.2314L20.1976 0.861816L21.6656 0.971504L20.7537 13.3385Z" fill="#EFB21A"/>
<path d="M17.676 14.0446L16.2112 14.1791L15.0825 1.82924L16.5485 1.69592L17.676 14.0446Z" fill="#F1BC3A"/>
<path d="M24.2269 13.9696L22.8598 13.4268L27.4324 1.89972L28.7996 2.44169L24.2269 13.9696Z" fill="#F1BC3A"/>
<path d="M24.3998 14.4155L22.9397 14.6008L21.3889 2.29557L22.8479 2.11163L24.3998 14.4155Z" fill="#F1BC3A"/>
<path d="M20.6411 12.6435L22.1106 12.7068L22.6439 0.316089L21.1744 0.252845L20.6411 12.6435Z" fill="#FFD56C"/>
<path d="M15.2939 13.1379L13.8217 13.1287L13.8942 0.727783L15.3666 0.736924L15.2939 13.1379Z" fill="#FFD56C"/>
<path d="M23.4833 12.194L24.8279 11.5975L19.7994 0.262088L18.4549 0.858553L23.4833 12.194Z" fill="#F1BC3A"/>
<path d="M15.8451 13.7585L14.4556 13.2756L18.5284 1.56158L19.9177 2.04618L15.8451 13.7585Z" fill="#FFD56C"/>
<path d="M26.2027 13.1286L24.7507 12.8912L26.7581 0.653076L28.2107 0.891717L26.2027 13.1286Z" fill="#FFD56C"/>
<path d="M24.2351 12.9515L22.7637 12.9139L23.0708 0.517273L24.5419 0.552429L24.2351 12.9515Z" fill="#FFD56C"/>
<path d="M20.9688 14.2058L19.5073 14.3896L17.9564 2.08677L19.4156 1.90192L20.9688 14.2058Z" fill="#F1BC3A"/>
<path d="M19.7032 13.7584L18.2357 13.6513L19.147 1.28394L20.6144 1.39109L19.7032 13.7584Z" fill="#FFD56C"/>
<path d="M13.1916 5.98121L14.2428 20.2757C14.2428 20.7395 14.618 21.1156 15.0826 21.1156H15.9233L15.714 5.98114H13.1916V5.98121Z" fill="#F25E37"/>
<path d="M20.5478 7.87431C17.8784 7.87431 15.7138 7.02705 15.7138 5.98108L15.9231 21.1157C15.9231 20.651 17.9936 20.2757 20.5478 20.2757C23.1021 20.2757 25.1719 20.651 25.1719 21.1157L25.3818 5.98108C25.3818 7.02705 23.2171 7.87431 20.5478 7.87431Z" fill="#F97450"/>
<path d="M25.3817 5.9812L25.1719 21.1157H26.0129C26.4775 21.1157 26.8528 20.7395 26.8528 20.2758L27.9038 5.98127H25.3817V5.9812Z" fill="#F25E37"/>
<path d="M17.8158 13.9697C17.8158 15.0131 19.0386 15.8604 20.5479 15.8604C22.0571 15.8604 23.2798 15.0131 23.2798 13.9697C23.2798 12.9238 22.0571 12.0781 20.5479 12.0781C19.0386 12.0781 17.8158 12.9238 17.8158 13.9697Z" fill="#F25E37"/>
<path d="M0.871353 17.3748C0.871353 16.5049 0.871354 11.2719 7.95871 11.2719H13.078C20.1652 11.2719 20.1652 16.5049 20.1652 17.3748H0.871353Z" fill="#F9C953"/>
<path d="M20.1655 18.8515C20.1655 18.3957 19.8211 18.0205 19.378 17.9712V17.9653H1.75757C1.26813 17.9653 0.871353 18.3624 0.871353 18.8515C0.871353 19.3408 1.26806 19.7377 1.75757 19.7377H19.378V19.7319C19.8211 19.6825 20.1655 19.3075 20.1655 18.8515Z" fill="#F97450"/>
<path d="M7.36804 13.0434C7.36804 13.1527 7.28043 13.24 7.17117 13.24C7.06267 13.24 6.9745 13.1527 6.9745 13.0434C6.9745 12.9349 7.06281 12.8464 7.17117 12.8464C7.28043 12.8464 7.36804 12.935 7.36804 13.0434Z" fill="#FFD56C"/>
<path d="M7.56477 15.2096C7.56477 15.318 7.47716 15.4066 7.36803 15.4066C7.25961 15.4066 7.17116 15.3178 7.17116 15.2096C7.17116 15.1004 7.25961 15.0128 7.36803 15.0128C7.47716 15.0127 7.56477 15.1004 7.56477 15.2096Z" fill="#FFD56C"/>
<path d="M9.53421 13.6342C9.53421 13.7433 9.44547 13.8313 9.33733 13.8313C9.22793 13.8313 9.14046 13.7433 9.14046 13.6342C9.14046 13.5254 9.22793 13.4373 9.33733 13.4373C9.44547 13.4373 9.53421 13.5254 9.53421 13.6342Z" fill="#FFD56C"/>
<path d="M3.4311 14.2252C3.4311 14.3337 3.34279 14.422 3.23423 14.422C3.12503 14.422 3.037 14.3335 3.037 14.2252C3.037 14.1158 3.12503 14.0281 3.23423 14.0281C3.34279 14.0281 3.4311 14.1159 3.4311 14.2252Z" fill="#FFD56C"/>
<path d="M13.2747 14.4222C13.2747 14.5307 13.1865 14.6191 13.0781 14.6191C12.9686 14.6191 12.8806 14.5304 12.8806 14.4222C12.8806 14.3129 12.9686 14.2255 13.0781 14.2255C13.1865 14.2252 13.2747 14.3129 13.2747 14.4222Z" fill="#FFD56C"/>
<path d="M12.4866 16.7841C12.4866 16.893 12.399 16.981 12.2899 16.981C12.1815 16.981 12.093 16.893 12.093 16.7841C12.093 16.6759 12.1815 16.5873 12.2899 16.5873C12.399 16.5873 12.4866 16.6759 12.4866 16.7841Z" fill="#FFD56C"/>
<path d="M15.4402 14.6191C15.4402 14.7273 15.3514 14.8156 15.2435 14.8156C15.135 14.8156 15.0467 14.7272 15.0467 14.6191C15.0467 14.5098 15.135 14.4222 15.2435 14.4222C15.3514 14.4222 15.4402 14.5098 15.4402 14.6191Z" fill="#FFD56C"/>
<path d="M10.5183 15.9969C10.5183 16.1053 10.4296 16.1937 10.3216 16.1937C10.2131 16.1937 10.1248 16.1053 10.1248 15.9969C10.1248 15.8886 10.2131 15.8001 10.3216 15.8001C10.4296 15.8001 10.5183 15.8886 10.5183 15.9969Z" fill="#FFD56C"/>
<path d="M16.2273 13.2403C16.2273 13.3497 16.1395 13.4373 16.0307 13.4373C15.9222 13.4373 15.8339 13.3497 15.8339 13.2403C15.8339 13.1318 15.9223 13.0435 16.0307 13.0435C16.1395 13.0434 16.2273 13.1318 16.2273 13.2403Z" fill="#FFD56C"/>
<path d="M17.2117 15.8001C17.2117 15.9085 17.1241 15.9969 17.0149 15.9969C16.9064 15.9969 16.8183 15.9083 16.8183 15.8001C16.8183 15.6915 16.9066 15.6035 17.0149 15.6035C17.1241 15.6032 17.2117 15.6913 17.2117 15.8001Z" fill="#FFD56C"/>
<path d="M18.3937 13.8314C18.3937 13.9402 18.3051 14.0282 18.1966 14.0282C18.0874 14.0282 18 13.9402 18 13.8314C18 13.7223 18.0874 13.6342 18.1966 13.6342C18.3051 13.6342 18.3937 13.722 18.3937 13.8314Z" fill="#FFD56C"/>
<path d="M14.4561 16.1938C14.4561 16.3023 14.3673 16.3906 14.2592 16.3906C14.1498 16.3906 14.0623 16.3021 14.0623 16.1938C14.0623 16.0856 14.1498 15.9971 14.2592 15.9971C14.3673 15.997 14.4561 16.0854 14.4561 16.1938Z" fill="#FFD56C"/>
<path d="M18.9841 16.5873C18.9841 16.6959 18.8955 16.784 18.7874 16.784C18.6778 16.784 18.5906 16.6959 18.5906 16.5873C18.5906 16.479 18.6778 16.3905 18.7874 16.3905C18.8956 16.3905 18.9841 16.4791 18.9841 16.5873Z" fill="#FFD56C"/>
<path d="M4.80898 13.8314C4.80898 13.9402 4.72025 14.0282 4.61225 14.0282C4.50298 14.0282 4.41537 13.9402 4.41537 13.8314C4.41537 13.7223 4.50298 13.6342 4.61225 13.6342C4.72046 13.6342 4.80898 13.722 4.80898 13.8314Z" fill="#FFD56C"/>
<path d="M5.00605 15.9969C5.00605 16.1053 4.91732 16.1937 4.80918 16.1937C4.70005 16.1937 4.61244 16.1053 4.61244 15.9969C4.61244 15.8886 4.70005 15.8001 4.80918 15.8001C4.91732 15.8001 5.00605 15.8886 5.00605 15.9969Z" fill="#FFD56C"/>
<path d="M5.3997 12.4529C5.3997 12.5622 5.31104 12.6498 5.20297 12.6498C5.0942 12.6498 5.00616 12.5622 5.00616 12.4529C5.00616 12.3447 5.0942 12.2559 5.20297 12.2559C5.31104 12.256 5.3997 12.3447 5.3997 12.4529Z" fill="#FFD56C"/>
<path d="M2.05252 15.8001C2.05252 15.9085 1.96491 15.9969 1.85564 15.9969C1.74722 15.9969 1.65877 15.9083 1.65877 15.8001C1.65877 15.6915 1.74736 15.6035 1.85564 15.6035C1.96491 15.6032 2.05252 15.6913 2.05252 15.8001Z" fill="#FFD56C"/>
<path d="M10.7151 12.4529C10.7151 12.5622 10.6266 12.6498 10.5184 12.6498C10.4099 12.6498 10.3216 12.5622 10.3216 12.4529C10.3216 12.3447 10.4099 12.2559 10.5184 12.2559C10.6268 12.2559 10.7151 12.3447 10.7151 12.4529Z" fill="#FFD56C"/>
<path d="M10.912 14.6191C10.912 14.7273 10.8236 14.8156 10.7153 14.8156C10.607 14.8156 10.5184 14.7273 10.5184 14.6191C10.5184 14.5098 10.6069 14.4222 10.7152 14.4222C10.8234 14.4222 10.912 14.5098 10.912 14.6191Z" fill="#FFD56C"/>
<path d="M13.6686 13.0434C13.6686 13.1527 13.58 13.24 13.4719 13.24C13.3625 13.24 13.2747 13.1527 13.2747 13.0434C13.2747 12.9349 13.3625 12.8464 13.4719 12.8464C13.58 12.8464 13.6686 12.935 13.6686 13.0434Z" fill="#FFD56C"/>
<path d="M12.4866 11.8622C12.4866 11.9711 12.399 12.0592 12.2899 12.0592C12.1815 12.0592 12.093 11.9711 12.093 11.8622C12.093 11.754 12.1815 11.6654 12.2899 11.6654C12.399 11.6654 12.4866 11.754 12.4866 11.8622Z" fill="#FFD56C"/>
<path d="M5.99015 14.8158C5.99015 14.9243 5.9017 15.0127 5.79341 15.0127C5.68513 15.0127 5.59668 14.9241 5.59668 14.8158C5.59668 14.7065 5.68513 14.6193 5.79341 14.6193C5.9017 14.6193 5.99015 14.7065 5.99015 14.8158Z" fill="#FFD56C"/>
<path d="M6.18687 16.9811C6.18687 17.0903 6.09884 17.1779 5.99007 17.1779C5.88165 17.1779 5.79333 17.0903 5.79333 16.9811C5.79333 16.8727 5.88165 16.7841 5.99007 16.7841C6.09891 16.7841 6.18687 16.873 6.18687 16.9811Z" fill="#FFD56C"/>
<path d="M8.74676 16.5873C8.74676 16.6959 8.65817 16.784 8.55003 16.784C8.44062 16.784 8.35301 16.6959 8.35301 16.5873C8.35301 16.479 8.44062 16.3905 8.55003 16.3905C8.65817 16.3905 8.74676 16.4791 8.74676 16.5873Z" fill="#FFD56C"/>
<path d="M3.23417 16.7841C3.23417 16.893 3.146 16.981 3.03695 16.981C2.9281 16.981 2.84007 16.893 2.84007 16.7841C2.84007 16.6759 2.9281 16.5873 3.03695 16.5873C3.146 16.5873 3.23417 16.6759 3.23417 16.7841Z" fill="#FFD56C"/>
<path d="M17.2118 19.541H3.82491H0.674698C0.674698 20.4106 1.37944 21.1157 2.24935 21.1157H18.7875C19.6572 21.1157 20.3621 20.4105 20.3621 19.541H17.2118Z" fill="#EFB21A"/>
<path d="M19.9685 17.3748H1.06817C0.850623 17.3748 0.674561 17.5517 0.674561 17.7684C0.674561 17.9862 0.850623 18.1623 1.06817 18.1623H19.9685C20.1861 18.1623 20.3621 17.9862 20.3621 17.7684C20.3621 17.5517 20.1861 17.3748 19.9685 17.3748Z" fill="#A4D66E"/>
<path d="M20.3109 19.9346C20.3431 19.8083 20.3622 19.6764 20.3622 19.541H17.2118H3.82491H0.674698C0.674698 19.6764 0.693753 19.8081 0.726026 19.9346H20.3109Z" fill="#F1BC3A"/>
<path d="M1.0209 18.3591H20.0146C19.9651 18.2852 19.9042 18.2188 19.8353 18.1622H1.20083C1.13186 18.2188 1.07111 18.2853 1.0209 18.3591Z" fill="#F25E37"/>
<path d="M8.35304 18.1622L10.5184 19.541L12.6839 18.1622H8.35304Z" fill="#F4F4F4"/>
<path d="M12.065 18.5561L12.6839 18.1622H8.35304L8.97179 18.5561H12.065Z" fill="#D8D8D8"/>
<path d="M0.72963 17.5717H20.3072C20.2398 17.455 20.1143 17.3748 19.9687 17.3748H1.06818C0.922708 17.3748 0.79713 17.455 0.72963 17.5717Z" fill="#8BC34F"/>
</svg>
