<svg width="23" height="21" viewBox="0 0 23 21" fill="none" xmlns="http://www.w3.org/2000/svg">
<path d="M22.0934 0.421414L22.0684 1.37039L6.42304 0.895906C6.11089 0.895906 5.86115 0.770986 5.86115 0.646162V0.521362C5.8623 0.484851 5.87545 0.449736 5.89856 0.42145C6.05431 0.310682 6.24566 0.261735 6.43546 0.28411L21.5065 0.42145L22.0934 0.421414Z" fill="#AAC3D7"/>
<path d="M22.0934 0.42145L22.0781 1.00273L5.8985 0.42145C6.05425 0.310682 6.2456 0.261735 6.4354 0.28411L22.0934 0.42145Z" fill="#D7E6F0"/>
<path d="M13.3404 18.9013V20.1124C13.3404 20.3343 13.2523 20.5471 13.0954 20.704C12.9385 20.8609 12.7257 20.949 12.5038 20.9491H6.68512C6.5665 20.949 6.44928 20.9234 6.34151 20.8738C6.23374 20.8242 6.13798 20.7519 6.0608 20.6618C5.92239 20.5126 5.84644 20.3159 5.84855 20.1124V18.9013C5.84857 18.6794 5.93671 18.4666 6.09359 18.3097C6.25048 18.1529 6.46325 18.0647 6.68512 18.0647H12.5038C12.7257 18.0647 12.9385 18.1528 13.0953 18.3097C13.2522 18.4666 13.3404 18.6794 13.3404 18.9013Z" fill="#AAC3D7"/>
<path d="M12.3664 18.6141V19.8253C12.3664 20.0471 12.2783 20.2599 12.1214 20.4168C11.9645 20.5737 11.7517 20.6618 11.5298 20.6618H6.0608C5.92239 20.5126 5.84644 20.3159 5.84855 20.1124V18.9013C5.84857 18.6794 5.93671 18.4666 6.09359 18.3097C6.25048 18.1529 6.46325 18.0647 6.68512 18.0647H12.1542C12.2926 18.2139 12.3685 18.4106 12.3664 18.6141Z" fill="#D7E6F0"/>
<path d="M18.4598 10.5978V12.5707C18.4604 13.4252 18.2925 14.2713 17.9658 15.0609C17.639 15.8504 17.1599 16.5677 16.5557 17.1719C15.9515 17.7761 15.2341 18.2553 14.4446 18.582C13.6551 18.9088 12.8089 19.0767 11.9545 19.0761H7.23459C6.4532 19.0776 5.67836 18.9336 4.94966 18.6516C4.92466 18.6516 4.91216 18.6516 4.89966 18.6391C3.67122 18.1697 2.6145 17.3379 1.86968 16.2541C1.12486 15.1703 0.727129 13.8857 0.729257 12.5707V10.5978C0.729198 10.4732 0.753703 10.3498 0.801369 10.2346C0.849035 10.1195 0.918928 10.0148 1.00705 9.92672C1.09518 9.8386 1.19981 9.7687 1.31496 9.72104C1.43011 9.67337 1.55353 9.64887 1.67816 9.64893L3.95068 9.97351C7.69321 10.5229 11.4959 10.5229 15.2384 9.97351L17.2487 9.68634L17.511 9.64893C17.6356 9.64887 17.759 9.67338 17.8741 9.72105C17.9893 9.76872 18.0939 9.83861 18.182 9.92673C18.2702 10.0149 18.3401 10.1195 18.3877 10.2346C18.4354 10.3498 18.4599 10.4732 18.4598 10.5978Z" fill="#131426"/>
<path d="M17.4859 10.3107V12.271C17.4875 13.998 16.803 15.6549 15.583 16.8772C14.363 18.0995 12.7075 18.7872 10.9805 18.7889H6.26069C5.82015 18.7878 5.38087 18.7418 4.94966 18.6516C4.92466 18.6516 4.91216 18.6516 4.89966 18.6391C3.67122 18.1697 2.6145 17.3379 1.86968 16.2541C1.12486 15.1704 0.727129 13.8857 0.729257 12.5707V10.5978C0.729198 10.4732 0.753703 10.3498 0.801369 10.2346C0.849035 10.1195 0.918928 10.0148 1.00705 9.92672C1.09518 9.8386 1.19981 9.7687 1.31496 9.72104C1.43011 9.67337 1.55353 9.64887 1.67816 9.64893L3.95068 9.97351C7.6932 10.5229 11.4959 10.5229 15.2384 9.97351L17.2487 9.68634C17.4029 9.85755 17.4875 10.0802 17.4859 10.3107Z" fill="#023B56"/>
<path d="M18.4598 10.2358C18.4521 10.5125 18.3558 10.7795 18.1852 10.9975C17.2112 12.3335 13.7275 13.32 9.59455 13.32C5.46157 13.32 1.97788 12.3335 1.0039 10.9975C0.833274 10.7795 0.737013 10.5125 0.729248 10.2358C0.729248 8.5377 4.6999 7.15173 9.59455 7.15173C14.4892 7.15173 18.4598 8.5377 18.4598 10.2358Z" fill="#AAC3D7"/>
<path d="M18.1852 10.9974C17.9914 11.2492 17.7547 11.4648 17.4859 11.6342C16.0251 12.6331 13.0283 13.3199 9.59455 13.3199C6.1608 13.3199 3.16407 12.6331 1.70315 11.6342C1.43437 11.4648 1.19765 11.2492 1.00391 10.9974C1.95289 9.66131 5.44905 8.66241 9.59455 8.66241C13.74 8.66241 17.2362 9.66131 18.1852 10.9974Z" fill="#5D88AB"/>
<path d="M17.4859 11.6342C16.7434 12.1038 15.9295 12.4496 15.0761 12.6581C14.7639 12.7455 14.4268 12.8205 14.0647 12.8954C13.7525 12.9578 13.4404 13.0202 13.1032 13.0577C12.0951 13.2152 11.0768 13.2987 10.0565 13.3074H9.85679C9.76979 13.3178 9.68215 13.322 9.59455 13.3199C9.43222 13.3199 9.25735 13.3199 9.09507 13.3074C9.01578 13.3095 8.93646 13.3053 8.85783 13.295C8.65807 13.295 8.47074 13.295 8.27103 13.2824C8.12119 13.27 7.98385 13.2575 7.84645 13.2449C7.65925 13.2325 7.48438 13.22 7.30955 13.195C6.47333 13.1303 5.6429 13.0051 4.82477 12.8205C4.50011 12.7581 4.18795 12.6706 3.88829 12.5832C3.62129 12.5109 3.35865 12.4233 3.10164 12.321C2.80132 12.2182 2.50914 12.093 2.22759 11.9464C2.04692 11.8525 1.87183 11.7483 1.70319 11.6342C2.02194 11.4226 2.36069 11.2428 2.71458 11.0973C4.42132 10.4325 6.22819 10.061 8.05878 9.99853C8.5582 9.9611 9.07018 9.94861 9.59459 9.94861C13.0408 9.94861 16.0251 10.6353 17.4859 11.6342Z" fill="#D22A22"/>
<path d="M6.18023 11.2182L2.97863 11.5729C2.88531 11.5817 2.79188 11.5572 2.71487 11.5038C2.63786 11.4503 2.58223 11.3714 2.55779 11.2809L1.32878 7.03659C1.31118 6.98047 1.30603 6.92119 1.31368 6.86288C1.32133 6.80457 1.3416 6.74863 1.37307 6.69895C1.40455 6.64927 1.44647 6.60706 1.49593 6.57523C1.54539 6.54341 1.60118 6.52275 1.65944 6.51469L4.86104 6.15995C4.95436 6.15117 5.04779 6.17567 5.1248 6.22912C5.20181 6.28256 5.25745 6.36151 5.28188 6.45201L6.51093 10.6963C6.52852 10.7524 6.53367 10.8117 6.52602 10.87C6.51837 10.9283 6.4981 10.9843 6.46662 11.0339C6.43514 11.0836 6.39321 11.1258 6.34375 11.1576C6.29429 11.1895 6.23849 11.2101 6.18023 11.2182Z" fill="#0C3A37"/>
<path d="M8.99918 11.2182L5.79758 11.5729C5.70425 11.5817 5.61083 11.5572 5.53382 11.5038C5.4568 11.4503 5.40116 11.3714 5.37673 11.2809L4.14769 7.03658C4.13009 6.98047 4.12494 6.92119 4.13259 6.86288C4.14024 6.80457 4.1605 6.74863 4.19198 6.69896C4.22345 6.64928 4.26538 6.60706 4.31483 6.57524C4.36429 6.54341 4.42008 6.52275 4.47834 6.51469L7.67994 6.15995C7.77326 6.15118 7.86668 6.17568 7.94369 6.22912C8.0207 6.28256 8.07634 6.36151 8.10078 6.452L9.32983 10.6963C9.34742 10.7524 9.35257 10.8117 9.34492 10.87C9.33727 10.9283 9.317 10.9842 9.28553 11.0339C9.25405 11.0836 9.21213 11.1258 9.16268 11.1576C9.11323 11.1895 9.05743 11.2101 8.99918 11.2182Z" fill="#0A564F"/>
<path d="M9.97948 9.77683C10.0295 9.84927 10.0633 9.93173 10.0783 10.0185C10.0933 10.1053 10.0893 10.1943 10.0665 10.2793C10.0437 10.3644 10.0027 10.4435 9.94631 10.5111C9.88992 10.5787 9.81949 10.6333 9.73991 10.671C9.74704 10.7588 9.735 10.847 9.70462 10.9297C9.67425 11.0123 9.62626 11.0874 9.56399 11.1497C9.50172 11.2119 9.42666 11.2599 9.344 11.2903C9.26134 11.3207 9.17307 11.3327 9.0853 11.3256C9.04797 11.4054 8.99353 11.476 8.92586 11.5325C8.85818 11.5889 8.77892 11.6298 8.69369 11.6522C8.65968 11.6613 8.62495 11.6675 8.58989 11.6707C8.57136 11.6724 8.55287 11.6733 8.53441 11.6733C8.51588 11.6733 8.49737 11.6724 8.47908 11.6707C8.37582 11.6612 8.27681 11.625 8.19181 11.5656L8.19115 11.5652C8.11871 11.6152 8.03625 11.649 7.94948 11.664C7.86272 11.679 7.77372 11.675 7.68866 11.6522C7.6036 11.6294 7.52452 11.5884 7.45689 11.532C7.38926 11.4756 7.3347 11.4052 7.297 11.3256C7.20922 11.3327 7.12095 11.3207 7.03829 11.2903C6.95564 11.2599 6.88057 11.2119 6.81831 11.1497C6.75604 11.0874 6.70805 11.0123 6.67768 10.9297C6.6473 10.847 6.63526 10.7588 6.6424 10.671C6.56281 10.6333 6.49238 10.5787 6.43598 10.5111C6.37959 10.4435 6.33857 10.3644 6.31579 10.2793C6.293 10.1943 6.28899 10.1053 6.30402 10.0185C6.31906 9.93173 6.35278 9.84927 6.40286 9.77683C6.35279 9.7044 6.31906 9.62194 6.30403 9.53517C6.289 9.4484 6.29302 9.3594 6.31581 9.27433C6.3386 9.18927 6.37962 9.11019 6.43602 9.04256C6.49242 8.97493 6.56286 8.92037 6.64244 8.88268C6.63531 8.79491 6.64735 8.70664 6.67773 8.62398C6.70811 8.54132 6.75609 8.46626 6.81836 8.40399C6.88063 8.34172 6.95569 8.29374 7.03834 8.26336C7.121 8.23299 7.20927 8.22095 7.29704 8.22808C7.33474 8.14849 7.3893 8.07806 7.45693 8.02166C7.52456 7.96526 7.60364 7.92425 7.6887 7.90145C7.77376 7.87866 7.86276 7.87464 7.94953 7.88967C8.0363 7.9047 8.11876 7.93843 8.1912 7.9885L8.19186 7.98807C8.2643 7.93811 8.34673 7.9045 8.43345 7.88956C8.52017 7.87461 8.6091 7.8787 8.69408 7.90152C8.77907 7.92435 8.85807 7.96538 8.92563 8.02176C8.99319 8.07814 9.04768 8.14854 9.08534 8.22807C9.17312 8.22094 9.26139 8.23298 9.34404 8.26335C9.4267 8.29373 9.50176 8.34171 9.56403 8.40398C9.6263 8.46625 9.67429 8.54131 9.70467 8.62397C9.73504 8.70662 9.74708 8.79489 9.73996 8.88267C9.81954 8.92037 9.88996 8.97493 9.94636 9.04256C10.0028 9.11019 10.0438 9.18927 10.0666 9.27433C10.0894 9.35939 10.0934 9.44839 10.0783 9.53515C10.0633 9.62192 10.0296 9.70438 9.97952 9.77682L9.97948 9.77683Z" fill="#FFFAE8"/>
<path d="M9.31288 9.76335V9.9394C9.31263 10.174 9.21931 10.399 9.0534 10.5649C8.88749 10.7309 8.66254 10.8242 8.42789 10.8245C8.34808 10.8246 8.26862 10.8138 8.19173 10.7924C8.00531 10.7405 7.84099 10.629 7.72384 10.475C7.60669 10.321 7.54315 10.1329 7.54292 9.9394V9.8323C7.54309 9.6593 7.61117 9.49328 7.73252 9.36997C7.85386 9.24666 8.01876 9.17591 8.19173 9.17295L8.20233 9.1728H8.22918C8.39692 9.17301 8.55772 9.23973 8.67633 9.35834C8.79493 9.47694 8.86166 9.63775 8.86186 9.80548C8.86186 9.91496 8.81837 10.02 8.74095 10.0974C8.66354 10.1748 8.55854 10.2183 8.44906 10.2183C8.33958 10.2183 8.23458 10.1748 8.15717 10.0974C8.07975 10.02 8.03626 9.91496 8.03626 9.80548V9.69838H8.25848V9.80548C8.25848 9.85602 8.27855 9.9045 8.31429 9.94024C8.35003 9.97597 8.3985 9.99605 8.44905 9.99605C8.49959 9.99605 8.54806 9.97597 8.5838 9.94024C8.61954 9.9045 8.63962 9.85602 8.63962 9.80548C8.63949 9.69666 8.5962 9.59234 8.51925 9.51539C8.4423 9.43844 8.33798 9.39515 8.22916 9.39502H8.20234L8.19174 9.39516C8.0777 9.39808 7.96929 9.44539 7.88961 9.52704C7.80993 9.60869 7.76527 9.71822 7.76514 9.8323V9.9394C7.76514 10.1152 7.83497 10.2837 7.95926 10.408C8.08355 10.5323 8.25212 10.6021 8.42789 10.6021C8.60366 10.6021 8.77224 10.5323 8.89652 10.408C9.02081 10.2837 9.09064 10.1152 9.09064 9.9394V9.76335C9.09031 9.52506 8.99558 9.2966 8.82719 9.128C8.6588 8.9594 8.43047 8.86438 8.19218 8.86376H8.19108C7.9525 8.86377 7.7237 8.95855 7.555 9.12726C7.3863 9.29596 7.29152 9.52477 7.29151 9.76335V10.2735H7.06927V9.76335C7.06927 9.61603 7.09828 9.47015 7.15466 9.33405C7.21103 9.19794 7.29366 9.07427 7.39783 8.9701C7.50201 8.86593 7.62567 8.7833 7.76178 8.72692C7.89789 8.67055 8.04376 8.64154 8.19108 8.64154H8.1925C8.48965 8.64233 8.77438 8.76082 8.98436 8.97107C9.19435 9.18132 9.31247 9.4662 9.31288 9.76335Z" fill="#D22A22"/>
<path d="M15.4135 12.1862C15.2989 12.1642 15.1886 12.1239 15.0868 12.0669C13.9882 11.4933 13.8509 9.86337 14.6731 8.59079C14.8876 8.20949 15.198 7.89075 15.5734 7.66606C15.9488 7.44137 16.3763 7.3185 16.8138 7.30957C17.0473 7.31037 17.2772 7.36713 17.4842 7.47509C17.9398 7.79623 18.2618 8.2733 18.3892 8.81593C18.5166 9.35857 18.4406 9.92909 18.1756 10.4194C17.9983 10.9929 17.6236 11.485 17.1179 11.8084C16.6123 12.1318 16.0084 12.2657 15.4135 12.1862Z" fill="#FFF2C4"/>
<path d="M15.4135 12.1862C15.2989 12.1642 15.1886 12.1239 15.0868 12.0669C13.9882 11.4933 13.8509 9.86337 14.6731 8.59079C14.8876 8.20949 15.198 7.89075 15.5734 7.66606C15.9488 7.44137 16.3763 7.3185 16.8138 7.30957C16.912 7.33143 17.0067 7.36704 17.0949 7.41533C17.5518 7.73542 17.8749 8.21254 18.0024 8.75563C18.1299 9.29872 18.053 9.86975 17.7863 10.3597C17.6146 10.864 17.2979 11.3064 16.8757 11.6313C16.4536 11.9562 15.9449 12.1493 15.4135 12.1862Z" fill="#FFFAE8"/>
<path d="M17.0112 10.8777C16.9407 11.0108 16.8446 11.1286 16.7284 11.2244C16.6123 11.3202 16.4783 11.3921 16.3343 11.436C16.1902 11.4798 16.039 11.4948 15.8891 11.48C15.7393 11.4653 15.5938 11.4211 15.4611 11.3499C15.2171 11.2264 15.0269 11.0176 14.9265 10.7632C14.8606 10.6115 14.8297 10.4469 14.8359 10.2816C14.8422 10.1163 14.8855 9.9545 14.9626 9.80815C15.0336 9.67617 15.1299 9.55947 15.246 9.46471C15.3622 9.36996 15.4958 9.299 15.6394 9.2559C15.7829 9.2128 15.9335 9.1984 16.0826 9.21352C16.2318 9.22865 16.3764 9.27299 16.5084 9.34403C16.6337 9.40828 16.7445 9.49753 16.834 9.60627C16.992 9.77356 17.0939 9.98587 17.1256 10.2137C17.1574 10.4416 17.1174 10.6737 17.0112 10.8777Z" fill="#F6A635"/>
<path d="M16.7981 10.5409C16.6534 10.8095 16.4079 11.0096 16.1158 11.0973C15.8236 11.1851 15.5085 11.1532 15.2398 11.0088C15.1214 10.9465 15.0152 10.8633 14.9265 10.7632C14.8606 10.6115 14.8297 10.4469 14.8359 10.2816C14.8422 10.1163 14.8855 9.9545 14.9626 9.80815C15.0336 9.67617 15.1299 9.55947 15.246 9.46471C15.3622 9.36996 15.4958 9.299 15.6394 9.2559C15.7829 9.2128 15.9335 9.1984 16.0826 9.21352C16.2318 9.22865 16.3764 9.27299 16.5084 9.34403C16.6337 9.40828 16.7445 9.49753 16.834 9.60627C16.8969 9.75519 16.9262 9.91609 16.92 10.0776C16.9138 10.2391 16.8722 10.3973 16.7981 10.5409Z" fill="#FBD73B"/>
<path d="M15.3131 9.65573L15.2303 9.78773C15.2147 9.80677 15.203 9.82874 15.1959 9.85236C15.1889 9.87597 15.1866 9.90075 15.1892 9.92525C15.2011 9.95542 15.2236 9.98022 15.2525 9.99502C15.2813 10.0098 15.3146 10.0136 15.346 10.0057C15.4076 9.9875 15.4629 9.95239 15.5056 9.90433C15.534 9.86998 15.5733 9.84632 15.6169 9.83725C15.6404 9.83857 15.6638 9.83852 15.6873 9.83711C15.7022 9.83334 15.7164 9.82683 15.729 9.81791C15.8596 9.73425 15.8784 9.54878 15.7166 9.50139C15.6421 9.47364 15.56 9.474 15.4857 9.50241C15.4115 9.53082 15.3501 9.58533 15.3131 9.65573Z" fill="#FFFAE8"/>
<path d="M14.6716 12.6801C14.554 12.7823 14.4029 12.8377 14.2471 12.8356H9.20259L8.89043 12.5245C8.69014 12.3177 8.5592 12.0536 8.51578 11.769V11.7579C8.50547 11.6992 8.50131 11.6396 8.50336 11.5801V11.5357C8.50253 11.3517 8.53855 11.1695 8.60931 10.9996C8.68007 10.8298 8.78414 10.6759 8.91536 10.5469L9.04026 10.4358C9.16575 10.3036 9.23704 10.1292 9.24001 9.94697C9.24405 9.8535 9.22578 9.7604 9.1867 9.67538C9.14762 9.59037 9.08885 9.51588 9.01527 9.45809L8.86544 9.3247C8.72642 9.20241 8.61376 9.05311 8.5343 8.88588C8.45483 8.71865 8.41024 8.53701 8.40323 8.35199C8.39622 8.16698 8.42695 7.98248 8.49353 7.80972C8.56011 7.63696 8.66116 7.47956 8.79052 7.3471L8.99026 7.11375C9.10991 6.98629 9.17441 6.81676 9.16975 6.642C9.16508 6.46724 9.09163 6.30139 8.96535 6.1805L8.7281 5.95827C8.4671 5.70174 8.31125 5.35704 8.29103 4.99164V4.98041C8.28161 4.61114 8.4159 4.25263 8.66561 3.98043L8.90285 3.73603C9.01962 3.60715 9.0822 3.43821 9.07755 3.26437C9.07291 3.09052 9.00141 2.92516 8.87793 2.8027L8.62818 2.5583C8.38766 2.32489 8.2373 2.01404 8.20361 1.68058V1.43607C8.22951 1.1063 8.37625 0.797703 8.61569 0.569477L8.90285 0.280589H14.2471C14.3467 0.280021 14.445 0.302854 14.5342 0.347249L13.5478 1.58051C13.5402 1.68594 13.5664 1.79106 13.6227 1.88051C13.6575 1.94085 13.6994 1.99679 13.7475 2.04713L13.9973 2.2916L14.0098 2.30272C14.267 2.55866 14.4147 2.90454 14.4217 3.26734C14.4287 3.63014 14.2944 3.98145 14.0472 4.24709L13.81 4.50262C13.7503 4.56587 13.7037 4.64043 13.6732 4.72192C13.6427 4.80341 13.6287 4.89018 13.6322 4.97713C13.6357 5.06408 13.6566 5.14945 13.6935 5.22824C13.7305 5.30702 13.7828 5.37761 13.8475 5.43587L14.0722 5.6581C14.3436 5.91308 14.5048 6.26385 14.5217 6.63585C14.5279 6.81834 14.4968 7.00017 14.4302 7.1702C14.3637 7.34023 14.2631 7.49488 14.1346 7.62465L13.9349 7.858C13.8737 7.92137 13.8257 7.9962 13.7935 8.07818C13.7614 8.16017 13.7458 8.2477 13.7475 8.33574C13.7635 8.51336 13.8434 8.67915 13.9723 8.80238L14.1222 8.9357C14.3952 9.2045 14.5597 9.56445 14.5842 9.94682C14.5878 10.1229 14.5565 10.298 14.4922 10.4619C14.4279 10.6259 14.3318 10.7756 14.2095 10.9023C14.2 10.929 14.1826 10.9523 14.1596 10.969L14.0472 11.0801C13.9394 11.187 13.8731 11.3287 13.86 11.48C13.8507 11.4883 13.8436 11.4986 13.8392 11.5102C13.8349 11.5219 13.8334 11.5344 13.835 11.5467C13.843 11.7223 13.9089 11.8903 14.0224 12.0245L14.6716 12.6801Z" fill="#F1592F"/>
<path d="M10.2263 12.8356H9.2025L8.89035 12.5244C8.69006 12.3176 8.55911 12.0535 8.5157 11.7689V11.7578C8.50539 11.6991 8.50123 11.6396 8.50328 11.5801V11.5357C8.50244 11.3517 8.53847 11.1694 8.60923 10.9996C8.67999 10.8297 8.78405 10.6758 8.91527 10.5469L9.04018 10.4357C9.16567 10.3036 9.23696 10.1291 9.23992 9.9469C9.24397 9.85342 9.2257 9.76033 9.18662 9.67531C9.14754 9.5903 9.08877 9.51581 9.01518 9.45802L8.86535 9.32463C8.72634 9.20234 8.61367 9.05304 8.53421 8.88581C8.45475 8.71859 8.41016 8.53693 8.40315 8.35192C8.39614 8.16691 8.42686 7.98241 8.49344 7.80965C8.56003 7.63689 8.66108 7.47949 8.79044 7.34703L8.99018 7.11368C9.10983 6.98622 9.17433 6.81669 9.16966 6.64193C9.165 6.46717 9.09154 6.30132 8.96527 6.18043L8.72801 5.9582C8.46702 5.70167 8.31116 5.35697 8.29095 4.99157V4.98037C8.28153 4.6111 8.41582 4.25259 8.66553 3.98038L8.90277 3.73598C9.01954 3.6071 9.08211 3.43816 9.07747 3.26432C9.07283 3.09047 9.00133 2.92511 8.87785 2.80266L8.6281 2.55825C8.38758 2.32484 8.23722 2.01399 8.20353 1.68053C8.19334 1.65206 8.18912 1.6218 8.19111 1.59163V1.55827C8.18908 1.51714 8.19327 1.47594 8.20353 1.43606C8.22943 1.10629 8.37617 0.797692 8.61561 0.569467L8.90277 0.280579H9.95165L8.92777 1.56938C8.92619 1.6742 8.95201 1.77761 9.00268 1.86938C9.03792 1.93283 9.08446 1.98929 9.14001 2.036L9.37726 2.28047L9.38975 2.29159C9.65252 2.54448 9.80409 2.89138 9.81112 3.25601C9.81815 3.62063 9.68007 3.97312 9.42725 4.23596L9.2025 4.49149C9.14054 4.55316 9.09182 4.62684 9.05935 4.70801C9.02687 4.78918 9.01133 4.87613 9.01366 4.96353C9.016 5.05092 9.03616 5.13692 9.07292 5.21624C9.10968 5.29556 9.16226 5.36654 9.22743 5.42481L9.46467 5.64697C9.72789 5.90649 9.8839 6.2555 9.90174 6.62472C9.90731 6.80606 9.87709 6.98673 9.8128 7.15639C9.74852 7.32605 9.65143 7.48139 9.52709 7.61351L9.31484 7.84687C9.19459 7.97692 9.12775 8.1475 9.12764 8.32462C9.14525 8.50444 9.22992 8.67103 9.3648 8.79124L9.50222 8.92457C9.78535 9.18745 9.95545 9.54992 9.97671 9.93568C9.97356 10.2918 9.83519 10.6333 9.58963 10.8912C9.57711 10.9162 9.56018 10.9388 9.53963 10.9578L9.4273 11.0689C9.32649 11.1763 9.26109 11.3121 9.23997 11.4578C9.21497 11.4911 9.21497 11.5134 9.22748 11.5356C9.22572 11.622 9.24141 11.7078 9.27359 11.788C9.30578 11.8682 9.35381 11.9411 9.4148 12.0023L10.2263 12.8356Z" fill="#FFE4B0"/>
<path d="M12.5363 12.8356H11.5124L11.2003 12.5245C11.0024 12.3204 10.8717 12.0606 10.8257 11.7801V11.7578C10.8132 11.7023 10.8132 11.6467 10.8007 11.5912V11.5357C10.8033 11.3527 10.8421 11.1721 10.915 11.0043C10.9879 10.8364 11.0933 10.6847 11.2253 10.5579L11.3501 10.4357C11.4145 10.3724 11.4647 10.296 11.497 10.2117C11.5293 10.1273 11.5431 10.037 11.5374 9.94686C11.5425 9.85607 11.5259 9.76537 11.489 9.68227C11.4521 9.59918 11.3959 9.52608 11.3251 9.46903L11.1752 9.33571C11.0351 9.21325 10.9218 9.06322 10.8423 8.89499C10.7628 8.72676 10.7189 8.54394 10.7132 8.35796C10.6992 8.17298 10.7267 7.98721 10.7936 7.81421C10.8606 7.64121 10.9654 7.48536 11.1003 7.35805L11.3001 7.12469C11.417 6.99585 11.4796 6.8269 11.4749 6.65305C11.4702 6.4792 11.3987 6.31385 11.2751 6.19144L11.0379 5.96921C10.7746 5.70972 10.6187 5.36069 10.6009 4.99147V4.9804C10.5935 4.61482 10.7277 4.26054 10.9755 3.9916L11.2127 3.7472C11.3295 3.61832 11.3921 3.44937 11.3874 3.27552C11.3828 3.10167 11.3112 2.93632 11.1877 2.81387L10.938 2.56947C10.6729 2.31124 10.5166 1.96145 10.501 1.59172V1.56938C10.4989 1.52825 10.5032 1.48705 10.5135 1.44718C10.5368 1.11354 10.6837 0.80059 10.9255 0.569467L11.2252 0.280579H12.274L11.2376 1.56938C11.2271 1.67505 11.2536 1.78108 11.3126 1.86938C11.3473 1.93321 11.3892 1.99285 11.4374 2.04712L11.6872 2.29159L11.6997 2.30271C11.9597 2.55711 12.1094 2.90351 12.1164 3.26724C12.1234 3.63096 11.9872 3.98287 11.7371 4.24708L11.5123 4.50261C11.4504 4.56427 11.4016 4.63795 11.3692 4.71912C11.3367 4.80029 11.3212 4.88724 11.3235 4.97463C11.3258 5.06202 11.346 5.14801 11.3828 5.22733C11.4196 5.30664 11.4721 5.37761 11.5373 5.43586L11.7746 5.64697C12.034 5.90909 12.1893 6.25658 12.2116 6.62471C12.2182 6.80786 12.1885 6.99052 12.1242 7.16214C12.0599 7.33377 11.9623 7.49097 11.837 7.6247L11.6247 7.84693C11.5029 7.97601 11.4358 8.14722 11.4374 8.32468C11.4533 8.50555 11.5329 8.67489 11.6622 8.80243L11.812 8.93575C12.0917 9.19982 12.2575 9.56255 12.274 9.94687C12.2792 10.3021 12.1447 10.6453 11.8994 10.9024C11.8864 10.9238 11.8694 10.9426 11.8495 10.9579L11.7371 11.0801C11.6343 11.1861 11.5686 11.3226 11.5498 11.469C11.5402 11.4794 11.5331 11.4917 11.5288 11.5051C11.5245 11.5186 11.5231 11.5327 11.5248 11.5467C11.5316 11.7216 11.6028 11.8878 11.7246 12.0134L12.5363 12.8356Z" fill="#FFE4B0"/>
<path d="M14.6715 12.6801C14.5539 12.7823 14.4028 12.8377 14.247 12.8356H13.81L13.5103 12.5356C13.3101 12.3288 13.1791 12.0647 13.1357 11.7801V11.769C13.1232 11.7023 13.1232 11.6579 13.1107 11.5912V11.5468C13.1093 11.3616 13.1463 11.1781 13.2194 11.0079C13.2925 10.8378 13.4 10.6846 13.5353 10.558L13.6477 10.4469C13.7121 10.3824 13.7629 10.3057 13.7972 10.2213C13.8315 10.1369 13.8486 10.0465 13.8474 9.95536C13.8462 9.86426 13.8269 9.77431 13.7904 9.6908C13.754 9.6073 13.7012 9.53192 13.6352 9.46912L13.4854 9.3358C13.3455 9.21557 13.2322 9.06753 13.1526 8.90111C13.0731 8.73469 13.0291 8.55354 13.0234 8.36918C13.0093 8.18253 13.0366 7.99507 13.1036 7.82027C13.1705 7.64546 13.2753 7.48764 13.4105 7.35814L13.6102 7.13591C13.7243 7.00361 13.7849 6.83352 13.7803 6.65888C13.7757 6.48424 13.7061 6.31759 13.5852 6.19151L13.348 5.9804C13.08 5.72418 12.9231 5.37318 12.911 5.00266V4.9915C12.9034 4.62255 13.0375 4.26473 13.2855 3.99152L13.5228 3.75824C13.6396 3.62722 13.7021 3.45658 13.6975 3.2811C13.6928 3.10561 13.6214 2.9385 13.4979 2.81384L13.2481 2.58056C12.9849 2.32104 12.8289 1.97202 12.8111 1.60281V1.58051C12.809 1.53571 12.8132 1.49084 12.8235 1.44719C12.8495 1.1174 12.9962 0.808789 13.2356 0.580528L13.5353 0.280528H14.247C14.3466 0.27996 14.445 0.302793 14.5342 0.347187L13.5478 1.58045C13.5401 1.68588 13.5664 1.791 13.6227 1.88045C13.6575 1.94079 13.6994 1.99673 13.7475 2.04707L13.9972 2.29154L14.0097 2.30266C14.267 2.55859 14.4147 2.90448 14.4217 3.26728C14.4286 3.63007 14.2944 3.98139 14.0472 4.24703L13.81 4.50256C13.7502 4.56581 13.7037 4.64037 13.6732 4.72186C13.6426 4.80335 13.6287 4.89012 13.6322 4.97707C13.6357 5.06402 13.6565 5.14939 13.6935 5.22817C13.7304 5.30695 13.7828 5.37755 13.8474 5.43581L14.0722 5.65804C14.3436 5.91302 14.5048 6.26379 14.5216 6.63579C14.5279 6.81828 14.4967 7.00011 14.4302 7.17014C14.3636 7.34017 14.263 7.49481 14.1346 7.62459L13.9348 7.85794C13.8737 7.92131 13.8256 7.99614 13.7935 8.07812C13.7613 8.16011 13.7457 8.24764 13.7475 8.33568C13.7635 8.5133 13.8433 8.67908 13.9722 8.80232L14.1221 8.93564C14.3952 9.20443 14.5597 9.56439 14.5841 9.94676C14.5877 10.1228 14.5564 10.2979 14.4921 10.4619C14.4279 10.6259 14.3318 10.7755 14.2095 10.9023C14.1999 10.929 14.1825 10.9522 14.1596 10.9689L14.0472 11.08C13.9394 11.1869 13.873 11.3287 13.86 11.48C13.8507 11.4882 13.8436 11.4986 13.8392 11.5102C13.8348 11.5218 13.8334 11.5343 13.835 11.5466C13.8429 11.7222 13.9088 11.8902 14.0223 12.0244L14.6715 12.6801Z" fill="#FFE4B0"/>
<path d="M10.0566 13.3074H9.8568C9.7698 13.3178 9.68216 13.322 9.59457 13.3199C9.43223 13.3199 9.25737 13.3199 9.09508 13.3074C9.01579 13.3095 8.93647 13.3053 8.85784 13.2949C8.65809 13.2949 8.47076 13.2949 8.27104 13.2824C8.12121 13.2699 7.98387 13.2574 7.84647 13.2449C7.65927 13.2325 7.48439 13.22 7.30956 13.195C6.47335 13.1303 5.64292 13.0051 4.82478 12.8204C4.50012 12.758 4.18797 12.6706 3.8883 12.5832C3.62131 12.5108 3.35866 12.4233 3.10166 12.3209C2.80133 12.2181 2.50916 12.0929 2.2276 11.9464C2.34742 11.641 2.5115 11.3549 2.71458 11.0973C3.21175 10.4194 3.90676 9.91223 4.704 9.64555C5.50124 9.37887 6.36153 9.36579 7.16651 9.60811C7.97149 9.85043 8.6816 10.3362 9.19915 10.9987C9.71669 11.6612 10.0162 12.4677 10.0566 13.3074H10.0566Z" fill="#F1592F"/>
<path d="M9.09499 13.3074C9.0157 13.3095 8.93638 13.3053 8.85775 13.2949C8.658 13.2949 8.47066 13.2949 8.27095 13.2824C8.12112 13.2699 7.98377 13.2574 7.84637 13.2449C7.65917 13.2325 7.4843 13.22 7.30947 13.195C6.47325 13.1303 5.64282 13.0051 4.82469 12.8205C4.50003 12.7581 4.18788 12.6706 3.88821 12.5832C3.62121 12.5109 3.35857 12.4233 3.10156 12.321C3.3714 11.6714 3.85287 11.132 4.46781 10.7905C5.08274 10.4489 5.79506 10.3253 6.48914 10.4395C7.18323 10.5537 7.81833 10.8992 8.29136 11.4198C8.7644 11.9404 9.0476 12.6056 9.09501 13.3074H9.09499Z" fill="#FFE4B0"/>
<path d="M8.27092 13.2824C8.12109 13.2699 7.98375 13.2574 7.84635 13.2449C7.65915 13.2325 7.48427 13.22 7.30944 13.195C6.47323 13.1303 5.6428 13.0051 4.82466 12.8204C4.5 12.758 4.18785 12.6706 3.88818 12.5832C4.09174 12.1181 4.44388 11.7338 4.88939 11.4904C5.33489 11.247 5.84858 11.1584 6.34989 11.2384C6.8512 11.3183 7.3118 11.5624 7.65946 11.9324C8.00711 12.3023 8.22218 12.7771 8.27092 13.2824Z" fill="#F1592F"/>
<path d="M7.30955 13.195C6.47333 13.1303 5.6429 13.0051 4.82477 12.8204C4.94138 12.6154 5.11031 12.4449 5.31431 12.3264C5.51832 12.208 5.7501 12.1458 5.986 12.1462C6.29229 12.1471 6.58936 12.2511 6.82943 12.4413C7.06949 12.6316 7.2386 12.897 7.30955 13.195Z" fill="#FFE4B0"/>
<path d="M15.076 12.6581C14.7639 12.7455 14.4267 12.8204 14.0646 12.8953C13.7525 12.9577 13.4403 13.0201 13.1032 13.0577C12.0295 13.2278 10.9438 13.3113 9.85673 13.3074C9.76973 13.3178 9.6821 13.322 9.5945 13.3199C9.34866 13.3243 9.10275 13.3159 8.85777 13.2949C8.51997 13.2973 8.1823 13.2806 7.84637 13.2449C8.13188 12.5506 8.60383 11.9488 9.21006 11.506C9.81628 11.0633 10.5331 10.7968 11.2814 10.7361C12.0296 10.6753 12.7801 10.8227 13.4498 11.1619C14.1195 11.5011 14.6823 12.019 15.076 12.6581V12.6581Z" fill="#F1592F"/>
<path d="M14.0647 12.8953C13.7526 12.9577 13.4404 13.0201 13.1032 13.0576C12.0295 13.2277 10.9439 13.3113 9.85681 13.3074C9.76981 13.3178 9.68217 13.322 9.59458 13.3199C9.34873 13.3242 9.10283 13.3159 8.85785 13.2949C9.13142 12.8066 9.5301 12.4 10.0129 12.1169C10.4957 11.8338 11.0452 11.6844 11.6049 11.6841C12.0804 11.6834 12.5497 11.7922 12.9763 12.0023C13.4029 12.2124 13.7754 12.5179 14.0647 12.8953Z" fill="#FFE4B0"/>
<path d="M13.1033 13.0578C12.0296 13.2279 10.944 13.3114 9.85687 13.3075C10.0522 13.0758 10.2917 12.8853 10.5614 12.7472C10.8311 12.609 11.1256 12.5258 11.4278 12.5026C11.7299 12.4793 12.0337 12.5165 12.3213 12.6118C12.609 12.7071 12.8748 12.8587 13.1033 13.0578Z" fill="#F1592F"/>
<path d="M22.2558 2.60657V3.56796L6.59784 3.39322C6.28567 3.39322 6.03601 3.2808 6.03601 3.15596V3.03106C6.03588 3.00855 6.04155 2.98638 6.05248 2.96671C6.06341 2.94703 6.07923 2.9305 6.09841 2.91872C6.24402 2.81662 6.42049 2.7681 6.59783 2.7814L21.6814 2.61906L22.2558 2.60657Z" fill="#AAC3D7"/>
<path d="M22.2558 2.60657V3.09355L6.09845 2.91876C6.24406 2.81666 6.42053 2.76813 6.59787 2.78143L22.2558 2.60657Z" fill="#D7E6F0"/>
<path d="M1.83759 12.9639C2.10623 14.0127 2.60165 14.9899 3.28893 15.8264C3.62738 16.2274 4.02886 16.5705 4.47761 16.8424C4.92031 17.1025 5.40498 17.2834 5.90982 17.3769L5.94525 17.385C6.04586 17.408 6.13322 17.4701 6.18815 17.5575C6.24308 17.6448 6.26108 17.7505 6.23821 17.8511C6.21535 17.9518 6.15347 18.0393 6.06617 18.0943C5.97888 18.1494 5.87329 18.1676 5.77259 18.1449L5.74936 18.1389C5.16612 17.9895 4.6137 17.7386 4.11736 17.3978C3.63462 17.0578 3.21045 16.6415 2.8615 16.1652C2.19141 15.228 1.73696 14.1541 1.5307 13.0205C1.52316 12.9809 1.5313 12.9398 1.55341 12.906C1.57552 12.8723 1.60988 12.8484 1.64925 12.8394C1.68861 12.8305 1.72992 12.8372 1.76446 12.8581C1.799 12.879 1.82408 12.9125 1.83442 12.9515L1.83759 12.9639Z" fill="white"/>
<path d="M7.10304 18.5448C7.30422 18.5448 7.46731 18.3817 7.46731 18.1805C7.46731 17.9793 7.30422 17.8162 7.10304 17.8162C6.90186 17.8162 6.73877 17.9793 6.73877 18.1805C6.73877 18.3817 6.90186 18.5448 7.10304 18.5448Z" fill="white"/>
</svg>
