<svg width="23" height="24" viewBox="0 0 23 24" fill="none" xmlns="http://www.w3.org/2000/svg">
<path d="M8.44714 8.2877C12.5438 8.03216 15.7655 6.23246 15.6429 4.26797C15.5204 2.30348 12.1001 0.918106 8.00338 1.17365C3.9067 1.42919 0.685033 3.22889 0.807575 5.19338C0.930116 7.15787 4.35047 8.54325 8.44714 8.2877Z" fill="#0A564F"/>
<path d="M8.27893 17.2309C5.42053 17.3637 2.93565 16.7307 1.69918 15.631C1.46384 15.4588 1.26657 15.2398 1.11971 14.9878C0.972848 14.7359 0.879547 14.4563 0.845642 14.1667C0.836442 14.1227 0.83538 14.0774 0.842509 14.033L0.797485 5.09722L14.1659 4.43851L15.6452 4.35779L15.6775 13.3102C15.6917 15.2903 12.3659 17.0363 8.27893 17.2309Z" fill="#0C3A37"/>
<path d="M14.1985 12.4506C14.1985 14.4122 10.9009 16.1709 6.79156 16.3908C6.52103 16.4077 6.26732 16.4077 6.01373 16.4077C4.54027 16.4206 3.07748 16.1568 1.7014 15.6298C1.46316 15.4581 1.2634 15.2386 1.1149 14.9852C0.966401 14.7318 0.872439 14.4503 0.839028 14.1585V14.0402L0.805176 5.09437L8.34742 4.72237L14.1646 4.43481L14.1985 12.4506Z" fill="#0A564F"/>
<path d="M14.1985 12.4506C14.1985 14.4122 10.9009 16.1709 6.79162 16.3907C6.5211 16.4077 6.26739 16.4077 6.0138 16.4077L5.96301 7.4619H5.97993C5.96301 6.43037 6.87615 5.4495 8.34753 4.72237L14.1647 4.43481L14.1985 12.4506Z" fill="#0C3A37"/>
<path d="M14.9614 4.40034C14.9682 6.05164 12.0736 7.53335 8.49625 7.70843C5.27631 7.86603 2.60454 6.91156 2.09561 5.51661C2.09038 5.50481 2.0858 5.49274 2.08191 5.48044C2.07132 5.45333 2.06369 5.42454 2.05605 5.39728C2.02372 5.27901 2.00705 5.157 2.00648 5.03439C1.99969 3.38313 4.89426 1.90292 8.47166 1.72782C9.59763 1.66404 10.727 1.7544 11.8285 1.9964C12.024 2.04209 12.2135 2.0912 12.394 2.14832C12.4827 2.17313 12.57 2.20112 12.6542 2.23074C14.0622 2.70828 14.9576 3.48414 14.9614 4.40034Z" fill="#FFFAEB"/>
<path d="M12.6047 2.76278C12.7855 2.642 12.8762 2.46052 12.8073 2.35743C12.7384 2.25434 12.5361 2.26869 12.3553 2.38946C12.1745 2.51024 12.0838 2.69172 12.1527 2.79481C12.2215 2.8979 12.4239 2.88356 12.6047 2.76278Z" fill="#F4E9CE"/>
<path d="M5.78567 7.17753C5.88251 7.04868 5.71126 6.75652 5.40316 6.52496C5.09507 6.2934 4.76681 6.21013 4.66997 6.33897C4.57313 6.46782 4.74439 6.75998 5.05248 6.99154C5.36057 7.2231 5.68884 7.30637 5.78567 7.17753Z" fill="#F4E9CE"/>
<path d="M8.78884 2.24683C9.08605 2.23074 9.32277 2.14006 9.31759 2.04431C9.3124 1.94855 9.06727 1.88397 8.77007 1.90006C8.47286 1.91615 8.23614 2.00683 8.24132 2.10259C8.24651 2.19834 8.49164 2.26292 8.78884 2.24683Z" fill="#F4E9CE"/>
<path d="M12.5717 4.71836C12.6472 4.61788 12.5136 4.39003 12.2733 4.20945C12.0331 4.02886 11.7771 3.96392 11.7016 4.0644C11.626 4.16488 11.7596 4.39273 11.9999 4.57332C12.2401 4.7539 12.4961 4.81884 12.5717 4.71836Z" fill="#F4E9CE"/>
<path d="M10.8903 7.07466C10.9284 6.94518 10.699 6.76356 10.3779 6.66901C10.0568 6.57445 9.76561 6.60276 9.72749 6.73224C9.68936 6.86171 9.91874 7.04333 10.2398 7.13788C10.5609 7.23244 10.8521 7.20413 10.8903 7.07466Z" fill="#F4E9CE"/>
<path d="M6.12599 6.97109C6.38687 6.80242 6.55578 6.59985 6.50328 6.51865C6.45078 6.43744 6.19673 6.50835 5.93586 6.67702C5.67498 6.84569 5.50606 7.04825 5.55857 7.12946C5.61107 7.21066 5.86512 7.13976 6.12599 6.97109Z" fill="#F4E9CE"/>
<path d="M12.2207 4.21686C12.2094 4.38617 12.1613 4.55097 12.0796 4.69973C11.998 4.8485 11.8848 4.97763 11.7481 5.0781L11.7466 5.07971C10.8022 5.75109 9.67242 6.11216 8.51371 6.11291C7.58571 6.18159 6.65418 6.03987 5.7886 5.69829V5.69672C5.57128 5.62423 5.37229 5.5054 5.2054 5.34845C5.03851 5.19151 4.90769 5.00019 4.822 4.78773C4.80325 4.72019 4.79337 4.6505 4.79261 4.58041C4.78871 3.63353 6.4481 2.78481 8.49961 2.68441C8.67241 2.67601 8.84056 2.67386 9.00733 2.67644C9.48421 2.67929 9.95938 2.73374 10.4245 2.83886C11.4995 3.08557 12.2182 3.59532 12.2207 4.21686Z" fill="#FF8340"/>
<path d="M14.9615 4.40045C14.9683 6.05175 12.0737 7.53346 8.49635 7.70854C5.27641 7.86614 2.60464 6.91167 2.0957 5.51672C2.2313 5.60527 2.41199 5.72535 2.64545 5.87663C3.15968 6.26376 3.72072 6.58442 4.31527 6.83102C4.89575 6.99602 4.9115 6.80491 5.95758 6.94712C6.73014 7.05359 6.82374 7.17182 7.38275 7.22273C7.98172 7.20655 8.57856 7.14449 9.16805 7.03712C9.66809 6.99883 10.2133 6.97983 10.5918 6.96743C11.3112 6.94298 10.9286 6.92681 11.2437 6.85766C11.7675 6.74147 11.7324 6.55813 11.9662 6.4285C12.5561 6.0786 13.0514 5.58962 13.4088 5.00426C13.5012 4.83242 14.4194 4.79845 14.2985 4.27019C14.1836 3.8602 13.9252 3.50514 13.5704 3.26972C13.0625 2.87399 12.7745 2.97711 12.5538 2.62873C12.4646 2.4829 12.41 2.31862 12.3941 2.14844C12.4828 2.17325 12.5701 2.20124 12.6543 2.23087C14.0623 2.70839 14.9577 3.48425 14.9615 4.40045Z" fill="#F4E9CE"/>
<path d="M12.2852 4.17995C12.2855 4.22652 12.2812 4.273 12.2723 4.31871C12.2618 4.37334 12.2454 4.42665 12.2233 4.47768C12.1834 4.57089 12.1301 4.6578 12.0652 4.73568C12.0324 4.77707 11.9964 4.81579 11.9575 4.85145C11.2101 5.44139 10.2846 5.75999 9.33244 5.75505C9.21378 5.76086 9.09816 5.76345 8.98396 5.76137C8.51724 5.81587 8.04426 5.75786 7.60455 5.59218C7.16483 5.4265 6.77117 5.15798 6.45646 4.80905C6.43153 4.76496 6.41216 4.71796 6.39879 4.66911V4.66758C6.36284 4.55239 6.3582 4.42971 6.38533 4.31213C6.39728 4.25629 6.41518 4.20189 6.43872 4.14987V4.14834C6.53009 3.96401 6.66316 3.80351 6.82737 3.67957C6.97564 3.56064 7.13699 3.45902 7.3083 3.37667C7.73903 3.17084 8.19824 3.03091 8.67056 2.96155C8.88588 2.9274 9.10291 2.90499 9.32068 2.89443C10.238 2.79275 11.162 3.01524 11.9325 3.52334C12.0553 3.62044 12.1535 3.74497 12.2194 3.88694C12.262 3.97881 12.2844 4.07871 12.2852 4.17995Z" fill="#D04C04"/>
<path d="M6.43876 4.1499C6.41522 4.20192 6.39732 4.25632 6.38538 4.31215L6.43876 4.1499Z" fill="#F0AC64"/>
<path d="M6.43589 4.14172C6.4151 4.2008 6.40335 4.26268 6.40102 4.32526L6.3844 4.31259C6.40577 4.25004 6.41448 4.20411 6.43589 4.14172Z" fill="#E55D1A"/>
<path d="M12.2189 4.47802C10.7197 3.30943 8.33536 3.75082 7.15894 4.08854C7.19645 4.00489 7.25273 3.93102 7.32342 3.87265C7.82436 3.73964 8.33487 3.64573 8.85035 3.59176C10.0395 3.40154 11.2571 3.6562 12.2703 4.30707C12.2725 4.36816 12.2544 4.42826 12.2189 4.47802Z" fill="#E55D1A"/>
<path d="M12.2276 3.88067C11.575 3.51527 10.856 3.28387 10.1127 3.20004C9.36951 3.11621 8.61702 3.18164 7.89941 3.3925C8.00861 3.3181 8.14702 3.23979 8.28553 3.1615L8.31475 3.15764C9.52571 2.88411 10.7927 3.01098 11.9254 3.51917C12.0536 3.61378 12.1572 3.73774 12.2276 3.88067Z" fill="#E55D1A"/>
<path d="M6.43177 4.66389C6.43582 4.69309 6.4271 4.73901 6.44377 4.75169C6.42192 4.72848 6.40756 4.69923 6.40259 4.66775C6.40422 4.66553 6.40628 4.66367 6.40864 4.66227C6.41101 4.66087 6.41363 4.65996 6.41636 4.6596C6.41908 4.65924 6.42186 4.65943 6.4245 4.66017C6.42715 4.66091 6.42962 4.66218 6.43177 4.66389Z" fill="#E55D1A"/>
<path d="M6.44371 4.75171C6.44543 4.763 6.44966 4.77376 6.45608 4.7832C6.4625 4.79264 6.47096 4.80052 6.48082 4.80627C6.47866 4.80455 6.47617 4.80329 6.47351 4.80255C6.47085 4.80182 6.46806 4.80163 6.46533 4.802C6.46259 4.80237 6.45995 4.80329 6.45758 4.80471C6.45521 4.80612 6.45315 4.808 6.45152 4.81023C6.43499 4.79765 6.44765 4.78101 6.44371 4.75171Z" fill="#E55D1A"/>
<path d="M12.0748 4.73582C12.0368 4.7857 11.9949 4.80636 11.957 4.85615C10.4357 3.85456 8.24347 4.28484 7.07964 4.606C7.06006 4.58509 7.04637 4.55935 7.03997 4.53142C7.03358 4.50349 7.03471 4.47436 7.04324 4.44701C7.59666 4.29999 8.16017 4.19399 8.72918 4.12989C9.88093 3.93485 11.0646 4.14923 12.0748 4.73582Z" fill="#E55D1A"/>
<path d="M8.28566 3.1615C8.14716 3.23979 8.00875 3.31816 7.89955 3.3925C7.54464 3.46569 7.19391 3.55786 6.84888 3.66862C6.85464 3.65874 6.86254 3.65028 6.87199 3.64384C6.88144 3.6374 6.89221 3.63316 6.90351 3.63142C7.02562 3.53259 7.15958 3.4494 7.30231 3.38379L7.33153 3.37994C7.6451 3.28879 7.96367 3.21586 8.28566 3.1615Z" fill="#D14F15"/>
<path d="M8.28555 3.16152C7.96357 3.21587 7.64499 3.28879 7.33142 3.37992C7.75348 3.16734 8.20754 3.02539 8.67553 2.95972C8.55082 3.01721 8.43027 3.08334 8.31477 3.15763L8.28555 3.16152Z" fill="#BA4104"/>
<path d="M7.3233 3.8728C7.25261 3.93117 7.19633 4.00504 7.15881 4.08868C6.69838 4.21065 6.40088 4.32535 6.40088 4.32535C6.40321 4.26276 6.41497 4.20089 6.43575 4.14181L6.44842 4.12517C6.62008 4.07212 6.92144 3.98668 7.3233 3.8728Z" fill="#D14F15"/>
<path d="M7.32336 3.87268C6.9215 3.98656 6.62016 4.07203 6.44849 4.12506C6.54202 3.94209 6.67955 3.78523 6.84871 3.66858C7.19375 3.55782 7.54447 3.46565 7.89938 3.39246C7.68055 3.51731 7.48554 3.67989 7.32336 3.87268Z" fill="#BA4104"/>
<path d="M7.07968 4.60601C6.87581 4.65921 6.67576 4.72608 6.48088 4.80617C6.47101 4.80042 6.46256 4.79254 6.45613 4.7831C6.44971 4.77365 6.44549 4.76289 6.44376 4.75161C6.42713 4.73893 6.43584 4.69301 6.43176 4.66381C6.55761 4.60215 6.78786 4.5412 7.04329 4.44702C7.03476 4.47437 7.03363 4.5035 7.04002 4.53143C7.04641 4.55936 7.0601 4.58509 7.07968 4.60601Z" fill="#D14F15"/>
<path d="M7.04332 4.44708C6.78788 4.54125 6.55763 4.6022 6.43178 4.66387C6.39125 4.60495 6.37122 4.53433 6.3748 4.4629C6.38362 4.41705 6.3757 4.3585 6.40096 4.32529C6.40096 4.32529 6.69846 4.21059 7.15889 4.08862C7.07756 4.18981 7.03641 4.31744 7.04332 4.44708Z" fill="#BA4104"/>
<path d="M8.98001 5.76508C8.51701 5.81832 8.04799 5.75893 7.61287 5.59197C7.17774 5.42501 6.78939 5.15541 6.48083 4.80612C6.67571 4.72603 6.87577 4.65916 7.07964 4.60596C7.18099 5.02452 7.7546 5.409 8.98001 5.76508Z" fill="#BA4104"/>
<path d="M11.849 4.99139L11.8475 4.99314C10.8763 5.71805 9.69701 6.11 8.48513 6.11066C7.51743 6.18276 6.54635 6.02581 5.65063 5.65253V5.65086L6.33403 5.18508C6.89467 4.79259 7.5355 4.52952 8.2102 4.41489C8.88491 4.30026 9.57665 4.33693 10.2355 4.52224L11.849 4.99139Z" fill="#79A03C"/>
<path d="M11.7481 5.07803L11.7466 5.07964C10.8022 5.75101 9.6724 6.11209 8.51369 6.11284C7.58569 6.18152 6.65416 6.03979 5.78857 5.69822V5.69665L6.44571 5.26756C6.99147 4.90465 7.60818 4.66197 8.2549 4.55563C8.90162 4.44928 9.56357 4.48171 10.1968 4.65076L11.7481 5.07803Z" fill="#88B649"/>
<path d="M5.83935 6.07372C6.11536 6.07372 6.3391 5.84998 6.3391 5.57397C6.3391 5.29797 6.11536 5.07422 5.83935 5.07422C5.56335 5.07422 5.3396 5.29797 5.3396 5.57397C5.3396 5.84998 5.56335 6.07372 5.83935 6.07372Z" fill="white"/>
<path d="M5.39965 5.49145C5.67566 5.49145 5.89941 5.2677 5.89941 4.99169C5.89941 4.71569 5.67566 4.49194 5.39965 4.49194C5.12365 4.49194 4.8999 4.71569 4.8999 4.99169C4.8999 5.2677 5.12365 5.49145 5.39965 5.49145Z" fill="white"/>
<path d="M4.96899 5.68139C5.245 5.68139 5.46874 5.45764 5.46874 5.18164C5.46874 4.90563 5.245 4.68188 4.96899 4.68188C4.69298 4.68188 4.46924 4.90563 4.46924 5.18164C4.46924 5.45764 4.69298 5.68139 4.96899 5.68139Z" fill="white"/>
<path d="M4.73315 5.02685C5.00916 5.02685 5.2329 4.8031 5.2329 4.5271C5.2329 4.25109 5.00916 4.02734 4.73315 4.02734C4.45715 4.02734 4.2334 4.25109 4.2334 4.5271C4.2334 4.8031 4.45715 5.02685 4.73315 5.02685Z" fill="white"/>
<path d="M14.957 14.1257C19.0537 13.8702 22.2754 12.0705 22.1528 10.106C22.0303 8.14149 18.6099 6.75612 14.5133 7.01166C10.4166 7.26721 7.19492 9.0669 7.31746 11.0314C7.44 12.9959 10.8604 14.3813 14.957 14.1257Z" fill="#0A564F"/>
<path d="M14.7887 23.0689C11.9303 23.2017 9.44541 22.5687 8.20894 21.4691C7.9736 21.2968 7.77632 21.0778 7.62945 20.8259C7.48257 20.5739 7.38927 20.2943 7.35536 20.0047C7.34615 19.9607 7.34508 19.9154 7.35221 19.871L7.30725 10.9352L20.6757 10.2765L22.1551 10.1958L22.1873 19.1482C22.2015 21.1284 18.8756 22.8744 14.7887 23.0689Z" fill="#0C3A37"/>
<path d="M13.3038 22.2262C11.5709 22.3424 9.83319 22.0842 8.20894 21.469C7.9736 21.2968 7.77632 21.0778 7.62945 20.8258C7.48257 20.5739 7.38927 20.2943 7.35536 20.0046C7.34615 19.9606 7.34508 19.9153 7.35221 19.871L7.30725 10.9352L20.6757 10.2765L20.7151 18.289C20.7128 20.2564 17.4034 22.015 13.3038 22.2262Z" fill="#0A564F"/>
<path d="M21.4713 10.2384C21.4781 11.8897 18.5835 13.3714 15.0061 13.5464C11.7862 13.704 9.11442 12.7496 8.60549 11.3546C8.60026 11.3428 8.59569 11.3308 8.59181 11.3185C8.58121 11.2913 8.57357 11.2626 8.56594 11.2353C8.53361 11.117 8.51694 10.995 8.51637 10.8724C8.50958 9.22109 11.4041 7.74093 14.9816 7.56584C16.1075 7.50206 17.2369 7.59241 18.3384 7.83441C18.5339 7.8801 18.7234 7.92921 18.9039 7.98633C18.9926 8.01116 19.0799 8.03913 19.1641 8.06876C20.5721 8.54631 21.4675 9.32216 21.4713 10.2384Z" fill="#FFFAEB"/>
<path d="M19.1146 8.60079C19.2954 8.48001 19.3861 8.29853 19.3172 8.19544C19.2483 8.09235 19.0459 8.1067 18.8652 8.22748C18.6844 8.34826 18.5937 8.52974 18.6625 8.63282C18.7314 8.73591 18.9338 8.72157 19.1146 8.60079Z" fill="#F4E9CE"/>
<path d="M12.2954 13.0154C12.3923 12.8866 12.221 12.5944 11.9129 12.3628C11.6048 12.1313 11.2766 12.048 11.1797 12.1769C11.0829 12.3057 11.2542 12.5979 11.5622 12.8294C11.8703 13.061 12.1986 13.1443 12.2954 13.0154Z" fill="#F4E9CE"/>
<path d="M15.2986 8.08484C15.5958 8.06875 15.8325 7.97808 15.8273 7.88232C15.8222 7.78656 15.577 7.72198 15.2798 7.73807C14.9826 7.75417 14.7459 7.84484 14.7511 7.9406C14.7563 8.03636 15.0014 8.10094 15.2986 8.08484Z" fill="#F4E9CE"/>
<path d="M19.0814 10.5562C19.1569 10.4558 19.0234 10.2279 18.7831 10.0473C18.5428 9.86675 18.2868 9.80181 18.2113 9.90229C18.1358 10.0028 18.2694 10.2306 18.5096 10.4112C18.7499 10.5918 19.0059 10.6567 19.0814 10.5562Z" fill="#F4E9CE"/>
<path d="M17.4 12.9125C17.4382 12.7831 17.2088 12.6015 16.8877 12.5069C16.5666 12.4123 16.2754 12.4406 16.2373 12.5701C16.1991 12.6996 16.4285 12.8812 16.7496 12.9758C17.0707 13.0703 17.3619 13.042 17.4 12.9125Z" fill="#F4E9CE"/>
<path d="M12.6358 12.809C12.8966 12.6403 13.0655 12.4377 13.013 12.3565C12.9605 12.2753 12.7065 12.3462 12.4456 12.5149C12.1847 12.6836 12.0158 12.8861 12.0683 12.9673C12.1208 13.0486 12.3749 12.9776 12.6358 12.809Z" fill="#F4E9CE"/>
<path d="M18.7306 10.0548C18.7193 10.2241 18.6712 10.3889 18.5895 10.5377C18.5079 10.6865 18.3947 10.8156 18.258 10.9161L18.2565 10.9177C17.3121 11.5891 16.1823 11.9501 15.0236 11.9509C14.0956 12.0196 13.1641 11.8778 12.2985 11.5363V11.5347C12.0812 11.4622 11.8822 11.3434 11.7153 11.1865C11.5484 11.0295 11.4176 10.8382 11.3319 10.6257C11.3131 10.5582 11.3033 10.4885 11.3025 10.4184C11.2986 9.47154 12.958 8.62283 15.0095 8.52242C15.1823 8.51402 15.3504 8.51187 15.5172 8.51445C15.9941 8.5173 16.4693 8.57176 16.9344 8.67689C18.0094 8.92356 18.728 9.4333 18.7306 10.0548Z" fill="#FF8340"/>
<path d="M21.4713 10.2384C21.478 11.8897 18.5835 13.3714 15.0061 13.5464C11.7862 13.704 9.1144 12.7496 8.60547 11.3546C8.74101 11.4432 8.92175 11.5633 9.15521 11.7145C9.66944 12.1017 10.2305 12.4223 10.825 12.6689C11.4055 12.8339 11.4213 12.6428 12.4673 12.785C13.2399 12.8915 13.3335 13.0097 13.8925 13.0606C14.4915 13.0444 15.0883 12.9824 15.6778 12.875C16.1779 12.8367 16.723 12.8177 17.1016 12.8053C17.821 12.7809 17.4383 12.7647 17.7535 12.6956C18.2772 12.5794 18.2421 12.396 18.4759 12.2664C19.0659 11.9165 19.5612 11.4275 19.9186 10.8422C20.011 10.6703 20.9291 10.6363 20.8083 10.1081C20.6933 9.6981 20.4349 9.34304 20.0801 9.10762C19.5723 8.7119 19.2843 8.81502 19.0635 8.46664C18.9744 8.3208 18.9198 8.15651 18.9038 7.98633C18.9926 8.01116 19.0798 8.03913 19.164 8.06876C20.572 8.54631 21.4675 9.32216 21.4713 10.2384Z" fill="#F4E9CE"/>
<path d="M18.7949 10.0178C18.7952 10.0644 18.7909 10.1109 18.782 10.1566C18.7716 10.2112 18.7552 10.2645 18.7331 10.3156C18.6931 10.4088 18.6399 10.4957 18.5749 10.5736C18.5421 10.615 18.5061 10.6537 18.4672 10.6893C17.7199 11.2793 16.7943 11.5979 15.8422 11.5929C15.7235 11.5987 15.6079 11.6013 15.4937 11.5993C15.027 11.6538 14.554 11.5957 14.1143 11.4301C13.6746 11.2644 13.2809 10.9959 12.9662 10.6469C12.9413 10.6028 12.9219 10.5558 12.9085 10.507V10.5055C12.8726 10.3903 12.868 10.2676 12.8951 10.15C12.907 10.0942 12.9249 10.0398 12.9485 9.98776V9.98622C13.0398 9.8019 13.1729 9.6414 13.3371 9.51746C13.4854 9.39853 13.6467 9.29691 13.8181 9.21455C14.2488 9.00873 14.708 8.8688 15.1803 8.79944C15.3956 8.76529 15.6127 8.74288 15.8304 8.73232C16.7478 8.63065 17.6718 8.85314 18.4423 9.36123C18.565 9.45832 18.6633 9.58286 18.7292 9.72483C18.7717 9.81669 18.7941 9.91659 18.7949 10.0178Z" fill="#D04C04"/>
<path d="M12.9485 9.98779C12.925 10.0398 12.9071 10.0942 12.8951 10.15L12.9485 9.98779Z" fill="#F0AC64"/>
<path d="M12.9457 9.97961C12.9249 10.0387 12.9131 10.1006 12.9108 10.1632L12.8942 10.1506C12.9155 10.088 12.9242 10.042 12.9457 9.97961Z" fill="#E55D1A"/>
<path d="M18.7287 10.316C17.2295 9.14746 14.8451 9.58883 13.6687 9.92655C13.7062 9.84291 13.7625 9.76905 13.8332 9.71068C14.3341 9.57766 14.8446 9.48374 15.3601 9.42977C16.5493 9.23955 17.7669 9.49421 18.7801 10.1451C18.7823 10.2062 18.7642 10.2663 18.7287 10.316Z" fill="#E55D1A"/>
<path d="M18.7374 9.71868C18.0848 9.35328 17.3657 9.12188 16.6225 9.03805C15.8793 8.95422 15.1268 9.01965 14.4092 9.23051C14.5184 9.15617 14.6568 9.0778 14.7953 8.99951L14.8245 8.99566C16.0355 8.72212 17.3025 8.84899 18.4352 9.35719C18.5634 9.45179 18.667 9.57575 18.7374 9.71868Z" fill="#E55D1A"/>
<path d="M12.9415 10.5018C12.9456 10.531 12.9369 10.5769 12.9535 10.5896C12.9317 10.5664 12.9173 10.5371 12.9124 10.5056C12.914 10.5034 12.916 10.5016 12.9184 10.5002C12.9208 10.4988 12.9234 10.4978 12.9261 10.4975C12.9289 10.4971 12.9316 10.4973 12.9343 10.4981C12.9369 10.4988 12.9394 10.5001 12.9415 10.5018Z" fill="#E55D1A"/>
<path d="M12.9536 10.5896C12.9553 10.6009 12.9595 10.6116 12.966 10.6211C12.9724 10.6305 12.9808 10.6384 12.9907 10.6442C12.9885 10.6424 12.9861 10.6412 12.9834 10.6404C12.9807 10.6397 12.9779 10.6395 12.9752 10.6399C12.9725 10.6403 12.9698 10.6412 12.9675 10.6426C12.9651 10.644 12.963 10.6459 12.9614 10.6481C12.9449 10.6355 12.9575 10.6189 12.9536 10.5896Z" fill="#E55D1A"/>
<path d="M18.5847 10.5738C18.5467 10.6237 18.5048 10.6444 18.4669 10.6942C16.9456 9.69258 14.7534 10.1229 13.5895 10.444C13.5699 10.4231 13.5563 10.3974 13.5499 10.3694C13.5435 10.3415 13.5446 10.3124 13.5531 10.285C14.1065 10.138 14.6701 10.032 15.2391 9.9679C16.3908 9.77286 17.5745 9.98724 18.5847 10.5738Z" fill="#E55D1A"/>
<path d="M14.7954 8.99939C14.6569 9.07768 14.5185 9.15605 14.4093 9.23039C14.0544 9.30359 13.7037 9.39576 13.3586 9.50651C13.3644 9.49663 13.3723 9.48817 13.3818 9.48173C13.3912 9.47529 13.402 9.47105 13.4133 9.46931C13.5354 9.37048 13.6693 9.28729 13.8121 9.22168L13.8413 9.21783C14.1549 9.12669 14.4734 9.05376 14.7954 8.99939Z" fill="#D14F15"/>
<path d="M14.7954 8.99941C14.4735 9.05377 14.1549 9.12669 13.8413 9.21781C14.2634 9.00524 14.7174 8.86329 15.1854 8.79761C15.0607 8.8551 14.9402 8.92124 14.8247 8.99554L14.7954 8.99941Z" fill="#BA4104"/>
<path d="M13.8331 9.71069C13.7624 9.76906 13.7061 9.84293 13.6686 9.92656C13.2081 10.0485 12.9106 10.1632 12.9106 10.1632C12.913 10.1006 12.9247 10.0387 12.9455 9.97962L12.9582 9.963C13.1299 9.91005 13.4312 9.82456 13.8331 9.71069Z" fill="#D14F15"/>
<path d="M13.8331 9.71071C13.4313 9.82458 13.1299 9.91005 12.9583 9.96308C13.0518 9.78011 13.1893 9.62324 13.3585 9.50659C13.7035 9.39584 14.0542 9.30367 14.4091 9.23047C14.1903 9.35532 13.9953 9.51791 13.8331 9.71071Z" fill="#BA4104"/>
<path d="M13.5896 10.444C13.3857 10.4972 13.1856 10.5641 12.9908 10.6442C12.9809 10.6384 12.9724 10.6306 12.966 10.6211C12.9596 10.6117 12.9554 10.6009 12.9537 10.5896C12.937 10.577 12.9457 10.531 12.9417 10.5018C13.0675 10.4402 13.2977 10.3792 13.5532 10.285C13.5446 10.3124 13.5435 10.3415 13.5499 10.3694C13.5563 10.3974 13.57 10.4231 13.5896 10.444Z" fill="#D14F15"/>
<path d="M13.5532 10.285C13.2978 10.3791 13.0675 10.4401 12.9417 10.5018C12.9011 10.4428 12.8811 10.3722 12.8847 10.3008C12.8935 10.2549 12.8856 10.1964 12.9108 10.1632C12.9108 10.1632 13.2083 10.0485 13.6688 9.92651C13.5874 10.0277 13.5463 10.1553 13.5532 10.285Z" fill="#BA4104"/>
<path d="M15.4899 11.6031C15.0269 11.6563 14.5579 11.597 14.1228 11.43C13.6876 11.263 13.2993 10.9934 12.9907 10.6441C13.1856 10.564 13.3857 10.4972 13.5895 10.444C13.6909 10.8625 14.2645 11.247 15.4899 11.6031Z" fill="#BA4104"/>
<path d="M18.3588 10.8293L18.3572 10.831C17.3861 11.556 16.2068 11.9479 14.9949 11.9485C14.0272 12.0206 13.0561 11.8637 12.1604 11.4904V11.4888L12.8438 11.023C13.4044 10.6305 14.0453 10.3674 14.72 10.2528C15.3947 10.1382 16.0864 10.1748 16.7452 10.3601L18.3588 10.8293Z" fill="#79A03C"/>
<path d="M18.258 10.916L18.2565 10.9176C17.3121 11.589 16.1823 11.9501 15.0236 11.9508C14.0956 12.0195 13.164 11.8778 12.2985 11.5362V11.5347L12.9556 11.1056C13.5014 10.7427 14.1181 10.5 14.7648 10.3936C15.4115 10.2873 16.0735 10.3197 16.7067 10.4888L18.258 10.916Z" fill="#88B649"/>
<path d="M12.3491 11.9116C12.6251 11.9116 12.8489 11.6879 12.8489 11.4119C12.8489 11.1359 12.6251 10.9121 12.3491 10.9121C12.0731 10.9121 11.8494 11.1359 11.8494 11.4119C11.8494 11.6879 12.0731 11.9116 12.3491 11.9116Z" fill="white"/>
<path d="M11.9094 11.3293C12.1854 11.3293 12.4092 11.1056 12.4092 10.8296C12.4092 10.5536 12.1854 10.3298 11.9094 10.3298C11.6334 10.3298 11.4097 10.5536 11.4097 10.8296C11.4097 11.1056 11.6334 11.3293 11.9094 11.3293Z" fill="white"/>
<path d="M11.4788 11.5193C11.7548 11.5193 11.9785 11.2955 11.9785 11.0195C11.9785 10.7435 11.7548 10.5198 11.4788 10.5198C11.2028 10.5198 10.979 10.7435 10.979 11.0195C10.979 11.2955 11.2028 11.5193 11.4788 11.5193Z" fill="white"/>
<path d="M11.2429 10.8649C11.5189 10.8649 11.7427 10.6411 11.7427 10.3651C11.7427 10.0891 11.5189 9.86536 11.2429 9.86536C10.9669 9.86536 10.7432 10.0891 10.7432 10.3651C10.7432 10.6411 10.9669 10.8649 11.2429 10.8649Z" fill="white"/>
</svg>
