<svg width="22" height="23" viewBox="0 0 22 23" fill="none" xmlns="http://www.w3.org/2000/svg">
<path d="M21.9589 11.6478C21.9571 14.0517 21.1517 16.3859 19.6708 18.2793C18.1899 20.1728 16.1184 21.5168 13.7859 22.0976C11.4533 22.6784 8.99348 22.4628 6.79756 21.4849C4.60164 20.5071 2.79568 18.8231 1.66682 16.7009C0.537959 14.5786 0.151017 12.1399 0.567516 9.77243C0.984015 7.40498 2.18004 5.24474 3.96543 3.63518C5.75082 2.02562 8.02306 1.05915 10.4209 0.889449C12.8187 0.719747 15.2044 1.35655 17.1987 2.69861C18.6647 3.68599 19.8657 5.01858 20.6957 6.57911C21.5258 8.13965 21.9596 9.88028 21.9589 11.6478Z" fill="#537E9B"/>
<path d="M21.3584 11.1738C21.3577 13.13 20.8251 15.0492 19.8177 16.726C18.8102 18.4029 17.3659 19.7743 15.6391 20.6935C13.9124 21.6128 11.9682 22.0453 10.0145 21.9448C8.06092 21.8443 6.17138 21.2145 4.54808 20.1229C2.33312 18.4102 0.870628 15.9036 0.469532 13.1326C0.0684355 10.3616 0.760148 7.54316 2.39855 5.2727C4.03695 3.00223 6.49375 1.45752 9.24995 0.964865C12.0062 0.472212 14.8459 1.0702 17.1694 2.6325C18.4744 3.64098 19.5307 4.93539 20.2569 6.41614C20.9831 7.89689 21.36 9.52451 21.3584 11.1738Z" fill="#5D88AB"/>
<path d="M11.1737 20.9046C16.286 20.9046 20.4304 16.7602 20.4304 11.6479C20.4304 6.5355 16.286 2.39111 11.1737 2.39111C6.06129 2.39111 1.9169 6.5355 1.9169 11.6479C1.9169 16.7602 6.06129 20.9046 11.1737 20.9046Z" fill="#442A19"/>
<path d="M19.8645 11.6479C19.8758 12.8 19.6598 13.9431 19.2291 15.0117C18.7983 16.0804 18.1611 17.0537 17.354 17.876C16.5469 18.6982 15.5856 19.3534 14.5252 19.804C13.4647 20.2545 12.3259 20.4917 11.1737 20.5019C9.70794 20.499 8.26706 20.1229 6.98688 19.4091C5.7067 18.6952 4.62939 17.6671 3.85652 16.4217C2.95342 14.9937 2.47685 13.3375 2.48284 11.6479C2.47159 10.4957 2.68751 9.35262 3.11828 8.28396C3.54904 7.21529 4.1862 6.24201 4.99332 5.41973C5.80044 4.59745 6.76171 3.9423 7.82217 3.49173C8.88264 3.04116 10.0215 2.804 11.1737 2.79382C13.1255 2.7946 15.0176 3.46695 16.5323 4.69795C17.5775 5.52867 18.4205 6.58582 18.9977 7.78969C19.5749 8.99357 19.8713 10.3128 19.8645 11.6479Z" fill="#C12D05"/>
<path d="M17.8924 9.44456C17.9128 11.7708 17.0089 14.01 15.3793 15.6702C13.7497 17.3303 11.5277 18.2757 9.20153 18.2986C7.25824 18.2991 5.37284 17.6371 3.85652 16.4217C2.95342 14.9937 2.47685 13.3375 2.48284 11.6479C2.47159 10.4957 2.68751 9.35262 3.11828 8.28396C3.54904 7.21529 4.1862 6.24201 4.99332 5.41973C5.80044 4.59745 6.76171 3.9423 7.82218 3.49173C8.88264 3.04116 10.0215 2.804 11.1737 2.79382C13.1255 2.7946 15.0176 3.46695 16.5323 4.69795C17.4214 6.12149 17.8927 7.76618 17.8924 9.44456Z" fill="#CC3604"/>
<path d="M16.2732 9.78418C16.2458 9.82813 16.2139 9.86915 16.178 9.90658C15.8831 10.1674 15.5416 10.3704 15.1716 10.5049C15.0218 10.5844 14.8843 10.6852 14.7635 10.8042L14.7771 10.3146C14.7853 10.1446 14.8439 9.98084 14.9454 9.84422C15.0469 9.7076 15.1868 9.60428 15.3472 9.5474C15.5076 9.49053 15.6813 9.48268 15.8463 9.52484C16.0112 9.56701 16.1598 9.65729 16.2732 9.78419V9.78418Z" fill="#A83200"/>
<path d="M16.6306 12.7039C16.6451 13.4453 16.5449 14.1845 16.3337 14.8952C16.247 15.0414 16.1784 15.1974 16.1293 15.3601C16.0516 15.7349 16.3028 16.0938 16.3647 16.4716C16.397 16.7823 16.317 17.0944 16.1392 17.3513C15.9613 17.6083 15.6973 17.793 15.395 17.8721C15.2669 17.9108 15.1307 17.914 15.001 17.8812C14.9073 17.847 14.8227 17.7919 14.7536 17.7201C14.6844 17.6482 14.6326 17.5615 14.602 17.4666C14.5425 17.2763 14.5179 17.0768 14.5293 16.8778C14.5358 16.2907 14.611 15.7063 14.7535 15.1367C14.8336 14.8806 14.8824 14.6158 14.8988 14.3481C14.8715 14.0183 14.808 13.6926 14.7095 13.3767C14.5828 12.5837 14.5961 11.7746 14.7486 10.9861C14.7607 10.8437 14.7936 10.7039 14.8463 10.5711C15.0945 10.0264 16.2023 9.43678 16.6827 9.99761C17.305 10.7242 16.7397 11.9026 16.6306 12.7039Z" fill="#A83200"/>
<path d="M12.3666 6.55097C12.6098 6.27406 12.8452 5.99061 13.0729 5.7006C13.3115 5.36455 13.5877 5.05678 13.896 4.78326C14.0511 4.64714 14.2319 4.54336 14.4276 4.47802C14.6234 4.41267 14.8302 4.38707 15.036 4.40272C15.2413 4.42475 15.4333 4.51523 15.5809 4.65958C15.7286 4.80393 15.8234 4.99377 15.8501 5.19854C15.8933 6.00605 14.7052 6.39907 14.6057 7.20157C15.1155 7.04513 15.4899 6.50008 16.0231 6.50854C16.1319 6.51634 16.2377 6.54732 16.3335 6.5994C16.4293 6.65148 16.5129 6.72345 16.5786 6.81049C16.6443 6.89753 16.6906 6.99761 16.7144 7.10402C16.7382 7.21043 16.739 7.3207 16.7167 7.42744C16.6319 7.66283 16.4857 7.87128 16.2933 8.03118C15.8564 8.45705 15.3939 8.85591 14.9085 9.22555C14.6312 9.41194 14.3823 9.63742 14.1695 9.89502C13.8601 10.319 13.4927 10.3683 13.5066 10.893C13.5205 11.4177 13.9052 12.4428 13.8874 12.9674C13.7063 13.9295 13.5889 14.9026 13.5361 15.8801C13.6151 16.3514 13.7205 16.8179 13.8516 17.2773C13.9824 17.7414 13.9502 18.2363 13.7604 18.6795C13.6587 18.8963 13.4825 19.0693 13.2641 19.1673C13.0456 19.2652 12.7992 19.2816 12.5697 19.2133C12.3489 19.0755 12.1728 18.8766 12.0627 18.6408C11.9526 18.405 11.9132 18.1423 11.9493 17.8845C12.029 17.3688 11.9732 16.8413 11.7875 16.3537C11.6169 16.8044 11.3273 17.3225 10.8455 17.3303C10.3493 17.3384 10.0364 16.7842 9.96834 16.2927C9.8941 15.7486 9.97705 15.1947 10.2074 14.6963C10.2865 14.5595 10.3393 14.409 10.3632 14.2528C10.3728 14.1744 10.3546 14.0951 10.3118 14.0287C10.2689 13.9623 10.2041 13.9131 10.1287 13.8897C10.0636 14.2225 9.88064 14.5206 9.61335 14.7293C9.34606 14.9379 9.01243 15.0431 8.67379 15.0254C8.64123 15.0261 8.60886 15.0203 8.57857 15.0083C8.54827 14.9964 8.52065 14.9785 8.4973 14.9558C8.46664 14.8982 8.44595 14.8359 8.4361 14.7714C8.39362 14.6503 8.26878 14.5825 8.17872 14.4911C8.07621 14.344 8.00849 14.1755 7.98067 13.9985C7.95285 13.8214 7.96567 13.6403 8.01815 13.4688L8.16225 12.527C8.17856 12.464 8.17478 12.3976 8.15145 12.3369C8.11629 12.2845 8.06739 12.2429 8.01012 12.2165C7.53912 11.8728 7.1661 11.412 6.928 10.8798C6.71816 11.1636 6.91042 11.5548 7.0567 11.8761C7.34541 12.6866 7.53511 13.5289 7.62166 14.3849C7.65618 14.614 7.72305 14.837 7.82026 15.0473C7.89739 15.1996 8.00213 15.3371 8.07286 15.4925C8.21357 15.9055 8.23371 16.35 8.13091 16.7741C8.09045 17.0514 8.01579 17.3752 7.75738 17.4836C7.61808 17.5322 7.46582 17.5283 7.32925 17.4724C7.07121 17.3434 6.84266 17.1624 6.65799 16.9407C6.47332 16.7191 6.33653 16.4616 6.25624 16.1845C5.84083 15.1847 5.54859 14.1382 5.38595 13.0679C5.35359 12.7642 5.29109 12.4644 5.19936 12.1731C5.10433 11.9126 4.95511 11.6749 4.85485 11.4164C4.69375 10.998 4.6654 10.5402 4.77367 10.1051C4.79647 9.96522 4.86919 9.83837 4.97836 9.74803C5.09417 9.66938 5.27212 9.64771 5.31141 9.51335C5.35083 9.37853 5.21301 9.26615 5.11156 9.16895C5.02421 9.08518 4.95451 8.98476 4.90658 8.87363C4.85864 8.7625 4.83343 8.6429 4.83245 8.52188C4.83146 8.40085 4.8547 8.28086 4.90081 8.16896C4.94693 8.05706 5.01497 7.95552 5.10094 7.87033C5.18691 7.78514 5.28906 7.71802 5.40138 7.67293C5.51369 7.62784 5.63389 7.60568 5.7549 7.60777C5.87591 7.60986 5.99528 7.63615 6.10597 7.6851C6.21666 7.73404 6.31643 7.80465 6.39941 7.89276C6.53501 8.03676 6.62015 8.22128 6.74801 8.37224C7.20507 8.91187 8.10408 8.92371 8.5164 9.49825C8.69313 9.46225 8.69098 9.18932 8.56845 9.05699C8.44591 8.92465 8.26086 8.86222 8.14264 8.72603C8.07013 8.62813 8.02591 8.51219 8.01482 8.39086C8.00374 8.26954 8.0262 8.1475 8.07976 8.03808C8.25951 7.62218 8.48145 7.22582 8.7421 6.85522C8.92023 6.67973 9.53778 6.7848 9.78775 6.77834C10.056 6.77142 10.27 7.22746 10.4266 7.44529C10.7584 7.90678 10.0898 8.82721 10.75 8.27896C11.3319 7.74478 11.8723 7.16712 12.3666 6.55097Z" fill="#A83200"/>
<path d="M17.281 7.10423C17.2459 7.24928 17.1708 7.38157 17.0643 7.48607C16.8993 7.4001 16.7462 7.29318 16.6087 7.16796C16.5026 7.06223 16.4032 6.94988 16.3113 6.83159C16.1909 6.69107 15.8456 6.62909 15.7542 6.42559L16.1416 6.13419C16.3493 6.04828 16.5826 6.04837 16.7903 6.13446C16.9979 6.22054 17.1628 6.38556 17.2488 6.59322C17.3131 6.7559 17.3244 6.93476 17.281 7.10423Z" fill="#A83200"/>
<path d="M7.31818 17.4753C7.24107 17.4883 7.1623 17.4877 7.08538 17.4737C6.90181 17.4539 6.73005 17.3735 6.59711 17.2454C6.46417 17.1172 6.37759 16.9485 6.35098 16.7658L6.15076 15.3979C6.70868 15.8419 7.33744 16.1887 8.01064 16.4237L8.02761 16.5081C8.04478 16.6182 8.04004 16.7306 8.01365 16.8389C7.98726 16.9472 7.93974 17.0492 7.87382 17.139C7.80791 17.2289 7.72489 17.3049 7.62954 17.3626C7.53418 17.4203 7.42837 17.4586 7.31818 17.4753Z" fill="#A83200"/>
<path d="M8.12707 16.1496C7.94622 16.129 7.76829 16.0879 7.59667 16.0272C7.21959 15.8925 6.85162 15.7335 6.49507 15.5513C6.48768 15.5522 6.48018 15.5514 6.47312 15.5491C6.46606 15.5467 6.45962 15.5428 6.45427 15.5377V15.524C6.34544 15.4697 6.25027 15.4152 6.15501 15.3608L6.12778 15.2656L6.08698 15.1297C6.1006 15.1297 6.1006 15.116 6.08698 15.1024L4.80853 10.5326C4.75124 10.3162 4.78205 10.0859 4.89421 9.89217C5.00638 9.69843 5.19075 9.55704 5.40696 9.49896C5.54034 9.45797 5.68215 9.45273 5.81819 9.48376C5.95423 9.51479 6.07974 9.58101 6.18216 9.67578C6.31017 9.7828 6.40462 9.92446 6.45418 10.0838L8.12707 16.1496Z" fill="#E1A340"/>
<path d="M8.12709 16.1497C7.94624 16.129 7.76831 16.0879 7.59669 16.0273C7.25507 15.9133 6.92308 15.7723 6.60387 15.6057C6.5705 15.5822 6.53382 15.5639 6.49504 15.5513C6.48765 15.5522 6.48015 15.5515 6.47309 15.5491C6.46603 15.5468 6.45959 15.5428 6.45424 15.5377V15.524L6.42701 15.4424L6.38621 15.3065C6.39983 15.3065 6.39983 15.2929 6.38621 15.2792L5.10775 10.7095C5.06205 10.5377 5.07162 10.3559 5.1351 10.1899C5.19858 10.0239 5.31274 9.88208 5.46138 9.78463C5.53784 9.73774 5.62015 9.70114 5.70618 9.6758C5.8613 9.62817 6.02714 9.62817 6.18226 9.6758C6.31027 9.78282 6.40472 9.92448 6.45429 10.0838L8.12709 16.1497Z" fill="#E7B961"/>
<path d="M7.28601 16.4408C7.27239 16.468 6.61748 15.5784 6.60386 15.6056C6.5705 15.5821 6.53382 15.5638 6.49503 15.5512C6.48765 15.5521 6.48015 15.5514 6.47309 15.549C6.46602 15.5467 6.45958 15.5428 6.45423 15.5376V15.524L6.427 15.4424L6.3862 15.3064C6.39982 15.3064 6.39982 15.2928 6.3862 15.2792L5.10775 10.7094C5.01253 10.3557 4.9814 9.83017 5.28055 9.63982C5.4166 9.8574 5.69834 9.33382 5.83431 9.56499C5.93437 10.2193 5.93244 10.8852 5.82859 11.539C5.73428 12.5368 5.93779 13.5401 6.4134 14.4223C6.57663 14.7624 7.43568 16.0736 7.28601 16.4408Z" fill="#E1A340"/>
<path d="M7.56939 17.2786C7.49449 17.301 7.41626 17.3101 7.33821 17.3057C7.1536 17.3086 6.97327 17.2501 6.82556 17.1393C6.67785 17.0285 6.57114 16.8718 6.52221 16.6937L6.15501 15.3609C6.76339 15.7328 7.4301 15.9995 8.12712 16.1498L8.15435 16.2314C8.18495 16.3385 8.19409 16.4507 8.18123 16.5614C8.16837 16.6721 8.13377 16.7792 8.07942 16.8765C8.02507 16.9738 7.95204 17.0594 7.86451 17.1284C7.77699 17.1974 7.6767 17.2485 7.56939 17.2786Z" fill="#D15702"/>
<path d="M17.1443 7.06445C17.1438 7.21367 17.1014 7.35975 17.0219 7.48607C16.973 7.59733 16.8927 7.69187 16.7907 7.75809L16.5731 7.92129L13.5946 10.0158L13.4994 10.0838V10.0974L11.5817 11.4438C11.482 11.5085 11.3714 11.5546 11.2553 11.5798C11.1028 11.6132 10.9441 11.6029 10.7973 11.5499C10.6505 11.497 10.5217 11.4036 10.4257 11.2806C10.412 11.2806 10.412 11.267 10.3984 11.2533C10.2683 11.0671 10.2167 10.8371 10.2549 10.6131C10.2931 10.3891 10.4179 10.1891 10.6024 10.0565L14.3018 7.44517L15.4714 6.62917L15.8114 6.38437C15.9936 6.25272 16.2206 6.19882 16.4425 6.23452C16.6644 6.27021 16.8631 6.39258 16.9948 6.57471C17.095 6.71809 17.1474 6.88951 17.1443 7.06445Z" fill="#EDA72B"/>
<path d="M13.4994 10.0837V10.0973L11.5817 11.4437C11.482 11.5085 11.3714 11.5546 11.2553 11.5798L11.8401 9.82525C11.9028 9.63327 12.0317 9.46986 12.2039 9.36425C12.376 9.25863 12.5801 9.2177 12.7797 9.24878C12.9792 9.27986 13.1612 9.38092 13.2931 9.53387C13.4249 9.68683 13.4981 9.88172 13.4994 10.0837V10.0837Z" fill="#DF7E0D"/>
<path d="M14.3018 7.44525L11.1465 11.0086C11.0593 11.1114 10.9474 11.1904 10.8213 11.238C10.6952 11.2856 10.559 11.3003 10.4257 11.2806C10.412 11.2806 10.412 11.267 10.3984 11.2534C10.2683 11.0672 10.2167 10.8371 10.2549 10.6131C10.2931 10.3891 10.4179 10.1892 10.6024 10.0566L14.3018 7.44525Z" fill="#DF7E0D"/>
<path d="M13.7169 11.743V18.1217C13.7186 18.3471 13.6308 18.564 13.4727 18.7247C13.3145 18.8853 13.0991 18.9766 12.8737 18.9785C12.819 18.9808 12.7641 18.9762 12.7105 18.9649C12.5152 18.9262 12.3394 18.8211 12.2129 18.6673C12.0865 18.5136 12.0172 18.3208 12.0169 18.1217V11.743C12.0188 11.5176 12.1101 11.3022 12.2708 11.1441C12.4314 10.986 12.6483 10.8981 12.8737 10.8998C13.0141 10.8987 13.1525 10.933 13.2761 10.9995C13.3998 11.0661 13.5046 11.1628 13.581 11.2806C13.6667 11.4199 13.7137 11.5795 13.7169 11.743Z" fill="#EDA72B"/>
<path d="M13.581 11.2806L12.0169 15.9864V11.743C12.0188 11.5176 12.1101 11.3022 12.2708 11.1441C12.4314 10.986 12.6483 10.8981 12.8737 10.8998C13.0141 10.8987 13.1525 10.933 13.2762 10.9995C13.3998 11.0661 13.5046 11.1628 13.581 11.2806Z" fill="#DF7E0D"/>
<path d="M13.6626 10.2878C13.6624 10.3755 13.6486 10.4627 13.6218 10.5462L11.6089 16.6121C11.5382 16.8244 11.3862 17.0001 11.1861 17.1005C10.9861 17.2009 10.7544 17.2178 10.5418 17.1476C10.3293 17.0774 10.1533 16.9257 10.0525 16.7258C9.95169 16.526 9.93426 16.2943 10.004 16.0817L10.7521 13.8375L11.1737 12.5454L12.0169 10.0157C12.0503 9.91029 12.1045 9.81262 12.1764 9.72852C12.2482 9.64442 12.3362 9.57559 12.4352 9.52613C12.5341 9.47667 12.642 9.44757 12.7523 9.44056C12.8627 9.43356 12.9734 9.44878 13.0778 9.48534C13.2475 9.54027 13.3955 9.64748 13.5005 9.79162C13.6055 9.93576 13.6623 10.1094 13.6626 10.2878Z" fill="#E7B961"/>
<path d="M11.1464 13.5519C11.1192 13.5791 11.1056 13.6063 11.0784 13.6335C10.9871 13.7262 10.8753 13.7961 10.752 13.8375L11.1736 12.5454C11.2206 12.5947 11.2535 12.6558 11.2688 12.7222C11.3241 12.8589 11.3419 13.0078 11.3204 13.1537C11.2989 13.2996 11.2388 13.437 11.1464 13.5519Z" fill="#E1A340"/>
<path d="M16.6002 10.5598V10.6142L16.5186 12.4639L16.4506 14.1503L16.369 16.3536L16.3418 16.9929C16.33 17.2162 16.2305 17.4257 16.0649 17.576C15.8994 17.7263 15.6812 17.8051 15.4578 17.7953C15.3469 17.7924 15.2376 17.7674 15.1364 17.722C15.0352 17.6765 14.944 17.6114 14.8681 17.5305C14.7922 17.4495 14.7331 17.3543 14.6942 17.2504C14.6554 17.1464 14.6375 17.0358 14.6417 16.9249L14.669 16.3401L14.8865 11.0358L14.9001 10.5462C14.9083 10.3762 14.9669 10.2125 15.0684 10.0758C15.1699 9.93923 15.3098 9.83591 15.4702 9.77903C15.6307 9.72216 15.8044 9.7143 15.9693 9.75647C16.1342 9.79864 16.2828 9.88892 16.3963 10.0158C16.5269 10.167 16.5993 10.36 16.6002 10.5598Z" fill="#FFCE75"/>
<path d="M7.58305 16.0001C7.29745 15.8777 7.01185 15.7688 6.72625 15.6329C6.58604 15.5685 6.4498 15.4958 6.31825 15.4152C6.24842 15.374 6.18438 15.3237 6.12782 15.2656L6.15505 15.3608C6.19707 15.3971 6.24262 15.429 6.29102 15.4561C6.42259 15.5366 6.55886 15.6093 6.69911 15.6736C6.98471 15.8097 7.28393 15.9185 7.56948 16.0408C7.5831 16.0408 7.59671 16.0408 7.59671 16.0272C7.59671 16.0136 7.59666 16.0001 7.58305 16.0001Z" fill="white"/>
<path d="M5.46087 10.6831C5.42101 10.659 5.39157 10.621 5.37832 10.5763C5.36507 10.5317 5.36895 10.4837 5.38922 10.4418C5.53735 10.1418 5.88937 9.52844 6.15892 9.84579C6.15892 9.84575 6.76145 11.4596 5.46087 10.6831Z" fill="#FFFAE8"/>
<path d="M10.9561 13.4431C10.9289 13.4703 10.9153 13.4975 10.888 13.5247C10.8112 13.6063 10.7185 13.6714 10.6155 13.7158C10.5126 13.7602 10.4017 13.7832 10.2896 13.7832C10.1775 13.7832 10.0666 13.7602 9.9637 13.7158C9.86079 13.6714 9.76805 13.6063 9.69119 13.5247L5.17584 9.02295C5.01733 8.86137 4.92853 8.64406 4.92853 8.41771C4.92853 8.19136 5.01733 7.97405 5.17584 7.81247C5.19494 7.79029 5.21799 7.77185 5.24383 7.7581C5.40864 7.62751 5.61519 7.56106 5.82523 7.57105C6.03527 7.58105 6.23457 7.66682 6.38623 7.81247L10.888 12.3279C10.977 12.4034 11.043 12.5023 11.0785 12.6135C11.1337 12.7502 11.1515 12.8991 11.13 13.0449C11.1085 13.1908 11.0485 13.3283 10.9561 13.4431Z" fill="#FFCE75"/>
<path d="M10.1809 7.69008V7.74453L9.92246 14.1232C9.91061 14.3465 9.81108 14.5561 9.64552 14.7063C9.47995 14.8566 9.26176 14.9354 9.03838 14.9256C8.91473 14.9199 8.79373 14.8879 8.68348 14.8316C8.57324 14.7753 8.47631 14.696 8.39919 14.5992C8.2785 14.4389 8.21612 14.2422 8.22238 14.0416L8.48079 7.71731V7.6765C8.48518 7.56486 8.51153 7.45517 8.55835 7.35371C8.60516 7.25226 8.67152 7.16103 8.75362 7.08524C8.83572 7.00946 8.93196 6.9506 9.03683 6.91203C9.1417 6.87347 9.25314 6.85596 9.36478 6.86051C9.58242 6.86417 9.7899 6.95317 9.94255 7.10833C10.0952 7.2635 10.1808 7.47241 10.1809 7.69008Z" fill="#EDA72B"/>
<path d="M8.16784 12.0015L5.17576 9.02299C5.07327 8.91374 4.99969 8.78064 4.96168 8.63575C4.92367 8.49086 4.92244 8.33877 4.9581 8.19328C4.98533 8.16614 4.9989 8.13891 5.0261 8.11168C5.04528 8.08956 5.06835 8.07113 5.09416 8.05731V8.07093C5.11932 8.42597 5.24687 8.7661 5.46136 9.05013C5.73708 9.38008 6.06295 9.66463 6.42704 9.89337C6.54074 9.98734 6.66379 10.0694 6.79424 10.1383C6.92016 10.1844 7.04283 10.2389 7.16144 10.3015C7.67823 10.5734 7.82782 11.5255 8.16784 12.0015Z" fill="#FFFAE8"/>
<path d="M7.01119 12.9892C7.05125 12.9786 7.04747 12.8325 7.00275 12.6628C6.95803 12.4931 6.8893 12.3641 6.84924 12.3747C6.80918 12.3852 6.81296 12.5314 6.85768 12.701C6.9024 12.8707 6.97113 12.9997 7.01119 12.9892Z" fill="#FFFAE8"/>
<path d="M6.98314 13.2886C6.99931 13.2886 7.01242 13.2511 7.01242 13.2047C7.01242 13.1584 6.99931 13.1208 6.98314 13.1208C6.96697 13.1208 6.95386 13.1584 6.95386 13.2047C6.95386 13.2511 6.96697 13.2886 6.98314 13.2886Z" fill="#FFFAE8"/>
<path d="M8.52156 13.2119C8.54878 13.3343 8.58954 13.4432 8.61676 13.5655C8.67115 13.9056 8.45356 14.2591 8.39919 14.5992C8.2785 14.4389 8.21612 14.2422 8.22238 14.0416L8.48079 7.71729C8.54878 7.86687 8.60319 8.08448 8.64399 8.17974C8.75587 8.40849 8.7744 8.67179 8.69565 8.91395C8.58475 9.40161 8.51703 9.10605 8.3946 9.82692C8.34022 10.1533 8.30017 11.8115 8.30017 12.1379C8.31378 12.3692 8.48079 12.5727 8.48079 12.8039C8.47412 12.9412 8.48786 13.0787 8.52156 13.2119Z" fill="#CC3604"/>
<path d="M9.52864 7.3734C9.52864 7.3734 9.75537 7.20713 9.78561 7.3734C9.81585 7.53967 9.52864 7.3734 9.52864 7.3734Z" fill="#FFFAE8"/>
<path d="M9.65824 7.85873C9.65824 7.85873 9.61934 11.5691 9.52864 11.6478C9.52864 11.6478 10.1158 7.37333 9.65824 7.85873Z" fill="#FFFAE8"/>
<path d="M15.6211 5.74517L11.3912 10.519C11.2784 10.6498 11.1282 10.7427 10.9608 10.7854C10.7935 10.828 10.6171 10.8183 10.4554 10.7575C10.2938 10.6967 10.1547 10.5878 10.0569 10.4454C9.95919 10.303 9.90748 10.1341 9.90879 9.96141C9.90793 9.753 9.98011 9.55086 10.1128 9.39013L10.5616 8.88691L14.3426 4.61629C14.479 4.46013 14.6684 4.35988 14.8742 4.33479C15.0801 4.30971 15.2879 4.36155 15.4579 4.48037C15.488 4.49368 15.5156 4.51207 15.5395 4.53474C15.7103 4.68476 15.8147 4.8963 15.83 5.12311C15.8453 5.34993 15.7702 5.57358 15.6211 5.74517Z" fill="#FFCE75"/>
<path d="M16.9948 6.57478C16.8631 6.39264 16.6644 6.27027 16.4425 6.23458C16.2206 6.19888 15.9936 6.25279 15.8114 6.38443L15.4714 6.62923C15.6075 6.80605 15.9882 6.91483 16.1379 7.02362C16.2547 7.11743 16.3774 7.20374 16.5051 7.28203C16.6679 7.37202 16.8416 7.44059 17.022 7.48603C17.1014 7.35971 17.1438 7.21364 17.1444 7.06441C17.1474 6.88951 17.095 6.71812 16.9948 6.57478Z" fill="#D15702"/>
<path d="M15.4713 8.39726C15.3285 8.55092 15.1967 8.71453 15.077 8.88686C14.834 9.07762 14.5571 9.22067 14.261 9.30848C13.9481 9.43088 13.5401 9.68933 13.5945 10.0157L16.573 7.92126C16.3407 7.9907 16.1171 8.08652 15.9066 8.20686C15.7536 8.25045 15.6072 8.31449 15.4713 8.39726Z" fill="#CC3604"/>
<path d="M16.1106 16.8161C16.2498 16.6982 16.3416 16.5339 16.369 16.3536L16.3418 16.9929C16.33 17.2161 16.2305 17.4257 16.0649 17.576C15.8994 17.7262 15.6812 17.8051 15.4578 17.7953C15.3469 17.7923 15.2376 17.7674 15.1364 17.722C15.0352 17.6765 14.944 17.6114 14.8681 17.5305C14.7922 17.4495 14.7331 17.3543 14.6942 17.2504C14.6554 17.1464 14.6375 17.0358 14.6417 16.9249L14.669 16.3401C14.8502 16.5813 15.0052 16.8412 15.1313 17.1153C15.2129 17.265 15.3626 17.4418 15.5258 17.3873C15.6618 17.3465 15.7026 17.1697 15.7978 17.0609C15.8794 16.9521 16.0154 16.9113 16.1106 16.8161Z" fill="#CC3604"/>
<path d="M16.5187 12.4639L16.4507 14.1503C16.4359 14.049 16.4132 13.9489 16.3827 13.8512C16.2433 13.5825 16.1732 13.2833 16.1787 12.9807C16.2305 12.775 16.3503 12.5929 16.5187 12.4639Z" fill="#CC3604"/>
<path d="M16.3963 10.0158C16.3688 10.0597 16.3369 10.1007 16.3011 10.1382C16.0061 10.399 15.6647 10.602 15.2946 10.7365C15.1448 10.816 15.0074 10.9168 14.8865 11.0358L14.9002 10.5462C14.9083 10.3761 14.9669 10.2124 15.0684 10.0758C15.1699 9.93917 15.3098 9.83585 15.4702 9.77897C15.6307 9.7221 15.8044 9.71424 15.9693 9.75641C16.1342 9.79858 16.2828 9.88885 16.3963 10.0158Z" fill="#D15702"/>
<path d="M12.7649 18.8698C12.7551 18.9056 12.7364 18.9384 12.7105 18.965C12.5152 18.9263 12.3394 18.8212 12.2129 18.6674C12.0865 18.5137 12.0172 18.3209 12.0169 18.1218V16.9113C12.0493 17.0953 12.063 17.2821 12.0577 17.4689C12.0849 17.7137 12.0985 17.9721 12.1257 18.2169C12.1219 18.2433 12.1235 18.2702 12.1306 18.296C12.1376 18.3217 12.1498 18.3458 12.1665 18.3666C12.2209 18.4618 12.3569 18.4618 12.4249 18.5434C12.4794 18.5978 12.5065 18.7066 12.5746 18.7066C12.6017 18.7066 12.6289 18.6794 12.6562 18.6794C12.7377 18.6658 12.7921 18.7882 12.7649 18.8698Z" fill="#CC3604"/>
<path d="M15.6211 5.74516L11.3912 10.519C11.2784 10.6497 11.1282 10.7427 10.9608 10.7854C10.7935 10.828 10.6171 10.8183 10.4554 10.7575C10.2938 10.6967 10.1547 10.5878 10.0569 10.4454C9.95919 10.303 9.90748 10.1341 9.90879 9.96141C9.90793 9.75299 9.98011 9.55085 10.1128 9.39012L10.5616 8.8869C10.6335 9.07088 10.6837 9.2626 10.7112 9.45819C10.752 9.74379 10.9561 10.0838 11.2416 10.0022C11.3166 9.96904 11.3821 9.9176 11.432 9.85258C11.8945 9.36298 12.0848 8.61487 12.6561 8.26138C12.8179 8.17924 12.9726 8.08371 13.1185 7.97578C13.2177 7.85118 13.3 7.71399 13.3633 7.56778C13.6055 7.04084 13.9525 6.5688 14.3833 6.18048C14.4978 6.08198 14.6026 5.97268 14.6962 5.85408C14.9273 5.51408 14.8594 5.03808 15.1042 4.72521C15.1973 4.61262 15.3196 4.52791 15.4578 4.48041C15.4879 4.49372 15.5155 4.51211 15.5394 4.53478C15.7102 4.68479 15.8147 4.89631 15.83 5.12312C15.8453 5.34992 15.7702 5.57356 15.6211 5.74516Z" fill="#F4BE67"/>
<path d="M12.3401 7.98734C12.4165 7.90472 12.4943 7.79654 12.4603 7.68924C12.3782 7.65894 12.2921 7.71804 12.2271 7.7766C11.8944 8.07606 11.6365 8.45178 11.2992 8.74605C11.0854 8.93257 10.5236 9.24126 10.5148 9.55707C10.8006 9.53245 11.1075 9.0746 11.3119 8.89856C11.6716 8.61453 12.0149 8.3103 12.3401 7.98734Z" fill="#FFFAE8"/>
<path d="M13.1769 10.3274C12.9966 10.4445 13.0811 10.7306 13.065 10.9112C13.0407 11.1812 12.9513 11.4413 12.8045 11.6692C12.7159 11.7882 12.6352 11.9129 12.563 12.0425C12.5439 12.0831 12.5467 12.1532 12.5914 12.1488C12.6004 12.1466 12.6089 12.1425 12.6163 12.1368C12.6237 12.1311 12.6298 12.1239 12.6342 12.1157C12.8413 11.8563 13.0022 11.5632 13.1101 11.2492C13.1749 11.0302 13.3043 10.5237 13.1769 10.3274Z" fill="#FFFAE8"/>
<path d="M13.7719 17.1197C13.7603 16.9625 13.7426 16.7962 13.717 16.6214C13.6788 16.3597 13.7253 16.6971 13.7719 17.1197Z" fill="white"/>
<path d="M13.6345 18.8648C13.7903 18.6077 13.8625 18.3086 13.8409 18.0088C13.8426 17.8082 13.8073 17.4402 13.7719 17.1196C13.8319 17.7049 13.7854 18.2961 13.6345 18.8648Z" fill="white"/>
<path d="M11.8466 7.41187C11.7425 7.47266 11.6291 7.51587 11.5109 7.53977C10.2649 7.83119 9.05114 6.61311 8.82797 5.02498C8.73477 4.57488 8.75934 4.10835 8.89931 3.67055C9.03929 3.23274 9.28992 2.83848 9.62695 2.52594C9.8088 2.36688 10.0269 2.25481 10.262 2.19954C10.8438 2.15107 11.4231 2.3172 11.8907 2.66657C12.3583 3.01594 12.6819 3.52439 12.8004 4.09596C13.0542 4.67297 13.0978 5.32069 12.9235 5.92651C12.7493 6.53232 12.3682 7.0579 11.8466 7.41187Z" fill="#FFF2C4"/>
<path d="M11.8466 7.41188C11.7425 7.47267 11.6291 7.51588 11.5109 7.53977C10.2649 7.83119 9.05114 6.61312 8.82797 5.02498C8.73477 4.57489 8.75934 4.10836 8.89931 3.67055C9.03929 3.23274 9.28992 2.83849 9.62695 2.52595C9.71827 2.47625 9.8163 2.44 9.91798 2.41832C10.5 2.36815 11.0802 2.53363 11.5482 2.88329C12.0162 3.23294 12.3394 3.7424 12.4563 4.31477C12.6662 4.8345 12.7203 5.40406 12.612 5.95399C12.5038 6.50393 12.2378 7.01049 11.8466 7.41188Z" fill="#FFFAE8"/>
<path d="M12.2038 5.26316C12.2406 5.41621 12.2468 5.57503 12.2221 5.7305C12.1974 5.88596 12.1422 6.03501 12.0597 6.16908C11.9772 6.30315 11.869 6.4196 11.7414 6.51173C11.6137 6.60387 11.4691 6.66987 11.3159 6.70596C11.0405 6.77359 10.7497 6.73586 10.5007 6.60019C10.2828 6.48891 10.1043 6.31342 9.98937 6.09744C9.87442 5.88146 9.82856 5.6354 9.85797 5.39251C9.88738 5.14962 9.99065 4.92161 10.1538 4.73931C10.317 4.557 10.5322 4.42918 10.7703 4.37312C10.9119 4.33892 11.0591 4.33479 11.2023 4.361C11.4419 4.38986 11.6667 4.49202 11.8459 4.65351C12.0252 4.815 12.1501 5.02792 12.2038 5.26316Z" fill="#F6A635"/>
<path d="M11.8089 5.13809C11.8814 5.44868 11.8276 5.77535 11.6594 6.04631C11.4912 6.31726 11.2222 6.51033 10.9117 6.58308C10.7769 6.61414 10.6376 6.61994 10.5007 6.60019C10.2828 6.48891 10.1043 6.31342 9.98937 6.09744C9.87442 5.88146 9.82856 5.6354 9.85797 5.39251C9.88738 5.14962 9.99065 4.92161 10.1538 4.73931C10.317 4.557 10.5322 4.42918 10.7703 4.37312C10.9119 4.33892 11.0591 4.33479 11.2023 4.361C11.3535 4.43913 11.486 4.54902 11.5907 4.68316C11.6954 4.81729 11.7698 4.97248 11.8089 5.13809Z" fill="#FBD73B"/>
<path d="M10.0501 5.44347L10.0753 5.60652C10.0767 5.65906 10.0987 5.70895 10.1366 5.74538C10.1661 5.76155 10.2006 5.76614 10.2333 5.75824C10.266 5.75034 10.2946 5.73054 10.3135 5.70268C10.3493 5.64539 10.3686 5.57928 10.3691 5.51169C10.3678 5.46485 10.3823 5.41895 10.4103 5.38136C10.4295 5.36635 10.4478 5.35022 10.4651 5.33305C10.4742 5.31966 10.4808 5.30472 10.4846 5.28895C10.5296 5.1321 10.4183 4.96983 10.26 5.04266C10.1823 5.07267 10.1183 5.12986 10.0796 5.20359C10.041 5.27732 10.0305 5.36257 10.0501 5.44347Z" fill="#FFFAE8"/>
<path d="M8.06089 8.43912C7.94722 8.47928 7.82771 8.50043 7.70716 8.50172C6.42853 8.55403 5.46508 7.12976 5.54403 5.52797C5.53698 5.06838 5.6487 4.61476 5.86837 4.21101C6.08805 3.80726 6.40824 3.46707 6.79795 3.22335C7.00642 3.10127 7.24164 3.03213 7.48303 3.02201C8.49244 2.98071 9.43783 3.96281 9.62023 5.36124C9.76122 5.97564 9.68242 6.62003 9.39753 7.18236C9.11264 7.74468 8.63968 8.18938 8.06089 8.43912Z" fill="#FFF2C4"/>
<path d="M8.06089 8.43914C7.94722 8.4793 7.82771 8.50045 7.70716 8.50174C6.42853 8.55405 5.46508 7.12978 5.54403 5.52799C5.53698 5.0684 5.6487 4.61478 5.86837 4.21103C6.08805 3.80728 6.40824 3.46709 6.79795 3.22337C6.89698 3.1917 7.00007 3.1745 7.10402 3.1723C7.68513 3.23229 8.22394 3.50375 8.61798 3.93506C9.01203 4.36636 9.23383 4.92744 9.24122 5.51159C9.34978 6.06147 9.29598 6.63106 9.0864 7.15089C8.87681 7.67072 8.52049 8.11833 8.06089 8.43914Z" fill="#FFFAE8"/>
<path d="M8.81504 6.39581C8.82249 6.55306 8.7988 6.71022 8.74533 6.85828C8.69186 7.00634 8.60966 7.14238 8.50346 7.25858C8.39725 7.37477 8.26914 7.46884 8.12647 7.53537C7.9838 7.60191 7.82939 7.6396 7.67211 7.64627C7.38889 7.66099 7.11038 7.56935 6.89124 7.38933C6.6981 7.23913 6.55574 7.03325 6.48339 6.79953C6.41103 6.56581 6.41218 6.31551 6.48666 6.08246C6.56115 5.84941 6.70539 5.64484 6.89989 5.49641C7.09438 5.34798 7.32976 5.26284 7.57421 5.25249C7.71966 5.24548 7.86497 5.26905 8.00074 5.32168C8.23062 5.39499 8.43223 5.53753 8.57799 5.7298C8.72375 5.92207 8.80654 6.15468 8.81504 6.39581Z" fill="#F6A635"/>
<path d="M8.45073 6.19881C8.46366 6.5175 8.34951 6.82828 8.13338 7.06284C7.91725 7.2974 7.61683 7.43655 7.29814 7.44969C7.15994 7.4549 7.02198 7.43443 6.89124 7.38933C6.69811 7.23913 6.55574 7.03325 6.48339 6.79953C6.41103 6.56581 6.41218 6.31551 6.48666 6.08246C6.56115 5.84941 6.70539 5.64484 6.89988 5.49641C7.09438 5.34798 7.32976 5.26284 7.5742 5.25249C7.71966 5.24548 7.86497 5.26905 8.00074 5.32168C8.13457 5.42679 8.24407 5.55959 8.32174 5.71099C8.39941 5.8624 8.44342 6.02881 8.45073 6.19881Z" fill="#FBD73B"/>
<path d="M6.66586 6.16861L6.65997 6.33349C6.65152 6.38537 6.6638 6.4385 6.69416 6.48141C6.7201 6.50283 6.75311 6.5138 6.78671 6.51218C6.82032 6.51057 6.85211 6.49647 6.87588 6.47266C6.92184 6.42311 6.95317 6.36179 6.96638 6.29551C6.97393 6.24927 6.99681 6.2069 7.03135 6.17524C7.05301 6.16409 7.074 6.15166 7.09419 6.13804C7.10569 6.12663 7.11499 6.1132 7.12165 6.09844C7.19527 5.95282 7.11648 5.77257 6.94726 5.81436C6.86538 5.82925 6.7917 5.87339 6.73993 5.93856C6.68816 6.00372 6.66184 6.08548 6.66586 6.16861Z" fill="#FFFAE8"/>
<path d="M15.1334 13.1505C15.0805 13.5228 15.0676 13.8996 15.0946 14.2747C15.0684 14.6785 15.0208 15.0807 14.9519 15.4795C14.9014 15.6487 14.9106 15.8301 14.9781 15.9933C15.028 15.6974 15.0778 15.4016 15.1276 15.1057C15.1735 14.8337 15.5117 13.198 15.1334 13.1505Z" fill="#FFFAE8"/>
<path d="M16.7554 10.0309C16.7142 9.9666 16.664 9.90848 16.6064 9.85835C16.5273 9.77669 16.4258 9.72031 16.3148 9.69635C16.4693 9.86505 16.6015 10.0529 16.7082 10.2553C16.7416 10.3064 16.7645 10.3637 16.7755 10.4237C16.7865 10.4838 16.7854 10.5454 16.7723 10.6051C16.837 10.4181 16.831 10.2138 16.7554 10.0309Z" fill="#FFFAE8"/>
<path d="M16.2318 9.67895C16.261 9.67322 16.2869 9.69174 16.3148 9.6963C16.2997 9.6795 16.2914 9.65745 16.2759 9.64093L16.2318 9.67895Z" fill="#FFFAE8"/>
<path d="M17.1119 7.59917C17.0408 7.70896 16.9597 7.81202 16.8698 7.90706C16.7996 7.96965 16.7114 8.00838 16.6178 8.01772C16.638 8.02852 16.6553 8.0456 16.6776 8.04619C16.7586 8.03939 16.8354 8.0072 16.8971 7.95421L17.2381 7.71697C17.3 7.67388 17.3695 7.59697 17.3268 7.53475C17.277 7.46237 17.1646 7.52872 17.1119 7.59917Z" fill="#FFFAE8"/>
<path d="M9.28532 16.2191L9.26252 16.2763L9.25603 16.2927L9.18785 16.4641L9.18136 16.4804C9.16134 16.5123 9.13082 16.5361 9.09508 16.5478C9.05933 16.5595 9.02063 16.5583 8.98566 16.5445L8.47132 16.34C8.43641 16.326 8.40747 16.3003 8.38953 16.2672C8.37159 16.2342 8.36576 16.1959 8.37306 16.159L8.37956 16.1427L8.44774 15.9712L8.45424 15.9549L8.47697 15.8977C8.48457 15.8784 8.49593 15.8607 8.5104 15.8458C8.52486 15.8308 8.54214 15.8189 8.56124 15.8107C8.58033 15.8024 8.60087 15.7981 8.62166 15.7978C8.64245 15.7975 8.66309 15.8014 8.68238 15.8092L9.19681 16.0137C9.21616 16.0214 9.23382 16.0327 9.24876 16.0472C9.2637 16.0616 9.27562 16.0789 9.28385 16.098C9.29208 16.1171 9.29645 16.1376 9.2967 16.1584C9.29695 16.1792 9.29309 16.1999 9.28532 16.2191Z" fill="#79A03C"/>
<path d="M9.28529 16.2192L9.26249 16.2763L9.256 16.2927C9.23597 16.3245 9.20545 16.3483 9.16972 16.36C9.13398 16.3717 9.09528 16.3705 9.06032 16.3567L8.5459 16.1521C8.51099 16.1382 8.48207 16.1124 8.46412 16.0794C8.44618 16.0464 8.44034 16.0081 8.44762 15.9712L8.45412 15.9549L8.47685 15.8977C8.48445 15.8784 8.49582 15.8607 8.51028 15.8458C8.52474 15.8308 8.54202 15.8189 8.56112 15.8107C8.58021 15.8024 8.60075 15.7981 8.62154 15.7978C8.64233 15.7975 8.66297 15.8014 8.68226 15.8092L9.19669 16.0138C9.21605 16.0213 9.23372 16.0327 9.24867 16.0472C9.26362 16.0616 9.27556 16.0789 9.2838 16.098C9.29203 16.1171 9.29641 16.1376 9.29666 16.1584C9.29692 16.1792 9.29305 16.1999 9.28529 16.2192Z" fill="#88B649"/>
<path d="M13.3263 14.7996V15.0808C13.3195 15.1178 13.2999 15.1512 13.271 15.1753C13.2421 15.1993 13.2057 15.2126 13.1681 15.2126H12.6145C12.5769 15.2125 12.5405 15.1993 12.5116 15.1752C12.4828 15.1512 12.4632 15.1178 12.4564 15.0808V14.7996C12.4563 14.7788 12.4603 14.7582 12.4682 14.739C12.4761 14.7197 12.4878 14.7023 12.5025 14.6876C12.5172 14.6729 12.5347 14.6612 12.5539 14.6533C12.5731 14.6454 12.5937 14.6413 12.6145 14.6414H13.1681C13.1889 14.6413 13.2095 14.6454 13.2288 14.6533C13.248 14.6612 13.2655 14.6728 13.2802 14.6875C13.2949 14.7023 13.3065 14.7197 13.3144 14.739C13.3224 14.7582 13.3264 14.7788 13.3263 14.7996Z" fill="#79A03C"/>
<path d="M13.3263 14.7996V14.8787C13.3195 14.9157 13.2999 14.9491 13.271 14.9731C13.2421 14.9972 13.2057 15.0104 13.1681 15.0105H12.6145C12.5769 15.0104 12.5405 14.9972 12.5117 14.9731C12.4828 14.9491 12.4632 14.9157 12.4564 14.8787V14.7996C12.4563 14.7788 12.4603 14.7582 12.4682 14.739C12.4761 14.7197 12.4878 14.7023 12.5025 14.6876C12.5172 14.6729 12.5347 14.6612 12.5539 14.6533C12.5731 14.6454 12.5937 14.6413 12.6145 14.6414H13.1681C13.1889 14.6413 13.2095 14.6454 13.2288 14.6533C13.248 14.6612 13.2655 14.6728 13.2802 14.6875C13.2949 14.7023 13.3065 14.7197 13.3144 14.739C13.3224 14.7582 13.3264 14.7788 13.3263 14.7996Z" fill="#88B649"/>
<path d="M12.4687 19.3048L12.4467 19.3623L12.4404 19.3787L12.3745 19.551L12.3683 19.5675C12.3487 19.5996 12.3185 19.6238 12.2829 19.636C12.2473 19.6482 12.2086 19.6475 12.1735 19.6341L11.6563 19.4364C11.6212 19.4229 11.592 19.3976 11.5736 19.3648C11.5552 19.332 11.5489 19.2938 11.5557 19.2568L11.562 19.2404L11.6278 19.0681L11.6341 19.0516L11.6561 18.9942C11.6634 18.9747 11.6746 18.9569 11.6888 18.9418C11.7031 18.9267 11.7202 18.9145 11.7392 18.906C11.7582 18.8975 11.7787 18.8929 11.7995 18.8924C11.8202 18.8919 11.8409 18.8955 11.8603 18.903L12.3774 19.1006C12.3969 19.108 12.4147 19.1191 12.4298 19.1334C12.4449 19.1476 12.4571 19.1647 12.4656 19.1837C12.474 19.2027 12.4787 19.2232 12.4792 19.2439C12.4798 19.2647 12.4762 19.2854 12.4687 19.3048Z" fill="#79A03C"/>
<path d="M12.4687 19.3048L12.4468 19.3623L12.4405 19.3787C12.4209 19.4108 12.3907 19.435 12.3551 19.4472C12.3195 19.4593 12.2808 19.4587 12.2457 19.4453L11.7286 19.2476C11.6935 19.2341 11.6642 19.2088 11.6458 19.176C11.6275 19.1432 11.6211 19.105 11.6279 19.0681L11.6342 19.0516L11.6561 18.9942C11.6635 18.9747 11.6746 18.9569 11.6889 18.9418C11.7032 18.9267 11.7203 18.9145 11.7393 18.906C11.7582 18.8975 11.7787 18.8929 11.7995 18.8924C11.8203 18.8919 11.841 18.8955 11.8604 18.903L12.3775 19.1006C12.3969 19.108 12.4147 19.1191 12.4299 19.1334C12.445 19.1476 12.4571 19.1647 12.4656 19.1837C12.4741 19.2027 12.4787 19.2232 12.4793 19.2439C12.4798 19.2647 12.4762 19.2854 12.4687 19.3048Z" fill="#88B649"/>
<path d="M17.1597 11.7016L17.0988 11.7106L17.0814 11.7131L16.8989 11.74L16.8815 11.7426C16.8439 11.7412 16.808 11.7267 16.78 11.7017C16.7519 11.6766 16.7336 11.6425 16.728 11.6053L16.6474 11.0576C16.642 11.0204 16.6498 10.9825 16.6694 10.9504C16.689 10.9183 16.7192 10.8941 16.7548 10.8819L16.7722 10.8793L16.9547 10.8525L16.9721 10.8499L17.033 10.8409C17.0535 10.8378 17.0745 10.8388 17.0947 10.8439C17.1149 10.8489 17.1338 10.8579 17.1505 10.8703C17.1672 10.8827 17.1813 10.8983 17.1919 10.9161C17.2026 10.934 17.2096 10.9538 17.2125 10.9744L17.2931 11.5221C17.2963 11.5427 17.2953 11.5636 17.2902 11.5838C17.2852 11.604 17.2762 11.623 17.2638 11.6397C17.2514 11.6564 17.2358 11.6704 17.218 11.6811C17.2001 11.6917 17.1803 11.6987 17.1597 11.7016Z" fill="#79A03C"/>
<path d="M17.1597 11.7016L17.0988 11.7106L17.0814 11.7131C17.0438 11.7118 17.0079 11.6973 16.9799 11.6722C16.9519 11.6471 16.9335 11.613 16.928 11.5759L16.8473 11.0281C16.8419 10.9909 16.8497 10.953 16.8693 10.9209C16.8889 10.8889 16.9191 10.8646 16.9547 10.8525L16.9721 10.8499L17.0329 10.8409C17.0535 10.8378 17.0745 10.8388 17.0946 10.8439C17.1148 10.8489 17.1338 10.8579 17.1505 10.8703C17.1672 10.8827 17.1812 10.8983 17.1919 10.9161C17.2025 10.934 17.2095 10.9538 17.2125 10.9744L17.2931 11.5221C17.2962 11.5427 17.2952 11.5636 17.2902 11.5838C17.2852 11.604 17.2762 11.623 17.2638 11.6397C17.2514 11.6564 17.2358 11.6704 17.2179 11.6811C17.2001 11.6917 17.1803 11.6987 17.1597 11.7016Z" fill="#88B649"/>
<path d="M7.38875 9.51248V9.79368C7.38192 9.83066 7.36236 9.86408 7.33348 9.88816C7.30459 9.91224 7.26819 9.92545 7.23058 9.92551H6.67697C6.63937 9.92543 6.60298 9.91222 6.57409 9.88814C6.54521 9.86407 6.52565 9.83065 6.5188 9.79368V9.51248C6.51872 9.49169 6.52275 9.47108 6.53067 9.45185C6.53859 9.43262 6.55024 9.41516 6.56494 9.40045C6.57964 9.38575 6.59712 9.3741 6.61634 9.36618C6.63557 9.35826 6.65618 9.35423 6.67697 9.35431H7.23058C7.25138 9.35422 7.27199 9.35825 7.29122 9.36617C7.31045 9.37409 7.32792 9.38573 7.34262 9.40044C7.35733 9.41514 7.36898 9.43262 7.37689 9.45185C7.38481 9.47108 7.38884 9.49169 7.38875 9.51248Z" fill="#79A03C"/>
<path d="M7.38875 9.51248V9.59159C7.38191 9.62856 7.36235 9.66197 7.33346 9.68604C7.30457 9.7101 7.26818 9.72331 7.23058 9.72337H6.67697C6.63938 9.72329 6.60299 9.71008 6.57411 9.68601C6.54523 9.66195 6.52566 9.62855 6.5188 9.59159V9.51248C6.51872 9.49169 6.52275 9.47108 6.53067 9.45185C6.53859 9.43262 6.55024 9.41516 6.56494 9.40045C6.57964 9.38575 6.59712 9.3741 6.61634 9.36618C6.63557 9.35826 6.65618 9.35423 6.67697 9.35431H7.23058C7.25138 9.35422 7.27199 9.35825 7.29122 9.36617C7.31045 9.37409 7.32792 9.38573 7.34262 9.40044C7.35733 9.41514 7.36898 9.43262 7.37689 9.45185C7.38481 9.47108 7.38884 9.49169 7.38875 9.51248Z" fill="#88B649"/>
<path d="M14.8531 6.62291L14.8972 6.66577L14.9098 6.67803L15.0422 6.80658L15.0548 6.81884C15.0766 6.84951 15.0869 6.88682 15.0841 6.92431C15.0812 6.96181 15.0654 6.99713 15.0392 7.02415L14.6535 7.42127C14.6272 7.44818 14.5924 7.46507 14.555 7.46902C14.5176 7.47296 14.48 7.46371 14.4487 7.44287L14.4361 7.4306L14.3038 7.30206L14.2911 7.28979L14.247 7.24693C14.232 7.2325 14.2201 7.21525 14.2118 7.19618C14.2035 7.1771 14.1991 7.15657 14.1988 7.13578C14.1985 7.11499 14.2023 7.09434 14.21 7.07503C14.2178 7.05572 14.2292 7.03813 14.2438 7.02327L14.6295 6.62616C14.6439 6.61119 14.6612 6.59922 14.6802 6.59095C14.6993 6.58268 14.7198 6.57826 14.7406 6.57796C14.7614 6.57766 14.782 6.58147 14.8014 6.58919C14.8207 6.5969 14.8382 6.60836 14.8531 6.62291Z" fill="#79A03C"/>
<path d="M14.853 6.62295L14.8971 6.66581L14.9098 6.67808C14.9315 6.70874 14.9418 6.74605 14.939 6.78354C14.9361 6.82103 14.9202 6.85634 14.8941 6.88335L14.5084 7.28046C14.4821 7.30737 14.4473 7.32426 14.4099 7.3282C14.3725 7.33214 14.3349 7.3229 14.3036 7.30206L14.291 7.2898L14.2469 7.24694C14.2319 7.23251 14.2199 7.21526 14.2117 7.19618C14.2034 7.1771 14.199 7.15658 14.1987 7.13579C14.1984 7.11499 14.2022 7.09435 14.2099 7.07504C14.2176 7.05573 14.2291 7.03814 14.2436 7.02328L14.6294 6.62616C14.6438 6.61119 14.661 6.59922 14.6801 6.59094C14.6992 6.58267 14.7197 6.57826 14.7405 6.57796C14.7613 6.57766 14.782 6.58148 14.8013 6.5892C14.8206 6.59692 14.8382 6.60839 14.853 6.62295Z" fill="#88B649"/>
<path d="M18.5816 13.4081L18.61 13.4626L18.6181 13.4782L18.7033 13.6419L18.7114 13.6575C18.719 13.6988 18.7125 13.7415 18.6929 13.7786C18.6733 13.8158 18.6418 13.8452 18.6034 13.8623L18.0123 14.1699C17.9763 14.1915 17.9341 14.2004 17.8924 14.1951C17.8507 14.1898 17.8121 14.1707 17.7826 14.1408L17.7744 14.1252L17.6892 13.9616L17.6811 13.946L17.6527 13.8914C17.6354 13.8484 17.6358 13.8003 17.6537 13.7576C17.6717 13.7148 17.7058 13.6809 17.7486 13.6632L18.3397 13.3556C18.3788 13.3307 18.4261 13.3222 18.4714 13.3321C18.5167 13.3419 18.5563 13.3692 18.5816 13.4081Z" fill="#79A03C"/>
<path d="M18.5815 13.4081L18.6099 13.4626L18.6181 13.4782C18.6256 13.5195 18.6191 13.5622 18.5995 13.5993C18.5799 13.6364 18.5484 13.6659 18.5101 13.683L17.919 13.9906C17.8829 14.0122 17.8407 14.021 17.7991 14.0158C17.7574 14.0105 17.7187 13.9914 17.6892 13.9615L17.6811 13.9459L17.6527 13.8914C17.6354 13.8484 17.6358 13.8003 17.6537 13.7576C17.6717 13.7148 17.7058 13.6809 17.7486 13.6632L18.3397 13.3556C18.3788 13.3307 18.4261 13.3222 18.4714 13.3321C18.5167 13.3419 18.5563 13.3692 18.5815 13.4081Z" fill="#88B649"/>
<path d="M5.78178 14.3932L5.77105 14.4099L5.76799 14.4147L5.73583 14.4649L5.73276 14.4697C5.71149 14.483 5.62836 14.4533 5.54683 14.4011L4.97647 14.0355C4.89501 13.9833 4.8333 13.9201 4.8365 13.8952L4.83956 13.8904L4.87173 13.8402L4.87479 13.8354L4.88552 13.8187C4.90083 13.7948 4.98553 13.8221 5.07604 13.8801L5.6464 14.2457C5.73697 14.3038 5.79709 14.3693 5.78178 14.3932Z" fill="#79A03C"/>
<path d="M5.78184 14.3931L5.77111 14.4098L5.76805 14.4146C5.7468 14.428 5.66365 14.3983 5.58212 14.346L5.01176 13.9805C4.93032 13.9283 4.8686 13.8651 4.87179 13.8402L4.87485 13.8354L4.88558 13.8186C4.90089 13.7947 4.98559 13.8221 5.0761 13.8801L5.64646 14.2457C5.73703 14.3037 5.79715 14.3692 5.78184 14.3931Z" fill="#88B649"/>
<path d="M13.3808 10.2591L13.3849 10.2786L13.3861 10.2842L13.3982 10.3425L13.3994 10.3481C13.3936 10.3725 13.3134 10.4095 13.2186 10.4292L12.5553 10.5671C12.4606 10.5868 12.3723 10.5848 12.3571 10.5648L12.3559 10.5592L12.3438 10.5009L12.3426 10.4953L12.3386 10.4758C12.3328 10.4481 12.4124 10.4083 12.5177 10.3864L13.1809 10.2485C13.2863 10.2266 13.3751 10.2313 13.3808 10.2591Z" fill="#79A03C"/>
<path d="M13.3808 10.2591L13.3849 10.2786L13.3861 10.2842C13.3802 10.3086 13.3 10.3455 13.2052 10.3652L12.542 10.5031C12.4472 10.5228 12.359 10.5209 12.3438 10.5009L12.3426 10.4953L12.3386 10.4758C12.3328 10.4481 12.4124 10.4083 12.5177 10.3864L13.1809 10.2485C13.2862 10.2266 13.375 10.2313 13.3808 10.2591Z" fill="#88B649"/>
<path d="M16.5479 14.3901L16.5329 14.4031L16.5286 14.4069L16.4837 14.446L16.4794 14.4498C16.4553 14.4566 16.3838 14.4048 16.3201 14.3318L15.8751 13.8211C15.8115 13.7482 15.7699 13.6702 15.78 13.6472L15.7843 13.6435L15.8292 13.6043L15.8335 13.6006L15.8485 13.5875C15.8699 13.5689 15.9435 13.6188 16.0142 13.6999L16.4593 14.2106C16.5299 14.2917 16.5693 14.3714 16.5479 14.3901Z" fill="#79A03C"/>
<path d="M16.5478 14.3901L16.5329 14.4031L16.5286 14.4069C16.5044 14.4137 16.4329 14.3619 16.3693 14.2889L15.9242 13.7782C15.8606 13.7053 15.8191 13.6273 15.8291 13.6043L15.8334 13.6006L15.8484 13.5875C15.8698 13.5689 15.9435 13.6188 16.0141 13.6999L16.4592 14.2106C16.5299 14.2917 16.5693 14.3714 16.5478 14.3901Z" fill="#88B649"/>
<path d="M13.6128 5.76734L13.5978 5.78039L13.5935 5.78413L13.5486 5.82329L13.5443 5.82703C13.5201 5.83388 13.4486 5.78207 13.385 5.70909L12.9399 5.19836C12.8763 5.12542 12.8348 5.04749 12.8449 5.02447L12.8491 5.02072L12.8941 4.98157L12.8983 4.97784L12.9133 4.96478C12.9347 4.94613 13.0084 4.99607 13.079 5.07712L13.5241 5.58785C13.5948 5.66895 13.6342 5.74875 13.6128 5.76734Z" fill="#79A03C"/>
<path d="M13.6127 5.76734L13.5977 5.78039L13.5934 5.78413C13.5693 5.79098 13.4978 5.73916 13.4342 5.66618L12.9891 5.15545C12.9255 5.08252 12.884 5.0046 12.894 4.98157L12.8983 4.97784L12.9133 4.96478C12.9347 4.94613 13.0083 4.99607 13.079 5.07712L13.5241 5.58785C13.5947 5.66895 13.6341 5.74875 13.6127 5.76734Z" fill="#88B649"/>
<path d="M9.67724 6.55477L9.65131 6.5979L9.64389 6.61024L9.5661 6.73961L9.55867 6.75195C9.53829 6.77499 9.51048 6.79018 9.48007 6.79489C9.44967 6.79959 9.41857 6.7935 9.39218 6.77769L9.00401 6.54425C8.97767 6.52834 8.95773 6.50372 8.94763 6.47467C8.93753 6.44561 8.93791 6.41393 8.9487 6.38512L8.95611 6.37278L9.03391 6.24342L9.04133 6.23111L9.06727 6.18791C9.07598 6.17329 9.0875 6.16055 9.10116 6.15041C9.11482 6.14026 9.13035 6.13293 9.14686 6.12882C9.16337 6.12471 9.18053 6.12391 9.19735 6.12646C9.21417 6.12902 9.23032 6.13488 9.24487 6.1437L9.63303 6.37714C9.64766 6.38584 9.66041 6.39736 9.67056 6.41103C9.68071 6.42469 9.68805 6.44023 9.69216 6.45674C9.69627 6.47326 9.69707 6.49042 9.69451 6.50725C9.69195 6.52408 9.68608 6.54023 9.67724 6.55477Z" fill="#79A03C"/>
<path d="M9.67729 6.55477L9.65136 6.5979L9.64394 6.61024C9.62355 6.63327 9.59575 6.64845 9.56535 6.65315C9.53494 6.65784 9.50386 6.65175 9.47747 6.63594L9.0893 6.40251C9.06298 6.3866 9.04303 6.362 9.03293 6.33295C9.02282 6.3039 9.02319 6.27223 9.03396 6.24342L9.04138 6.23111L9.06732 6.18791C9.07603 6.17329 9.08755 6.16055 9.10121 6.15041C9.11487 6.14026 9.1304 6.13293 9.14691 6.12882C9.16342 6.12471 9.18058 6.12391 9.1974 6.12646C9.21423 6.12902 9.23037 6.13488 9.24492 6.1437L9.63308 6.37714C9.64771 6.38584 9.66046 6.39736 9.67061 6.41103C9.68076 6.42469 9.6881 6.44023 9.69221 6.45674C9.69632 6.47326 9.69712 6.49042 9.69456 6.50725C9.692 6.52408 9.68613 6.54023 9.67729 6.55477Z" fill="#88B649"/>
<path d="M17.9523 9.17572C17.9523 9.24892 17.9255 9.43156 17.8924 9.43156C17.8593 9.43156 17.8324 9.24891 17.8324 9.17572C17.8324 9.10253 17.8592 9.04321 17.8924 9.04321C17.9255 9.04321 17.9523 9.10254 17.9523 9.17572Z" fill="#FFFAE8"/>
<path d="M18.0893 11.9155C18.1391 11.9691 18.2439 12.1211 18.2196 12.1437C18.1954 12.1662 18.0513 12.0508 18.0015 11.9972C17.9516 11.9436 17.9309 11.8819 17.9551 11.8593C17.9794 11.8368 18.0394 11.8619 18.0893 11.9155Z" fill="#FFFAE8"/>
<path d="M10.3291 12.4022C10.3291 12.4754 10.3023 12.658 10.2692 12.658C10.2361 12.658 10.2092 12.4754 10.2092 12.4022C10.2092 12.329 10.2361 12.2697 10.2692 12.2697C10.3023 12.2697 10.3291 12.329 10.3291 12.4022Z" fill="#FFFAE8"/>
<path d="M8.24974 18.4113C8.28131 18.4773 8.3359 18.6537 8.30603 18.6679C8.27617 18.6822 8.17317 18.529 8.14163 18.463C8.1101 18.397 8.10868 18.3319 8.13855 18.3176C8.16842 18.3033 8.21817 18.3453 8.24974 18.4113Z" fill="#FFFAE8"/>
<path d="M12.7032 16.088C12.7032 16.1612 12.6763 16.3438 12.6433 16.3438C12.6102 16.3438 12.5833 16.1612 12.5833 16.088C12.5833 16.0148 12.6101 15.9555 12.6433 15.9555C12.6764 15.9555 12.7032 16.0148 12.7032 16.088Z" fill="#FFFAE8"/>
<path d="M4.83917 12.4022C4.83917 12.4754 4.81233 12.658 4.77924 12.658C4.74614 12.658 4.71924 12.4754 4.71924 12.4022C4.71924 12.329 4.74607 12.2697 4.77924 12.2697C4.81241 12.2697 4.83917 12.329 4.83917 12.4022Z" fill="#FFFAE8"/>
<path d="M13.9125 10.9083C13.8405 10.9216 13.656 10.9283 13.65 10.8958C13.644 10.8632 13.8188 10.8037 13.8907 10.7904C13.9627 10.7771 14.0259 10.7928 14.0319 10.8253C14.0379 10.8578 13.9844 10.895 13.9125 10.9083Z" fill="#FFFAE8"/>
<path d="M11.6418 9.36987C11.6418 9.44307 11.6149 9.6257 11.5818 9.6257C11.5486 9.6257 11.5218 9.44305 11.5218 9.36987C11.5218 9.29669 11.5487 9.23737 11.5818 9.23737C11.6149 9.23737 11.6418 9.29669 11.6418 9.36987Z" fill="#FFFAE8"/>
<path d="M13.5594 7.04553C13.5594 7.11873 13.5325 7.30136 13.4994 7.30136C13.4663 7.30136 13.4395 7.11871 13.4395 7.04553C13.4395 6.97235 13.4663 6.91302 13.4994 6.91302C13.5325 6.91302 13.5594 6.97234 13.5594 7.04553Z" fill="#FFFAE8"/>
<path d="M4.37643 8.58854C4.34545 8.65484 4.24383 8.80897 4.21383 8.79494C4.18383 8.78091 4.23685 8.60414 4.26783 8.53779C4.29882 8.47144 4.34823 8.42909 4.37823 8.44311C4.40823 8.45713 4.40737 8.52224 4.37643 8.58854Z" fill="#FFFAE8"/>
</svg>
