<svg width="26" height="19" viewBox="0 0 26 19" fill="none" xmlns="http://www.w3.org/2000/svg">
<g clip-path="url(#clip0_1_57986)">
<path d="M19.228 11.9014C19.057 11.9014 18.8717 11.8872 18.7007 11.9157C18.5867 11.9299 18.4727 11.8872 18.3729 11.8159C18.3159 11.7731 18.2589 11.7589 18.1877 11.7446C17.6461 11.6876 17.1188 11.6449 16.5772 11.5594C16.3207 11.5166 16.0784 11.5879 15.8361 11.6164C15.8076 11.6164 15.7791 11.6306 15.7506 11.6306C15.266 11.6164 14.7672 11.6449 14.2969 11.4739C14.2257 11.4454 14.1687 11.4311 14.0974 11.4026C13.7696 11.2458 13.4276 11.1603 13.0713 11.1176C12.9145 11.0891 12.7577 11.0606 12.601 11.0321C12.5154 11.0178 12.4442 11.0035 12.3587 11.0178C12.2447 11.0321 12.1306 11.0035 12.0166 10.975C11.7458 10.9323 11.4893 10.918 11.2185 10.918C10.8765 10.918 10.5344 10.9323 10.2067 10.861C9.86462 10.7898 9.52257 10.69 9.18053 10.5902C8.96675 10.5332 8.76723 10.4335 8.5677 10.3337C8.45369 10.2625 8.29692 10.2625 8.16865 10.234C8.01188 10.2055 7.85511 10.1769 7.69835 10.1484C7.51307 10.1057 7.3278 10.1057 7.12827 10.1199C6.75773 10.1484 6.40143 10.1199 6.05939 9.97742C5.88837 9.90616 5.71735 9.89191 5.53208 9.86341C5.30405 9.8349 5.09027 9.7779 4.89075 9.69239C4.66272 9.60688 4.40619 9.60688 4.17816 9.54987C4.1354 9.53562 4.1069 9.53562 4.06414 9.52136C3.86462 9.46436 3.66509 9.49286 3.45132 9.52136C3.22329 9.54987 2.98101 9.59262 2.73873 9.54987C2.68172 9.53562 2.65322 9.52136 2.63896 9.45011C2.63896 9.37885 2.59621 9.30759 2.55345 9.25058C2.05464 8.72327 1.75535 8.06768 1.51307 7.3836C1.24229 6.52849 1.02851 5.61638 0.9145 4.69001C0.885996 4.47624 0.871745 4.26246 0.857493 4.04868C0.843241 3.93467 0.871745 3.82066 0.828989 3.72089C0.800486 3.64963 0.786234 3.54987 0.67222 3.54987C0.643716 3.54987 0.643716 3.52137 0.643716 3.50712C0.615213 3.42161 0.657968 3.3646 0.714975 3.30759C0.814738 3.22208 0.928752 3.17933 1.05702 3.16507C1.25654 3.15082 1.44182 3.07956 1.61284 3.0083C1.78386 2.93705 1.94063 2.82303 2.14015 2.78028C2.29692 2.73752 2.46794 2.75177 2.63896 2.72327C2.96676 2.66626 3.3088 2.65201 3.63659 2.65201C3.82186 2.65201 4.00714 2.595 4.19241 2.55225C4.57721 2.46674 4.94775 2.45248 5.33255 2.49524C5.90262 2.55225 6.45844 2.69476 7.01426 2.79453C7.3278 2.85153 7.64134 2.88004 7.96913 2.92279C8.62471 3.0083 9.29454 3.09381 9.96438 3.13657C10.3492 3.16507 10.734 3.17933 11.1045 3.19358C11.6318 3.22208 12.1592 3.25058 12.6865 3.30759C13.1283 3.3646 13.5701 3.45011 14.0119 3.52137C14.5534 3.60688 15.095 3.67814 15.6366 3.72089C16.3492 3.76365 17.0618 3.8064 17.7601 3.94892C18.3729 4.07719 19 4.1627 19.5986 4.30522C19.8266 4.36222 20.0404 4.44773 20.2542 4.5475C20.6675 4.73277 21.0808 4.93229 21.4941 5.11757C21.7221 5.21733 21.9359 5.35985 22.1211 5.51662C22.4632 5.8159 22.6485 6.18645 22.7055 6.62825C22.7625 7.01305 22.791 7.4121 22.8337 7.81115C22.848 7.93942 22.848 8.05343 22.8337 8.1817C22.8195 8.39547 22.8052 8.6235 22.8052 8.83728C22.8052 9.10806 22.791 9.3931 22.7625 9.66388C22.734 9.8349 22.7482 10.0059 22.7482 10.1912C22.7482 10.2625 22.734 10.3337 22.677 10.3907C22.3634 10.747 22.0926 11.1318 21.9074 11.5736C21.8361 11.7304 21.7648 11.8872 21.7363 12.0724C21.7363 12.0867 21.7363 12.1009 21.7221 12.1152C21.5368 12.215 21.3658 12.3432 21.152 12.3575C21.0238 12.3717 20.9097 12.329 20.8242 12.2292L20.81 12.215C20.7102 12.0297 20.5534 11.9727 20.3539 11.9584C19.9976 11.9299 19.6128 11.9014 19.228 11.9014Z" fill="#FDC46F"/>
<path d="M22.734 13.2696C22.7482 13.5831 22.677 13.9252 22.62 14.2672C22.5772 14.538 22.5487 14.823 22.5202 15.1081C22.4917 15.3789 22.4062 15.6354 22.3349 15.9062C22.3064 16.0059 22.2922 16.0915 22.2779 16.1912C22.2352 16.4905 22.1639 16.7755 22.0499 17.0463C22.0356 17.0748 22.0356 17.1033 22.0214 17.1318C21.9929 17.2173 21.9644 17.2886 21.9074 17.3456C21.6223 17.5879 21.3088 17.7162 20.9382 17.6164C20.8955 17.6021 20.8527 17.6021 20.8242 17.6021C20.0974 17.7019 19.3706 17.6592 18.658 17.5879C16.4062 17.3456 14.1687 16.9893 11.9596 16.5048C10.5915 16.2055 9.23754 15.8634 7.88362 15.5071C7.34206 15.3646 6.81474 15.2221 6.27317 15.0796C5.81712 14.9513 5.38956 14.7803 4.96201 14.6093C4.27792 14.3385 3.57959 14.0677 2.90975 13.7684C2.867 13.7542 2.80999 13.7257 2.76724 13.7114C2.23992 13.5689 1.88363 13.2411 1.58434 12.8135C1.52733 12.728 1.47032 12.6425 1.41332 12.5713C1.2993 12.4002 1.22804 12.215 1.18529 12.0297C1.17104 11.9727 1.17104 11.9442 1.25655 11.9299C1.34206 11.9157 1.37056 11.8444 1.38481 11.7732C1.39906 11.6734 1.39906 11.5879 1.39906 11.4881C1.35631 11.0606 1.49883 10.6758 1.69835 10.3052C1.89788 9.94894 2.15441 9.62115 2.4537 9.33611C2.52496 9.26486 2.62472 9.2221 2.71023 9.15084C2.73873 9.12234 2.78149 9.13659 2.82424 9.13659C3.47982 9.1936 4.12115 9.26486 4.76248 9.39312C7.00001 9.83493 9.25179 10.2197 11.4893 10.6045C12.715 10.8183 13.9549 10.9751 15.1805 11.1603C16.3064 11.3314 17.4181 11.5309 18.5297 11.7304C19.1853 11.8444 19.8266 12.0012 20.4822 12.101C20.981 12.1722 21.4941 12.2435 21.9929 12.3147C22.0784 12.329 22.1639 12.3432 22.2494 12.3717C22.5487 12.4573 22.7482 12.6995 22.7482 12.9988C22.734 13.0843 22.734 13.1556 22.734 13.2696Z" fill="#FDC46F"/>
<path d="M16.4775 0.5C17.3468 0.5 18.2162 0.5 19.0855 0.557007C22.3492 0.713777 23.076 1.66865 23.3183 1.95368C23.8029 2.538 24.1307 3.20784 24.3729 3.93468C24.601 4.63301 24.7577 5.35986 24.8005 6.0867C24.829 6.54275 24.829 6.99881 24.7577 7.46912C24.7007 7.79691 24.6865 8.1247 24.6152 8.45249C24.6152 8.48099 24.601 8.52375 24.601 8.5665C24.5725 8.72327 24.5155 8.86579 24.4157 8.97981C24.0309 9.47862 22.9905 10.861 22.4062 11.5594C22.2922 11.7019 22.1354 11.9157 22.0071 12.1009C21.9216 12.215 21.7364 12.158 21.7364 12.0154C21.7506 11.4311 21.7791 10.4905 21.7506 9.97743C21.7079 9.12232 21.5511 8.29572 21.2091 7.51187C21.1093 7.28384 20.9953 7.07007 20.8243 6.88479C20.7245 6.77078 20.5962 6.65677 20.4537 6.61401C20.3254 6.57126 20.1829 6.54275 20.0404 6.5285C19.4988 6.47149 18.9715 6.40023 18.43 6.32898C17.9454 6.27197 17.4466 6.21496 16.962 6.15795C16.4205 6.0867 15.8789 6.01544 15.3516 5.94418C14.6105 5.84442 13.8694 5.7019 13.114 5.58788C12.3302 5.47387 11.5321 5.3456 10.7482 5.24584C10.0499 5.16033 9.35157 5.06057 8.66749 4.96081C7.99765 4.86104 7.32782 4.76128 6.65799 4.67577C5.9454 4.57601 5.23281 4.4905 4.52022 4.39073C4.09267 4.33373 3.65086 4.27672 3.22331 4.20546C2.92402 4.14845 2.62473 4.1342 2.3397 4.1057C1.74112 4.03444 1.14255 3.96318 0.543974 3.83492C0.486967 3.82066 -0.296881 3.54988 0.686492 3.07957C1.32782 2.79454 1.9834 2.59501 2.65324 2.39549C3.28032 2.21021 3.9359 2.08195 4.57723 1.95368C4.93352 1.88242 5.28982 1.78266 5.63186 1.69715C6.08791 1.59739 6.54397 1.51188 7.00003 1.42637C7.71262 1.28385 8.43946 1.19834 9.15205 1.09857C9.97865 0.998812 10.791 0.89905 11.6176 0.813539C12.7007 0.699525 13.7981 0.628266 14.8955 0.571259C15.4086 0.514252 15.9359 0.5 16.4775 0.5Z" fill="#6D483F"/>
<path d="M25.8265 8.76603C25.8123 9.17933 25.7268 9.57838 25.627 9.97743C25.5272 10.3907 25.4275 10.804 25.3135 11.2173C25.1709 11.7589 25.0142 12.2862 24.8717 12.8278C24.6721 13.5546 23.9453 15.4359 23.8028 15.6639C23.6033 15.9917 23.361 16.291 23.0902 16.5617C22.8052 16.861 22.4916 17.1176 22.1781 17.3598C21.7933 17.6449 21.3942 17.9299 20.9524 18.1294C20.5819 18.3005 20.2113 18.4287 19.8123 18.4857C19.4132 18.557 17.7885 18.2862 17.5462 18.2292C17.19 18.1437 16.8337 18.0724 16.4774 18.0012C16.1353 17.9299 15.7933 17.8587 15.437 17.7732C15.0807 17.7019 14.7101 17.6306 14.3539 17.5451C13.855 17.4454 11.4607 16.7898 10.7624 16.5903C10.1781 16.4192 8.36811 15.9917 8.06882 15.9204C7.64126 15.8349 4.7054 15.0083 4.43462 14.8943C4.07832 14.7233 3.70777 14.5808 3.36573 14.3955C2.86692 14.1247 2.41086 13.7827 1.99756 13.3836C1.9263 13.3123 1.84079 13.2411 1.75528 13.1556C1.35623 12.728 1.01419 12.2577 0.814665 11.7019C0.743406 11.4881 0.686399 10.6188 1.28497 10.6473C1.34198 10.6473 1.45599 10.7328 1.42749 10.7898C1.39899 10.8753 1.32773 11.0891 1.35623 11.1746C1.45599 11.5309 1.62702 11.8017 1.8693 12.0724C2.3111 12.5713 2.83842 12.9418 3.39424 13.2696C4.04982 13.6544 4.7339 13.9679 5.48925 14.1247C5.8883 14.2102 6.25884 14.367 6.65789 14.4667C7.29922 14.6378 7.9548 14.766 8.61039 14.9085C9.72202 15.1508 10.8479 15.3789 11.9596 15.6069C12.8289 15.7779 13.6983 15.9489 14.5676 16.1199C15.8503 16.3765 17.1472 16.633 18.4299 16.918C18.8432 17.0036 19.2565 17.1033 19.684 17.1461C19.8978 17.1603 20.0973 17.1176 20.2683 16.9893C20.2968 16.9751 20.3111 16.9465 20.3253 16.918C20.4679 16.633 20.5819 16.3337 20.6816 16.0344C20.7814 15.7637 21.1234 14.5095 21.1947 14.1389C21.2232 13.9394 21.2802 13.6401 21.323 13.4121C21.3657 13.1983 21.4512 12.9846 21.5938 12.8135C22.4204 11.8302 25.342 8.35273 25.4417 8.23871C25.513 8.16745 25.6413 8.18171 25.7125 8.25297C25.8123 8.36698 25.8265 8.49524 25.8408 8.63776C25.8265 8.68052 25.8265 8.72327 25.8265 8.76603Z" fill="#6D483F"/>
<path d="M2.04056 3.47861C2.41111 3.49286 2.82441 3.50711 3.22346 3.53561C3.46574 3.54987 3.69377 3.56412 3.93605 3.57837C4.19258 3.59262 4.46336 3.62112 4.71989 3.63538C4.86241 3.63538 5.00493 3.66388 5.14745 3.66388C5.38973 3.67813 5.63201 3.70664 5.88854 3.72089C5.9883 3.73514 6.08806 3.73514 6.18783 3.74939C6.41586 3.77789 6.64388 3.77789 6.85766 3.8064C7.07144 3.82065 7.28521 3.84915 7.49899 3.86341C7.59875 3.87766 7.68426 3.87766 7.78403 3.89191C7.9978 3.92041 8.21158 3.92041 8.43961 3.94892C8.72464 3.97742 9.00968 4.00592 9.30897 4.03443C9.50849 4.04868 9.70802 4.06293 9.90754 4.09143C10.1071 4.10569 10.3066 4.13419 10.5061 4.14844C10.6059 4.16269 10.6914 4.16269 10.7912 4.17694C11.1474 4.2197 11.5037 4.23395 11.86 4.27671C12.1593 4.30521 12.4729 4.33371 12.7721 4.37647C13.0572 4.40497 13.3422 4.43348 13.6273 4.46198C13.9265 4.49048 14.2258 4.53324 14.5251 4.57599C14.7531 4.6045 14.9669 4.61875 15.1949 4.64725C15.4515 4.67576 15.7223 4.71851 15.9788 4.76127C16.1641 4.78977 16.3636 4.80402 16.5489 4.83253C16.7341 4.86103 16.9194 4.88953 17.1047 4.91804C17.233 4.93229 17.3612 4.94654 17.4895 4.97504C17.6178 4.9893 17.7603 5.0178 17.8885 5.03205C18.0168 5.0463 18.1451 5.06055 18.2591 5.08906C18.3873 5.10331 18.5156 5.13181 18.6439 5.14606C18.7579 5.16032 18.8862 5.17457 19.0002 5.20307C19.1569 5.23158 19.3137 5.24583 19.4562 5.30283C19.4847 5.31709 19.5275 5.31709 19.5132 5.35984C19.499 5.4026 19.4705 5.38834 19.442 5.38834C19.2852 5.4026 19.1284 5.37409 18.9717 5.35984C18.8149 5.34559 18.6724 5.31709 18.5156 5.30283C18.3588 5.28858 18.2021 5.26008 18.0453 5.24583C17.9028 5.23158 17.7603 5.21732 17.6178 5.18882C17.461 5.17457 17.3042 5.14606 17.1474 5.13181C17.0049 5.11756 16.8482 5.10331 16.7056 5.07481C16.5346 5.06055 16.3778 5.03205 16.2068 5.0178C16.0501 5.00355 15.8933 4.97504 15.7223 4.96079C15.537 4.94654 15.366 4.91804 15.1807 4.90378C15.0239 4.88953 14.8529 4.87528 14.6961 4.84678C14.5251 4.83253 14.3398 4.80402 14.1688 4.78977C13.9978 4.77552 13.841 4.74702 13.67 4.73276C13.4847 4.71851 13.3137 4.69001 13.1284 4.67576C12.9574 4.6615 12.8007 4.64725 12.6296 4.61875C12.4444 4.6045 12.2591 4.57599 12.0596 4.56174C11.8885 4.54749 11.7318 4.53324 11.5607 4.50474C11.3612 4.49048 11.1759 4.46198 10.9764 4.44773C10.8054 4.43348 10.6344 4.41922 10.4634 4.39072C10.2638 4.37647 10.0786 4.34797 9.87904 4.33371C9.70802 4.31946 9.52274 4.30521 9.35172 4.27671C9.1522 4.26245 8.93842 4.23395 8.73889 4.2197C8.63913 4.20545 8.55362 4.20545 8.45386 4.1912C8.16882 4.16269 7.88379 4.14844 7.59875 4.11994C7.34222 4.09143 7.09994 4.07718 6.84341 4.04868C6.54412 4.02017 6.24483 3.99167 5.94555 3.96317C5.71752 3.94892 5.48949 3.93466 5.26146 3.90616C5.03343 3.89191 4.8054 3.86341 4.57738 3.84915C4.47761 3.8349 4.3636 3.8349 4.26384 3.82065C4.02156 3.79215 3.77928 3.79215 3.537 3.76364C3.32322 3.74939 3.09519 3.72089 2.88141 3.70664C2.75315 3.70664 2.63913 3.69238 2.51087 3.67813C2.3256 3.66388 2.12607 3.64963 1.9408 3.62112C1.85529 3.60687 1.76978 3.59262 1.68427 3.59262C1.65576 3.59262 1.64151 3.59262 1.64151 3.56412C1.64151 3.53561 1.67001 3.53561 1.68427 3.53561C1.85529 3.47861 1.92655 3.47861 2.04056 3.47861Z" fill="#F4ECCB"/>
<path d="M14.9527 7.89664C14.9669 8.59498 14.8671 9.26481 14.7389 9.9489C14.7246 10.0059 14.7104 10.0629 14.6819 10.1199C14.6391 10.1912 14.5679 10.2339 14.4823 10.2197C14.3968 10.2054 14.3398 10.1484 14.2971 10.0629C14.2686 9.9774 14.2686 9.87764 14.2686 9.79213C14.2543 9.13655 14.3113 8.48096 14.4538 7.83963C14.5251 7.51184 14.5964 7.1698 14.7104 6.85626C14.7104 6.84201 14.7246 6.82776 14.7246 6.81351C14.7389 6.785 14.7531 6.7565 14.7816 6.7565C14.8244 6.7565 14.8386 6.785 14.8529 6.81351C14.8957 6.89902 14.8957 6.98453 14.9099 7.07004C14.9527 7.34082 14.9527 7.62586 14.9527 7.89664Z" fill="#F4ECCB"/>
<path d="M11.8315 9.6211C11.86 9.13654 11.8743 8.63773 11.9456 8.15317C12.0026 7.76837 12.0453 7.38357 12.1166 6.99878C12.1593 6.71374 12.2021 6.44296 12.3019 6.17217C12.3161 6.12942 12.3161 6.05816 12.3731 6.07241C12.4301 6.07241 12.4301 6.14367 12.4301 6.20068C12.4301 6.47146 12.4159 6.74224 12.4016 6.99878C12.3874 7.31231 12.3589 7.62585 12.3446 7.95364C12.3161 8.30994 12.2876 8.66623 12.2306 9.02253C12.1878 9.26481 12.1593 9.49284 12.1308 9.73512C12.1166 9.79212 12.1166 9.83488 12.1023 9.89189C12.0738 9.9774 12.0168 10.0202 11.9598 10.0059C11.9028 9.99165 11.8458 9.93464 11.8458 9.84913C11.8315 9.76362 11.8315 9.69236 11.8315 9.6211Z" fill="#F4ECCB"/>
<path d="M22.6201 9.63536C22.6201 9.9204 22.6058 10.2054 22.5773 10.4905C22.5631 10.576 22.5773 10.6472 22.5488 10.7328C22.5346 10.7755 22.5061 10.8183 22.4633 10.8183C22.4206 10.8183 22.3921 10.7898 22.3778 10.747C22.3636 10.7185 22.3636 10.69 22.3636 10.6615C22.3636 10.1627 22.3351 9.64962 22.2923 9.1508C22.2495 8.53798 22.1355 7.9394 21.9075 7.35508C21.8362 7.15556 21.7365 6.97028 21.6367 6.78501C21.6225 6.75651 21.5797 6.728 21.6367 6.6995C21.6795 6.671 21.6937 6.71375 21.708 6.728C21.8077 6.85627 21.9075 6.99879 21.993 7.1413C22.2638 7.58311 22.4206 8.06767 22.5346 8.58073C22.5916 8.93703 22.6201 9.27907 22.6201 9.63536Z" fill="#F4ECCB"/>
<path d="M6.21614 7.32664C6.24464 7.76844 6.23039 8.18175 6.24464 8.59505C6.24464 8.6378 6.23039 8.69481 6.21614 8.73756C6.20188 8.78032 6.18763 8.80882 6.13063 8.80882C6.07362 8.80882 6.05937 8.78032 6.03086 8.75182C6.00236 8.70906 5.98811 8.66631 5.98811 8.6093C5.97386 8.46678 5.9596 8.32426 5.94535 8.18175C5.9026 7.51191 5.85984 6.84208 5.9026 6.17225C5.91685 5.92996 5.94535 5.70194 5.97386 5.45966C5.97386 5.43115 5.98811 5.40265 6.00236 5.37415C6.01661 5.33139 6.05937 5.31714 6.10212 5.31714C6.14488 5.31714 6.17338 5.34564 6.17338 5.3884C6.17338 5.47391 6.18763 5.55942 6.18763 5.63068C6.18763 6.20075 6.23039 6.77082 6.21614 7.32664Z" fill="#F4ECCB"/>
<path d="M7.15689 7.66865C7.15689 7.21259 7.18539 6.77079 7.19964 6.31473C7.19964 6.25772 7.22815 6.20071 7.2424 6.15796C7.25665 6.12946 7.28515 6.0867 7.32791 6.0867C7.37066 6.0867 7.38492 6.12946 7.39917 6.15796C7.42767 6.21497 7.44192 6.28622 7.44192 6.35748C7.44192 7.05582 7.44192 7.73991 7.44192 8.43824C7.44192 8.68052 7.41342 8.90855 7.39917 9.15083C7.38492 9.35036 7.35641 9.53563 7.32791 9.73516C7.32791 9.76366 7.32791 9.79216 7.2994 9.79216C7.2709 9.79216 7.2709 9.76366 7.25665 9.73516C7.14264 9.06532 7.11413 8.39549 7.14264 7.7114C7.15689 7.69715 7.15689 7.6829 7.15689 7.66865Z" fill="#F4ECCB"/>
<path d="M22.7912 2.53801C22.7912 3.15083 22.6059 3.70665 22.2781 4.21972C22.1356 4.43349 22.0074 4.66152 21.8506 4.8753C21.8221 4.91805 21.7936 4.94656 21.7651 4.97506C21.7223 5.01781 21.6796 5.03207 21.6368 5.00356C21.5798 4.97506 21.5941 4.91805 21.6226 4.8753C21.6796 4.77553 21.7366 4.67577 21.7793 4.57601C22.0074 4.16271 22.2354 3.74941 22.3779 3.29335C22.4492 3.05107 22.5062 2.80879 22.5347 2.55226C22.5489 2.38124 22.5632 2.21022 22.5489 2.05345C22.5489 2.01069 22.5489 1.98219 22.5917 1.96794C22.6344 1.95368 22.6629 1.95368 22.6914 1.99644C22.777 2.08195 22.7912 2.19596 22.8055 2.30998C22.8055 2.36698 22.7912 2.4525 22.7912 2.53801Z" fill="#F4ECCB"/>
<path d="M21.8648 14.196C21.8791 14.3955 21.8791 14.5808 21.8791 14.7803C21.8648 15.0653 21.8506 15.3361 21.7936 15.6069C21.7223 15.9917 21.5798 16.3622 21.3375 16.6758C21.2377 16.8183 21.138 16.9608 21.024 17.0891C20.9955 17.1176 20.967 17.1461 20.9385 17.1746C20.8957 17.2173 20.8387 17.2458 20.7959 17.1888C20.7532 17.1461 20.7674 17.0891 20.7959 17.0321C20.8529 16.9323 20.9099 16.8325 20.967 16.7328C21.309 16.177 21.5085 15.5784 21.6083 14.9513C21.651 14.6663 21.7081 14.3812 21.7366 14.0962C21.7366 14.0534 21.7651 14.0392 21.8078 14.0392C21.8506 14.0392 21.8506 14.0677 21.8648 14.0962C21.8506 14.1389 21.8506 14.1675 21.8648 14.196Z" fill="#F4ECCB"/>
<path d="M4.27807 9.03679C4.27807 9.10804 4.27807 9.1793 4.27807 9.25056C4.27807 9.26481 4.27807 9.27907 4.27807 9.29332C4.27807 9.39308 4.22106 9.49284 4.1498 9.49284C4.0928 9.49284 4.00729 9.40733 3.99303 9.30757C3.96453 9.1508 3.93603 8.99403 3.93603 8.83726C3.90752 8.43821 3.85052 8.05341 3.86477 7.65436C3.87902 7.41208 3.89327 7.15555 3.95028 6.91327C3.97878 6.79926 4.00729 6.68524 4.02154 6.57123C4.02154 6.55698 4.02154 6.54272 4.05004 6.54272C4.07854 6.54272 4.07854 6.57123 4.07854 6.58548C4.1213 6.85626 4.1498 7.12705 4.19256 7.39783C4.20681 7.56885 4.23531 7.73987 4.23531 7.89664C4.24957 8.26719 4.26382 8.65199 4.27807 9.03679Z" fill="#F4ECCB"/>
<path d="M18.0453 7.91092C18.0453 8.48099 18.0168 9.05106 17.9883 9.62114C17.974 9.93467 17.9597 10.2482 17.9455 10.5618C17.9455 10.6473 17.8885 10.7185 17.8172 10.7185C17.746 10.7185 17.689 10.6615 17.689 10.5618C17.7032 10.2197 17.7317 9.87767 17.7602 9.52137C17.7745 9.39311 17.7745 9.25059 17.7887 9.12232C17.8172 8.86579 17.8172 8.59501 17.8457 8.33848C17.86 8.0962 17.8885 7.85392 17.917 7.61164C17.9312 7.48337 17.9312 7.3551 17.974 7.24109C17.974 7.22684 17.974 7.21259 18.0025 7.19833C18.031 7.19833 18.031 7.22684 18.031 7.24109C18.0453 7.26959 18.0453 7.2981 18.0453 7.3266C18.0453 7.51187 18.0453 7.7114 18.0453 7.91092Z" fill="#F4ECCB"/>
<path d="M2.3114 5.03201C2.36841 5.07477 2.35416 5.13178 2.36841 5.17453C2.46817 5.51657 2.53943 5.87287 2.59644 6.22916C2.63919 6.48569 2.68195 6.75648 2.7247 7.01301C2.76746 7.28379 2.82447 7.55458 2.85297 7.82536C2.86722 7.92512 2.89572 8.03914 2.88147 8.1389C2.88147 8.15315 2.88147 8.15315 2.88147 8.1674C2.88147 8.21016 2.86722 8.26717 2.82447 8.28142C2.78171 8.29567 2.75321 8.23866 2.73895 8.19591C2.68195 8.09614 2.6677 7.99638 2.65344 7.88237C2.61069 7.69709 2.58219 7.51182 2.53943 7.32655C2.51093 7.16978 2.48242 7.02726 2.46817 6.87049C2.43967 6.71372 2.41116 6.55695 2.38266 6.38593C2.36841 6.27192 2.33991 6.1579 2.32565 6.02964C2.3114 5.77311 2.26865 5.50232 2.26865 5.24579C2.26865 5.17453 2.29715 5.10327 2.3114 5.03201Z" fill="#F4ECCB"/>
<path d="M15.6225 7.3551C15.651 7.3551 15.651 7.36935 15.651 7.39786C15.6795 7.75415 15.7508 8.11045 15.7365 8.46674C15.7365 8.76603 15.708 9.06532 15.6653 9.3646C15.651 9.45011 15.594 9.50712 15.537 9.50712C15.4658 9.50712 15.423 9.45011 15.4088 9.3646C15.366 8.97981 15.3802 8.58076 15.423 8.19596C15.4515 7.96793 15.5085 7.72565 15.5655 7.49762C15.594 7.45486 15.594 7.39786 15.6225 7.3551Z" fill="#F4ECCB"/>
<path d="M20.9242 10.0772C20.9242 10.2625 20.9385 10.462 20.91 10.6473C20.8957 10.7043 20.8815 10.7755 20.8102 10.7755C20.739 10.7755 20.7247 10.7185 20.7247 10.6473C20.6962 10.2055 20.6677 9.77791 20.6534 9.3361C20.6392 9.09382 20.6249 8.85154 20.6107 8.60926C20.6107 8.538 20.5964 8.46674 20.5822 8.39548C20.5822 8.36698 20.5822 8.33848 20.6249 8.32423C20.6677 8.30997 20.6819 8.33848 20.6819 8.36698C20.7247 8.49525 20.7675 8.60926 20.796 8.73753C20.853 8.9513 20.8815 9.15083 20.91 9.3646C20.9242 9.60689 20.9385 9.83491 20.9242 10.0772Z" fill="#F4ECCB"/>
<path d="M9.79342 7.21256C9.79342 7.5831 9.77917 7.98215 9.73641 8.36695C9.72216 8.48097 9.72216 8.60923 9.70791 8.7375C9.70791 8.766 9.69366 8.80876 9.67941 8.83726C9.66515 8.88002 9.63665 8.92277 9.57964 8.92277C9.52264 8.92277 9.49413 8.88002 9.49413 8.82301C9.46563 8.69474 9.46563 8.56648 9.47988 8.43821C9.49413 8.16743 9.49413 7.89664 9.52264 7.62586C9.53689 7.44059 9.56539 7.26957 9.60815 7.08429C9.6509 6.89902 9.67941 6.728 9.70791 6.54273C9.70791 6.51422 9.72216 6.48572 9.73641 6.45721C9.73641 6.44296 9.73641 6.41446 9.76492 6.41446C9.79342 6.41446 9.77917 6.44296 9.77917 6.47147C9.77917 6.69949 9.77917 6.94177 9.79342 7.21256Z" fill="#F4ECCB"/>
<path d="M19.9836 9.13657C19.9836 9.49286 19.9693 9.84916 19.9265 10.1912C19.9123 10.3907 19.8695 10.5903 19.841 10.7755C19.8268 10.8325 19.8125 10.8753 19.7413 10.861C19.6843 10.861 19.67 10.804 19.67 10.7613C19.67 10.462 19.6843 10.1484 19.7128 9.84916C19.727 9.62113 19.7413 9.3931 19.7698 9.16507C19.784 8.9798 19.7983 8.79453 19.8268 8.60925C19.841 8.538 19.841 8.46674 19.8553 8.39548C19.8553 8.38123 19.8553 8.36697 19.8695 8.35272C19.898 8.35272 19.9123 8.36697 19.9123 8.38123C19.9265 8.42398 19.9408 8.45248 19.9408 8.49524C19.9836 8.70902 19.9836 8.92279 19.9836 9.13657Z" fill="#F4ECCB"/>
<path d="M17.8029 13.8682C17.7744 14.1389 17.7602 14.4097 17.7174 14.6663C17.6462 15.0653 17.5036 15.4501 17.3754 15.8349C17.3611 15.8777 17.3469 15.9062 17.3184 15.9347C17.3041 15.9489 17.2756 15.9774 17.2471 15.9632C17.2186 15.9489 17.2043 15.9204 17.2043 15.8919C17.2043 15.8064 17.2328 15.7209 17.2614 15.6354C17.3611 15.2791 17.4609 14.9228 17.5464 14.5665C17.6034 14.3385 17.6747 14.1104 17.7317 13.8682C17.7459 13.8254 17.7459 13.7827 17.7602 13.7399C17.7602 13.7114 17.7744 13.6971 17.8029 13.6971C17.8457 13.6971 17.8314 13.7256 17.8314 13.7542C17.8029 13.7827 17.8029 13.8254 17.8029 13.8682Z" fill="#F4ECCB"/>
<path d="M16.221 14.2672C16.221 14.6378 16.1355 15.0226 16.05 15.4216C16.05 15.4359 16.0357 15.4644 16.0215 15.4786C15.993 15.5214 15.9645 15.5641 15.9075 15.5499C15.8505 15.5356 15.8362 15.4929 15.8362 15.4501C15.8362 15.3504 15.8505 15.2506 15.8647 15.1508C15.8932 14.9371 15.9217 14.7233 15.9502 14.5095C15.9787 14.3385 16.0072 14.1675 16.0357 13.9964C16.05 13.8682 16.0785 13.7542 16.0927 13.6259C16.0927 13.5689 16.1212 13.5119 16.1212 13.4549C16.1212 13.4406 16.1212 13.4121 16.1498 13.4121C16.1783 13.4121 16.1925 13.4264 16.1925 13.4549C16.1925 13.5261 16.2068 13.6116 16.2068 13.6829C16.2068 13.8682 16.2353 14.0534 16.221 14.2672Z" fill="#F4ECCB"/>
<path d="M8.92417 13.5689C8.93842 13.8254 8.92416 14.0677 8.93842 14.3242C8.93842 14.4097 8.90991 14.481 8.86716 14.481C8.8244 14.481 8.78165 14.4097 8.7674 14.3242C8.73889 13.9394 8.69614 13.5546 8.69614 13.1698C8.69614 12.9275 8.71039 12.6852 8.75314 12.443C8.7674 12.4002 8.73889 12.3432 8.7674 12.3004C8.78165 12.2719 8.78165 12.2434 8.8244 12.2434C8.85291 12.2434 8.86716 12.2719 8.86716 12.3004C8.86716 12.3147 8.86716 12.3289 8.86716 12.3432C8.89566 12.7565 8.90991 13.1698 8.92417 13.5689Z" fill="#F4ECCB"/>
<path d="M11.8458 13.2553C11.86 13.6686 11.8173 14.0962 11.803 14.5095C11.803 14.6093 11.7888 14.709 11.7745 14.8088C11.7745 14.8658 11.7603 14.9371 11.689 14.9513C11.6463 14.9656 11.6035 14.88 11.6035 14.8088C11.6035 14.5523 11.5893 14.2815 11.6035 14.0249C11.6178 13.7827 11.6463 13.5404 11.689 13.3124C11.7175 13.1556 11.746 12.9988 11.7603 12.842C11.7603 12.8135 11.7745 12.785 11.803 12.785C11.8458 12.785 11.8458 12.8278 11.8458 12.8563C11.8458 12.9703 11.8458 13.1128 11.8458 13.2553Z" fill="#F4ECCB"/>
<path d="M13.4847 14.5523C13.4847 14.3242 13.4705 14.0962 13.5132 13.8539C13.5417 13.6829 13.556 13.4976 13.5987 13.3266C13.5987 13.2981 13.613 13.2696 13.6415 13.2696C13.67 13.2696 13.6985 13.3123 13.6985 13.3409C13.6985 13.4549 13.7128 13.5546 13.727 13.6686C13.7555 14.0107 13.7413 14.3527 13.727 14.6948C13.727 14.823 13.7128 14.9656 13.6985 15.0938C13.6985 15.1223 13.6843 15.1508 13.67 15.1651C13.6558 15.1936 13.6273 15.2221 13.5845 15.2221C13.5417 15.2221 13.5275 15.1793 13.5132 15.1508C13.499 15.0796 13.4847 15.0083 13.4847 14.9228C13.4847 14.8088 13.4847 14.6805 13.4847 14.5523Z" fill="#F4ECCB"/>
<path d="M5.13321 7.85391C5.13321 7.7684 5.13321 7.68289 5.13321 7.58313C5.13321 7.54038 5.13321 7.51187 5.19022 7.49762C5.23297 7.49762 5.24722 7.52612 5.26148 7.55463C5.30423 7.72565 5.33273 7.89667 5.36124 8.06769C5.41825 8.46674 5.4325 8.88004 5.44675 9.29334C5.44675 9.3076 5.44675 9.3361 5.44675 9.35035C5.4325 9.39311 5.41824 9.42161 5.37549 9.42161C5.33273 9.42161 5.30423 9.39311 5.30423 9.35035C5.28998 9.26484 5.27573 9.19358 5.26148 9.10807C5.24722 8.93705 5.23297 8.75178 5.20447 8.58075C5.14746 8.35273 5.13321 8.09619 5.13321 7.85391Z" fill="#F4ECCB"/>
<path d="M19.271 14.424C19.271 14.595 19.2282 14.766 19.214 14.9513C19.1712 15.2363 19.1142 15.5071 19.043 15.7779C19.0144 15.9204 18.9717 16.0772 18.9289 16.2197C18.9147 16.2625 18.8862 16.3195 18.8292 16.3052C18.7722 16.291 18.7579 16.2482 18.7722 16.1912C18.8007 16.0344 18.8149 15.8777 18.8434 15.7209C18.8862 15.5214 18.9289 15.3076 18.9717 15.1081C19.0287 14.8373 19.1142 14.5665 19.1997 14.2957C19.214 14.2672 19.214 14.253 19.2425 14.253C19.271 14.253 19.2567 14.2957 19.271 14.31C19.271 14.3527 19.271 14.3812 19.271 14.424Z" fill="#F4ECCB"/>
<path d="M3.28047 10.9893C3.33748 11.0606 3.35173 11.1461 3.35173 11.2316C3.42299 11.7304 3.39448 12.2435 3.39448 12.7423C3.39448 12.7708 3.39448 12.785 3.39448 12.8135C3.38023 12.8563 3.35173 12.8848 3.30897 12.8848C3.25197 12.8848 3.22346 12.8563 3.20921 12.8135C3.19496 12.7423 3.16646 12.6568 3.16646 12.5855C3.1522 12.3717 3.13795 12.158 3.1522 11.9442C3.16646 11.7447 3.18071 11.5309 3.20921 11.3314C3.23772 11.2173 3.22346 11.1033 3.28047 10.9893Z" fill="#F4ECCB"/>
<path d="M10.2353 11.9869C10.2638 12.0012 10.2638 12.0297 10.2638 12.0582C10.2923 12.4858 10.2923 12.8991 10.2923 13.3124C10.2923 13.5974 10.2781 13.8824 10.2638 14.1817C10.2638 14.2387 10.2496 14.2815 10.1926 14.2815C10.1355 14.2957 10.1355 14.2387 10.1213 14.196C10.107 14.1817 10.107 14.1532 10.107 14.139C10.107 13.7684 10.0928 13.3836 10.107 13.0131C10.1213 12.7993 10.1355 12.5855 10.164 12.386C10.1783 12.2577 10.1783 12.1437 10.2211 12.0154C10.2211 12.0012 10.2353 12.0012 10.2353 11.9869Z" fill="#F4ECCB"/>
<path d="M6.03101 12.5713C6.01676 12.386 6.04527 12.215 6.07377 12.0582C6.07377 12.0297 6.08802 11.9869 6.11653 11.9869C6.15928 11.9869 6.13078 12.0297 6.14503 12.0439C6.18778 12.1437 6.17353 12.2435 6.17353 12.3575C6.18778 12.5428 6.21629 12.728 6.23054 12.9133C6.24479 13.0986 6.28755 13.2839 6.31605 13.4691C6.3303 13.5689 6.35881 13.6829 6.37306 13.7827C6.37306 13.8254 6.38731 13.8824 6.3303 13.8967C6.27329 13.9109 6.25904 13.8682 6.23054 13.8254C6.18778 13.7114 6.17353 13.5974 6.14503 13.4976C6.11653 13.3409 6.08802 13.1983 6.05952 13.0416C6.04527 12.8705 6.01676 12.728 6.03101 12.5713Z" fill="#F4ECCB"/>
<path d="M10.9764 7.81116C11.0049 7.64014 11.0192 7.48337 11.0477 7.31235C11.0619 7.18408 11.0762 7.05581 11.1047 6.92755C11.1474 6.68527 11.1759 6.42874 11.2614 6.20071C11.2757 6.15795 11.3042 6.08669 11.3612 6.10094C11.4182 6.1152 11.3897 6.18646 11.3897 6.22921C11.3755 6.49999 11.3185 6.77078 11.2757 7.04156C11.2472 7.24109 11.2187 7.44061 11.1759 7.64014C11.1617 7.7399 11.1474 7.83966 11.1047 7.92517C11.0904 7.95367 11.0762 7.98218 11.0477 7.96793C11.0192 7.95368 11.0049 7.92517 11.0049 7.89667C10.9764 7.86816 10.9764 7.83966 10.9764 7.81116Z" fill="#F4ECCB"/>
<path d="M5.01918 11.4596C5.01918 11.5451 5.00493 11.6306 4.99068 11.7161C4.96217 11.9727 4.96217 12.2434 4.94792 12.5142C4.94792 12.728 4.94792 12.9418 4.96217 13.1413C4.96217 13.2553 4.96217 13.3693 4.96217 13.4833C4.96217 13.5261 4.94792 13.5831 4.90517 13.5831C4.84816 13.5831 4.83391 13.5404 4.81965 13.4833C4.76265 13.1128 4.76265 12.7423 4.7769 12.3717C4.79115 12.1437 4.83391 11.9157 4.90517 11.7019C4.91942 11.6449 4.94792 11.5736 4.96217 11.5166C4.97642 11.4738 4.97642 11.4738 5.01918 11.4596Z" fill="#F4ECCB"/>
<path d="M11.3184 14.1675C11.3184 14.3385 11.3184 14.481 11.3184 14.6235C11.3184 14.6805 11.3184 14.766 11.2472 14.766C11.1759 14.766 11.1617 14.6805 11.1617 14.6235C11.1617 14.4667 11.1331 14.31 11.1331 14.139C11.1331 13.8824 11.1331 13.6259 11.1331 13.3694C11.1331 13.1841 11.1617 13.0131 11.1759 12.8278C11.1759 12.8135 11.1759 12.7993 11.2044 12.7993C11.2187 12.7993 11.2187 12.8135 11.2329 12.8278C11.2472 13.0701 11.2899 13.3123 11.3042 13.5689C11.3184 13.7827 11.3184 13.9964 11.3184 14.1675Z" fill="#F4ECCB"/>
<path d="M3.2804 4.86105C3.26614 5.27436 3.29465 5.70191 3.3089 6.11521C3.3089 6.27198 3.3089 6.443 3.32315 6.59977C3.32315 6.67103 3.3374 6.74229 3.32315 6.8278C3.32315 6.8563 3.32315 6.88481 3.2804 6.88481C3.25189 6.88481 3.23764 6.8563 3.22339 6.8278C3.18063 6.72804 3.18063 6.62827 3.18063 6.54276C3.15213 6.10096 3.10938 5.6734 3.13788 5.2316C3.13788 5.10333 3.16638 4.96082 3.20914 4.83255C3.22339 4.80405 3.22339 4.78979 3.26615 4.78979C3.26615 4.80405 3.29465 4.83255 3.2804 4.86105Z" fill="#F4ECCB"/>
<path d="M7.72707 13.5974C7.71282 13.2696 7.75558 12.9845 7.78408 12.6995C7.79833 12.5712 7.81258 12.443 7.84109 12.3147C7.84109 12.3004 7.85534 12.2719 7.85534 12.2577C7.86959 12.2292 7.88384 12.1864 7.9266 12.2007C7.96935 12.2149 7.9836 12.2434 7.9836 12.2862C7.9836 12.4857 7.96935 12.671 7.94085 12.8705C7.9266 12.9703 7.9266 13.0843 7.91235 13.184C7.89809 13.3693 7.86959 13.5403 7.85534 13.7256C7.84109 13.8681 7.81258 14.0249 7.78408 14.1674C7.78408 14.1817 7.78408 14.1959 7.75558 14.1959C7.72707 14.1959 7.74132 14.1674 7.74132 14.1532C7.75558 13.9536 7.71282 13.7541 7.72707 13.5974Z" fill="#F4ECCB"/>
<path d="M13.0143 8.49521C13.0143 8.76599 12.9858 9.00827 12.9431 9.2363C12.9288 9.29331 12.9431 9.35032 12.9146 9.39307C12.9003 9.42158 12.886 9.46433 12.8433 9.45008C12.8005 9.43583 12.7863 9.40732 12.7863 9.36457C12.7863 9.35032 12.7863 9.32181 12.7863 9.30756C12.8005 9.06528 12.8148 8.80875 12.8575 8.56647C12.886 8.4097 12.9146 8.23868 12.9573 8.08191C12.9573 8.06766 12.9573 8.03915 12.9858 8.03915C13.0001 8.03915 13.0001 8.06766 13.0001 8.08191C12.9716 8.25293 13.0286 8.3812 13.0143 8.49521Z" fill="#F4ECCB"/>
<path d="M16.7626 8.18168C16.7626 7.98215 16.7626 7.78263 16.7626 7.56885C16.7626 7.46909 16.7768 7.38358 16.8054 7.28381C16.8054 7.26956 16.8054 7.25531 16.8196 7.25531C16.8339 7.25531 16.8481 7.26956 16.8481 7.28381C16.8481 7.29806 16.8624 7.31232 16.8624 7.32657C16.8909 7.6116 16.8909 7.89664 16.8766 8.16742C16.8624 8.33844 16.8624 8.49521 16.8624 8.66624C16.8624 8.72324 16.8624 8.78025 16.8481 8.82301C16.8339 8.85151 16.8339 8.88001 16.7911 8.88001C16.7626 8.88001 16.7483 8.85151 16.7483 8.80875C16.7483 8.60923 16.7341 8.39545 16.7626 8.18168Z" fill="#F4ECCB"/>
<path d="M14.511 13.7684C14.4967 14.0392 14.4682 14.31 14.4397 14.5808C14.4254 14.6663 14.4112 14.766 14.3827 14.8515C14.3684 14.88 14.3684 14.9085 14.3399 14.9085C14.2972 14.9085 14.3257 14.8658 14.3114 14.8515C14.2687 14.6663 14.2972 14.4667 14.3114 14.2815C14.3257 14.1104 14.3542 13.9537 14.3684 13.7969C14.3827 13.7399 14.3827 13.6686 14.3969 13.6116C14.4112 13.5689 14.4254 13.5404 14.4682 13.5404C14.511 13.5404 14.511 13.5831 14.5252 13.6259C14.511 13.6401 14.511 13.6971 14.511 13.7684Z" fill="#F4ECCB"/>
<path d="M19.3137 10.006C19.2994 10.2482 19.2852 10.4905 19.2424 10.7328C19.2281 10.7755 19.2424 10.8183 19.2139 10.8753C19.1996 10.9038 19.1854 10.9323 19.1569 10.9181C19.1284 10.9181 19.0999 10.8896 19.0999 10.8468C19.0999 10.7185 19.0856 10.5903 19.1141 10.4763C19.1284 10.348 19.1284 10.2055 19.1569 10.0772C19.1854 9.94895 19.1996 9.82068 19.2281 9.67816C19.2281 9.66391 19.2424 9.64966 19.2566 9.64966C19.2851 9.64966 19.2851 9.66391 19.2994 9.69241C19.3137 9.79218 19.3279 9.89194 19.3137 10.006Z" fill="#F4ECCB"/>
<path d="M13.2851 7.14133C13.3136 6.99881 13.2851 6.82779 13.3279 6.65677C13.3279 6.62827 13.3421 6.61401 13.3564 6.58551C13.3849 6.5285 13.4134 6.5 13.4704 6.51425C13.5274 6.5285 13.5416 6.57126 13.5416 6.62827C13.5416 6.87055 13.4989 7.09857 13.4704 7.34085C13.4704 7.38361 13.4276 7.44062 13.3849 7.44062C13.3421 7.44062 13.3136 7.39786 13.3136 7.34085C13.2851 7.2696 13.2851 7.21259 13.2851 7.14133Z" fill="#F4ECCB"/>
<path d="M19.4847 7.69717C19.4847 7.93945 19.4562 8.18173 19.4134 8.42401C19.3992 8.49527 19.3992 8.56653 19.3849 8.63778C19.3849 8.66629 19.3707 8.68054 19.3707 8.70904C19.3564 8.7233 19.3422 8.7518 19.3137 8.7518C19.2852 8.7518 19.2709 8.7233 19.2709 8.69479C19.2709 8.58078 19.2567 8.46676 19.2852 8.3385C19.3137 8.22448 19.2994 8.09622 19.3137 7.9822C19.3279 7.81118 19.3422 7.62591 19.3849 7.45489C19.3849 7.42638 19.3707 7.38363 19.4277 7.39788C19.4705 7.39788 19.4847 7.44064 19.4847 7.46914C19.4847 7.5404 19.4847 7.62591 19.4847 7.69717Z" fill="#F4ECCB"/>
<path d="M5.26148 6.52851C5.26148 6.61402 5.26148 6.68528 5.26148 6.75654C5.26148 6.78504 5.24722 6.79929 5.23297 6.79929C5.20447 6.81354 5.19022 6.78504 5.19022 6.77079C5.17597 6.74229 5.16171 6.69953 5.16171 6.67103C5.14746 6.50001 5.11896 6.32898 5.10471 6.14371C5.09045 5.95844 5.06195 5.77316 5.06195 5.58789C5.06195 5.54514 5.06195 5.51663 5.0762 5.47388C5.0762 5.45963 5.0762 5.43112 5.10471 5.43112C5.13321 5.43112 5.13321 5.44537 5.14746 5.47388C5.17597 5.53088 5.17597 5.58789 5.19022 5.65915C5.20447 5.71616 5.21872 5.77316 5.21872 5.83017C5.21872 5.95844 5.24722 6.0867 5.24722 6.22922C5.24722 6.32898 5.27573 6.443 5.26148 6.52851Z" fill="#F4ECCB"/>
<path d="M14.9811 13.5831C14.9953 13.7826 14.9526 13.9964 14.9383 14.2102C14.9383 14.2529 14.9098 14.2814 14.8956 14.3242C14.8956 14.3385 14.8813 14.3527 14.8528 14.3527C14.8386 14.3527 14.8243 14.3385 14.8243 14.3099C14.8101 14.2672 14.8243 14.2244 14.8243 14.1817C14.8101 13.9964 14.8528 13.8111 14.8528 13.6116C14.8528 13.4833 14.8813 13.3551 14.8671 13.2126C14.8671 13.1841 14.8671 13.1698 14.8528 13.1413C14.8528 13.1271 14.8243 13.0985 14.8528 13.0843C14.8813 13.07 14.8956 13.0985 14.9098 13.1271C14.9526 13.2126 14.9811 13.2981 14.9811 13.3978C14.9811 13.4548 14.9811 13.5118 14.9811 13.5831Z" fill="#F4ECCB"/>
<path d="M1.58448 5.60215C1.58448 5.6164 1.58448 5.65916 1.55598 5.65916C1.52748 5.67341 1.51322 5.63065 1.49897 5.60215C1.45622 5.48813 1.44196 5.37412 1.41346 5.26011C1.38496 5.08908 1.3422 4.91806 1.3137 4.74704C1.29945 4.64728 1.27094 4.53326 1.2852 4.41925C1.2852 4.405 1.2852 4.3765 1.3137 4.36224C1.3422 4.36224 1.35645 4.3765 1.35645 4.405C1.39921 4.51901 1.42771 4.64728 1.44196 4.77555C1.47047 4.91806 1.49897 5.06058 1.52748 5.2031C1.55598 5.33136 1.58448 5.45963 1.58448 5.60215Z" fill="#F4ECCB"/>
<path d="M10.8765 9.27909C10.8765 9.46436 10.8765 9.64963 10.848 9.8349C10.848 9.84916 10.848 9.87766 10.848 9.89191C10.8338 9.92042 10.8338 9.96317 10.791 9.94892C10.7483 9.93467 10.734 9.90616 10.734 9.87766C10.734 9.60688 10.7198 9.33609 10.7625 9.06531C10.7768 8.9798 10.791 8.88004 10.8053 8.79453C10.8053 8.78027 10.8053 8.76602 10.8338 8.76602C10.848 8.76602 10.848 8.78027 10.848 8.79453C10.8765 8.95129 10.8623 9.12232 10.8765 9.27909Z" fill="#F4ECCB"/>
<path d="M7.12845 13.9679C7.12845 13.9964 7.12845 14.0107 7.12845 14.0107C7.12845 14.0392 7.12845 14.0819 7.08569 14.0819C7.04294 14.0962 7.02869 14.0534 7.01444 14.0249C7.00018 13.9537 6.97168 13.8824 6.97168 13.8112C6.94318 13.6686 6.91467 13.5119 6.91467 13.3694C6.91467 13.2696 6.91467 13.1698 6.92892 13.0701C6.92892 13.0558 6.92892 13.0416 6.94318 13.0416C6.97168 13.0416 6.95743 13.0558 6.97168 13.0701C7.01444 13.2126 7.04294 13.3551 7.07144 13.5119C7.08569 13.6401 7.1142 13.7827 7.1427 13.9109C7.12845 13.9394 7.12845 13.9537 7.12845 13.9679Z" fill="#F4ECCB"/>
<path d="M19.5702 15.1223C19.5845 15.0225 19.5987 14.937 19.6272 14.8373C19.6557 14.6805 19.6985 14.5237 19.7412 14.3669C19.7555 14.3099 19.7697 14.2529 19.784 14.2102C19.784 14.1959 19.7982 14.1674 19.8268 14.1674C19.8553 14.1674 19.8553 14.1959 19.8553 14.2102C19.8838 14.3384 19.8553 14.4667 19.8268 14.5807C19.784 14.7517 19.7412 14.937 19.6985 15.108C19.6985 15.1223 19.6985 15.1365 19.6842 15.1365C19.67 15.165 19.6557 15.1935 19.613 15.1935C19.5702 15.1935 19.5702 15.1508 19.5702 15.1223Z" fill="#F4ECCB"/>
<path d="M4.20679 5.53089C4.20679 5.6449 4.22105 5.75891 4.20679 5.85868C4.20679 5.88718 4.19254 5.92994 4.16404 5.92994C4.12128 5.92994 4.09278 5.90143 4.09278 5.85868C4.06428 5.63065 4.03577 5.41687 4.05002 5.18884C4.05002 5.14609 4.06428 5.11758 4.06428 5.07483C4.06428 5.04633 4.07853 5.03207 4.10703 5.01782C4.13554 5.01782 4.14979 5.03207 4.16404 5.06058C4.19254 5.13184 4.20679 5.2031 4.20679 5.27435C4.20679 5.37412 4.20679 5.44538 4.20679 5.53089Z" fill="#F4ECCB"/>
<path d="M9.70801 12.2007C9.70801 12.443 9.66525 12.6853 9.66525 12.9275C9.66525 12.9275 9.66525 12.9275 9.66525 12.9418C9.651 12.9703 9.651 13.0273 9.60825 13.0273C9.56549 13.0273 9.55124 12.9703 9.55124 12.9418C9.55124 12.8848 9.55124 12.8278 9.55124 12.7708C9.56549 12.6568 9.56549 12.5427 9.56549 12.4145C9.57974 12.272 9.59399 12.1437 9.60825 12.0012C9.60825 11.9727 9.60825 11.9157 9.651 11.9299C9.6795 11.9299 9.69376 11.9727 9.69376 12.0154C9.70801 12.0582 9.70801 12.1294 9.70801 12.2007Z" fill="#F4ECCB"/>
<path d="M18.1451 15.5499C18.1308 15.7494 18.0596 15.9204 17.9883 16.1057C17.9741 16.1484 17.9598 16.1912 17.9313 16.234C17.9028 16.2625 17.8886 16.2767 17.8458 16.2625C17.8173 16.2482 17.803 16.2197 17.8173 16.1769C17.8886 15.9347 17.9313 15.6781 18.0596 15.4644C18.0738 15.4501 18.0738 15.4073 18.1023 15.4073C18.1308 15.4073 18.1308 15.4501 18.1308 15.4644C18.1451 15.4929 18.1451 15.5214 18.1451 15.5499Z" fill="#F4ECCB"/>
<path d="M17.0192 13.7969C17.0192 14.0107 16.9907 14.2102 16.9479 14.4097C16.9337 14.4525 16.9194 14.481 16.8767 14.4667C16.8339 14.4667 16.8196 14.4097 16.8339 14.3812C16.8481 14.2815 16.8339 14.1675 16.8624 14.0677C16.8767 13.9394 16.8909 13.7969 16.9194 13.6686C16.9194 13.6401 16.9337 13.6116 16.9479 13.5831C16.9479 13.5689 16.9479 13.5404 16.9764 13.5404C17.0049 13.5404 17.0192 13.5689 17.0192 13.5974C17.0192 13.6686 17.0192 13.7399 17.0192 13.7969Z" fill="#F4ECCB"/>
<path d="M16.734 10.063C16.7198 10.1627 16.7483 10.2767 16.7198 10.3908C16.7055 10.4193 16.7055 10.4478 16.6628 10.4478C16.6343 10.4478 16.62 10.4193 16.62 10.3908C16.5915 10.234 16.5915 10.063 16.6058 9.90619C16.6058 9.82068 16.6343 9.74942 16.6485 9.67816C16.6485 9.64966 16.6485 9.62116 16.6628 9.6069C16.677 9.59265 16.6628 9.5784 16.6913 9.5784C16.7198 9.5784 16.7198 9.6069 16.7198 9.62115C16.7483 9.74942 16.734 9.89194 16.734 10.063Z" fill="#F4ECCB"/>
<path d="M12.5442 13.3694C12.5299 13.5404 12.5014 13.7114 12.4729 13.8967C12.4729 13.9394 12.4587 14.0107 12.3874 13.9964C12.3304 13.9822 12.3304 13.9252 12.3446 13.8682C12.3589 13.7256 12.3732 13.5831 12.3874 13.4406C12.4017 13.3694 12.4159 13.2981 12.4302 13.2268C12.4444 13.1983 12.4444 13.1841 12.4729 13.1841C12.5014 13.1841 12.5157 13.2126 12.5157 13.2268C12.5299 13.2696 12.5299 13.3123 12.5442 13.3694Z" fill="#F4ECCB"/>
<path d="M8.6534 8.38123C8.63915 8.16745 8.66765 7.95368 8.6819 7.72565C8.6819 7.56888 8.6819 7.42636 8.72466 7.26959C8.72466 7.25534 8.72466 7.22684 8.75316 7.22684C8.78166 7.22684 8.76741 7.25534 8.76741 7.26959C8.78166 7.36935 8.73891 7.46912 8.73891 7.56888C8.75316 7.88242 8.71041 8.18171 8.71041 8.49524C8.71041 8.59501 8.69615 8.69477 8.69615 8.80878C8.69615 8.82304 8.69615 8.85154 8.66765 8.86579C8.63915 8.86579 8.63915 8.83729 8.63915 8.82304C8.63915 8.79453 8.62489 8.75178 8.63915 8.70902C8.66765 8.59501 8.6534 8.49524 8.6534 8.38123Z" fill="#F4ECCB"/>
<path d="M3.83633 12.7137C3.85059 12.557 3.85059 12.4002 3.90759 12.2577C3.90759 12.2434 3.92184 12.2292 3.92184 12.2149C3.9361 12.1722 3.9646 12.1294 4.00736 12.1437C4.03586 12.1579 4.02161 12.2007 4.02161 12.2292C4.02161 12.3859 3.9931 12.5427 3.9646 12.6995C3.95035 12.7565 3.9646 12.7992 3.9361 12.8563C3.92184 12.8848 3.90759 12.899 3.87909 12.899C3.83633 12.899 3.85059 12.8563 3.85059 12.842C3.83633 12.7992 3.83633 12.7565 3.83633 12.7137Z" fill="#F4ECCB"/>
<path d="M2.78171 11.3599C2.82447 11.1746 2.79597 10.9751 2.86722 10.7755C2.88148 10.747 2.88148 10.7043 2.92423 10.7185C2.95273 10.7328 2.96699 10.7613 2.96699 10.804C2.95273 10.9181 2.95273 11.0321 2.93848 11.1461C2.92423 11.2173 2.92423 11.3029 2.90998 11.3884C2.89573 11.4311 2.90998 11.5024 2.85297 11.5024C2.76746 11.4881 2.78171 11.4169 2.78171 11.3599Z" fill="#F4ECCB"/>
<path d="M9.03816 6.48572C9.03816 6.38596 9.02391 6.28619 9.06667 6.20068C9.08092 6.15793 9.08092 6.11517 9.13793 6.11517C9.19493 6.12943 9.18068 6.17218 9.18068 6.20068C9.19493 6.35745 9.15218 6.52847 9.15218 6.68524C9.15218 6.728 9.16643 6.7565 9.10942 6.77075C9.06667 6.78501 9.03816 6.77075 9.03816 6.728C9.02391 6.64249 9.03816 6.55698 9.03816 6.48572Z" fill="#F4ECCB"/>
<path d="M6.7722 12.272C6.7722 12.1865 6.7722 12.1152 6.7722 12.0439C6.7722 12.0297 6.7722 12.0012 6.78645 12.0012C6.81496 12.0012 6.82921 12.0154 6.82921 12.0297C6.85771 12.1295 6.90047 12.2292 6.90047 12.329C6.91472 12.4287 6.90047 12.5285 6.90047 12.6283C6.90047 12.671 6.90047 12.6995 6.84346 12.6995C6.8007 12.6995 6.78645 12.671 6.78645 12.6283C6.7722 12.5143 6.75795 12.4002 6.7722 12.272Z" fill="#F4ECCB"/>
<path d="M5.44672 11.7589C5.46097 11.9584 5.43247 12.1437 5.40397 12.3147C5.38971 12.386 5.40397 12.4715 5.37546 12.5427C5.36121 12.5712 5.36121 12.614 5.33271 12.614C5.28995 12.614 5.2757 12.557 5.28995 12.5427C5.3042 12.443 5.28995 12.3432 5.31845 12.2577C5.34696 12.1294 5.33271 12.0012 5.38971 11.8729C5.40397 11.8301 5.40397 11.7874 5.44672 11.7589Z" fill="#F4ECCB"/>
<path d="M14.739 15.1223C14.739 15.0653 14.739 15.0226 14.739 14.9655C14.739 14.937 14.739 14.9228 14.7675 14.9085C14.796 14.9085 14.8102 14.937 14.8102 14.9513C14.8245 15.0083 14.8387 15.0653 14.8387 15.1223C14.8387 15.2363 14.853 15.3503 14.8672 15.4644C14.8672 15.5071 14.8672 15.5784 14.8102 15.5784C14.7532 15.5784 14.7532 15.5071 14.7532 15.4644C14.7675 15.3503 14.7105 15.2363 14.739 15.1223Z" fill="#F4ECCB"/>
<path d="M3.86475 11.5736C3.879 11.4026 3.879 11.2316 3.936 11.0748C3.95026 11.0463 3.95026 11.0178 3.97876 11.0178C4.00726 11.0178 4.00726 11.0463 4.00726 11.0748C4.02152 11.2173 3.97876 11.3456 3.97876 11.4881C3.97876 11.5309 3.96451 11.5736 3.96451 11.6164C3.96451 11.6449 3.95026 11.6734 3.936 11.7019C3.92175 11.7161 3.92175 11.7304 3.89325 11.7304C3.879 11.7304 3.86475 11.7161 3.86475 11.6876C3.86475 11.6591 3.86475 11.6164 3.86475 11.5736Z" fill="#F4ECCB"/>
<path d="M19.5845 15.7351C19.613 15.8206 19.5845 15.8919 19.5702 15.9631C19.5275 16.1342 19.4705 16.2909 19.4135 16.4477C19.3992 16.4762 19.3992 16.519 19.3565 16.5047C19.3137 16.4905 19.328 16.4477 19.328 16.4192C19.3992 16.1912 19.4562 15.9631 19.5845 15.7351C19.5845 15.7494 19.5702 15.7494 19.5845 15.7351Z" fill="#F4ECCB"/>
<path d="M18.2876 14.7945C18.3161 14.6092 18.3588 14.4382 18.4016 14.2672C18.4158 14.1959 18.4443 14.1247 18.4586 14.0392C18.4586 14.0107 18.4728 13.9964 18.4871 13.9822C18.4871 13.9679 18.5013 13.9537 18.5156 13.9679C18.5298 13.9679 18.5298 13.9822 18.5298 13.9964C18.5013 14.1389 18.4871 14.2672 18.4586 14.4097C18.4301 14.5237 18.4016 14.652 18.3731 14.766C18.3731 14.7803 18.3588 14.7945 18.3588 14.823C18.3446 14.8373 18.3446 14.8658 18.3161 14.8515C18.2876 14.8515 18.2876 14.823 18.2876 14.7945Z" fill="#F4ECCB"/>
<path d="M21.3374 10.9038C21.3374 10.9893 21.3374 11.0463 21.3374 11.1033C21.3374 11.1318 21.3374 11.1603 21.3089 11.1746C21.2661 11.1746 21.2804 11.1461 21.2661 11.1176C21.2661 11.1033 21.2519 11.1033 21.2519 11.0891C21.2519 10.9323 21.2091 10.7755 21.2234 10.6045C21.2234 10.576 21.2376 10.5618 21.2661 10.5618C21.2946 10.5618 21.3089 10.576 21.3231 10.6188C21.3374 10.7185 21.3516 10.8183 21.3374 10.9038Z" fill="#F4ECCB"/>
<path d="M15.8363 6.78503C15.8505 6.82778 15.822 6.88479 15.8078 6.95605C15.8078 6.9988 15.7793 7.02731 15.7365 7.02731C15.6938 7.02731 15.6795 6.98455 15.6795 6.95605C15.6938 6.87054 15.6653 6.77078 15.708 6.68527C15.7223 6.65676 15.7365 6.61401 15.7793 6.62826C15.822 6.62826 15.8363 6.67101 15.8363 6.69952C15.8363 6.71377 15.8363 6.74227 15.8363 6.78503Z" fill="#F4ECCB"/>
<path d="M9.76494 14.0534C9.76494 13.9679 9.76494 13.9109 9.76494 13.8397C9.76494 13.8254 9.76494 13.7969 9.79344 13.7969C9.80769 13.7969 9.82195 13.8112 9.82195 13.8254C9.80769 13.9252 9.85045 14.0249 9.85045 14.1389C9.85045 14.253 9.87895 14.3527 9.8647 14.4667C9.8647 14.481 9.8647 14.5095 9.85045 14.5237C9.82195 14.538 9.82195 14.4952 9.80769 14.481C9.79344 14.4667 9.79344 14.4525 9.79344 14.4382C9.79344 14.2957 9.73644 14.1675 9.76494 14.0534Z" fill="#F4ECCB"/>
<path d="M20.8813 5.75889C20.8386 5.75889 20.8101 5.73039 20.8386 5.70188C20.8956 5.61637 20.9669 5.54511 21.0381 5.48811C21.0666 5.47385 21.0809 5.47385 21.1094 5.48811C21.1379 5.50236 21.1379 5.53086 21.1379 5.55936C21.1379 5.60212 20.9384 5.75889 20.8813 5.75889Z" fill="#F4ECCB"/>
<path d="M17.3896 11.7019C17.3611 11.6876 17.3754 11.6734 17.3754 11.6591C17.3611 11.4739 17.2614 11.3456 17.1331 11.2316C16.9763 11.1033 16.8195 10.9751 16.6628 10.8468C16.563 10.7613 16.4633 10.7043 16.335 10.69C16.1497 10.6758 15.9929 10.7328 15.8789 10.9038C15.7649 11.0606 15.7649 11.2316 15.8362 11.4026C15.8789 11.5024 15.9502 11.5879 16.0214 11.6449C16.1782 11.7874 16.3492 11.9157 16.5203 12.0439C16.7198 12.1865 16.9193 12.2435 17.1473 12.1009C17.2328 12.0439 17.3041 11.9727 17.3469 11.8729C17.3611 11.8587 17.3611 11.8302 17.3754 11.8302C17.4039 11.8302 17.3896 11.8587 17.4039 11.8729C17.4324 12.2007 17.7602 12.443 18.145 12.272C18.1877 12.2577 18.2305 12.2292 18.2732 12.215C18.316 12.2007 18.3302 12.215 18.3302 12.2577C18.3445 12.6568 18.6295 12.8705 19.0001 12.7565C19.2138 12.6853 19.4134 12.5855 19.5986 12.4715C19.7269 12.4002 19.8124 12.272 19.8409 12.1295C19.8552 12.0439 19.8694 12.0297 19.9407 12.0867C20.1972 12.272 20.4537 12.4572 20.7245 12.6425C20.81 12.6995 20.8813 12.7565 20.9811 12.785C21.1948 12.8563 21.4229 12.7993 21.5511 12.6283C21.6794 12.443 21.6937 12.2007 21.5511 12.0154C21.4941 11.9299 21.4086 11.8587 21.3374 11.8017C20.8956 11.4881 20.468 11.1746 20.0262 10.861C19.8694 10.747 19.6984 10.69 19.4989 10.7613C19.2281 10.861 19.0998 11.1888 19.2281 11.4454C19.2423 11.4596 19.2423 11.4881 19.2566 11.5024C19.2566 11.5166 19.2566 11.5451 19.2281 11.5451C19.2138 11.5451 19.1853 11.5451 19.1853 11.5309C19.1853 11.5166 19.1853 11.5024 19.1711 11.4881C19.1283 11.1888 18.9003 11.0036 18.601 11.0463C18.259 11.0891 17.9454 11.2173 17.6461 11.3884C17.5606 11.4454 17.5036 11.5166 17.4466 11.6021C17.4324 11.6449 17.4324 11.6876 17.3896 11.7019Z" fill="#ED5246"/>
<path d="M2.72436 10.1484C2.85262 10.1199 2.92388 10.2197 3.00939 10.3337C3.12341 10.4905 3.35143 10.5475 3.55096 10.4477C3.82174 10.3052 4.12103 10.1769 4.34906 9.96317C4.39181 9.92041 4.43457 9.87766 4.47732 9.8349C4.50583 9.79215 4.53433 9.79215 4.56283 9.8349C4.74811 10.0914 4.96188 10.3052 5.21842 10.5047C5.28968 10.5617 5.37519 10.6045 5.4607 10.633C5.64597 10.69 5.80274 10.6615 5.95951 10.5475C6.00226 10.5047 6.03077 10.5047 6.04502 10.576C6.14478 10.918 6.47257 11.0606 6.77186 10.861C6.90013 10.7755 7.04264 10.747 7.19941 10.7185C7.29918 10.69 7.39894 10.6758 7.48445 10.6615C7.4987 10.6615 7.5272 10.6473 7.54146 10.6615C7.55571 10.6758 7.54146 10.69 7.5272 10.7043C7.45595 10.861 7.45595 11.0035 7.54146 11.1461C7.62697 11.3171 7.72673 11.4739 7.84074 11.6306C7.912 11.7304 8.01176 11.8159 8.15428 11.8159C8.3253 11.8159 8.45357 11.6876 8.46782 11.5166C8.46782 11.4596 8.46782 11.4026 8.45357 11.3456C8.39656 11.1461 8.3253 10.9465 8.22554 10.7613C8.14003 10.6045 8.01176 10.519 7.84074 10.519C7.82649 10.519 7.79799 10.519 7.79799 10.5047C7.78374 10.4762 7.81224 10.462 7.81224 10.4477C7.89775 10.3337 7.95476 10.2054 7.94051 10.0487C7.912 9.8349 7.74098 9.67813 7.54146 9.63538C7.4702 9.62113 7.39894 9.62113 7.32768 9.63538C7.07115 9.66388 6.82887 9.72089 6.58659 9.8064C6.44407 9.84915 6.30155 9.92041 6.20179 10.0487C6.15903 10.0914 6.14478 10.0914 6.11628 10.0344C6.07352 9.89191 5.98801 9.79215 5.88825 9.70664C5.73148 9.57837 5.58896 9.43585 5.4607 9.29333C5.37519 9.20782 5.28967 9.12231 5.18991 9.07956C4.96188 8.99405 4.7196 9.06531 4.59134 9.26483C4.54858 9.32184 4.52008 9.32184 4.47732 9.27908C4.34906 9.17932 4.20654 9.16507 4.04977 9.17932C3.76474 9.20782 3.5082 9.29333 3.26592 9.4501C3.20892 9.49286 3.16616 9.47861 3.12341 9.4216C3.02364 9.29333 2.89538 9.19357 2.73861 9.15082C2.45357 9.06531 2.21129 9.29333 2.2683 9.59262C2.28255 9.8349 2.49633 10.0772 2.72436 10.1484Z" fill="#ED5246"/>
<path d="M11.8883 10.7612C11.9025 10.7612 11.9025 10.7755 11.9168 10.7897C11.9595 10.9608 12.0878 11.0748 12.2161 11.1888C12.4013 11.3313 12.5581 11.4738 12.7719 11.5878C12.8859 11.6449 12.9999 11.6876 13.1139 11.6876C13.456 11.6876 13.6412 11.3598 13.4987 11.0463C13.456 10.9465 13.3847 10.861 13.2992 10.7897C13.1424 10.6187 12.9999 10.4762 12.8289 10.3622C12.7434 10.2909 12.6436 10.2339 12.5438 10.2054C12.2731 10.1342 12.0165 10.2767 11.9168 10.5475C11.9025 10.5617 11.9168 10.6045 11.8883 10.6045C11.8598 10.6045 11.8598 10.576 11.8455 10.5617C11.76 10.3479 11.589 10.2624 11.3752 10.2482C11.3182 10.2482 11.2612 10.2482 11.2184 10.2624C10.9476 10.3194 10.6626 10.3764 10.3918 10.462C10.2493 10.5047 10.1353 10.5617 10.0355 10.6757C9.89301 10.8468 9.86451 11.0748 9.96427 11.2601C10.064 11.4453 10.2778 11.5593 10.5058 11.5023C10.8051 11.4311 11.1187 11.3741 11.4037 11.2743C11.6317 11.2031 11.8028 11.0605 11.8598 10.8183C11.874 10.7755 11.874 10.7755 11.8883 10.7612Z" fill="#ED5246"/>
<path d="M13.8408 14.1389C13.8693 13.9822 13.8835 13.8254 13.912 13.6829C13.969 13.3978 13.9976 13.1128 14.1116 12.842C14.1828 12.671 14.2826 12.5285 14.3966 12.4002C14.4251 12.3575 14.4394 12.3147 14.4109 12.2719C14.3966 12.2577 14.3966 12.2434 14.3966 12.2292C14.4679 12.1152 14.3681 12.1722 14.3396 12.1722C14.1828 12.1864 14.0261 12.1437 13.8978 12.0439C13.7553 11.9299 13.6128 11.8301 13.4275 11.8016C13.3705 11.8016 13.3277 11.7874 13.2707 11.8016C13.1282 11.8301 12.9999 11.8159 12.8717 11.7731C12.7719 11.7446 12.7434 11.7589 12.7434 11.8729C12.7434 11.9157 12.7291 11.9584 12.7149 12.0012C12.7006 12.2149 12.8004 12.386 12.9144 12.5712C12.9287 12.5997 12.9429 12.614 12.9714 12.6425C13.1852 12.8278 13.228 13.0985 13.228 13.3693C13.2422 13.6116 13.228 13.8539 13.2565 14.0962C13.2707 14.1674 13.285 14.2387 13.3135 14.3099C13.3562 14.4097 13.4417 14.481 13.5415 14.481C13.6413 14.481 13.7125 14.4097 13.7553 14.3242C13.798 14.2387 13.8265 14.1959 13.8408 14.1389Z" fill="#ED5246"/>
<path d="M9.20888 11.2743C9.37991 11.3171 9.52242 11.3171 9.66494 11.2458C9.80746 11.1603 9.89297 10.9893 9.87872 10.8183C9.85021 10.6472 9.77895 10.4905 9.65069 10.3907C9.37991 10.1627 9.12337 9.93466 8.83834 9.72088C8.66732 9.59261 8.48204 9.53561 8.26827 9.63537C7.95473 9.77789 7.86922 10.1627 8.09725 10.4335C8.19701 10.5475 8.31102 10.633 8.42504 10.7328C8.58181 10.8753 8.75283 11.0178 8.9381 11.1461C9.02361 11.1888 9.12337 11.2458 9.20888 11.2743Z" fill="#ED5246"/>
<path d="M13.7839 11.2458C13.6699 11.6449 13.9407 11.9727 14.297 11.9299C14.3255 11.9299 14.354 11.9157 14.3825 11.9157C14.6675 11.8017 14.9668 11.7304 15.2518 11.6306C15.3659 11.5879 15.4514 11.5309 15.5226 11.4311C15.6509 11.2743 15.6794 11.1033 15.6081 10.918C15.5369 10.7328 15.3944 10.633 15.1948 10.6188C15.1378 10.6045 15.0666 10.6188 15.0096 10.633C14.7245 10.7185 14.4395 10.7898 14.1687 10.9038C13.9834 10.9608 13.8409 11.0891 13.7839 11.2458Z" fill="#ED5246"/>
<path d="M15.9644 12.1294C15.9786 12.0582 15.9929 12.0154 15.9929 11.9727C16.0071 11.8016 15.9501 11.6734 15.8076 11.5879C15.6508 11.5023 15.4941 11.5166 15.3515 11.6164C15.1948 11.7304 15.0238 11.8301 14.867 11.9442C14.7672 12.0154 14.6817 12.1009 14.6247 12.2149C14.4964 12.5 14.639 12.7993 14.924 12.8705C15.0238 12.8848 15.1235 12.899 15.2233 12.8563C15.5796 12.6995 15.8219 12.4572 15.9644 12.1294Z" fill="#ED5246"/>
<path d="M2.39681 10.4192C2.36831 10.3907 2.38256 10.3765 2.38256 10.348C2.36831 10.1912 2.25429 10.0772 2.09752 10.0629C1.898 10.0344 1.66997 10.1627 1.57021 10.3337C1.44194 10.5617 1.58446 10.804 1.84099 10.804C2.01201 10.804 2.16878 10.7328 2.2828 10.6045C2.29705 10.5903 2.3113 10.5617 2.32555 10.576C2.35406 10.5903 2.3398 10.6045 2.3398 10.633C2.35406 10.7898 2.43957 10.8895 2.56783 10.9323C2.68185 10.9751 2.79586 11.0321 2.90988 11.0748C3.02389 11.1176 3.1379 11.1603 3.26617 11.1318C3.35168 11.1176 3.42294 11.0748 3.45144 10.9893C3.47995 10.8895 3.45144 10.8183 3.38018 10.7613C3.20916 10.633 3.06665 10.4905 2.90988 10.3622C2.76736 10.2197 2.59634 10.2482 2.39681 10.4192Z" fill="#ED5246"/>
<path d="M13.5416 10.69C13.8693 10.7755 14.2256 10.5902 14.3539 10.2625C14.3967 10.1342 14.3539 10.0202 14.2256 10.0344C13.9406 10.0629 13.6841 9.93466 13.4133 9.8634C13.3563 9.84915 13.3135 9.8349 13.2565 9.8349C13.1425 9.84915 13.0427 9.94891 13.057 10.0629C13.0998 10.3622 13.2423 10.6045 13.5416 10.69Z" fill="#ED5246"/>
<path d="M11.6175 11.3741C11.6033 11.4454 11.589 11.5166 11.6175 11.5879C11.6745 11.8017 11.7743 11.9869 11.9168 12.1437C11.9881 12.215 12.0736 12.272 12.1876 12.2862C12.4156 12.2862 12.5724 12.0724 12.5011 11.8444C12.4299 11.6449 12.3301 11.4454 12.1876 11.2743C12.1021 11.1746 11.9881 11.1176 11.8456 11.1461C11.7173 11.1746 11.646 11.2601 11.6175 11.3741Z" fill="#ED5246"/>
<path d="M3.80754 8.35272C3.56526 8.29571 3.32298 8.32422 3.10921 8.52374C3.00944 8.60925 2.95244 8.72327 2.98094 8.86578C3.00944 9.0083 3.12346 9.06531 3.25172 9.09381C3.4655 9.15082 3.66502 9.07956 3.8503 8.95129C3.95006 8.88003 4.03557 8.79452 4.10683 8.69476C4.16384 8.6235 4.14959 8.53799 4.07833 8.48099C4.00707 8.43823 3.93581 8.38122 3.80754 8.35272Z" fill="#ED5246"/>
<path d="M4.20666 10.5332C4.16391 10.7185 4.13541 10.9038 4.16391 11.089C4.19241 11.26 4.30643 11.3741 4.44894 11.3883C4.59146 11.3883 4.71973 11.3028 4.76248 11.1603C4.81949 11.0035 4.80524 10.8467 4.81949 10.7042C4.81949 10.633 4.83374 10.5617 4.83374 10.4762C4.81949 10.3337 4.73398 10.2339 4.60571 10.2054C4.47745 10.1769 4.34918 10.2482 4.27792 10.3622C4.24942 10.4192 4.22092 10.4619 4.20666 10.5332Z" fill="#ED5246"/>
<path d="M16.8765 12.9703C17.1188 13.0273 17.3754 12.9988 17.6176 12.9275C17.7459 12.8848 17.8314 12.7565 17.8314 12.6282C17.8314 12.5 17.7459 12.386 17.6034 12.3432C17.3183 12.2862 17.0476 12.3147 16.8053 12.4572C16.7055 12.5142 16.6343 12.5997 16.6485 12.7137C16.6628 12.842 16.7483 12.9133 16.8623 12.9418C16.848 12.956 16.8623 12.956 16.8765 12.9703Z" fill="#ED5246"/>
<path d="M6.87167 11.7731C6.97143 11.8016 7.08545 11.8301 7.19946 11.8016C7.32773 11.7731 7.41324 11.7161 7.45599 11.5879C7.49875 11.4596 7.47025 11.3456 7.37048 11.2743C7.19946 11.1318 7.01419 11.032 6.78616 10.9893C6.61514 10.9608 6.47262 11.0463 6.41561 11.1888C6.35861 11.3313 6.40136 11.4881 6.52963 11.6021C6.62939 11.6876 6.7434 11.7304 6.87167 11.7731Z" fill="#ED5246"/>
<path d="M9.40848 12.2292C9.66501 12.272 9.92154 12.215 10.1353 12.0297C10.2351 11.9584 10.2778 11.8444 10.2351 11.7161C10.2066 11.5879 10.1211 11.5309 10.0071 11.5166C9.73627 11.4739 9.47974 11.5451 9.25171 11.7019C9.1662 11.7589 9.10919 11.8587 9.13769 11.9727C9.1662 12.1152 9.26596 12.1722 9.40848 12.2292Z" fill="#ED5246"/>
<path d="M11.3041 11.5594C11.2185 11.5309 11.1188 11.5451 11.0333 11.5879C10.8765 11.6734 10.734 11.7731 10.6057 11.9014C10.5345 11.9727 10.4917 12.0582 10.4917 12.1579C10.4917 12.3147 10.62 12.443 10.7767 12.4287C11.0618 12.4145 11.2898 12.2719 11.4466 12.0439C11.5891 11.8586 11.5036 11.6164 11.3041 11.5594Z" fill="#ED5246"/>
<path d="M17.2329 10.6615C17.2044 10.747 17.2044 10.8325 17.2186 10.918C17.2471 11.1033 17.4181 11.1746 17.5749 11.0891C17.7174 11.0178 17.8029 10.8895 17.8742 10.747C17.9312 10.6045 18.031 10.5047 18.145 10.4192C18.2305 10.348 18.2162 10.3052 18.145 10.2482C18.0737 10.1912 18.0025 10.1912 17.917 10.2055C17.6889 10.2197 17.4894 10.3195 17.3326 10.4905C17.2756 10.5332 17.2471 10.6045 17.2329 10.6615Z" fill="#ED5246"/>
<path d="M10.7339 9.54983C10.4631 9.46432 10.1353 9.63534 10.0213 9.92037C9.99281 9.97738 9.9643 10.0486 9.95005 10.1199C9.92155 10.3337 10.0783 10.4477 10.2636 10.3622C10.4631 10.2767 10.6199 10.1342 10.7481 9.94888C10.7909 9.89187 10.8194 9.82061 10.8479 9.76361C10.8907 9.64959 10.8764 9.60684 10.7624 9.56408C10.7481 9.54983 10.7481 9.54983 10.7339 9.54983Z" fill="#ED5246"/>
<path d="M6.95718 8.90855C6.6579 8.82304 6.33011 8.95131 6.15909 9.20784C6.11633 9.2791 6.10208 9.35036 6.14483 9.42162C6.18759 9.49288 6.25885 9.53563 6.34436 9.52138C6.60089 9.49288 6.82892 9.39311 7.02844 9.20784C7.24222 9.03682 7.14246 8.96556 6.95718 8.90855Z" fill="#ED5246"/>
<path d="M5.475 8.89429C5.56051 8.92279 5.63176 8.92279 5.70302 8.90854C5.81704 8.89429 5.87404 8.80878 5.87404 8.69477C5.87404 8.595 5.83129 8.50949 5.77428 8.43823C5.63176 8.28146 5.44649 8.1817 5.24697 8.1817C5.07595 8.1817 4.97618 8.33847 5.06169 8.49524C5.1472 8.69477 5.30397 8.82303 5.475 8.89429Z" fill="#ED5246"/>
<path d="M5.33246 11.2173C5.31821 11.2886 5.31821 11.3741 5.38947 11.4453C5.46073 11.5166 5.54624 11.5309 5.646 11.5024C5.84552 11.4311 5.98804 11.2886 6.0593 11.0891C6.10206 11.0035 6.0878 10.9038 6.01654 10.8325C5.95954 10.7613 5.87403 10.747 5.78852 10.7755C5.60324 10.8183 5.38947 11.0178 5.33246 11.2173Z" fill="#ED5246"/>
<path d="M9.56528 9.92041C9.69354 9.96317 9.7363 9.92041 9.7363 9.8064C9.72205 9.62113 9.62229 9.47861 9.47977 9.35034C9.40851 9.27908 9.323 9.20782 9.23749 9.16507C9.18048 9.13656 9.12347 9.13656 9.06647 9.17932C9.02371 9.22208 8.99521 9.27908 9.02371 9.33609C9.15198 9.59262 9.323 9.82065 9.56528 9.92041Z" fill="#ED5246"/>
<path d="M11.5035 9.83493C11.475 9.93469 11.5178 10.0202 11.6033 10.0202C11.8171 10.0345 12.0451 10.0487 12.2589 9.9632C12.3159 9.93469 12.4014 9.92044 12.4014 9.83493C12.4014 9.74942 12.3301 9.70666 12.2589 9.67816C12.1591 9.63541 12.0594 9.6069 11.9596 9.63541C11.8456 9.66391 11.7173 9.67816 11.6033 9.73517C11.5606 9.76367 11.5178 9.79218 11.5035 9.83493Z" fill="#ED5246"/>
</g>
<defs>
<clipPath id="clip0_1_57986">
<rect width="25.6532" height="18" fill="white" transform="translate(0.173401 0.5)"/>
</clipPath>
</defs>
</svg>
