<svg width="14" height="29" viewBox="0 0 14 29" fill="none" xmlns="http://www.w3.org/2000/svg">
<path d="M2.25043 25.077C1.29678 25.2138 0.562927 26.0319 0.562927 27.0234C0.562927 28.1107 1.44443 28.9922 2.53168 28.9922C3.61899 28.9922 4.50043 28.1107 4.50043 27.0234C4.50043 26.856 4.47722 26.6941 4.43778 26.5386C4.37956 26.309 4.28253 26.0952 4.15161 25.9058C4.1277 25.9016 4.10351 25.8984 4.07855 25.8984C3.88547 25.8984 3.72446 26.0289 3.6744 26.206C3.77944 26.3525 3.85679 26.5197 3.89933 26.701C3.92372 26.8046 3.93793 26.9123 3.93793 27.0236C3.93793 27.8001 3.30821 28.4298 2.53168 28.4298C1.75508 28.4298 1.12543 27.8001 1.12543 27.0236C1.12543 26.3432 1.60869 25.7758 2.25043 25.6456C2.3412 25.6272 2.81293 25.5865 2.81293 25.0548L2.81293 0.867329H2.25043L2.25043 25.077Z" fill="#4B5A64"/>
<path d="M3.93811 23.6484C4.09329 23.6484 4.21936 23.5224 4.21936 23.3672V19.9922C4.21936 19.8369 4.09329 19.7109 3.93811 19.7109H1.68811L1.68811 23.6484H3.93811Z" fill="#F97450"/>
<path d="M3.93811 19.1484C4.09329 19.1484 4.21936 19.0224 4.21936 18.8672C4.21936 18.7119 4.09329 18.5859 3.93811 18.5859H1.68811V19.1484H3.93811Z" fill="#D8D8D8"/>
<path d="M0.844269 19.9922L0.844269 23.3672C0.844269 23.5224 0.970198 23.6484 1.12552 23.6484H1.68802L1.68802 19.7109H1.12552C0.970198 19.7109 0.844269 19.8368 0.844269 19.9922Z" fill="#FF8869"/>
<path d="M0.84436 18.8672C0.84436 19.0224 0.97029 19.1484 1.12561 19.1484H1.68811V18.5859H1.12561C0.97029 18.5859 0.84436 18.7118 0.84436 18.8672Z" fill="#F4F4F4"/>
<path d="M2.81311 22.5234C2.81311 22.3681 2.68719 22.2422 2.53186 22.2422C2.37653 22.2422 2.25061 22.3681 2.25061 22.5234C2.25061 22.6788 2.37653 22.8047 2.53186 22.8047C2.68719 22.8047 2.81311 22.6788 2.81311 22.5234Z" fill="#F25E37"/>
<path d="M3.93811 20.9766C3.93811 20.7436 3.74923 20.5547 3.51624 20.5547C3.28324 20.5547 3.09436 20.7436 3.09436 20.9766C3.09436 21.2096 3.28324 21.3984 3.51624 21.3984C3.74923 21.3984 3.93811 21.2096 3.93811 20.9766Z" fill="#F25E37"/>
<path d="M2.53186 20.6953C2.53186 20.6176 2.4689 20.5547 2.39124 20.5547C2.31357 20.5547 2.25061 20.6176 2.25061 20.6953C2.25061 20.773 2.31357 20.8359 2.39124 20.8359C2.4689 20.8359 2.53186 20.773 2.53186 20.6953Z" fill="#F25E37"/>
<path d="M3.93811 18.0234C4.09329 18.0234 4.21936 17.8974 4.21936 17.7422V14.3672C4.21936 14.2117 4.09329 14.0859 3.93811 14.0859H1.68811L1.68811 18.0234H3.93811Z" fill="#F97450"/>
<path d="M3.93811 13.5234C4.09329 13.5234 4.21936 13.3974 4.21936 13.2422C4.21936 13.0867 4.09329 12.9609 3.93811 12.9609H1.68811V13.5234H3.93811Z" fill="#D8D8D8"/>
<path d="M0.844269 14.3672L0.844269 17.7422C0.844269 17.8974 0.970198 18.0234 1.12552 18.0234H1.68802L1.68802 14.0859H1.12552C0.970198 14.0859 0.844269 14.2117 0.844269 14.3672Z" fill="#FF8869"/>
<path d="M0.84436 13.2422C0.84436 13.3974 0.97029 13.5234 1.12561 13.5234H1.68811V12.9609H1.12561C0.97029 12.9609 0.84436 13.0867 0.84436 13.2422Z" fill="#F4F4F4"/>
<path d="M2.81311 16.8984C2.81311 16.7431 2.68719 16.6172 2.53186 16.6172C2.37653 16.6172 2.25061 16.7431 2.25061 16.8984C2.25061 17.0538 2.37653 17.1797 2.53186 17.1797C2.68719 17.1797 2.81311 17.0538 2.81311 16.8984Z" fill="#F25E37"/>
<path d="M3.93811 15.3516C3.93811 15.1186 3.74923 14.9297 3.51624 14.9297C3.28324 14.9297 3.09436 15.1186 3.09436 15.3516C3.09436 15.5846 3.28324 15.7734 3.51624 15.7734C3.74923 15.7734 3.93811 15.5846 3.93811 15.3516Z" fill="#F25E37"/>
<path d="M2.53186 15.0703C2.53186 14.9926 2.4689 14.9297 2.39124 14.9297C2.31357 14.9297 2.25061 14.9926 2.25061 15.0703C2.25061 15.148 2.31357 15.2109 2.39124 15.2109C2.4689 15.2109 2.53186 15.148 2.53186 15.0703Z" fill="#F25E37"/>
<path d="M3.93811 12.3984C4.09329 12.3984 4.21936 12.2724 4.21936 12.1172V8.74219C4.21936 8.58673 4.09329 8.46094 3.93811 8.46094H1.68811L1.68811 12.3984H3.93811Z" fill="#F97450"/>
<path d="M3.93811 7.89844C4.09329 7.89844 4.21936 7.77237 4.21936 7.61719C4.21936 7.46173 4.09329 7.33594 3.93811 7.33594H1.68811V7.89844H3.93811Z" fill="#D8D8D8"/>
<path d="M0.844269 8.74219L0.844269 12.1172C0.844269 12.2724 0.970198 12.3984 1.12552 12.3984H1.68802L1.68802 8.46094H1.12552C0.970198 8.46094 0.844269 8.58673 0.844269 8.74219Z" fill="#FF8869"/>
<path d="M0.84436 7.61719C0.84436 7.77237 0.97029 7.89844 1.12561 7.89844H1.68811V7.33594H1.12561C0.97029 7.33594 0.84436 7.46173 0.84436 7.61719Z" fill="#F4F4F4"/>
<path d="M2.81311 11.2734C2.81311 11.1181 2.68719 10.9922 2.53186 10.9922C2.37653 10.9922 2.25061 11.1181 2.25061 11.2734C2.25061 11.4288 2.37653 11.5547 2.53186 11.5547C2.68719 11.5547 2.81311 11.4288 2.81311 11.2734Z" fill="#F25E37"/>
<path d="M3.93811 9.72656C3.93811 9.49357 3.74923 9.30469 3.51624 9.30469C3.28324 9.30469 3.09436 9.49357 3.09436 9.72656C3.09436 9.95956 3.28324 10.1484 3.51624 10.1484C3.74923 10.1484 3.93811 9.95956 3.93811 9.72656Z" fill="#F25E37"/>
<path d="M2.53186 9.44531C2.53186 9.36765 2.4689 9.30469 2.39124 9.30469C2.31357 9.30469 2.25061 9.36765 2.25061 9.44531C2.25061 9.52298 2.31357 9.58594 2.39124 9.58594C2.4689 9.58594 2.53186 9.52298 2.53186 9.44531Z" fill="#F25E37"/>
<path d="M3.93811 6.77344C4.09329 6.77344 4.21936 6.64737 4.21936 6.49219V3.11719C4.21936 2.96173 4.09329 2.83594 3.93811 2.83594H1.68811L1.68811 6.77344H3.93811Z" fill="#F97450"/>
<path d="M3.93811 2.27344C4.09329 2.27344 4.21936 2.14737 4.21936 1.99219C4.21936 1.83673 4.09329 1.71094 3.93811 1.71094H1.68811V2.27344H3.93811Z" fill="#D8D8D8"/>
<path d="M0.844269 3.11719L0.844269 6.49219C0.844269 6.64737 0.970198 6.77344 1.12552 6.77344H1.68802L1.68802 2.83594H1.12552C0.970198 2.83594 0.844269 2.96173 0.844269 3.11719Z" fill="#FF8869"/>
<path d="M0.84436 1.99219C0.84436 2.14737 0.97029 2.27344 1.12561 2.27344H1.68811V1.71094H1.12561C0.97029 1.71094 0.84436 1.83673 0.84436 1.99219Z" fill="#F4F4F4"/>
<path d="M2.81311 5.64844C2.81311 5.49311 2.68719 5.36719 2.53186 5.36719C2.37653 5.36719 2.25061 5.49311 2.25061 5.64844C2.25061 5.80377 2.37653 5.92969 2.53186 5.92969C2.68719 5.92969 2.81311 5.80377 2.81311 5.64844Z" fill="#F25E37"/>
<path d="M3.93811 4.10156C3.93811 3.86857 3.74923 3.67969 3.51624 3.67969C3.28324 3.67969 3.09436 3.86857 3.09436 4.10156C3.09436 4.33456 3.28324 4.52344 3.51624 4.52344C3.74923 4.52344 3.93811 4.33456 3.93811 4.10156Z" fill="#F25E37"/>
<path d="M2.53186 3.82031C2.53186 3.74265 2.4689 3.67969 2.39124 3.67969C2.31357 3.67969 2.25061 3.74265 2.25061 3.82031C2.25061 3.89798 2.31357 3.96094 2.39124 3.96094C2.4689 3.96094 2.53186 3.89798 2.53186 3.82031Z" fill="#F25E37"/>
<path d="M6.75043 4.78219C5.79678 4.64543 5.06293 3.82748 5.06293 2.83594C5.06293 1.74855 5.94444 0.867188 7.03168 0.867188C8.11892 0.867188 9.00043 1.74855 9.00043 2.83594C9.00043 3.00349 8.97722 3.16528 8.93778 3.32074C8.87956 3.55038 8.78246 3.76406 8.65161 3.95355C8.6277 3.9577 8.60351 3.96094 8.57855 3.96094C8.38547 3.96094 8.22439 3.83051 8.1744 3.65332C8.27944 3.50693 8.35679 3.33966 8.39933 3.15825C8.42379 3.05482 8.43793 2.94703 8.43793 2.8358C8.43793 2.05919 7.80828 1.42955 7.03168 1.42955C6.25508 1.42955 5.62543 2.05919 5.62543 2.8358C5.62543 3.51614 6.10869 4.08356 6.75043 4.21378C6.8412 4.2322 7.31293 4.27284 7.31293 4.80455L7.31293 28.9922H6.75043L6.75043 4.78219Z" fill="#4B5A64"/>
<path d="M8.43811 6.21094C8.59329 6.21094 8.71936 6.33673 8.71936 6.49219V9.86719C8.71936 10.0224 8.59329 10.1484 8.43811 10.1484H6.18811V6.21094H8.43811Z" fill="#F97450"/>
<path d="M8.43811 10.7109C8.59329 10.7109 8.71936 10.8367 8.71936 10.9922C8.71936 11.1474 8.59329 11.2734 8.43811 11.2734H6.18811V10.7109H8.43811Z" fill="#D8D8D8"/>
<path d="M5.34436 9.86719V6.49219C5.34436 6.33673 5.47029 6.21094 5.62561 6.21094H6.18811V10.1484H5.62561C5.47029 10.1484 5.34436 10.0224 5.34436 9.86719Z" fill="#FF8869"/>
<path d="M5.34427 10.9922C5.34427 10.8367 5.4702 10.7109 5.62552 10.7109H6.18802V11.2734H5.62552C5.4702 11.2734 5.34427 11.1474 5.34427 10.9922Z" fill="#F4F4F4"/>
<path d="M7.31311 7.33594C7.31311 7.18061 7.18719 7.05469 7.03186 7.05469C6.87653 7.05469 6.75061 7.18061 6.75061 7.33594C6.75061 7.49127 6.87653 7.61719 7.03186 7.61719C7.18719 7.61719 7.31311 7.49127 7.31311 7.33594Z" fill="#F25E37"/>
<path d="M8.43811 8.88281C8.43811 8.64982 8.24923 8.46094 8.01624 8.46094C7.78324 8.46094 7.59436 8.64982 7.59436 8.88281C7.59436 9.11581 7.78324 9.30469 8.01624 9.30469C8.24923 9.30469 8.43811 9.11581 8.43811 8.88281Z" fill="#F25E37"/>
<path d="M7.03186 9.16406C7.03186 9.0864 6.9689 9.02344 6.89124 9.02344C6.81357 9.02344 6.75061 9.0864 6.75061 9.16406C6.75061 9.24173 6.81357 9.30469 6.89124 9.30469C6.9689 9.30469 7.03186 9.24173 7.03186 9.16406Z" fill="#F25E37"/>
<path d="M8.43811 11.8359C8.59329 11.8359 8.71936 11.9617 8.71936 12.1172V15.4922C8.71936 15.6474 8.59329 15.7734 8.43811 15.7734H6.18811V11.8359H8.43811Z" fill="#F97450"/>
<path d="M8.43811 16.3359C8.59329 16.3359 8.71936 16.4619 8.71936 16.6172C8.71936 16.7724 8.59329 16.8984 8.43811 16.8984H6.18811V16.3359H8.43811Z" fill="#D8D8D8"/>
<path d="M5.34436 15.4922V12.1172C5.34436 11.9617 5.47029 11.8359 5.62561 11.8359H6.18811V15.7734H5.62561C5.47029 15.7734 5.34436 15.6474 5.34436 15.4922Z" fill="#FF8869"/>
<path d="M5.34427 16.6172C5.34427 16.4619 5.4702 16.3359 5.62552 16.3359H6.18802V16.8984H5.62552C5.4702 16.8984 5.34427 16.7724 5.34427 16.6172Z" fill="#F4F4F4"/>
<path d="M7.31311 12.9609C7.31311 12.8056 7.18719 12.6797 7.03186 12.6797C6.87653 12.6797 6.75061 12.8056 6.75061 12.9609C6.75061 13.1163 6.87653 13.2422 7.03186 13.2422C7.18719 13.2422 7.31311 13.1163 7.31311 12.9609Z" fill="#F25E37"/>
<path d="M8.43811 14.5078C8.43811 14.2748 8.24923 14.0859 8.01624 14.0859C7.78324 14.0859 7.59436 14.2748 7.59436 14.5078C7.59436 14.7408 7.78324 14.9297 8.01624 14.9297C8.24923 14.9297 8.43811 14.7408 8.43811 14.5078Z" fill="#F25E37"/>
<path d="M7.03186 14.7891C7.03186 14.7114 6.9689 14.6484 6.89124 14.6484C6.81357 14.6484 6.75061 14.7114 6.75061 14.7891C6.75061 14.8667 6.81357 14.9297 6.89124 14.9297C6.9689 14.9297 7.03186 14.8667 7.03186 14.7891Z" fill="#F25E37"/>
<path d="M8.43811 17.4609C8.59329 17.4609 8.71936 17.5869 8.71936 17.7422V21.1172C8.71936 21.2724 8.59329 21.3984 8.43811 21.3984H6.18811V17.4609H8.43811Z" fill="#F97450"/>
<path d="M8.43811 21.9609C8.59329 21.9609 8.71936 22.0869 8.71936 22.2422C8.71936 22.3974 8.59329 22.5234 8.43811 22.5234H6.18811V21.9609H8.43811Z" fill="#D8D8D8"/>
<path d="M5.34436 21.1172V17.7422C5.34436 17.5869 5.47029 17.4609 5.62561 17.4609H6.18811V21.3984H5.62561C5.47029 21.3984 5.34436 21.2724 5.34436 21.1172Z" fill="#FF8869"/>
<path d="M5.34427 22.2422C5.34427 22.0869 5.4702 21.9609 5.62552 21.9609H6.18802V22.5234H5.62552C5.4702 22.5234 5.34427 22.3974 5.34427 22.2422Z" fill="#F4F4F4"/>
<path d="M7.31311 18.5859C7.31311 18.4306 7.18719 18.3047 7.03186 18.3047C6.87653 18.3047 6.75061 18.4306 6.75061 18.5859C6.75061 18.7413 6.87653 18.8672 7.03186 18.8672C7.18719 18.8672 7.31311 18.7413 7.31311 18.5859Z" fill="#F25E37"/>
<path d="M8.43811 20.1328C8.43811 19.8998 8.24923 19.7109 8.01624 19.7109C7.78324 19.7109 7.59436 19.8998 7.59436 20.1328C7.59436 20.3658 7.78324 20.5547 8.01624 20.5547C8.24923 20.5547 8.43811 20.3658 8.43811 20.1328Z" fill="#F25E37"/>
<path d="M7.03186 20.4141C7.03186 20.3364 6.9689 20.2734 6.89124 20.2734C6.81357 20.2734 6.75061 20.3364 6.75061 20.4141C6.75061 20.4917 6.81357 20.5547 6.89124 20.5547C6.9689 20.5547 7.03186 20.4917 7.03186 20.4141Z" fill="#F25E37"/>
<path d="M8.43811 23.0859C8.59329 23.0859 8.71936 23.2119 8.71936 23.3672V26.7422C8.71936 26.8974 8.59329 27.0234 8.43811 27.0234H6.18811V23.0859H8.43811Z" fill="#F97450"/>
<path d="M8.43811 27.5859C8.59329 27.5859 8.71936 27.7119 8.71936 27.8672C8.71936 28.0224 8.59329 28.1484 8.43811 28.1484H6.18811V27.5859H8.43811Z" fill="#D8D8D8"/>
<path d="M5.34436 26.7422V23.3672C5.34436 23.2119 5.47029 23.0859 5.62561 23.0859H6.18811V27.0234H5.62561C5.47029 27.0234 5.34436 26.8974 5.34436 26.7422Z" fill="#FF8869"/>
<path d="M5.34427 27.8672C5.34427 27.7119 5.4702 27.5859 5.62552 27.5859H6.18802V28.1484H5.62552C5.4702 28.1484 5.34427 28.0224 5.34427 27.8672Z" fill="#F4F4F4"/>
<path d="M7.31311 24.2109C7.31311 24.0556 7.18719 23.9297 7.03186 23.9297C6.87653 23.9297 6.75061 24.0556 6.75061 24.2109C6.75061 24.3663 6.87653 24.4922 7.03186 24.4922C7.18719 24.4922 7.31311 24.3663 7.31311 24.2109Z" fill="#F25E37"/>
<path d="M8.43811 25.7578C8.43811 25.5248 8.24923 25.3359 8.01624 25.3359C7.78324 25.3359 7.59436 25.5248 7.59436 25.7578C7.59436 25.9908 7.78324 26.1797 8.01624 26.1797C8.24923 26.1797 8.43811 25.9908 8.43811 25.7578Z" fill="#F25E37"/>
<path d="M7.03186 26.0391C7.03186 25.9614 6.9689 25.8984 6.89124 25.8984C6.81357 25.8984 6.75061 25.9614 6.75061 26.0391C6.75061 26.1167 6.81357 26.1797 6.89124 26.1797C6.9689 26.1797 7.03186 26.1167 7.03186 26.0391Z" fill="#F25E37"/>
<path d="M11.2504 25.077C10.2968 25.2138 9.56293 26.0319 9.56293 27.0234C9.56293 28.1107 10.4444 28.9922 11.5317 28.9922C12.6189 28.9922 13.5004 28.1107 13.5004 27.0234C13.5004 26.856 13.4772 26.6941 13.4378 26.5386C13.3796 26.309 13.2825 26.0952 13.1516 25.9058C13.1277 25.9016 13.1035 25.8984 13.0786 25.8984C12.8855 25.8984 12.7244 26.0289 12.6744 26.206C12.7794 26.3525 12.8568 26.5197 12.8993 26.701C12.9238 26.8046 12.9379 26.9123 12.9379 27.0236C12.9379 27.8001 12.3083 28.4298 11.5317 28.4298C10.7551 28.4298 10.1254 27.8001 10.1254 27.0236C10.1254 26.3432 10.6087 25.7758 11.2504 25.6456C11.3412 25.6272 11.8129 25.5865 11.8129 25.0548L11.8129 0.867329H11.2504L11.2504 25.077Z" fill="#4B5A64"/>
<path d="M12.9381 23.6484C13.0933 23.6484 13.2194 23.5224 13.2194 23.3672V19.9922C13.2194 19.8369 13.0933 19.7109 12.9381 19.7109H10.6881V23.6484H12.9381Z" fill="#F97450"/>
<path d="M12.9381 19.1484C13.0933 19.1484 13.2194 19.0224 13.2194 18.8672C13.2194 18.7119 13.0933 18.5859 12.9381 18.5859H10.6881V19.1484H12.9381Z" fill="#D8D8D8"/>
<path d="M9.84427 19.9922V23.3672C9.84427 23.5224 9.9702 23.6484 10.1255 23.6484H10.688V19.7109H10.1255C9.9702 19.7109 9.84427 19.8368 9.84427 19.9922Z" fill="#FF8869"/>
<path d="M9.84436 18.8672C9.84436 19.0224 9.97029 19.1484 10.1256 19.1484H10.6881V18.5859H10.1256C9.97029 18.5859 9.84436 18.7118 9.84436 18.8672Z" fill="#F4F4F4"/>
<path d="M11.8131 22.5234C11.8131 22.3681 11.6872 22.2422 11.5319 22.2422C11.3765 22.2422 11.2506 22.3681 11.2506 22.5234C11.2506 22.6788 11.3765 22.8047 11.5319 22.8047C11.6872 22.8047 11.8131 22.6788 11.8131 22.5234Z" fill="#F25E37"/>
<path d="M12.9381 20.9766C12.9381 20.7436 12.7492 20.5547 12.5162 20.5547C12.2832 20.5547 12.0944 20.7436 12.0944 20.9766C12.0944 21.2096 12.2832 21.3984 12.5162 21.3984C12.7492 21.3984 12.9381 21.2096 12.9381 20.9766Z" fill="#F25E37"/>
<path d="M11.5319 20.6953C11.5319 20.6176 11.4689 20.5547 11.3912 20.5547C11.3136 20.5547 11.2506 20.6176 11.2506 20.6953C11.2506 20.773 11.3136 20.8359 11.3912 20.8359C11.4689 20.8359 11.5319 20.773 11.5319 20.6953Z" fill="#F25E37"/>
<path d="M12.9381 18.0234C13.0933 18.0234 13.2194 17.8974 13.2194 17.7422V14.3672C13.2194 14.2117 13.0933 14.0859 12.9381 14.0859H10.6881V18.0234H12.9381Z" fill="#F97450"/>
<path d="M12.9381 13.5234C13.0933 13.5234 13.2194 13.3974 13.2194 13.2422C13.2194 13.0867 13.0933 12.9609 12.9381 12.9609H10.6881V13.5234H12.9381Z" fill="#D8D8D8"/>
<path d="M9.84427 14.3672V17.7422C9.84427 17.8974 9.9702 18.0234 10.1255 18.0234H10.688V14.0859H10.1255C9.9702 14.0859 9.84427 14.2117 9.84427 14.3672Z" fill="#FF8869"/>
<path d="M9.84436 13.2422C9.84436 13.3974 9.97029 13.5234 10.1256 13.5234H10.6881V12.9609H10.1256C9.97029 12.9609 9.84436 13.0867 9.84436 13.2422Z" fill="#F4F4F4"/>
<path d="M11.8131 16.8984C11.8131 16.7431 11.6872 16.6172 11.5319 16.6172C11.3765 16.6172 11.2506 16.7431 11.2506 16.8984C11.2506 17.0538 11.3765 17.1797 11.5319 17.1797C11.6872 17.1797 11.8131 17.0538 11.8131 16.8984Z" fill="#F25E37"/>
<path d="M12.9381 15.3516C12.9381 15.1186 12.7492 14.9297 12.5162 14.9297C12.2832 14.9297 12.0944 15.1186 12.0944 15.3516C12.0944 15.5846 12.2832 15.7734 12.5162 15.7734C12.7492 15.7734 12.9381 15.5846 12.9381 15.3516Z" fill="#F25E37"/>
<path d="M11.5319 15.0703C11.5319 14.9926 11.4689 14.9297 11.3912 14.9297C11.3136 14.9297 11.2506 14.9926 11.2506 15.0703C11.2506 15.148 11.3136 15.2109 11.3912 15.2109C11.4689 15.2109 11.5319 15.148 11.5319 15.0703Z" fill="#F25E37"/>
<path d="M12.9381 12.3984C13.0933 12.3984 13.2194 12.2724 13.2194 12.1172V8.74219C13.2194 8.58673 13.0933 8.46094 12.9381 8.46094H10.6881V12.3984H12.9381Z" fill="#F97450"/>
<path d="M12.9381 7.89844C13.0933 7.89844 13.2194 7.77237 13.2194 7.61719C13.2194 7.46173 13.0933 7.33594 12.9381 7.33594H10.6881V7.89844H12.9381Z" fill="#D8D8D8"/>
<path d="M9.84427 8.74219V12.1172C9.84427 12.2724 9.9702 12.3984 10.1255 12.3984H10.688V8.46094H10.1255C9.9702 8.46094 9.84427 8.58673 9.84427 8.74219Z" fill="#FF8869"/>
<path d="M9.84436 7.61719C9.84436 7.77237 9.97029 7.89844 10.1256 7.89844H10.6881V7.33594H10.1256C9.97029 7.33594 9.84436 7.46173 9.84436 7.61719Z" fill="#F4F4F4"/>
<path d="M11.8131 11.2734C11.8131 11.1181 11.6872 10.9922 11.5319 10.9922C11.3765 10.9922 11.2506 11.1181 11.2506 11.2734C11.2506 11.4288 11.3765 11.5547 11.5319 11.5547C11.6872 11.5547 11.8131 11.4288 11.8131 11.2734Z" fill="#F25E37"/>
<path d="M12.9381 9.72656C12.9381 9.49357 12.7492 9.30469 12.5162 9.30469C12.2832 9.30469 12.0944 9.49357 12.0944 9.72656C12.0944 9.95956 12.2832 10.1484 12.5162 10.1484C12.7492 10.1484 12.9381 9.95956 12.9381 9.72656Z" fill="#F25E37"/>
<path d="M11.5319 9.44531C11.5319 9.36765 11.4689 9.30469 11.3912 9.30469C11.3136 9.30469 11.2506 9.36765 11.2506 9.44531C11.2506 9.52298 11.3136 9.58594 11.3912 9.58594C11.4689 9.58594 11.5319 9.52298 11.5319 9.44531Z" fill="#F25E37"/>
<path d="M12.9381 6.77344C13.0933 6.77344 13.2194 6.64737 13.2194 6.49219V3.11719C13.2194 2.96173 13.0933 2.83594 12.9381 2.83594H10.6881V6.77344H12.9381Z" fill="#F97450"/>
<path d="M12.9381 2.27344C13.0933 2.27344 13.2194 2.14737 13.2194 1.99219C13.2194 1.83673 13.0933 1.71094 12.9381 1.71094H10.6881V2.27344H12.9381Z" fill="#D8D8D8"/>
<path d="M9.84427 3.11719V6.49219C9.84427 6.64737 9.9702 6.77344 10.1255 6.77344H10.688V2.83594H10.1255C9.9702 2.83594 9.84427 2.96173 9.84427 3.11719Z" fill="#FF8869"/>
<path d="M9.84436 1.99219C9.84436 2.14737 9.97029 2.27344 10.1256 2.27344H10.6881V1.71094H10.1256C9.97029 1.71094 9.84436 1.83673 9.84436 1.99219Z" fill="#F4F4F4"/>
<path d="M11.8131 5.64844C11.8131 5.49311 11.6872 5.36719 11.5319 5.36719C11.3765 5.36719 11.2506 5.49311 11.2506 5.64844C11.2506 5.80377 11.3765 5.92969 11.5319 5.92969C11.6872 5.92969 11.8131 5.80377 11.8131 5.64844Z" fill="#F25E37"/>
<path d="M12.9381 4.10156C12.9381 3.86857 12.7492 3.67969 12.5162 3.67969C12.2832 3.67969 12.0944 3.86857 12.0944 4.10156C12.0944 4.33456 12.2832 4.52344 12.5162 4.52344C12.7492 4.52344 12.9381 4.33456 12.9381 4.10156Z" fill="#F25E37"/>
<path d="M11.5319 3.82031C11.5319 3.74265 11.4689 3.67969 11.3912 3.67969C11.3136 3.67969 11.2506 3.74265 11.2506 3.82031C11.2506 3.89798 11.3136 3.96094 11.3912 3.96094C11.4689 3.96094 11.5319 3.89798 11.5319 3.82031Z" fill="#F25E37"/>
</svg>
