<svg width="29" height="30" viewBox="0 0 29 30" fill="none" xmlns="http://www.w3.org/2000/svg">
<path d="M0.290833 14.575C0.290833 19.7699 3.11339 24.3052 7.30837 26.732V28.3293C7.30837 28.4843 7.43416 28.61 7.58906 28.61C7.58906 28.61 10.1154 29.4398 14.3259 29.4398V14.575H0.290833Z" fill="#F4F4F4"/>
<path d="M14.3259 14.575V29.4398C18.5363 29.4398 21.0626 28.61 21.0626 28.61C21.2177 28.61 21.3433 28.4843 21.3433 28.3293V26.732C25.5383 24.3051 28.3609 19.77 28.3609 14.575H14.3259Z" fill="#D8D8D8"/>
<path d="M14.3259 17.1013C22.0772 17.1013 28.3608 15.9702 28.3608 14.575C28.3608 13.1797 22.0772 12.0486 14.3259 12.0486C6.57463 12.0486 0.29097 13.1797 0.29097 14.575C0.29097 15.9702 6.57463 17.1013 14.3259 17.1013Z" fill="#F4F4F4"/>
<path d="M14.3259 12.3293C21.7671 12.3293 27.7994 13.272 27.7994 14.4347C27.7994 15.5972 21.7671 16.5399 14.3259 16.5399C6.88448 16.5399 0.852234 15.5972 0.852234 14.4347C0.852164 13.272 6.88448 12.3293 14.3259 12.3293Z" fill="#D8D8D8"/>
<path d="M19.6948 16.0775C19.6325 16.2151 19.4673 16.2743 19.3262 16.2102L18.3043 15.7453C18.1631 15.6811 18.0994 15.5178 18.162 15.38L24.8407 0.697814C24.9031 0.560423 25.0682 0.501079 25.2094 0.565204L26.2313 1.03018C26.3725 1.09438 26.4362 1.25792 26.3738 1.39538L19.6948 16.0775Z" fill="#855739"/>
<path d="M25.7204 0.797839L25.2093 0.565456C25.0681 0.501261 24.903 0.560815 24.8405 0.698065L18.1619 15.3802C18.0993 15.5178 18.163 15.6813 18.3042 15.7453L18.8151 15.9778L25.7204 0.797839Z" fill="#966A4D"/>
<path d="M20.0901 16.1216C20.0725 16.2637 19.9335 16.3631 19.7796 16.3439L18.6655 16.2054C18.5115 16.1863 18.4011 16.0559 18.4186 15.9138L20.3028 0.752502C20.3203 0.610401 20.4592 0.510909 20.6131 0.530034L21.7273 0.668549C21.8812 0.687674 21.9917 0.818104 21.974 0.960065L20.0901 16.1216Z" fill="#855739"/>
<path d="M21.1706 0.599273L20.6133 0.530156C20.4594 0.511031 20.3205 0.610523 20.303 0.752624L18.419 15.9139C18.4014 16.056 18.5118 16.1864 18.6657 16.2055L19.2228 16.2748L21.1706 0.599273Z" fill="#966A4D"/>
<path d="M18.2321 14.3546C18.1601 14.2949 18.0849 14.2384 18.0085 14.1838C17.9588 14.2632 17.9119 14.3446 17.8678 14.4281C17.9451 14.4839 18.0199 14.5429 18.0926 14.6049C18.1361 14.5197 18.1822 14.4358 18.2321 14.3546Z" fill="#F1BC3A"/>
<path d="M17.6734 12.395C17.6528 12.3941 17.6317 12.3933 17.611 12.3926C17.6265 12.3984 17.6416 12.4048 17.6569 12.4107C17.6624 12.4054 17.6679 12.4001 17.6734 12.395Z" fill="#F1BC3A"/>
<path d="M15.7293 15.4172C15.8464 15.4172 15.9602 15.4292 16.0715 15.449C16.0859 15.3563 16.1028 15.2642 16.1216 15.1729C15.9938 15.1504 15.8633 15.1364 15.7293 15.1364C14.7901 15.1364 13.9845 15.7167 13.6503 16.5373C13.7523 16.5379 13.8547 16.5388 13.9574 16.5391C14.2735 15.8769 14.9477 15.4172 15.7293 15.4172Z" fill="#F1BC3A"/>
<path d="M11.5149 15.8294C11.5802 15.6531 11.657 15.4826 11.7428 15.3173C11.7191 15.1784 11.6878 15.0418 11.6501 14.9081C11.578 15.0267 11.5117 15.1488 11.4498 15.2738C11.4853 15.4547 11.5073 15.6402 11.5149 15.8294Z" fill="#F1BC3A"/>
<path d="M17.4166 16.3804C17.4365 16.4138 17.4561 16.4474 17.474 16.482C17.5497 16.4791 17.6257 16.4763 17.7011 16.4733C17.6976 16.4154 17.6959 16.3574 17.6953 16.2989C17.6199 16.1627 17.53 16.0361 17.4292 15.919C17.4195 16.0312 17.4135 16.1447 17.4135 16.2593C17.4136 16.2997 17.4155 16.3401 17.4166 16.3804Z" fill="#F1BC3A"/>
<path d="M12.361 15.9797C12.4334 15.8064 12.5187 15.64 12.6156 15.4813C12.6011 15.3426 12.5801 15.2058 12.554 15.0706C12.4718 15.1835 12.3956 15.3009 12.3254 15.4224C12.348 15.6047 12.3611 15.7902 12.3611 15.9786C12.361 15.9789 12.361 15.9794 12.361 15.9797Z" fill="#F1BC3A"/>
<path d="M17.3881 14.1334C17.4326 14.0509 17.4804 13.97 17.5297 13.8908C17.4462 13.8474 17.3613 13.8066 17.2746 13.7692C17.2251 13.8495 17.1785 13.9314 17.1339 14.0145C17.2206 14.0506 17.3051 14.0908 17.3881 14.1334Z" fill="#F1BC3A"/>
<path d="M16.8765 15.7902C16.8875 15.6862 16.903 15.5837 16.9207 15.4821C16.8374 15.4298 16.7508 15.3826 16.6608 15.3414C16.6421 15.4366 16.627 15.533 16.6141 15.6302C16.7063 15.6767 16.7937 15.7302 16.8765 15.7902Z" fill="#F1BC3A"/>
<path d="M19.3848 16.3864C19.382 16.3442 19.3785 16.3023 19.3785 16.2592C19.3785 16.1649 19.3874 16.0728 19.4003 15.9818C19.3448 15.8373 19.2815 15.697 19.2102 15.5614C19.1625 15.7066 19.1288 15.8582 19.1118 16.0147C19.162 16.1384 19.2053 16.2655 19.2419 16.3955C19.2898 16.3925 19.3373 16.3894 19.3848 16.3864Z" fill="#F1BC3A"/>
<path d="M19.8521 14.9834C19.803 14.8993 19.7521 14.8168 19.6981 14.7361C19.6313 14.8082 19.5688 14.8842 19.5116 14.9648C19.5677 15.0519 19.6215 15.1408 19.6716 15.2321C19.7256 15.1446 19.7853 15.0613 19.8521 14.9834Z" fill="#F1BC3A"/>
<path d="M16.8225 16.5038C16.7493 16.4131 16.6645 16.3322 16.5714 16.262C16.5717 16.3453 16.574 16.4281 16.5783 16.5106C16.6596 16.5084 16.741 16.5062 16.8225 16.5038Z" fill="#F1BC3A"/>
<path d="M17.0593 14.911C17.0877 14.8206 17.1198 14.7317 17.1538 14.6438C17.0709 14.6007 16.9861 14.5607 16.8991 14.5251C16.8651 14.6123 16.8331 14.7002 16.8039 14.79C16.8913 14.826 16.9766 14.8664 17.0593 14.911Z" fill="#F1BC3A"/>
<path d="M18.8435 14.9893C18.7814 14.9084 18.7167 14.8299 18.6485 14.7544C18.599 14.8426 18.5539 14.9333 18.5131 15.0265C18.5838 15.1099 18.6505 15.1968 18.7138 15.2863C18.7516 15.1844 18.7945 15.0852 18.8435 14.9893Z" fill="#F1BC3A"/>
<path d="M20.2242 16.3281C20.2227 16.305 20.2206 16.2826 20.2206 16.2592C20.2206 16.1422 20.2386 16.0293 20.2723 15.923C20.2314 15.7962 20.1858 15.6714 20.1349 15.5494C20.0651 15.668 20.0124 15.7969 19.9798 15.9338C20.0248 16.0657 20.064 16.2003 20.0968 16.3378C20.1392 16.3344 20.1817 16.3311 20.2242 16.3281Z" fill="#F1BC3A"/>
<path d="M18.5438 16.1143C18.4765 15.966 18.3983 15.8237 18.3094 15.6888C18.2798 15.8458 18.2626 16.0068 18.2579 16.1712C18.3004 16.2595 18.3383 16.3502 18.3715 16.4434C18.4296 16.4404 18.4874 16.4374 18.5454 16.4344C18.5416 16.3763 18.5364 16.3185 18.5364 16.2593C18.5364 16.2105 18.5413 16.1627 18.5438 16.1143Z" fill="#F1BC3A"/>
<path d="M12.373 14.4023C12.3382 14.3036 12.3011 14.206 12.2603 14.1104C12.1886 14.1864 12.1185 14.2639 12.0519 14.3445C12.0922 14.4473 12.1296 14.5511 12.1623 14.6575C12.2293 14.5698 12.2996 14.4848 12.373 14.4023Z" fill="#F1BC3A"/>
<path d="M17.7806 15.4722C17.8044 15.3651 17.8323 15.2593 17.8654 15.1556C17.7923 15.0855 17.7159 15.0191 17.6363 14.9564C17.603 15.0515 17.5727 15.1482 17.5464 15.2466C17.6291 15.3171 17.7066 15.393 17.7806 15.4722Z" fill="#F1BC3A"/>
<path d="M7.86974 11.2066C9.07335 11.2066 10.1737 11.6557 11.014 12.3936C11.2696 12.3835 11.5283 12.3746 11.7896 12.3669C10.8143 11.3092 9.41816 10.6452 7.8696 10.6452C5.93629 10.6452 4.24014 11.6794 3.3047 13.2235C3.55199 13.1686 3.81566 13.1157 4.09445 13.0649C4.9678 11.9357 6.33482 11.2066 7.86974 11.2066Z" fill="#F1BC3A"/>
<path d="M13.0864 14.8699C13.0635 14.7625 13.0367 14.6564 13.0075 14.5514C12.8417 14.711 12.6897 14.8845 12.554 15.0705C12.5802 15.2058 12.6012 15.3425 12.6155 15.4813C12.7507 15.2608 12.9091 15.0564 13.0864 14.8699Z" fill="#F1BC3A"/>
<path d="M4.09449 13.0649C3.8157 13.1157 3.55203 13.1687 3.30474 13.2235C2.90178 13.8889 2.64043 14.6488 2.56189 15.4615C2.7343 15.5098 2.91851 15.5567 3.11398 15.6024C3.18851 14.6515 3.54261 13.7784 4.09449 13.0649Z" fill="#F1BC3A"/>
<path d="M11.993 13.581C12.129 13.4474 12.2723 13.3214 12.422 13.2029C12.2386 12.9035 12.0264 12.6237 11.7897 12.3669C11.5284 12.3747 11.2697 12.3835 11.0141 12.3935C11.4007 12.7332 11.732 13.1339 11.993 13.581Z" fill="#F1BC3A"/>
<path d="M12.2603 14.1104C12.3012 14.206 12.3383 14.3036 12.3731 14.4023C12.5088 14.2493 12.6552 14.1062 12.8102 13.9731C12.7732 13.882 12.7343 13.7924 12.6923 13.7041C12.54 13.8302 12.3963 13.9665 12.2603 14.1104Z" fill="#F1BC3A"/>
<path d="M13.1979 16.177C13.2004 16.1112 13.203 16.0453 13.203 15.9786C13.203 15.8607 13.1978 15.7441 13.19 15.628C13.0022 15.8992 12.857 16.2018 12.7632 16.5257C12.8603 16.5276 12.9577 16.5293 13.0552 16.5307C13.0942 16.4086 13.1434 16.2913 13.1979 16.177Z" fill="#F1BC3A"/>
<path d="M7.86982 12.0487C8.49842 12.0487 9.0927 12.1979 9.62018 12.4615C9.93926 12.4429 10.2641 12.4261 10.5942 12.4114C9.83801 11.8325 8.89371 11.4873 7.86982 11.4873C6.53944 11.4873 5.34321 12.0692 4.52007 12.9911C4.83211 12.9395 5.15991 12.89 5.50353 12.8434C6.16214 12.345 6.98178 12.0487 7.86982 12.0487Z" fill="#F1BC3A"/>
<path d="M11.7428 15.3173C11.8636 15.085 12.0039 14.8641 12.1623 14.6575C12.1296 14.5511 12.0921 14.4474 12.0518 14.3446C11.9049 14.5224 11.7704 14.7106 11.6502 14.9084C11.688 15.0419 11.7192 15.1783 11.7428 15.3173Z" fill="#F1BC3A"/>
<path d="M5.50328 12.8434C5.15967 12.89 4.8318 12.9395 4.51982 12.9911C3.8759 13.7123 3.46155 14.6419 3.39053 15.6646C3.56758 15.703 3.75229 15.7405 3.94488 15.7767C4.00577 14.5802 4.60455 13.5235 5.50328 12.8434Z" fill="#F1BC3A"/>
<path d="M11.4056 14.2652C11.5252 14.0998 11.6529 13.9409 11.7899 13.7908C11.4886 13.2532 11.0805 12.7838 10.5939 12.4113C10.2637 12.426 9.939 12.4429 9.61992 12.4614C10.3957 12.8492 11.026 13.485 11.4056 14.2652Z" fill="#F1BC3A"/>
<path d="M12.361 15.9797C12.361 15.9794 12.361 15.9788 12.361 15.9786C12.361 15.7902 12.3479 15.6046 12.3253 15.4224C12.1325 15.756 11.9875 16.12 11.8993 16.506C11.9944 16.5087 12.0897 16.5111 12.1855 16.5133C12.2305 16.3297 12.289 16.1513 12.361 15.9797Z" fill="#F1BC3A"/>
<path d="M7.86981 12.3295C7.24804 12.3295 6.6624 12.4861 6.14948 12.7615C7.01565 12.6581 7.96438 12.5707 8.97773 12.5019C8.6282 12.3904 8.25604 12.3295 7.86981 12.3295Z" fill="#F1BC3A"/>
<path d="M7.86974 12.8908C9.30686 12.8908 10.5177 13.878 10.8605 15.2097C10.9652 14.9761 11.0858 14.7516 11.2215 14.5373C10.8056 13.574 9.9865 12.8243 8.9778 12.502C7.96431 12.5707 7.01573 12.6582 6.14955 12.7617C5.04431 13.3553 4.27888 14.5012 4.22453 15.8279C4.40503 15.8597 4.591 15.8909 4.78338 15.9211C4.81431 14.245 6.18632 12.8908 7.86974 12.8908Z" fill="#F1BC3A"/>
<path d="M11.0447 16.4769C11.1387 16.4807 11.233 16.4842 11.3279 16.4875C11.3738 16.2617 11.4367 16.0418 11.5152 15.8294C11.5074 15.6403 11.4856 15.4547 11.45 15.2738C11.2639 15.6498 11.1263 16.0534 11.0447 16.4769Z" fill="#F1BC3A"/>
<path d="M7.86979 13.1716C6.32706 13.1716 5.07177 14.4226 5.06361 15.9635C5.24671 15.9906 5.43486 16.017 5.62759 16.0424C5.62689 16.0211 5.62436 16.0002 5.62436 15.9786C5.62436 14.7405 6.63186 13.7329 7.87 13.7329C9.10813 13.7329 10.1156 14.7405 10.1156 15.9786C10.1156 16.134 10.0998 16.2859 10.0693 16.4328C10.2051 16.4396 10.3416 16.4464 10.4791 16.4528C10.5234 16.2011 10.5854 15.9555 10.6638 15.7174C10.531 14.2919 9.3294 13.1716 7.86979 13.1716Z" fill="#F1BC3A"/>
<path d="M7.86977 14.0137C6.78626 14.0137 5.90489 14.8951 5.90489 15.9786C5.90489 16.0122 5.90813 16.0454 5.90988 16.0786C6.09502 16.1019 6.28416 16.1244 6.47717 16.1459C6.47063 16.0908 6.46627 16.0352 6.46627 15.9786C6.46627 15.2046 7.09585 14.575 7.86977 14.575C8.6437 14.575 9.27328 15.2046 9.27328 15.9786C9.27328 16.1192 9.25198 16.2549 9.21317 16.3829C9.40125 16.3949 9.59131 16.4064 9.7834 16.4171C9.81581 16.2759 9.83452 16.1295 9.83452 15.9786C9.83466 14.8953 8.95315 14.0137 7.86977 14.0137Z" fill="#F1BC3A"/>
<path d="M7.86981 14.8557C7.25071 14.8557 6.74699 15.3595 6.74699 15.9785C6.74699 16.0464 6.75417 16.1128 6.76563 16.1775C6.96524 16.1985 7.16831 16.2189 7.37531 16.2383C7.33396 16.1602 7.30837 16.0728 7.30837 15.9785C7.30837 15.669 7.5603 15.4172 7.86974 15.4172C8.17919 15.4172 8.43112 15.669 8.43112 15.9785C8.43112 16.1071 8.38598 16.2244 8.31292 16.319C8.51353 16.3347 8.71687 16.3497 8.92303 16.3637C8.96704 16.2433 8.99249 16.114 8.99249 15.9785C8.99263 15.3595 8.48885 14.8557 7.86981 14.8557Z" fill="#F1BC3A"/>
<path d="M17.6111 12.3926C17.0256 12.171 16.3918 12.0487 15.7294 12.0487C15.1332 12.0487 14.5599 12.1485 14.0241 12.33C14.1245 12.3297 14.2252 12.3294 14.3259 12.3294C15.4591 12.3295 16.5594 12.3513 17.6111 12.3926Z" fill="#F1BC3A"/>
<path d="M20.2825 14.6079C20.2338 14.5281 20.1825 14.4497 20.1296 14.3727C19.9707 14.4754 19.8263 14.5977 19.6981 14.7362C19.7521 14.8167 19.8029 14.8992 19.8521 14.9835C19.9764 14.8381 20.1214 14.7118 20.2825 14.6079Z" fill="#F1BC3A"/>
<path d="M20.8692 15.9618C20.8148 16.0484 20.782 16.1499 20.782 16.2592C20.782 16.2671 20.7842 16.2747 20.7846 16.2828C20.8383 16.2782 20.8918 16.2734 20.9451 16.2687C20.9229 16.1652 20.8972 16.0629 20.8692 15.9618Z" fill="#F1BC3A"/>
<path d="M11.7899 13.7908C11.8893 13.9685 11.9768 14.1531 12.0517 14.3445C12.1185 14.2639 12.1885 14.1863 12.2601 14.1104C12.1821 13.9275 12.0921 13.7513 11.9929 13.5811C11.9234 13.6493 11.8555 13.7189 11.7899 13.7908Z" fill="#F1BC3A"/>
<path d="M12.6923 13.7041C13.5181 13.021 14.5766 12.6101 15.7293 12.6101C16.2574 12.6101 16.7649 12.6976 17.2401 12.8565C17.3702 12.7 17.5099 12.5515 17.657 12.4107C17.6418 12.4048 17.6266 12.3983 17.6111 12.3926C16.5596 12.3513 15.4592 12.3294 14.326 12.3294C14.225 12.3294 14.1244 12.3297 14.0241 12.33C13.4379 12.5285 12.8973 12.8259 12.4221 13.2029C12.5207 13.3644 12.6108 13.5318 12.6923 13.7041Z" fill="#F1BC3A"/>
<path d="M20.6657 15.3661C20.6291 15.2771 20.5909 15.1893 20.55 15.1028C20.3808 15.2192 20.2392 15.3719 20.1348 15.5493C20.1858 15.6712 20.2313 15.796 20.2722 15.9229C20.3428 15.6987 20.4826 15.5054 20.6657 15.3661Z" fill="#F1BC3A"/>
<path d="M17.7899 13.0787C17.8774 13.1206 17.9626 13.1658 18.047 13.2129C18.1797 13.0696 18.3211 12.9348 18.4711 12.8096C18.3861 12.7585 18.2992 12.7101 18.2112 12.6637C18.0627 12.7933 17.9217 12.9316 17.7899 13.0787Z" fill="#F1BC3A"/>
<path d="M19.7861 13.9256C19.7247 13.8538 19.6616 13.7836 19.5964 13.7151C19.4414 13.8219 19.2965 13.9419 19.1639 14.0743C19.229 14.1419 19.2918 14.2115 19.353 14.2825C19.4849 14.1496 19.6301 14.03 19.7861 13.9256Z" fill="#F1BC3A"/>
<path d="M18.5285 13.5209C18.6045 13.5763 18.6795 13.6331 18.7523 13.6929C18.8854 13.5585 19.0289 13.4343 19.1817 13.3216C19.1084 13.2593 19.0336 13.1984 18.9568 13.14C18.8049 13.2565 18.6618 13.384 18.5285 13.5209Z" fill="#F1BC3A"/>
<path d="M10.8603 15.2096C10.7864 15.3746 10.7205 15.544 10.6635 15.7173C10.6715 15.8034 10.6767 15.8905 10.6767 15.9785C10.6767 16.143 10.6597 16.303 10.6324 16.4599C10.727 16.464 10.8223 16.4681 10.9176 16.472C10.9436 16.3113 10.9574 16.1466 10.9574 15.9785C10.9574 15.7132 10.9235 15.4555 10.8603 15.2096Z" fill="#F1BC3A"/>
<path d="M11.4498 15.2738C11.5116 15.1488 11.578 15.0265 11.6501 14.9081C11.5869 14.6852 11.5054 14.4701 11.4056 14.2653C11.3415 14.354 11.2802 14.4446 11.2215 14.5374C11.3226 14.7713 11.3996 15.0177 11.4498 15.2738Z" fill="#F1BC3A"/>
<path d="M12.6924 13.7041C12.6109 13.5317 12.5208 13.3644 12.4219 13.2028C12.2724 13.3214 12.129 13.4472 11.993 13.581C12.0922 13.751 12.1823 13.9274 12.2602 14.1102C12.3963 13.9665 12.54 13.8302 12.6924 13.7041Z" fill="#F1BC3A"/>
<path d="M11.6502 14.908C11.7704 14.7105 11.9049 14.5221 12.0518 14.3444C11.9769 14.1531 11.8894 13.9683 11.7899 13.7907C11.6528 13.941 11.5251 14.0999 11.4056 14.2652C11.5054 14.4701 11.5869 14.6852 11.6502 14.908Z" fill="#F1BC3A"/>
<path d="M10.9575 15.9785C10.9575 16.1464 10.9434 16.3112 10.9176 16.472C10.96 16.4736 11.0024 16.4753 11.0447 16.4768C11.1263 16.0532 11.2641 15.6497 11.45 15.2738C11.3998 15.0177 11.3227 14.7713 11.2216 14.5372C11.0858 14.7516 10.9652 14.976 10.8605 15.2096C10.9236 15.4555 10.9575 15.7131 10.9575 15.9785Z" fill="#F1BC3A"/>
<path d="M10.6323 16.4599C10.6596 16.3031 10.6766 16.143 10.6766 15.9785C10.6766 15.8905 10.6714 15.8034 10.6633 15.7172C10.5848 15.9554 10.523 16.201 10.4786 16.4527C10.53 16.4552 10.5809 16.4576 10.6323 16.4599Z" fill="#F1BC3A"/>
<path d="M18.2321 14.3546C18.3305 14.1945 18.4413 14.0429 18.5625 13.9004C18.49 13.8412 18.415 13.7847 18.3387 13.7302C18.2185 13.873 18.1079 14.0246 18.0085 14.1838C18.0849 14.2384 18.1601 14.2949 18.2321 14.3546Z" fill="#F1BC3A"/>
<path d="M18.8435 14.9892C18.9336 14.8124 19.0405 14.6458 19.1644 14.493C19.1033 14.4207 19.0397 14.3502 18.9742 14.2817C18.8516 14.4283 18.7428 14.5865 18.6488 14.7543C18.7168 14.8299 18.7814 14.9083 18.8435 14.9892Z" fill="#F1BC3A"/>
<path d="M11.7428 15.3173C11.657 15.4828 11.5802 15.6533 11.5149 15.8294C11.517 15.879 11.5187 15.9286 11.5187 15.9785C11.5187 16.1531 11.5055 16.3249 11.4817 16.4927C11.5753 16.496 11.6692 16.4988 11.7635 16.5018C11.7866 16.3305 11.7995 16.1562 11.7995 15.9785C11.7996 15.7532 11.7794 15.5325 11.7428 15.3173Z" fill="#F1BC3A"/>
<path d="M19.9797 15.9335C19.9546 16.0382 19.9399 16.1471 19.9399 16.2592C19.9399 16.2894 19.9427 16.319 19.9444 16.3486C19.9953 16.345 20.0462 16.3412 20.0967 16.3376C20.0637 16.2002 20.0246 16.0656 19.9797 15.9335Z" fill="#F1BC3A"/>
<path d="M19.6715 15.2321C19.6214 15.1408 19.5676 15.0519 19.5114 14.9648C19.3831 15.1459 19.2808 15.3461 19.2102 15.5613C19.2816 15.697 19.345 15.8373 19.4002 15.9817C19.439 15.7098 19.533 15.4566 19.6715 15.2321Z" fill="#F1BC3A"/>
<path d="M12.3253 15.4223C12.3954 15.3008 12.4717 15.1836 12.5539 15.0706C12.5096 14.8417 12.4487 14.6185 12.3729 14.4023C12.2997 14.4848 12.2294 14.5698 12.1623 14.6575C12.2384 14.9039 12.2926 15.1596 12.3253 15.4223Z" fill="#F1BC3A"/>
<path d="M15.7294 13.4523C16.0764 13.4523 16.4127 13.4979 16.7332 13.5829C16.8323 13.4129 16.9397 13.2484 17.0564 13.0911C16.6367 12.9611 16.191 12.8909 15.7294 12.8909C14.6156 12.8909 13.5961 13.2994 12.8102 13.9731C12.8868 14.1609 12.9527 14.3539 13.0076 14.5515C13.7142 13.8717 14.6734 13.4523 15.7294 13.4523Z" fill="#F1BC3A"/>
<path d="M17.5298 13.8908C17.6301 13.73 17.74 13.5756 17.8593 13.429C17.7758 13.3837 17.6896 13.3417 17.6029 13.3018C17.4846 13.4509 17.3746 13.6066 17.2746 13.7691C17.3614 13.8067 17.4463 13.8475 17.5298 13.8908Z" fill="#F1BC3A"/>
<path d="M13.0076 14.5514C12.9525 14.3539 12.8868 14.1609 12.8102 13.973C12.6552 14.1063 12.5089 14.2495 12.3731 14.4024C12.4489 14.6186 12.5098 14.8418 12.554 15.0707C12.6898 14.8845 12.8417 14.711 13.0076 14.5514Z" fill="#F1BC3A"/>
<path d="M12.1624 14.6575C12.0041 14.864 11.8637 15.0849 11.7429 15.3173C11.7795 15.5324 11.7996 15.7531 11.7996 15.9786C11.7996 16.1562 11.7866 16.3305 11.7636 16.5018C11.8088 16.5032 11.8539 16.5046 11.8993 16.506C11.9874 16.12 12.1325 15.756 12.3254 15.4224C12.2927 15.1597 12.2385 14.904 12.1624 14.6575Z" fill="#F1BC3A"/>
<path d="M11.4819 16.4928C11.5057 16.3249 11.5189 16.1532 11.5189 15.9786C11.5189 15.9288 11.5171 15.879 11.5151 15.8294C11.4367 16.0419 11.3737 16.2617 11.3279 16.4876C11.379 16.4895 11.4307 16.4911 11.4819 16.4928Z" fill="#F1BC3A"/>
<path d="M17.1538 14.6439C17.2216 14.4684 17.2995 14.2976 17.3882 14.1334C17.3051 14.0909 17.2206 14.0506 17.134 14.0145C17.0456 14.1792 16.9676 14.3497 16.899 14.5252C16.9862 14.5608 17.071 14.6008 17.1538 14.6439Z" fill="#F1BC3A"/>
<path d="M17.8652 15.1556C17.9259 14.9646 18.0026 14.7809 18.0925 14.6049C18.0197 14.543 17.9448 14.484 17.8676 14.4281C17.7781 14.5972 17.7008 14.7737 17.6364 14.9563C17.7158 15.019 17.7923 15.0854 17.8652 15.1556Z" fill="#F1BC3A"/>
<path d="M19.1051 16.4035C19.1506 16.4007 19.1963 16.3983 19.2418 16.3955C19.2051 16.2655 19.1618 16.1384 19.1117 16.0148C19.1027 16.0953 19.0977 16.1768 19.0977 16.2593C19.0978 16.308 19.102 16.3557 19.1051 16.4035Z" fill="#F1BC3A"/>
<path d="M18.5438 16.1143C18.5584 15.8245 18.6171 15.5466 18.7139 15.2864C18.6507 15.1968 18.5838 15.1099 18.5131 15.0266C18.4215 15.2363 18.3526 15.458 18.3094 15.6889C18.3982 15.8237 18.4766 15.9659 18.5438 16.1143Z" fill="#F1BC3A"/>
<path d="M12.6095 16.5229C12.6301 16.3442 12.6417 16.1627 12.6417 15.9786C12.6417 15.8107 12.6327 15.6449 12.6155 15.4813C12.5185 15.64 12.4332 15.8063 12.3609 15.9797C12.3609 16.1617 12.3487 16.3407 12.3275 16.517C12.4212 16.5191 12.5152 16.5213 12.6095 16.5229Z" fill="#F1BC3A"/>
<path d="M15.7294 14.2943C15.9459 14.2943 16.157 14.3171 16.3609 14.3596C16.4295 14.1806 16.5076 14.0064 16.594 13.8374C16.3167 13.7697 16.0273 13.733 15.7293 13.733C14.6903 13.733 13.7515 14.1705 13.0864 14.87C13.1388 15.1167 13.1734 15.37 13.1901 15.628C13.748 14.8231 14.6778 14.2943 15.7294 14.2943Z" fill="#F1BC3A"/>
<path d="M12.6096 16.5229C12.6606 16.524 12.712 16.5248 12.7633 16.5256C12.8571 16.2016 13.0023 15.899 13.1901 15.6279C13.1735 15.3699 13.1388 15.1166 13.0864 14.8701C12.9092 15.0565 12.7507 15.261 12.6157 15.4812C12.6327 15.6448 12.6418 15.8108 12.6418 15.9785C12.6417 16.1627 12.6302 16.3442 12.6096 16.5229Z" fill="#F1BC3A"/>
<path d="M12.3609 15.9797C12.2891 16.1512 12.2305 16.3298 12.1855 16.5133C12.2328 16.5148 12.2801 16.5158 12.3276 16.5169C12.3487 16.3406 12.3609 16.1616 12.3609 15.9797Z" fill="#F1BC3A"/>
<path d="M16.9208 15.4821C16.9549 15.287 17.0007 15.0964 17.0592 14.9111C16.9766 14.8663 16.8913 14.8261 16.8039 14.7899C16.7458 14.9691 16.6978 15.1534 16.6609 15.3414C16.751 15.3826 16.8375 15.4297 16.9208 15.4821Z" fill="#F1BC3A"/>
<path d="M13.6501 16.5374C13.9845 15.7167 14.7899 15.1364 15.7293 15.1364C15.8633 15.1364 15.9938 15.1505 16.1216 15.173C16.16 14.9877 16.2087 14.8059 16.2661 14.6279C16.0922 14.5941 15.9129 14.575 15.7293 14.575C14.6131 14.575 13.6501 15.2317 13.1978 16.1769C13.1935 16.2966 13.1863 16.4149 13.1741 16.5322C13.3322 16.5344 13.4905 16.5361 13.6501 16.5374Z" fill="#F1BC3A"/>
<path d="M17.6953 16.299C17.695 16.2858 17.6942 16.2727 17.6942 16.2593C17.6942 15.989 17.7246 15.7261 17.7804 15.4724C17.7065 15.3933 17.629 15.3174 17.5463 15.2469C17.4883 15.4644 17.4491 15.689 17.429 15.9193C17.53 16.0361 17.6199 16.1627 17.6953 16.299Z" fill="#F1BC3A"/>
<path d="M18.2556 16.2592C18.2556 16.3228 18.2582 16.3857 18.2619 16.4486C18.2986 16.4467 18.3351 16.445 18.3715 16.4434C18.3381 16.3502 18.3003 16.2595 18.2578 16.1712C18.257 16.2005 18.2556 16.2295 18.2556 16.2592Z" fill="#F1BC3A"/>
<path d="M13.1978 16.1769C13.1432 16.2913 13.0941 16.4085 13.0551 16.5307C13.0947 16.5312 13.1342 16.5318 13.1741 16.5323C13.1863 16.4149 13.1935 16.2965 13.1978 16.1769Z" fill="#F1BC3A"/>
<path d="M16.8633 16.5582C16.8619 16.5396 16.86 16.5211 16.8589 16.5026C16.8468 16.5029 16.8344 16.5035 16.8224 16.5037C16.8365 16.5215 16.8498 16.5399 16.8633 16.5582Z" fill="#F1BC3A"/>
<path d="M17.4204 16.484C17.4382 16.4834 17.4561 16.4826 17.474 16.4821C17.4561 16.4473 17.4366 16.4138 17.4166 16.3802C17.4177 16.4149 17.4185 16.4497 17.4204 16.484Z" fill="#F1BC3A"/>
<path d="M14.6095 16.5394C14.866 16.1995 15.2718 15.9785 15.7293 15.9785C15.8277 15.9785 15.9237 15.9889 16.0164 16.0084C16.0253 15.8193 16.0435 15.6326 16.0716 15.4491C15.9602 15.4292 15.8464 15.4172 15.7293 15.4172C14.948 15.4172 14.2735 15.8769 13.9572 16.5392C14.0797 16.5397 14.2025 16.54 14.3259 16.54C14.4206 16.5399 14.5153 16.5396 14.6095 16.5394Z" fill="#F1BC3A"/>
<path d="M16.5714 16.262C16.6645 16.3322 16.7494 16.413 16.8225 16.5037C16.8345 16.5034 16.8469 16.5029 16.859 16.5026C16.8547 16.422 16.8521 16.3408 16.8521 16.2592C16.8521 16.1007 16.8607 15.9446 16.8767 15.7901C16.7937 15.7301 16.7062 15.6766 16.6143 15.6301C16.5871 15.8363 16.5715 16.0459 16.5715 16.2592C16.5714 16.2601 16.5714 16.2612 16.5714 16.262Z" fill="#F1BC3A"/>
<path d="M21.3433 11.4874C22.7828 11.4874 24.0744 12.1287 24.9499 13.1398C25.254 13.2007 25.5366 13.2642 25.797 13.33C24.8422 11.883 23.203 10.9258 21.3433 10.9258C19.9222 10.9258 18.6303 11.4855 17.6736 12.395C17.9514 12.406 18.2255 12.4185 18.496 12.4324C19.2913 11.8391 20.277 11.4874 21.3433 11.4874Z" fill="#F1BC3A"/>
<path d="M17.6028 13.3019C17.663 13.2257 17.7252 13.151 17.7899 13.0787C17.6126 12.9934 17.4287 12.9198 17.2401 12.8567C17.1765 12.9332 17.1154 13.0113 17.0562 13.0911C17.2442 13.1495 17.4262 13.2204 17.6028 13.3019Z" fill="#F1BC3A"/>
<path d="M24.95 13.1398C25.5119 13.7888 25.9023 14.59 26.0494 15.4727C26.2444 15.419 26.4251 15.3638 26.59 15.3074C26.4598 14.5881 26.1854 13.9183 25.7972 13.33C25.5366 13.2642 25.254 13.2006 24.95 13.1398Z" fill="#F1BC3A"/>
<path d="M16.8038 14.79C16.833 14.7004 16.865 14.6124 16.899 14.5251C16.7269 14.4544 16.5471 14.3985 16.3609 14.3596C16.3273 14.4479 16.2954 14.5372 16.2662 14.6279C16.4527 14.6641 16.6325 14.7184 16.8038 14.79Z" fill="#F1BC3A"/>
<path d="M18.2113 12.6636C18.3034 12.5833 18.3978 12.5055 18.496 12.4324C18.2252 12.4185 17.9511 12.406 17.6734 12.395C17.6679 12.4001 17.6625 12.4053 17.657 12.4106C17.8472 12.4846 18.0322 12.569 18.2113 12.6636Z" fill="#F1BC3A"/>
<path d="M17.134 14.0145C17.1784 13.9313 17.2251 13.8494 17.2746 13.7691C17.1003 13.6943 16.9194 13.632 16.7332 13.5827C16.6847 13.6663 16.6383 13.7511 16.594 13.8374C16.7799 13.8825 16.9604 13.9418 17.134 14.0145Z" fill="#F1BC3A"/>
<path d="M16.0109 16.2965C16.1706 16.3379 16.3168 16.4124 16.4406 16.5141C16.4864 16.513 16.5323 16.5117 16.578 16.5106C16.5739 16.4281 16.5714 16.3453 16.5714 16.2621C16.4097 16.1401 16.2216 16.0513 16.0163 16.0085C16.0124 16.0916 16.01 16.1752 16.01 16.2593C16.0101 16.2718 16.0109 16.2839 16.0109 16.2965Z" fill="#F1BC3A"/>
<path d="M16.6142 15.6301C16.627 15.533 16.6421 15.4365 16.6609 15.3415C16.4912 15.2635 16.3106 15.2066 16.1216 15.1729C16.1025 15.2642 16.0856 15.3562 16.0714 15.449C16.2636 15.4829 16.4456 15.5445 16.6142 15.6301Z" fill="#F1BC3A"/>
<path d="M18.2114 12.6637C18.0322 12.569 17.8473 12.4848 17.657 12.4108C17.5099 12.5515 17.3701 12.7 17.24 12.8567C17.4287 12.9198 17.6126 12.9934 17.7899 13.0787C17.9217 12.9316 18.0628 12.7933 18.2114 12.6637Z" fill="#F1BC3A"/>
<path d="M17.2746 13.7691C17.3743 13.6065 17.4845 13.4508 17.6027 13.3017C17.4262 13.2203 17.2441 13.1494 17.0561 13.0909C16.9397 13.2482 16.8322 13.4128 16.733 13.5827C16.9194 13.6321 17.1003 13.6943 17.2746 13.7691Z" fill="#F1BC3A"/>
<path d="M16.8991 14.5251C16.9678 14.3497 17.046 14.1792 17.134 14.0145C16.9606 13.9417 16.7801 13.8826 16.5941 13.8373C16.5077 14.0063 16.4295 14.1804 16.361 14.3596C16.5471 14.3985 16.727 14.4544 16.8991 14.5251Z" fill="#F1BC3A"/>
<path d="M16.6609 15.3414C16.6978 15.1533 16.7457 14.9691 16.8039 14.7897C16.6325 14.7182 16.4527 14.664 16.2663 14.6278C16.2091 14.8057 16.1602 14.9875 16.1216 15.1728C16.3106 15.2066 16.4912 15.2636 16.6609 15.3414Z" fill="#F1BC3A"/>
<path d="M16.5714 16.262C16.5714 16.2612 16.5714 16.2601 16.5714 16.2593C16.5714 16.0459 16.587 15.8361 16.6143 15.6302C16.4458 15.5446 16.2637 15.4829 16.0715 15.449C16.0436 15.6326 16.0254 15.8193 16.0163 16.0085C16.2216 16.0512 16.4097 16.14 16.5714 16.262Z" fill="#F1BC3A"/>
<path d="M16.4406 16.5141C16.3168 16.4125 16.1705 16.3379 16.0109 16.2965C16.0115 16.3724 16.0131 16.4483 16.0167 16.5235C16.1588 16.5207 16.3001 16.5174 16.4406 16.5141Z" fill="#F1BC3A"/>
<path d="M21.3434 12.3295C22.0659 12.3295 22.7433 12.5262 23.3256 12.8681C23.7345 12.9253 24.121 12.9869 24.4825 13.0516C23.6724 12.2584 22.5642 11.768 21.3433 11.768C20.467 11.768 19.6491 12.0214 18.9571 12.4571C19.3469 12.4793 19.728 12.5045 20.1003 12.532C20.4911 12.4015 20.9089 12.3295 21.3434 12.3295Z" fill="#F1BC3A"/>
<path d="M18.3388 13.7301C18.3996 13.658 18.463 13.5884 18.5286 13.5208C18.3747 13.4089 18.214 13.3061 18.0471 13.2129C17.9824 13.2829 17.9196 13.355 17.8593 13.429C18.026 13.5192 18.1858 13.6202 18.3388 13.7301Z" fill="#F1BC3A"/>
<path d="M17.5464 15.2466C17.5727 15.1482 17.603 15.0515 17.6364 14.9565C17.4862 14.8379 17.3247 14.7332 17.1539 14.6439C17.1199 14.7318 17.0879 14.8207 17.0593 14.9111C17.2338 15.0053 17.3965 15.1186 17.5464 15.2466Z" fill="#F1BC3A"/>
<path d="M18.9569 13.1399C19.2986 12.8782 19.6839 12.6713 20.1003 12.532C19.7282 12.5045 19.347 12.4793 18.9572 12.4571C18.7872 12.5641 18.6247 12.6816 18.4712 12.8095C18.6394 12.9109 18.8014 13.0214 18.9569 13.1399Z" fill="#F1BC3A"/>
<path d="M17.8678 14.4281C17.912 14.3447 17.9588 14.2633 18.0086 14.1838C17.8566 14.0751 17.6967 13.9772 17.5298 13.8907C17.4805 13.97 17.4329 14.051 17.3882 14.1335C17.5561 14.2195 17.7163 14.3179 17.8678 14.4281Z" fill="#F1BC3A"/>
<path d="M17.4167 16.3804C17.4155 16.3401 17.4136 16.2998 17.4136 16.2592C17.4136 16.1448 17.4197 16.0311 17.4293 15.919C17.2829 15.749 17.1116 15.6021 16.921 15.4821C16.9032 15.5839 16.8876 15.6862 16.8769 15.7902C17.0947 15.9478 17.2785 16.1485 17.4167 16.3804Z" fill="#F1BC3A"/>
<path d="M25.2291 15.6715C25.4212 15.6301 25.6041 15.588 25.7771 15.5443C25.6213 14.5753 25.1544 13.709 24.4824 13.0516C24.1211 12.9869 23.7344 12.9255 23.3256 12.8681C24.3286 13.4566 25.0491 14.4763 25.2291 15.6715Z" fill="#F1BC3A"/>
<path d="M18.9569 13.14C18.8016 13.0213 18.6394 12.9108 18.4713 12.8096C18.3212 12.9348 18.1798 13.0697 18.0473 13.213C18.214 13.3062 18.3748 13.4089 18.5288 13.5209C18.6619 13.384 18.805 13.2565 18.9569 13.14Z" fill="#F1BC3A"/>
<path d="M18.3387 13.7302C18.1855 13.6203 18.0259 13.5192 17.8593 13.4291C17.74 13.5755 17.6301 13.7299 17.5297 13.8907C17.6966 13.9772 17.8563 14.0751 18.0084 14.1838C18.1079 14.0246 18.2184 13.873 18.3387 13.7302Z" fill="#F1BC3A"/>
<path d="M17.6364 14.9564C17.7008 14.7738 17.7783 14.5972 17.8676 14.4281C17.7162 14.3179 17.5559 14.2195 17.3881 14.1333C17.2993 14.2976 17.2216 14.4683 17.1537 14.6438C17.3247 14.7332 17.4862 14.8379 17.6364 14.9564Z" fill="#F1BC3A"/>
<path d="M17.4292 15.919C17.4491 15.6888 17.4885 15.4639 17.5465 15.2466C17.3965 15.1186 17.2338 15.0054 17.0592 14.9111C17.0007 15.0965 16.9549 15.2872 16.9207 15.4821C17.1115 15.6021 17.2828 15.749 17.4292 15.919Z" fill="#F1BC3A"/>
<path d="M16.859 16.5026C17.0475 16.4972 17.2349 16.4908 17.4204 16.4839C17.4184 16.4497 17.4175 16.4149 17.4166 16.3803C17.2784 16.1484 17.0946 15.9478 16.8765 15.7901C16.8606 15.9446 16.8521 16.1007 16.8521 16.2592C16.8522 16.3409 16.8546 16.4221 16.859 16.5026Z" fill="#F1BC3A"/>
<path d="M21.3433 12.6102C21.2706 12.6102 21.1986 12.613 21.127 12.6173C21.5308 12.6541 21.9213 12.6945 22.297 12.7374C21.9928 12.6549 21.6733 12.6102 21.3433 12.6102Z" fill="#F1BC3A"/>
<path d="M18.9742 14.2817C19.0345 14.2099 19.0975 14.1405 19.164 14.0742C19.0342 13.9396 18.8973 13.8116 18.7524 13.6929C18.6863 13.7595 18.6233 13.8289 18.5624 13.9004C18.7077 14.0188 18.8449 14.1465 18.9742 14.2817Z" fill="#F1BC3A"/>
<path d="M18.2578 16.1712C18.2624 16.0068 18.2797 15.846 18.3092 15.6888C18.1816 15.4944 18.0321 15.316 17.8652 15.1556C17.8323 15.2593 17.8043 15.3651 17.7804 15.4723C17.9732 15.6789 18.1342 15.9141 18.2578 16.1712Z" fill="#F1BC3A"/>
<path d="M19.5964 13.7151C20.0936 13.3728 20.6953 13.1716 21.3434 13.1716C22.9011 13.1716 24.1923 14.3311 24.4008 15.8324C24.5916 15.7988 24.7764 15.7642 24.9535 15.7288C24.7421 14.2844 23.6817 13.1129 22.297 12.7373C21.9212 12.6943 21.5309 12.654 21.1267 12.6172C20.4014 12.6598 19.7324 12.915 19.1816 13.3217C19.3269 13.4455 19.4652 13.5768 19.5964 13.7151Z" fill="#F1BC3A"/>
<path d="M18.5133 15.0265C18.5539 14.9333 18.5991 14.8424 18.6487 14.7543C18.5196 14.6112 18.3807 14.4776 18.2321 14.3546C18.1823 14.4357 18.1361 14.5196 18.0926 14.6049C18.2438 14.7337 18.3847 14.8749 18.5133 15.0265Z" fill="#F1BC3A"/>
<path d="M17.701 16.4733C17.7272 16.4722 17.7531 16.4712 17.7794 16.47C17.7534 16.4119 17.7259 16.3544 17.6953 16.2989C17.6958 16.3574 17.6977 16.4155 17.701 16.4733Z" fill="#F1BC3A"/>
<path d="M19.1638 14.0742C19.2965 13.9418 19.4415 13.8217 19.5964 13.7151C19.4651 13.5767 19.3269 13.4455 19.1817 13.3217C19.029 13.4344 18.8855 13.5585 18.7522 13.693C18.8972 13.8116 19.034 13.9396 19.1638 14.0742Z" fill="#F1BC3A"/>
<path d="M18.6484 14.7543C18.7426 14.5865 18.8514 14.4284 18.974 14.2817C18.8447 14.1466 18.7076 14.0189 18.5622 13.9004C18.4411 14.0429 18.3303 14.1945 18.2318 14.3546C18.3806 14.4777 18.5195 14.6113 18.6484 14.7543Z" fill="#F1BC3A"/>
<path d="M18.3093 15.6888C18.3526 15.458 18.4215 15.2362 18.513 15.0265C18.3844 14.875 18.2438 14.7338 18.0925 14.6049C18.0025 14.7809 17.9258 14.9646 17.8653 15.1556C18.0323 15.316 18.1816 15.4944 18.3093 15.6888Z" fill="#F1BC3A"/>
<path d="M17.6954 16.299C17.7261 16.3545 17.7535 16.4119 17.7796 16.4701C17.9416 16.4635 18.1024 16.4564 18.262 16.4488C18.2582 16.386 18.2556 16.3232 18.2556 16.2593C18.2556 16.2296 18.257 16.2006 18.258 16.1713C18.1343 15.9141 17.9733 15.679 17.7807 15.4724C17.7249 15.7264 17.6945 15.9893 17.6945 16.2593C17.6943 16.2727 17.6952 16.2858 17.6954 16.299Z" fill="#F1BC3A"/>
<path d="M18.5438 16.1143C18.5412 16.1627 18.5364 16.2104 18.5364 16.2593C18.5364 16.3185 18.5415 16.3763 18.5452 16.4345C18.5854 16.4324 18.6256 16.4306 18.6655 16.4284C18.6306 16.3209 18.5898 16.2162 18.5438 16.1143Z" fill="#F1BC3A"/>
<path d="M19.698 14.7362C19.5922 14.5778 19.4765 14.4268 19.3529 14.2826C19.2866 14.3496 19.2238 14.42 19.1643 14.4931C19.29 14.6425 19.4058 14.8002 19.5115 14.9649C19.5687 14.8843 19.6312 14.8083 19.698 14.7362Z" fill="#F1BC3A"/>
<path d="M19.1118 16.0148C19.1288 15.8582 19.1625 15.7066 19.2102 15.5614C19.1044 15.3596 18.9815 15.1683 18.8435 14.9893C18.7946 15.0853 18.7517 15.1845 18.7139 15.2864C18.8728 15.5117 19.0067 15.7559 19.1118 16.0148Z" fill="#F1BC3A"/>
<path d="M21.3434 14.0137C22.4821 14.0137 23.4235 14.8664 23.5678 15.9664C23.7577 15.9385 23.9425 15.9097 24.1217 15.88C23.9356 14.5113 22.7623 13.4522 21.3434 13.4522C20.7676 13.4522 20.2321 13.6271 19.7861 13.9256C19.9081 14.0685 20.023 14.2175 20.1297 14.3727C20.4801 14.1465 20.8962 14.0137 21.3434 14.0137Z" fill="#F1BC3A"/>
<path d="M20.1296 14.3727C20.0229 14.2176 19.9081 14.0685 19.786 13.9257C19.6301 14.0301 19.4848 14.1497 19.353 14.2826C19.4766 14.4266 19.5923 14.5778 19.6981 14.7361C19.8262 14.5978 19.9707 14.4755 20.1296 14.3727Z" fill="#F1BC3A"/>
<path d="M19.5115 14.9648C19.4059 14.8 19.2902 14.6424 19.1643 14.493C19.0404 14.6457 18.9336 14.8124 18.8435 14.9892C18.9815 15.1682 19.1043 15.3597 19.2102 15.5613C19.2808 15.3461 19.3832 15.1459 19.5115 14.9648Z" fill="#F1BC3A"/>
<path d="M19.1052 16.4034C19.1021 16.3557 19.0978 16.308 19.0978 16.2592C19.0978 16.1767 19.1029 16.0952 19.1118 16.0148C19.0067 15.7558 18.8728 15.5118 18.7139 15.2864C18.6173 15.5467 18.5586 15.8245 18.5438 16.1143C18.5898 16.2163 18.6307 16.3209 18.6655 16.4283C18.8134 16.4204 18.9597 16.4121 19.1052 16.4034Z" fill="#F1BC3A"/>
<path d="M20.1347 15.5493C20.0531 15.3535 19.9579 15.165 19.8519 14.9835C19.7851 15.0615 19.7255 15.1446 19.6716 15.2321C19.7935 15.4553 19.8963 15.6899 19.9796 15.9336C20.0122 15.7965 20.065 15.6676 20.1347 15.5493Z" fill="#F1BC3A"/>
<path d="M21.3434 14.8558C22.0564 14.8558 22.6455 15.3905 22.7339 16.0797C22.9238 16.0558 23.109 16.0314 23.2901 16.0062C23.1653 15.0421 22.3409 14.2943 21.3433 14.2943C20.9524 14.2943 20.5889 14.4102 20.2824 14.6079C20.38 14.7674 20.4691 14.9327 20.5499 15.1027C20.7759 14.9473 21.049 14.8558 21.3434 14.8558Z" fill="#F1BC3A"/>
<path d="M19.4003 15.9819C19.3875 16.0729 19.3784 16.165 19.3784 16.2593C19.3784 16.3024 19.3821 16.3442 19.385 16.3865C19.4328 16.3836 19.4808 16.3804 19.5284 16.3772C19.4928 16.2425 19.4498 16.1107 19.4003 15.9819Z" fill="#F1BC3A"/>
<path d="M20.5499 15.1028C20.4692 14.9327 20.38 14.7674 20.2824 14.608C20.1213 14.7119 19.9763 14.8382 19.852 14.9835C19.9579 15.165 20.0531 15.3536 20.1348 15.5493C20.2391 15.3719 20.3807 15.2192 20.5499 15.1028Z" fill="#F1BC3A"/>
<path d="M19.9444 16.3486C19.9425 16.319 19.9399 16.2894 19.9399 16.2593C19.9399 16.1471 19.9546 16.0383 19.9796 15.9336C19.8962 15.6899 19.7935 15.4552 19.6715 15.2321C19.5332 15.4566 19.4391 15.7098 19.4004 15.9818C19.4497 16.1106 19.4928 16.2424 19.5284 16.377C19.6683 16.3681 19.8069 16.3585 19.9444 16.3486Z" fill="#F1BC3A"/>
<path d="M20.2723 15.9228C20.2386 16.0292 20.2206 16.1421 20.2206 16.2592C20.2206 16.2825 20.2228 16.3049 20.2242 16.3279C20.2762 16.3239 20.3281 16.3197 20.3796 16.3158C20.3492 16.1827 20.3138 16.0514 20.2723 15.9228Z" fill="#F1BC3A"/>
<path d="M21.3434 15.6978C21.6246 15.6978 21.856 15.9063 21.8964 16.1765C22.0865 16.1561 22.2727 16.1353 22.4554 16.1137C22.3837 15.5632 21.913 15.1365 21.3434 15.1365C21.0887 15.1365 20.8544 15.2227 20.6657 15.3662C20.7448 15.5595 20.8128 15.7582 20.8691 15.9619C20.9687 15.804 21.1433 15.6978 21.3434 15.6978Z" fill="#F1BC3A"/>
<path d="M20.7845 16.2828C20.7841 16.2747 20.782 16.2671 20.782 16.2592C20.782 16.1498 20.8147 16.0484 20.8691 15.9618C20.8128 15.7582 20.7448 15.5594 20.6657 15.3661C20.4826 15.5053 20.3427 15.6986 20.2721 15.9228C20.3135 16.0514 20.3491 16.1827 20.3795 16.3159C20.5159 16.3052 20.651 16.294 20.7845 16.2828Z" fill="#F1BC3A"/>
<path d="M19.6278 14.2247C19.5542 14.1665 19.4777 14.1122 19.3998 14.0596C19.3521 14.1403 19.3075 14.223 19.2655 14.3074C19.3442 14.3614 19.4207 14.4184 19.4947 14.4781C19.5361 14.3919 19.5799 14.3071 19.6278 14.2247Z" fill="#FFD56C"/>
<path d="M19.0182 12.2799C18.9975 12.2797 18.9765 12.2794 18.9558 12.2792C18.9714 12.2846 18.9866 12.2906 19.0022 12.2961C19.0076 12.2908 19.0127 12.2853 19.0182 12.2799Z" fill="#FFD56C"/>
<path d="M12.9514 15.8735C13.0121 15.6955 13.084 15.5232 13.1656 15.3557C13.1384 15.2172 13.1039 15.0818 13.0624 14.9492C12.9934 15.0693 12.9304 15.1932 12.8717 15.3199C12.9118 15.4995 12.9388 15.6843 12.9514 15.8735Z" fill="#FFD56C"/>
<path d="M18.8653 16.2706C18.8858 16.3035 18.9063 16.3368 18.9252 16.371C19.001 16.3662 19.0766 16.3615 19.1517 16.3565C19.1472 16.2987 19.1437 16.2405 19.1416 16.1822C19.0627 16.0482 18.9698 15.9236 18.8658 15.809C18.859 15.9218 18.8559 16.0352 18.859 16.15C18.8601 16.1904 18.8628 16.2303 18.8653 16.2706Z" fill="#FFD56C"/>
<path d="M13.8007 16.0015C13.8685 15.8266 13.9495 15.6581 14.0425 15.4968C14.0245 15.3583 13.9998 15.2221 13.97 15.0878C13.8909 15.203 13.8177 15.3222 13.7507 15.4453C13.7781 15.6273 13.7961 15.812 13.8008 16.0006C13.8007 16.0009 13.8007 16.0012 13.8007 16.0015Z" fill="#FFD56C"/>
<path d="M18.7785 14.0253C18.8209 13.9416 18.8664 13.8597 18.9137 13.7792C18.8292 13.7381 18.7431 13.6994 18.6554 13.6643C18.608 13.7457 18.5635 13.8288 18.5212 13.9128C18.6088 13.9469 18.6943 13.985 18.7785 14.0253Z" fill="#FFD56C"/>
<path d="M18.3101 15.6951C18.3182 15.5909 18.331 15.4878 18.3462 15.3859C18.2618 15.3354 18.1738 15.2907 18.0828 15.2518C18.0666 15.3475 18.054 15.4442 18.0436 15.5416C18.1367 15.5859 18.2257 15.6372 18.3101 15.6951Z" fill="#FFD56C"/>
<path d="M20.833 16.2257C20.8291 16.1835 20.8242 16.1416 20.8233 16.0988C20.8207 16.0042 20.8273 15.9122 20.8378 15.8208C20.7789 15.6777 20.7117 15.5393 20.6369 15.4053C20.5929 15.5519 20.5632 15.7043 20.5502 15.8614C20.6035 15.9837 20.6503 16.1096 20.6902 16.2384C20.7381 16.2342 20.7854 16.2298 20.833 16.2257Z" fill="#FFD56C"/>
<path d="M21.2635 14.811C21.2122 14.7282 21.1592 14.6471 21.1033 14.5678C21.0381 14.6416 20.9774 14.7194 20.9227 14.8011C20.981 14.8869 21.0371 14.9743 21.0894 15.0642C21.1411 14.9754 21.1988 14.8904 21.2635 14.811Z" fill="#FFD56C"/>
<path d="M18.4698 14.8112C18.4961 14.7199 18.5257 14.6306 18.5573 14.5418C18.4734 14.5006 18.3875 14.4631 18.2996 14.4296C18.2678 14.5176 18.2381 14.6065 18.2114 14.6966C18.2997 14.7306 18.3859 14.7687 18.4698 14.8112Z" fill="#FFD56C"/>
<path d="M20.2554 14.8428C20.1913 14.7638 20.1246 14.6872 20.0545 14.6133C20.0073 14.7027 19.9646 14.7947 19.9262 14.8888C19.9991 14.9705 20.0682 15.0556 20.1337 15.1433C20.1687 15.0403 20.209 14.94 20.2554 14.8428Z" fill="#FFD56C"/>
<path d="M21.6704 16.1454C21.6682 16.1227 21.6658 16.0999 21.6652 16.0768C21.6621 15.9595 21.6772 15.8463 21.7081 15.7391C21.664 15.6134 21.615 15.4901 21.5607 15.3693C21.4941 15.4894 21.4449 15.6196 21.4157 15.7576C21.4642 15.8883 21.5067 16.0221 21.5432 16.1582C21.5857 16.1539 21.628 16.1498 21.6704 16.1454Z" fill="#FFD56C"/>
<path d="M19.985 15.9755C19.914 15.8288 19.832 15.6887 19.7398 15.5561C19.7143 15.7139 19.7011 15.8754 19.7009 16.0399C19.7456 16.127 19.7858 16.2167 19.8214 16.3088C19.8793 16.3043 19.9372 16.3 19.995 16.2956C19.9898 16.2375 19.9829 16.1797 19.9813 16.1207C19.9802 16.0717 19.9837 16.0239 19.985 15.9755Z" fill="#FFD56C"/>
<path d="M13.7717 14.4244C13.7344 14.3268 13.695 14.23 13.6517 14.1355C13.5818 14.2134 13.5139 14.2927 13.4494 14.3751C13.4923 14.4765 13.5325 14.5795 13.568 14.6851C13.6325 14.5958 13.7006 14.509 13.7717 14.4244Z" fill="#FFD56C"/>
<path d="M19.2056 15.3534C19.2264 15.2456 19.2516 15.1391 19.2821 15.0347C19.2073 14.9666 19.1291 14.9022 19.0479 14.8417C19.017 14.9376 18.9893 15.035 18.9657 15.1339C19.0501 15.2022 19.1296 15.2762 19.2056 15.3534Z" fill="#FFD56C"/>
<path d="M9.18691 11.3469C10.3902 11.3156 11.5017 11.7358 12.3611 12.4517C12.6162 12.435 12.8746 12.4195 13.1357 12.4048C12.1331 11.3729 10.7205 10.7456 9.17229 10.7858C7.23975 10.8358 5.57095 11.9141 4.67622 13.4818C4.92183 13.4206 5.18381 13.3609 5.46133 13.3029C6.30508 12.1512 7.65276 11.3869 9.18691 11.3469Z" fill="#FFD56C"/>
<path d="M14.4972 14.8735C14.4713 14.7664 14.442 14.6611 14.4102 14.5571C14.2485 14.7208 14.1011 14.8981 13.97 15.0877C13.9997 15.222 14.0245 15.3584 14.0424 15.4966C14.1718 15.2729 14.3248 15.0643 14.4972 14.8735Z" fill="#FFD56C"/>
<path d="M5.46118 13.3029C5.18372 13.361 4.92167 13.4207 4.676 13.4818C4.2904 14.1575 4.04881 14.9239 3.99136 15.7386C4.16518 15.7823 4.35038 15.8244 4.54683 15.865C4.59697 14.9124 4.92821 14.0306 5.46118 13.3029Z" fill="#FFD56C"/>
<path d="M13.3704 13.6133C13.503 13.4762 13.643 13.3467 13.7896 13.2241C13.5985 12.9295 13.3789 12.6554 13.1357 12.4049C12.8747 12.4195 12.6163 12.4351 12.361 12.4518C12.7564 12.7814 13.098 13.1734 13.3704 13.6133Z" fill="#FFD56C"/>
<path d="M13.6518 14.1355C13.6952 14.23 13.7346 14.3269 13.7718 14.4245C13.9035 14.2682 14.046 14.1211 14.1978 13.9838C14.1586 13.8939 14.1173 13.8053 14.073 13.718C13.9237 13.8482 13.7837 13.9882 13.6518 14.1355Z" fill="#FFD56C"/>
<path d="M14.6428 16.1772C14.6435 16.111 14.6444 16.0454 14.6425 15.9788C14.6395 15.8609 14.6312 15.7444 14.6207 15.6287C14.4399 15.9045 14.3024 16.2105 14.2173 16.5371C14.3143 16.5363 14.4117 16.5355 14.5092 16.5344C14.5451 16.4113 14.5912 16.2929 14.6428 16.1772Z" fill="#FFD56C"/>
<path d="M9.20888 12.1887C9.83747 12.1725 10.4352 12.3061 10.9694 12.556C11.2882 12.5291 11.6123 12.5038 11.942 12.4804C11.1709 11.9214 10.2179 11.6009 9.19446 11.6276C7.86457 11.6621 6.68381 12.2747 5.88499 13.2178C6.19528 13.158 6.52196 13.1003 6.86424 13.0449C7.50949 12.5295 8.32125 12.2119 9.20888 12.1887Z" fill="#FFD56C"/>
<path d="M13.1657 15.3557C13.2806 15.1202 13.4151 14.8957 13.5679 14.6852C13.5324 14.5797 13.4923 14.4767 13.4493 14.3752C13.307 14.5563 13.1774 14.7483 13.0624 14.9492C13.1039 15.0818 13.1384 15.2172 13.1657 15.3557Z" fill="#FFD56C"/>
<path d="M6.86407 13.0449C6.52193 13.1005 6.19512 13.1581 5.88483 13.2178C5.25982 13.9557 4.8698 14.8956 4.82536 15.92C5.00325 15.9536 5.18881 15.9863 5.38252 16.0175C5.41226 14.82 5.98327 13.7479 6.86407 13.0449Z" fill="#FFD56C"/>
<path d="M12.8013 14.3126C12.9163 14.1443 13.0398 13.9821 13.173 13.8283C12.8581 13.2988 12.4377 12.84 11.9418 12.4804C11.6121 12.5039 11.288 12.5292 10.9692 12.556C11.7548 12.9232 12.4015 13.5426 12.8013 14.3126Z" fill="#FFD56C"/>
<path d="M13.8007 16.0015C13.8007 16.0012 13.8007 16.0009 13.8007 16.0006C13.796 15.812 13.778 15.6273 13.7506 15.4453C13.5664 15.7838 13.4311 16.1517 13.353 16.5396C13.4482 16.5399 13.5434 16.5399 13.6394 16.5399C13.6796 16.3551 13.7334 16.175 13.8007 16.0015Z" fill="#FFD56C"/>
<path d="M9.21613 12.4694C8.59471 12.4855 8.01336 12.6575 7.50768 12.9461C8.37076 12.8202 9.31703 12.708 10.3283 12.6132C9.97585 12.5104 9.60228 12.4594 9.21613 12.4694Z" fill="#FFD56C"/>
<path d="M9.23066 13.0306C10.6674 12.9933 11.9037 13.9483 12.2808 15.2707C12.3791 15.0346 12.4941 14.807 12.6242 14.5892C12.1834 13.6372 11.345 12.909 10.3282 12.6131C9.31701 12.7079 8.37088 12.8201 7.50759 12.946C6.41802 13.5679 5.68262 14.7337 5.6628 16.0613C5.84413 16.0884 6.03095 16.1148 6.22417 16.14C6.2118 14.4637 7.54823 13.0746 9.23066 13.0306Z" fill="#FFD56C"/>
<path d="M12.4978 16.533C12.592 16.5341 12.6862 16.5353 12.7811 16.5363C12.8211 16.3091 12.8784 16.0879 12.9514 15.8735C12.9387 15.6842 12.9119 15.4996 12.8717 15.3197C12.6955 15.7005 12.5684 16.1076 12.4978 16.533Z" fill="#FFD56C"/>
<path d="M9.23826 13.3113C7.6961 13.3513 6.47386 14.6347 6.5055 16.1753C6.68923 16.1974 6.87801 16.2189 7.07116 16.2394C7.06983 16.218 7.06687 16.1972 7.06638 16.1756C7.03425 14.9379 8.01497 13.9048 9.25275 13.8724C10.4905 13.8404 11.5238 14.8211 11.5559 16.0591C11.56 16.2145 11.5479 16.3667 11.5217 16.5141C11.6574 16.5177 11.7941 16.5207 11.9316 16.5235C11.9696 16.271 12.025 16.0236 12.0972 15.7837C11.9279 14.362 10.6973 13.2734 9.23826 13.3113Z" fill="#FFD56C"/>
<path d="M9.26005 14.1531C8.17689 14.1813 7.31872 15.0855 7.34685 16.1684C7.34783 16.2021 7.35191 16.235 7.35458 16.2684C7.54028 16.2866 7.72984 16.3041 7.92355 16.3208C7.9154 16.266 7.90949 16.2106 7.90829 16.1539C7.88804 15.38 8.50131 14.7346 9.27475 14.7142C10.0484 14.6941 10.6941 15.3073 10.7143 16.0807C10.7181 16.2213 10.7002 16.3576 10.6648 16.4866C10.8531 16.4939 11.0433 16.5005 11.2358 16.506C11.2644 16.3638 11.2794 16.2172 11.2755 16.0661C11.2471 14.9831 10.3431 14.1248 9.26005 14.1531Z" fill="#FFD56C"/>
<path d="M9.28181 14.995C8.66299 15.0111 8.17263 15.5275 8.18866 16.1465C8.19042 16.2145 8.19921 16.2806 8.2125 16.345C8.41246 16.3609 8.61616 16.3759 8.82344 16.39C8.78006 16.3129 8.75243 16.2263 8.75004 16.132C8.74188 15.8225 8.98706 15.5643 9.29671 15.556C9.60616 15.548 9.86442 15.7931 9.87257 16.1027C9.87581 16.2312 9.83376 16.3497 9.76331 16.4461C9.96419 16.4564 10.168 16.4662 10.3745 16.475C10.4153 16.3535 10.4373 16.2236 10.4339 16.088C10.4174 15.4691 9.9007 14.9787 9.28181 14.995Z" fill="#FFD56C"/>
<path d="M18.9559 12.2794C18.3648 12.0731 17.7278 11.9673 17.066 11.9845C16.4698 11.9999 15.8993 12.1148 15.3683 12.3099C15.4686 12.307 15.5692 12.3041 15.67 12.3014C16.8031 12.2721 17.9035 12.2655 18.9559 12.2794Z" fill="#FFD56C"/>
<path d="M21.6841 14.4245C21.6331 14.3458 21.58 14.269 21.5251 14.1934C21.3688 14.3 21.2277 14.4262 21.1033 14.5678C21.159 14.6471 21.2121 14.7283 21.2634 14.811C21.3839 14.6627 21.5257 14.5325 21.6841 14.4245Z" fill="#FFD56C"/>
<path d="M22.3058 15.7627C22.2535 15.8504 22.2235 15.9526 22.2264 16.0623C22.2267 16.0703 22.229 16.0777 22.2294 16.0857C22.283 16.0796 22.3364 16.0736 22.3894 16.0675C22.3647 15.9645 22.3363 15.863 22.3058 15.7627Z" fill="#FFD56C"/>
<path d="M13.1733 13.8283C13.2773 14.0032 13.3696 14.1858 13.4495 14.3751C13.5141 14.2928 13.582 14.2134 13.6519 14.1356C13.5691 13.9549 13.4745 13.7811 13.3706 13.6133C13.3031 13.6835 13.2368 13.7548 13.1733 13.8283Z" fill="#FFD56C"/>
<path d="M14.0732 13.7181C14.8807 13.0139 15.9281 12.5757 17.0806 12.5457C17.6083 12.5319 18.1181 12.6063 18.5971 12.753C18.7231 12.5928 18.859 12.4409 19.0024 12.2963C18.987 12.2908 18.9716 12.2848 18.9561 12.2794C17.9037 12.2655 16.8032 12.2722 15.6704 12.3017C15.5694 12.3043 15.4688 12.3073 15.3686 12.3102C14.7877 12.5237 14.255 12.8351 13.7899 13.2243C13.8929 13.3832 13.9872 13.5483 14.0732 13.7181Z" fill="#FFD56C"/>
<path d="M22.0868 15.1723C22.0482 15.0845 22.0076 14.9977 21.9643 14.912C21.7981 15.0326 21.6608 15.1892 21.5608 15.3694C21.615 15.4899 21.6638 15.6132 21.7081 15.7391C21.7727 15.513 21.9075 15.3164 22.0868 15.1723Z" fill="#FFD56C"/>
<path d="M19.1526 12.9604C19.2411 13.0001 19.3275 13.0431 19.4131 13.0878C19.5419 12.9411 19.6799 12.8028 19.8266 12.6737C19.7402 12.6248 19.6523 12.5788 19.563 12.5347C19.4179 12.6681 19.2804 12.8099 19.1526 12.9604Z" fill="#FFD56C"/>
<path d="M21.1701 13.7553C21.1069 13.6849 21.0419 13.6166 20.975 13.5499C20.8229 13.6606 20.681 13.7841 20.5519 13.9201C20.6186 13.986 20.6836 14.0535 20.7462 14.1233C20.8749 13.9869 21.0166 13.8639 21.1701 13.7553Z" fill="#FFD56C"/>
<path d="M19.9023 13.3834C19.9799 13.4367 20.0564 13.4916 20.1304 13.5494C20.2602 13.4118 20.4004 13.2839 20.5501 13.1671C20.4753 13.1066 20.3989 13.0478 20.3206 12.9916C20.1719 13.112 20.0323 13.2429 19.9023 13.3834Z" fill="#FFD56C"/>
<path d="M12.2809 15.2707C12.2113 15.4376 12.1496 15.6087 12.097 15.7835C12.1073 15.8694 12.1147 15.9562 12.1172 16.0443C12.1214 16.2087 12.1084 16.3693 12.0853 16.5267C12.18 16.5283 12.2753 16.53 12.3706 16.5313C12.3924 16.3698 12.4021 16.2048 12.3975 16.0371C12.3908 15.7718 12.3505 15.5149 12.2809 15.2707Z" fill="#FFD56C"/>
<path d="M12.8716 15.3197C12.9303 15.1931 12.9933 15.0692 13.0623 14.9491C12.9933 14.7279 12.9062 14.5147 12.8013 14.3125C12.7395 14.4027 12.6806 14.4951 12.6243 14.5891C12.7313 14.8205 12.8148 15.0651 12.8716 15.3197Z" fill="#FFD56C"/>
<path d="M14.0732 13.7181C13.9872 13.5483 13.8929 13.3833 13.7897 13.2242C13.6431 13.3468 13.5031 13.4764 13.3705 13.6134C13.4745 13.7812 13.569 13.9549 13.6518 14.1356C13.7837 13.9883 13.9237 13.8482 14.0732 13.7181Z" fill="#FFD56C"/>
<path d="M13.0625 14.9491C13.1775 14.7481 13.3071 14.5563 13.4494 14.3751C13.3696 14.1856 13.2772 14.0031 13.1732 13.8282C13.04 13.9821 12.9165 14.1443 12.8014 14.3126C12.9063 14.5149 12.9933 14.7279 13.0625 14.9491Z" fill="#FFD56C"/>
<path d="M12.3976 16.0371C12.402 16.2048 12.3924 16.3699 12.3706 16.5312C12.4131 16.5318 12.4554 16.5324 12.4978 16.533C12.5684 16.1075 12.6955 15.7003 12.8716 15.3195C12.8147 15.0649 12.7312 14.8202 12.6242 14.589C12.4939 14.807 12.3792 15.0345 12.2808 15.2703C12.3504 15.5149 12.3907 15.7719 12.3976 16.0371Z" fill="#FFD56C"/>
<path d="M12.0853 16.5267C12.1084 16.3693 12.1214 16.2087 12.1172 16.0443C12.1148 15.9562 12.1074 15.8694 12.097 15.7835C12.0248 16.0237 11.9695 16.2709 11.9315 16.5234C11.9828 16.5245 12.034 16.5255 12.0853 16.5267Z" fill="#FFD56C"/>
<path d="M19.6278 14.2247C19.7219 14.0618 19.8288 13.9075 19.9462 13.7617C19.8723 13.7046 19.7958 13.6501 19.7181 13.5975C19.6016 13.7435 19.495 13.8978 19.3998 14.0596C19.4777 14.1122 19.5542 14.1664 19.6278 14.2247Z" fill="#FFD56C"/>
<path d="M20.2554 14.8428C20.3409 14.6639 20.4434 14.4948 20.5633 14.3387C20.5004 14.2679 20.4349 14.1992 20.3678 14.1325C20.2488 14.2822 20.1441 14.4431 20.0545 14.6134C20.1244 14.6871 20.1912 14.7638 20.2554 14.8428Z" fill="#FFD56C"/>
<path d="M13.1656 15.3556C13.084 15.5232 13.012 15.6956 12.9514 15.8735C12.9545 15.9228 12.9578 15.9724 12.959 16.0223C12.9635 16.1968 12.955 16.3688 12.9356 16.5374C13.0291 16.5382 13.1231 16.5388 13.2174 16.539C13.2358 16.3671 13.2442 16.1925 13.2396 16.0153C13.2337 15.7898 13.2079 15.5697 13.1656 15.3556Z" fill="#FFD56C"/>
<path d="M21.4156 15.7574C21.3934 15.8627 21.3815 15.9718 21.3846 16.084C21.3854 16.1141 21.3886 16.1437 21.3915 16.1733C21.442 16.1684 21.4928 16.1631 21.5433 16.1583C21.5068 16.022 21.4642 15.8882 21.4156 15.7574Z" fill="#FFD56C"/>
<path d="M21.0895 15.0643C21.0372 14.9743 20.9809 14.8869 20.9226 14.8011C20.7992 14.9856 20.702 15.1884 20.6369 15.4053C20.7117 15.5393 20.779 15.6777 20.8379 15.8208C20.8694 15.5481 20.9571 15.292 21.0895 15.0643Z" fill="#FFD56C"/>
<path d="M13.7506 15.4452C13.8178 15.3221 13.8909 15.2029 13.97 15.0878C13.9199 14.86 13.8532 14.6385 13.7718 14.4244C13.7006 14.5088 13.6326 14.5957 13.5679 14.685C13.6504 14.9294 13.7113 15.1837 13.7506 15.4452Z" fill="#FFD56C"/>
<path d="M17.1025 13.3875C17.4493 13.3786 17.7866 13.4154 18.1093 13.4919C18.2039 13.3194 18.307 13.1522 18.4196 12.9919C17.9966 12.8728 17.5492 12.8141 17.0879 12.8262C15.9745 12.8551 14.966 13.29 14.1979 13.9839C14.2794 14.1697 14.3501 14.3608 14.4104 14.5571C15.0989 13.8592 16.0468 13.4149 17.1025 13.3875Z" fill="#FFD56C"/>
<path d="M18.9138 13.7792C19.0098 13.6156 19.1157 13.4586 19.2311 13.3091C19.1463 13.2658 19.0592 13.2262 18.9713 13.1886C18.8571 13.3407 18.751 13.4991 18.6555 13.6646C18.7431 13.6995 18.8292 13.7381 18.9138 13.7792Z" fill="#FFD56C"/>
<path d="M14.4102 14.5571C14.35 14.361 14.2792 14.1698 14.1978 13.9839C14.046 14.1212 13.9035 14.2682 13.7718 14.4246C13.8532 14.6386 13.9199 14.8602 13.97 15.088C14.1011 14.8981 14.2486 14.7208 14.4102 14.5571Z" fill="#FFD56C"/>
<path d="M13.5679 14.6851C13.415 14.8956 13.2806 15.1202 13.1656 15.3556C13.2079 15.5697 13.2337 15.7898 13.2395 16.0152C13.2441 16.1925 13.2357 16.3671 13.2173 16.539C13.2625 16.5393 13.3075 16.5396 13.353 16.5396C13.4312 16.1515 13.5665 15.7836 13.7506 15.4453C13.7113 15.1837 13.6504 14.9294 13.5679 14.6851Z" fill="#FFD56C"/>
<path d="M12.9354 16.5374C12.9549 16.3688 12.9634 16.1968 12.9588 16.0223C12.9575 15.9724 12.9544 15.9228 12.9513 15.8735C12.8783 16.0877 12.821 16.309 12.781 16.5363C12.8324 16.5368 12.8839 16.5371 12.9354 16.5374Z" fill="#FFD56C"/>
<path d="M18.5572 14.5418C18.6207 14.3645 18.6939 14.1917 18.7784 14.0253C18.6943 13.985 18.6087 13.9468 18.5211 13.9128C18.4371 14.0797 18.3637 14.2525 18.2995 14.4296C18.3874 14.4631 18.4733 14.5007 18.5572 14.5418Z" fill="#FFD56C"/>
<path d="M19.2821 15.0347C19.3377 14.8422 19.4095 14.6563 19.4948 14.4782C19.4207 14.4184 19.3442 14.3614 19.2655 14.3074C19.1803 14.4787 19.1077 14.6572 19.0479 14.8417C19.1291 14.9022 19.2072 14.9666 19.2821 15.0347Z" fill="#FFD56C"/>
<path d="M20.5536 16.2501C20.5991 16.2459 20.6449 16.2424 20.6903 16.2383C20.6504 16.1095 20.6036 15.9837 20.5503 15.8614C20.5434 15.9419 20.5406 16.0232 20.5427 16.1058C20.5439 16.1547 20.5492 16.2021 20.5536 16.2501Z" fill="#FFD56C"/>
<path d="M19.985 15.9755C19.9925 15.6854 20.0437 15.4061 20.1337 15.1432C20.0681 15.0555 19.9991 14.9705 19.9262 14.8887C19.8401 15.1008 19.7771 15.3244 19.7399 15.5559C19.832 15.6887 19.914 15.8288 19.985 15.9755Z" fill="#FFD56C"/>
<path d="M14.0635 16.5385C14.0792 16.3592 14.0863 16.1775 14.0813 15.9933C14.0769 15.8255 14.0637 15.66 14.0424 15.4968C13.9495 15.658 13.8686 15.8266 13.8007 16.0015C13.8055 16.1835 13.7979 16.3628 13.7813 16.5396C13.8753 16.5394 13.9693 16.5391 14.0635 16.5385Z" fill="#FFD56C"/>
<path d="M17.1243 14.2293C17.3406 14.2238 17.5523 14.2408 17.7573 14.2782C17.8211 14.0976 17.8947 13.9216 17.9769 13.7501C17.6978 13.6895 17.4075 13.6605 17.1096 13.6682C16.0708 13.695 15.1438 14.1569 14.4972 14.8735C14.5558 15.1188 14.5972 15.3711 14.6207 15.6288C15.1576 14.8093 16.0732 14.2568 17.1243 14.2293Z" fill="#FFD56C"/>
<path d="M14.0634 16.5385C14.1145 16.538 14.1659 16.5377 14.2173 16.5371C14.3024 16.2106 14.4399 15.9045 14.6207 15.6287C14.5972 15.371 14.5558 15.1188 14.4971 14.8735C14.3246 15.0642 14.1718 15.2729 14.0423 15.4967C14.0636 15.6598 14.0769 15.8255 14.0812 15.9931C14.0863 16.1775 14.0793 16.3592 14.0634 16.5385Z" fill="#FFD56C"/>
<path d="M13.8007 16.0015C13.7334 16.175 13.6796 16.3552 13.6394 16.5398C13.6865 16.5398 13.7338 16.5396 13.7815 16.5396C13.798 16.3628 13.8056 16.1835 13.8007 16.0015Z" fill="#FFD56C"/>
<path d="M18.3461 15.3858C18.3753 15.19 18.416 14.9979 18.4698 14.8112C18.3859 14.7687 18.2997 14.7306 18.2114 14.6966C18.1578 14.8775 18.1148 15.0629 18.0827 15.2517C18.174 15.2907 18.2617 15.3354 18.3461 15.3858Z" fill="#FFD56C"/>
<path d="M19.1417 16.1821C19.1411 16.1689 19.14 16.1558 19.1395 16.1424C19.1326 15.8724 19.1561 15.6086 19.2055 15.3534C19.1296 15.2761 19.05 15.2023 18.9657 15.134C18.9133 15.3528 18.8797 15.5786 18.8659 15.8093C18.9697 15.9236 19.063 16.0481 19.1417 16.1821Z" fill="#FFD56C"/>
<path d="M16.0632 16.5029C16.3108 16.1564 16.7105 15.9247 17.1679 15.913C17.2662 15.9105 17.3626 15.9184 17.4558 15.9351C17.4597 15.746 17.473 15.5587 17.4964 15.3745C17.3845 15.3578 17.2703 15.3488 17.1534 15.3518C16.3722 15.3722 15.7099 15.8493 15.4111 16.5193C15.5335 16.5168 15.6563 16.5138 15.7795 16.5108C15.8743 16.5084 15.9689 16.5056 16.0632 16.5029Z" fill="#FFD56C"/>
<path d="M18.0172 16.1745C18.1123 16.2422 18.1989 16.3206 18.2742 16.4097C18.2866 16.4088 18.2987 16.4082 18.3109 16.4075C18.3044 16.3272 18.2998 16.246 18.2976 16.1643C18.2936 16.0062 18.2981 15.8494 18.31 15.6951C18.2255 15.6372 18.1366 15.5859 18.0435 15.5415C18.0215 15.7482 18.0117 15.9585 18.0172 16.1717C18.0172 16.1726 18.0172 16.1733 18.0172 16.1745Z" fill="#FFD56C"/>
<path d="M18.9711 13.1883C19.0295 13.1106 19.0897 13.0343 19.1525 12.9604C18.973 12.8797 18.787 12.811 18.5969 12.7527C18.5354 12.8306 18.4765 12.9104 18.4193 12.9918C18.6087 13.0453 18.7927 13.1118 18.9711 13.1883Z" fill="#FFD56C"/>
<path d="M18.2114 14.6967C18.2381 14.6065 18.2678 14.5178 18.2995 14.4299C18.1255 14.3634 17.9444 14.3121 17.7573 14.2783C17.7259 14.3676 17.6965 14.4574 17.6696 14.5491C17.8569 14.5802 18.0383 14.6298 18.2114 14.6967Z" fill="#FFD56C"/>
<path d="M18.5211 13.9129C18.5635 13.8288 18.6079 13.7458 18.6553 13.6645C18.4791 13.5942 18.2967 13.5363 18.1092 13.4921C18.063 13.5769 18.0187 13.6626 17.9768 13.75C18.1639 13.7904 18.3456 13.8449 18.5211 13.9129Z" fill="#FFD56C"/>
<path d="M17.458 16.2235C17.6186 16.2609 17.7667 16.3316 17.893 16.4301C17.9389 16.4275 17.9846 16.4251 18.0305 16.4225C18.0242 16.3406 18.0197 16.2578 18.0175 16.1745C17.8525 16.0566 17.6623 15.9728 17.4558 15.9352C17.4542 16.0185 17.4539 16.1021 17.4562 16.1863C17.4564 16.1988 17.4575 16.2109 17.458 16.2235Z" fill="#FFD56C"/>
<path d="M18.0435 15.5415C18.0539 15.4442 18.0665 15.3474 18.0827 15.2517C17.9111 15.1784 17.7291 15.1261 17.5391 15.0974C17.5227 15.1893 17.5082 15.2817 17.4964 15.3745C17.689 15.4036 17.8727 15.4603 18.0435 15.5415Z" fill="#FFD56C"/>
<path d="M19.5631 12.5347C19.3816 12.4447 19.1944 12.3653 19.0022 12.2963C18.859 12.4408 18.723 12.5928 18.5969 12.7529C18.787 12.8111 18.973 12.8796 19.1525 12.9606C19.2803 12.81 19.4178 12.6681 19.5631 12.5347Z" fill="#FFD56C"/>
<path d="M18.6553 13.6644C18.7508 13.499 18.8569 13.3406 18.9711 13.1884C18.7926 13.1118 18.6087 13.0452 18.4192 12.9921C18.3067 13.1524 18.2038 13.3197 18.1092 13.4921C18.2967 13.5364 18.4791 13.5941 18.6553 13.6644Z" fill="#FFD56C"/>
<path d="M18.2995 14.4297C18.3636 14.2526 18.4371 14.0799 18.521 13.9128C18.3456 13.8449 18.1638 13.7904 17.9768 13.7501C17.8946 13.9215 17.8211 14.0974 17.7572 14.2781C17.9443 14.3121 18.1255 14.3633 18.2995 14.4297Z" fill="#FFD56C"/>
<path d="M18.0827 15.2517C18.1148 15.0629 18.1578 14.8776 18.2114 14.6966C18.0383 14.6298 17.857 14.5802 17.6697 14.5488C17.617 14.7281 17.573 14.9109 17.5392 15.0974C17.7291 15.126 17.9112 15.1783 18.0827 15.2517Z" fill="#FFD56C"/>
<path d="M18.0172 16.1744C18.0172 16.1733 18.0172 16.1725 18.0172 16.1717C18.0117 15.9583 18.0216 15.7481 18.0435 15.5415C17.8727 15.4604 17.6893 15.4036 17.4964 15.3746C17.473 15.5589 17.4599 15.746 17.4558 15.9352C17.6622 15.9727 17.8524 16.0565 18.0172 16.1744Z" fill="#FFD56C"/>
<path d="M19.718 13.5975C19.777 13.524 19.8384 13.4525 19.9024 13.3835C19.7457 13.2756 19.5826 13.1769 19.4132 13.088C19.3504 13.1598 19.2895 13.2335 19.231 13.309C19.3998 13.3948 19.5621 13.4916 19.718 13.5975Z" fill="#FFD56C"/>
<path d="M18.9656 15.1339C18.9892 15.035 19.0169 14.9376 19.0478 14.8417C18.8946 14.7271 18.7303 14.6265 18.5572 14.5418C18.5256 14.6306 18.4957 14.72 18.4697 14.8112C18.6468 14.9009 18.812 15.01 18.9656 15.1339Z" fill="#FFD56C"/>
<path d="M19.2655 14.3073C19.3075 14.223 19.3522 14.1404 19.3998 14.0596C19.245 13.9549 19.0827 13.8611 18.9137 13.7791C18.8663 13.8597 18.821 13.9416 18.7784 14.0253C18.9484 14.107 19.1112 14.2013 19.2655 14.3073Z" fill="#FFD56C"/>
<path d="M18.8653 16.2707C18.8627 16.2304 18.8601 16.1905 18.859 16.1499C18.856 16.0353 18.859 15.9218 18.8659 15.809C18.7151 15.6432 18.5399 15.5007 18.3461 15.3858C18.331 15.4877 18.3181 15.5908 18.31 15.6949C18.532 15.8466 18.7211 16.0426 18.8653 16.2707Z" fill="#FFD56C"/>
<path d="M20.3206 12.9917C20.1622 12.8771 19.9972 12.7708 19.8265 12.6737C19.6798 12.8028 19.5418 12.9412 19.413 13.0878C19.5823 13.1769 19.7455 13.2755 19.9022 13.3834C20.0323 13.243 20.1719 13.112 20.3206 12.9917Z" fill="#FFD56C"/>
<path d="M19.7181 13.5975C19.5623 13.4917 19.3999 13.3949 19.231 13.3089C19.1156 13.4584 19.0098 13.6156 18.9137 13.7792C19.0826 13.8612 19.245 13.9549 19.3998 14.0596C19.495 13.8979 19.6014 13.7435 19.7181 13.5975Z" fill="#FFD56C"/>
<path d="M19.0479 14.8416C19.1077 14.6571 19.1804 14.4787 19.2656 14.3073C19.1113 14.2012 18.9484 14.1069 18.7784 14.0252C18.6941 14.1917 18.6209 14.3644 18.5573 14.5418C18.7304 14.6264 18.8947 14.727 19.0479 14.8416Z" fill="#FFD56C"/>
<path d="M18.8659 15.809C18.8797 15.5784 18.9133 15.3526 18.9657 15.1337C18.8121 15.0097 18.6469 14.9007 18.4698 14.811C18.416 14.9977 18.3753 15.1899 18.3461 15.3856C18.54 15.5006 18.7151 15.6431 18.8659 15.809Z" fill="#FFD56C"/>
<path d="M18.311 16.4074C18.4992 16.3971 18.6863 16.386 18.8716 16.3742C18.8688 16.34 18.8672 16.3052 18.8653 16.2706C18.7211 16.0426 18.532 15.8467 18.3101 15.6949C18.2982 15.8492 18.2937 16.0061 18.2976 16.1642C18.2998 16.246 18.3045 16.3271 18.311 16.4074Z" fill="#FFD56C"/>
<path d="M20.3677 14.1325C20.4258 14.059 20.4872 13.9877 20.5519 13.9201C20.4186 13.7887 20.2783 13.6644 20.1303 13.5494C20.0661 13.6178 20.005 13.6888 19.9461 13.7618C20.0945 13.8765 20.2348 14.0004 20.3677 14.1325Z" fill="#FFD56C"/>
<path d="M19.7009 16.0399C19.7011 15.8754 19.7142 15.7139 19.7397 15.556C19.6069 15.3653 19.4529 15.1906 19.2819 15.0347C19.2514 15.1391 19.2263 15.2457 19.2054 15.3534C19.4034 15.555 19.5704 15.786 19.7009 16.0399Z" fill="#FFD56C"/>
<path d="M19.9262 14.8888C19.9645 14.7947 20.0073 14.7027 20.0545 14.6133C19.9217 14.4735 19.7794 14.3435 19.6278 14.2246C19.5799 14.3071 19.5361 14.3917 19.4947 14.4781C19.6493 14.6031 19.7938 14.7405 19.9262 14.8888Z" fill="#FFD56C"/>
<path d="M20.552 13.9201C20.6811 13.7839 20.8231 13.6604 20.9749 13.5497C20.8404 13.4147 20.6986 13.2871 20.5503 13.1671C20.4006 13.2839 20.2604 13.4116 20.1306 13.5494C20.2784 13.6643 20.4186 13.7887 20.552 13.9201Z" fill="#FFD56C"/>
<path d="M20.0545 14.6134C20.144 14.4431 20.2489 14.2822 20.3678 14.1325C20.2348 14.0004 20.0945 13.8765 19.9462 13.7617C19.8288 13.9075 19.7218 14.0618 19.6277 14.2247C19.7794 14.3436 19.9218 14.4736 20.0545 14.6134Z" fill="#FFD56C"/>
<path d="M19.7398 15.556C19.7771 15.3245 19.8401 15.1007 19.9261 14.8888C19.7937 14.7406 19.6492 14.6032 19.4947 14.4781C19.4095 14.6563 19.3376 14.8422 19.282 15.0347C19.4531 15.1906 19.6068 15.3652 19.7398 15.556Z" fill="#FFD56C"/>
<path d="M19.1416 16.1821C19.1737 16.237 19.2027 16.2934 19.2303 16.3509C19.3921 16.34 19.5528 16.3288 19.7121 16.317C19.7067 16.2546 19.7027 16.1915 19.7009 16.1278C19.7001 16.0982 19.7009 16.0692 19.7009 16.0399C19.5705 15.7861 19.4035 15.555 19.2057 15.3534C19.1562 15.6085 19.1326 15.8724 19.1397 16.1424C19.1399 16.1558 19.1411 16.169 19.1416 16.1821Z" fill="#FFD56C"/>
<path d="M19.985 15.9755C19.9838 16.0239 19.9802 16.0717 19.9816 16.1207C19.9831 16.1797 19.9899 16.2374 19.9951 16.2956C20.0351 16.2923 20.0753 16.2893 20.115 16.2862C20.0772 16.1799 20.0339 16.0764 19.985 15.9755Z" fill="#FFD56C"/>
<path d="M21.1032 14.5679C20.9933 14.4123 20.8736 14.2641 20.7463 14.1233C20.6816 14.1918 20.6209 14.2638 20.5633 14.3387C20.6929 14.4848 20.8126 14.6391 20.9225 14.8011C20.9775 14.7195 21.0381 14.6416 21.1032 14.5679Z" fill="#FFD56C"/>
<path d="M20.5502 15.8614C20.5632 15.7043 20.5929 15.5519 20.6369 15.4053C20.5256 15.2066 20.398 15.0185 20.2553 14.8426C20.2087 14.9399 20.1687 15.0403 20.1333 15.1431C20.2981 15.3647 20.4385 15.605 20.5502 15.8614Z" fill="#FFD56C"/>
<path d="M21.5251 14.1934C21.4147 14.0409 21.2956 13.8948 21.1703 13.7553C21.0168 13.8639 20.8749 13.9869 20.7463 14.1232C20.8737 14.264 20.9933 14.4122 21.1032 14.5678C21.2277 14.4261 21.3689 14.3 21.5251 14.1934Z" fill="#FFD56C"/>
<path d="M20.9226 14.8011C20.8128 14.6391 20.6929 14.4847 20.5634 14.3386C20.4435 14.4946 20.341 14.6637 20.2554 14.8428C20.3982 15.0185 20.5259 15.2066 20.637 15.4053C20.7019 15.1884 20.7993 14.9856 20.9226 14.8011Z" fill="#FFD56C"/>
<path d="M20.5536 16.2501C20.5495 16.2021 20.544 16.1548 20.5427 16.1059C20.5405 16.0234 20.5435 15.942 20.5504 15.8614C20.4386 15.6051 20.2983 15.3647 20.1336 15.1432C20.0436 15.406 19.9924 15.6854 19.985 15.9755C20.0339 16.0764 20.0772 16.18 20.1151 16.2864C20.2625 16.2745 20.4086 16.2625 20.5536 16.2501Z" fill="#FFD56C"/>
<path d="M21.5608 15.3693C21.4741 15.1758 21.3741 14.9897 21.2635 14.811C21.1988 14.8905 21.1411 14.9754 21.0895 15.0643C21.2173 15.2841 21.3261 15.5161 21.4156 15.7575C21.4449 15.6196 21.4942 15.4894 21.5608 15.3693Z" fill="#FFD56C"/>
<path d="M20.8379 15.8208C20.8274 15.912 20.8208 16.0042 20.8234 16.0986C20.8245 16.1415 20.8292 16.1835 20.833 16.2256C20.881 16.2212 20.9287 16.2167 20.9763 16.2125C20.937 16.0788 20.8905 15.9482 20.8379 15.8208Z" fill="#FFD56C"/>
<path d="M21.9643 14.9121C21.879 14.7443 21.7858 14.5815 21.6841 14.4244C21.5257 14.5324 21.384 14.6626 21.2635 14.8109C21.3741 14.9896 21.474 15.1757 21.5609 15.3692C21.6606 15.1892 21.7982 15.0327 21.9643 14.9121Z" fill="#FFD56C"/>
<path d="M21.3914 16.1733C21.3885 16.1437 21.3853 16.1141 21.3845 16.084C21.3815 15.9718 21.3933 15.8627 21.4156 15.7574C21.326 15.5159 21.2173 15.284 21.0894 15.0642C20.957 15.292 20.8694 15.548 20.8378 15.8208C20.8905 15.9482 20.9369 16.0789 20.976 16.2128C21.1158 16.1999 21.2542 16.1868 21.3914 16.1733Z" fill="#FFD56C"/>
<path d="M21.7081 15.7391C21.6773 15.8463 21.662 15.9594 21.665 16.0769C21.6659 16.0997 21.6682 16.1225 21.6705 16.1453C21.7221 16.1398 21.774 16.1346 21.8255 16.1291C21.7916 15.9968 21.7527 15.8666 21.7081 15.7391Z" fill="#FFD56C"/>
<path d="M22.2294 16.0857C22.2289 16.0777 22.2264 16.0703 22.2264 16.0623C22.2235 15.9526 22.2535 15.8504 22.3058 15.7627C22.2442 15.5604 22.1711 15.3633 22.0869 15.1723C21.9076 15.3164 21.7727 15.513 21.7081 15.7392C21.7527 15.8666 21.7916 15.9969 21.8256 16.1291C21.9615 16.115 22.0962 16.1004 22.2294 16.0857Z" fill="#FFD56C"/>
<path d="M15.1041 16.5256C15.4172 15.6967 16.2072 15.0955 17.1464 15.0711C17.2801 15.0677 17.4113 15.0782 17.5393 15.0975C17.5729 14.9111 17.6171 14.7283 17.6698 14.549C17.495 14.5196 17.3155 14.505 17.1317 14.5102C16.0162 14.5393 15.0703 15.2204 14.643 16.1774C14.6416 16.2969 14.6377 16.4155 14.6283 16.5333C14.7861 16.5308 14.9445 16.5286 15.1041 16.5256Z" fill="#FFD56C"/>
</svg>
