<svg width="33" height="34" viewBox="0 0 33 34" fill="none" xmlns="http://www.w3.org/2000/svg">
<path d="M15.5417 5.75V2.9375C11.5137 2.9375 7.6507 4.53761 4.80249 7.38582C1.95428 10.234 0.354172 14.097 0.354172 18.125H3.16667C3.16667 14.8429 4.47046 11.6953 6.79123 9.37455C9.11199 7.05379 12.2596 5.75 15.5417 5.75Z" fill="#F78419"/>
<path d="M3.16667 18.125H0.354172C0.354172 22.153 1.95428 26.016 4.80249 28.8642C7.6507 31.7124 11.5137 33.3125 15.5417 33.3125V30.5C12.2596 30.5 9.11199 29.1962 6.79123 26.8754C4.47046 24.5547 3.16667 21.4071 3.16667 18.125Z" fill="#FA962A"/>
<path d="M15.5417 30.5V33.3125C19.5696 33.3125 23.4326 31.7124 26.2809 28.8642C29.1291 26.016 30.7292 22.153 30.7292 18.125H27.9167C27.9167 21.4071 26.6129 24.5547 24.2921 26.8754C21.9714 29.1962 18.8237 30.5 15.5417 30.5Z" fill="#F78419"/>
<path d="M17.7917 18.125H15.5417V30.5C18.8237 30.5 21.9714 29.1962 24.2921 26.8754C26.6129 24.5547 27.9167 21.4071 27.9167 18.125H24.5417" fill="#FA962A"/>
<path d="M3.16667 18.125C3.16667 21.4071 4.47046 24.5547 6.79123 26.8754C9.11199 29.1962 12.2596 30.5 15.5417 30.5V18.125H3.16667Z" fill="#FCAC2B"/>
<path d="M3.16667 18.125H15.5417V5.75C12.2596 5.75 9.11199 7.05379 6.79123 9.37455C4.47046 11.6953 3.16667 14.8429 3.16667 18.125Z" fill="#FA962A"/>
<path d="M9.35417 16.4375C9.02042 16.4375 8.69416 16.3385 8.41665 16.1531C8.13914 15.9677 7.92285 15.7041 7.79513 15.3958C7.6674 15.0874 7.63398 14.7481 7.6991 14.4208C7.76421 14.0934 7.92493 13.7928 8.16093 13.5568C8.39693 13.3208 8.69761 13.16 9.02496 13.0949C9.3523 13.0298 9.6916 13.0632 9.99995 13.191C10.3083 13.3187 10.5719 13.535 10.7573 13.8125C10.9427 14.09 11.0417 14.4162 11.0417 14.75C11.0417 15.1976 10.8639 15.6268 10.5474 15.9432C10.2309 16.2597 9.80173 16.4375 9.35417 16.4375Z" fill="#DE4C3C"/>
<path d="M13.2917 14.75H12.1667V15.875H13.2917V14.75Z" fill="#F46B27"/>
<path d="M13.8542 10.8125H12.7292C12.7292 10.5141 12.6106 10.228 12.3997 10.017C12.1887 9.80603 11.9025 9.6875 11.6042 9.6875C11.3058 9.6875 11.0197 9.80603 10.8087 10.017C10.5977 10.228 10.4792 10.5141 10.4792 10.8125H9.35417C9.35417 10.2158 9.59123 9.64347 10.0132 9.22151C10.4351 8.79955 11.0074 8.5625 11.6042 8.5625C12.2009 8.5625 12.7732 8.79955 13.1952 9.22151C13.6171 9.64347 13.8542 10.2158 13.8542 10.8125Z" fill="#88B337"/>
<path d="M8.22917 11.375H7.10417V12.5H8.22917V11.375Z" fill="#F46B27"/>
<path d="M7.66667 23.1875C7.33292 23.1875 7.00666 23.0885 6.72915 22.9031C6.45164 22.7177 6.23535 22.4541 6.10763 22.1458C5.9799 21.8374 5.94648 21.4981 6.0116 21.1708C6.07671 20.8434 6.23743 20.5428 6.47343 20.3068C6.70943 20.0708 7.01011 19.91 7.33746 19.8449C7.6648 19.7798 8.0041 19.8132 8.31245 19.941C8.6208 20.0687 8.88435 20.285 9.06978 20.5625C9.2552 20.84 9.35417 21.1662 9.35417 21.5C9.35417 21.9476 9.17638 22.3768 8.85992 22.6932C8.54345 23.0097 8.11423 23.1875 7.66667 23.1875Z" fill="#DE4C3C"/>
<path d="M13.2917 19.8125H12.1667V20.9375H13.2917V19.8125Z" fill="#F46B27"/>
<path d="M11.6042 26C11.0074 26 10.4351 25.7629 10.0132 25.341C9.59123 24.919 9.35417 24.3467 9.35417 23.75H10.4792C10.4792 24.0484 10.5977 24.3345 10.8087 24.5455C11.0197 24.7565 11.3058 24.875 11.6042 24.875C11.9025 24.875 12.1887 24.7565 12.3997 24.5455C12.6106 24.3345 12.7292 24.0484 12.7292 23.75H13.8542C13.8542 24.3467 13.6171 24.919 13.1952 25.341C12.7732 25.7629 12.2009 26 11.6042 26Z" fill="#88B337"/>
<path d="M13.8542 27.125H12.7292V28.25H13.8542V27.125Z" fill="#F46B27"/>
<path d="M23.4167 24.875C23.0829 24.875 22.7567 24.776 22.4791 24.5906C22.2016 24.4052 21.9853 24.1416 21.8576 23.8333C21.7299 23.5249 21.6965 23.1856 21.7616 22.8583C21.8267 22.5309 21.9874 22.2303 22.2234 21.9943C22.4594 21.7583 22.7601 21.5975 23.0875 21.5324C23.4148 21.4673 23.7541 21.5007 24.0624 21.6285C24.3708 21.7562 24.6344 21.9725 24.8198 22.25C25.0052 22.5275 25.1042 22.8537 25.1042 23.1875C25.1042 23.6351 24.9264 24.0643 24.6099 24.3807C24.2934 24.6972 23.8642 24.875 23.4167 24.875Z" fill="#DE4C3C"/>
<path d="M19.4792 27.6875V26.5625C19.7775 26.5625 20.0637 26.444 20.2747 26.233C20.4856 26.022 20.6042 25.7359 20.6042 25.4375C20.6042 25.1391 20.4856 24.853 20.2747 24.642C20.0637 24.431 19.7775 24.3125 19.4792 24.3125V23.1875C20.0759 23.1875 20.6482 23.4246 21.0702 23.8465C21.4921 24.2685 21.7292 24.8408 21.7292 25.4375C21.7292 26.0342 21.4921 26.6065 21.0702 27.0285C20.6482 27.4504 20.0759 27.6875 19.4792 27.6875Z" fill="#88B337"/>
<path d="M18.3542 22.625H17.2292V23.75H18.3542V22.625Z" fill="#F46B27"/>
<path d="M18.9167 24.875H17.7917V26H18.9167V24.875Z" fill="#F46B27"/>
<path d="M24.5417 15.875H30.1667C30.1667 12.5929 28.8629 9.44532 26.5421 7.12455C24.2214 4.80379 21.0737 3.5 17.7917 3.5V19.8125C17.7917 20.1109 17.9102 20.397 18.1212 20.608C18.3322 20.819 18.6183 20.9375 18.9167 20.9375C19.215 20.9375 19.5012 20.819 19.7122 20.608C19.9231 20.397 20.0417 20.1109 20.0417 19.8125V19.25C20.0417 18.9516 20.1602 18.6655 20.3712 18.4545C20.5822 18.2435 20.8683 18.125 21.1667 18.125C21.465 18.125 21.7512 18.2435 21.9622 18.4545C22.1731 18.6655 22.2917 18.9516 22.2917 19.25V20.9375C22.2917 21.2359 22.4102 21.522 22.6212 21.733C22.8322 21.944 23.1183 22.0625 23.4167 22.0625C23.715 22.0625 24.0012 21.944 24.2122 21.733C24.4231 21.522 24.5417 21.2359 24.5417 20.9375V15.875Z" fill="#FDB62F"/>
<path d="M17.7917 0.6875V3.5C21.0737 3.5 24.2214 4.80379 26.5421 7.12455C28.8629 9.44532 30.1667 12.5929 30.1667 15.875H32.9792C32.9792 11.847 31.3791 7.98403 28.5309 5.13582C25.6826 2.28761 21.8196 0.6875 17.7917 0.6875Z" fill="#FA962A"/>
<path d="M21.1667 12.5C20.8329 12.5 20.5067 12.401 20.2291 12.2156C19.9516 12.0302 19.7353 11.7666 19.6076 11.4583C19.4799 11.1499 19.4465 10.8106 19.5116 10.4833C19.5767 10.1559 19.7374 9.85526 19.9734 9.61926C20.2094 9.38326 20.5101 9.22254 20.8375 9.15743C21.1648 9.09231 21.5041 9.12573 21.8124 9.25345C22.1208 9.38118 22.3844 9.59747 22.5698 9.87498C22.7552 10.1525 22.8542 10.4787 22.8542 10.8125C22.8542 11.2601 22.6764 11.6893 22.3599 12.0057C22.0434 12.3222 21.6142 12.5 21.1667 12.5Z" fill="#DE4C3C"/>
<path d="M23.9792 13.0625V11.9375C24.2775 11.9375 24.5637 11.819 24.7747 11.608C24.9856 11.397 25.1042 11.1109 25.1042 10.8125C25.1042 10.5141 24.9856 10.228 24.7747 10.017C24.5637 9.80603 24.2775 9.6875 23.9792 9.6875V8.5625C24.5759 8.5625 25.1482 8.79955 25.5702 9.22151C25.9921 9.64347 26.2292 10.2158 26.2292 10.8125C26.2292 11.4092 25.9921 11.9815 25.5702 12.4035C25.1482 12.8254 24.5759 13.0625 23.9792 13.0625Z" fill="#88B337"/>
<path d="M21.1667 6.3125H20.0417V7.4375H21.1667V6.3125Z" fill="#F46B27"/>
<path d="M28.4792 13.0625H27.3542V14.1875H28.4792V13.0625Z" fill="#F46B27"/>
</svg>
