<svg width="21" height="23" viewBox="0 0 21 23" fill="none" xmlns="http://www.w3.org/2000/svg">
<path d="M20.6369 10.3232C20.6352 12.5841 19.8777 14.7796 18.4848 16.5606C17.0918 18.3415 15.1435 19.6056 12.9495 20.152C10.7556 20.6983 8.44191 20.4955 6.37647 19.5757C4.31103 18.6559 2.61237 17.0721 1.55059 15.0759C0.488813 13.0798 0.124864 10.7859 0.516617 8.55916C0.908369 6.33239 2.03333 4.3005 3.71263 2.78658C5.39193 1.27266 7.52916 0.363628 9.7845 0.204012C12.0398 0.044396 14.2838 0.643365 16.1596 1.90568C17.5385 2.83439 18.6681 4.0878 19.4488 5.5556C20.2296 7.02341 20.6376 8.66062 20.6369 10.3232Z" fill="#537E9B"/>
<path d="M20.3683 9.87735C20.3675 11.7173 19.8666 13.5225 18.919 15.0997C17.9715 16.6769 16.613 17.9668 14.9888 18.8315C13.3646 19.6961 11.536 20.1029 9.69842 20.0084C7.86088 19.9139 6.08361 19.3215 4.55676 18.2948C2.47342 16.6838 1.09782 14.3262 0.720561 11.7198C0.343298 9.11344 0.99391 6.46249 2.53496 4.32694C4.07601 2.19138 6.38682 0.738456 8.97926 0.275079C11.5717 -0.188298 14.2427 0.374158 16.4282 1.84364C17.6556 2.79219 18.6491 4.00968 19.3322 5.40244C20.0152 6.7952 20.3697 8.3261 20.3683 9.87735Z" fill="#5D88AB"/>
<path d="M16.1238 10.1851C16.1234 11.2159 15.8428 12.2272 15.3119 13.1108C14.7811 13.9943 14.02 14.717 13.1101 15.2014C12.2002 15.6858 11.1757 15.9137 10.1463 15.8607C9.11688 15.8078 8.12121 15.4759 7.26583 14.9007C6.09863 13.9982 5.32793 12.6774 5.11654 11.2172C4.90516 9.75706 5.26964 8.27189 6.13299 7.07547C6.99635 5.87905 8.29097 5.06508 9.74335 4.8055C11.1957 4.54593 12.6922 4.86109 13.9165 5.68439C14.6041 6.21579 15.1607 6.89786 15.5434 7.67812C15.926 8.45838 16.1246 9.31603 16.1238 10.1851Z" fill="#E5E2E5"/>
<path d="M6.91727 4.95174C6.93091 4.86087 6.86831 4.77614 6.77744 4.7625C6.68658 4.74885 6.60185 4.81146 6.58821 4.90233L4.14716 21.1595C4.13351 21.2504 4.19612 21.3351 4.28698 21.3488C4.37785 21.3624 4.46257 21.2998 4.47622 21.2089L6.91727 4.95174Z" fill="#8C4C17"/>
<path d="M7.91905 6.30378C7.91898 6.37264 7.91383 6.44141 7.90362 6.50951C7.88754 6.71015 7.82706 6.90471 7.72656 7.07912C7.62606 7.25352 7.48805 7.40341 7.32252 7.51793C7.15699 7.63245 6.96807 7.70875 6.76943 7.7413C6.57079 7.77385 6.3674 7.76185 6.17398 7.70615C6.14461 7.69595 6.1161 7.6801 6.0817 7.66915C5.86989 7.56602 5.68847 7.40969 5.55517 7.21545C5.42187 7.02121 5.34125 6.7957 5.32121 6.56098C5.29534 6.34652 5.31224 6.12907 5.37092 5.92118C5.44275 5.68284 5.47991 5.4354 5.48124 5.18647C5.48602 4.9705 5.53374 4.75763 5.62164 4.56029C5.70974 4.3418 5.85303 4.14991 6.03749 4.00338C6.22196 3.85684 6.44128 3.76068 6.67404 3.72428C6.70849 3.71902 6.7433 3.71652 6.77815 3.71682C6.97887 3.71974 7.1764 3.76738 7.35638 3.85627C7.53636 3.94517 7.69425 4.07307 7.81856 4.23069C7.94287 4.3883 8.03047 4.57164 8.07499 4.76738C8.1195 4.96312 8.1198 5.16632 8.07588 5.36219C8.06556 5.4322 8.05001 5.50134 8.02937 5.56903C7.96252 5.80848 7.92546 6.05526 7.91905 6.30378Z" fill="#A56021"/>
<path d="M7.45072 6.23346C7.45065 6.30232 7.4455 6.37109 7.4353 6.43919C7.40072 6.76242 7.25687 7.06418 7.02752 7.29456C6.79816 7.52494 6.49705 7.67014 6.17398 7.70615C6.14461 7.69595 6.1161 7.6801 6.0817 7.66915C5.86989 7.56602 5.68847 7.40969 5.55517 7.21545C5.42187 7.02121 5.34125 6.7957 5.32121 6.56098C5.29534 6.34652 5.31224 6.12907 5.37092 5.92119C5.44275 5.68284 5.47991 5.4354 5.48124 5.18647C5.48602 4.9705 5.53374 4.75763 5.62164 4.56029C5.70974 4.3418 5.85303 4.14991 6.03749 4.00338C6.22196 3.85684 6.44128 3.76068 6.67404 3.72428C6.70849 3.71902 6.7433 3.71652 6.77815 3.71682C7.07392 3.84717 7.31686 4.07378 7.46746 4.35977C7.61806 4.64576 7.66744 4.97429 7.60757 5.29192C7.59725 5.36193 7.5817 5.43106 7.56104 5.49875C7.4942 5.73819 7.45714 5.98495 7.45072 6.23346Z" fill="#BF6C0D"/>
<path d="M7.28806 10.5055C7.288 10.5743 7.28284 10.6431 7.27264 10.7112C7.25656 10.9118 7.19608 11.1064 7.09558 11.2808C6.99508 11.4552 6.85707 11.6051 6.69154 11.7196C6.52601 11.8341 6.33709 11.9104 6.13845 11.943C5.93981 11.9755 5.73642 11.9635 5.543 11.9078C5.51363 11.8976 5.48512 11.8818 5.45072 11.8708C5.23891 11.7677 5.05749 11.6114 4.92419 11.4171C4.79089 11.2229 4.71027 10.9974 4.69023 10.7626C4.66436 10.5482 4.68126 10.3307 4.73993 10.1228C4.81177 9.8845 4.84892 9.63706 4.85025 9.38813C4.85503 9.17216 4.90275 8.9593 4.99065 8.76196C5.07875 8.54347 5.22204 8.35158 5.4065 8.20505C5.59096 8.05851 5.81029 7.96235 6.04305 7.92596C6.0775 7.92069 6.11232 7.91819 6.14717 7.91848C6.34789 7.9214 6.54544 7.96904 6.72542 8.05794C6.9054 8.14684 7.0633 8.27475 7.18761 8.43237C7.31192 8.58999 7.39952 8.77334 7.44403 8.96908C7.48854 9.16483 7.48884 9.36803 7.44491 9.56391C7.43459 9.63392 7.41904 9.70306 7.39839 9.77074C7.33154 10.0102 7.29449 10.2569 7.28806 10.5055Z" fill="#A56021"/>
<path d="M6.81974 10.4352C6.81967 10.504 6.81451 10.5728 6.80431 10.6409C6.76973 10.9641 6.62587 11.2659 6.39652 11.4962C6.16717 11.7266 5.86607 11.8718 5.543 11.9078C5.51363 11.8976 5.48512 11.8818 5.45072 11.8708C5.23891 11.7677 5.05749 11.6114 4.92419 11.4171C4.79089 11.2229 4.71027 10.9974 4.69023 10.7626C4.66436 10.5482 4.68126 10.3307 4.73993 10.1228C4.81177 9.8845 4.84892 9.63706 4.85025 9.38813C4.85503 9.17216 4.90275 8.9593 4.99065 8.76196C5.07875 8.54347 5.22204 8.35158 5.4065 8.20504C5.59096 8.05851 5.81029 7.96235 6.04305 7.92596C6.0775 7.92069 6.11232 7.91819 6.14717 7.91848C6.46822 8.07392 6.72337 8.33867 6.86685 8.66524C7.01033 8.99181 7.03274 9.35882 6.93007 9.70042C6.86321 9.93987 6.82616 10.1866 6.81974 10.4352Z" fill="#BF6C0D"/>
<path d="M6.65709 14.7076C6.65702 14.7765 6.65186 14.8452 6.64166 14.9133C6.62558 15.114 6.5651 15.3085 6.4646 15.4829C6.3641 15.6573 6.2261 15.8072 6.06056 15.9217C5.89503 16.0363 5.70611 16.1126 5.50747 16.1451C5.30883 16.1777 5.10544 16.1657 4.91201 16.11C4.88265 16.0998 4.85414 16.0839 4.81973 16.073C4.60792 15.9698 4.4265 15.8135 4.29321 15.6193C4.15991 15.425 4.07929 15.1995 4.05924 14.9648C4.03338 14.7503 4.05028 14.5329 4.10896 14.325C4.18079 14.0866 4.21795 13.8392 4.21928 13.5903C4.22405 13.3743 4.27178 13.1614 4.35968 12.9641C4.44778 12.7456 4.59106 12.5537 4.77553 12.4072C4.95999 12.2607 5.17932 12.1645 5.41208 12.1281C5.44652 12.1228 5.48134 12.1203 5.51619 12.1206C5.71691 12.1235 5.91445 12.1712 6.09444 12.2601C6.27442 12.349 6.43232 12.4769 6.55663 12.6345C6.68095 12.7921 6.76855 12.9755 6.81306 13.1712C6.85757 13.367 6.85787 13.5702 6.81394 13.766C6.80362 13.8361 6.78806 13.9052 6.76742 13.9729C6.70056 14.2123 6.66351 14.4591 6.65709 14.7076Z" fill="#A56021"/>
<path d="M6.18875 14.6373C6.18869 14.7061 6.18353 14.7749 6.17333 14.843C6.13876 15.1662 5.9949 15.468 5.76555 15.6984C5.5362 15.9287 5.23509 16.0739 4.91201 16.11C4.88265 16.0998 4.85414 16.0839 4.81973 16.073C4.60792 15.9698 4.4265 15.8135 4.29321 15.6193C4.15991 15.425 4.07929 15.1995 4.05924 14.9648C4.03338 14.7503 4.05028 14.5329 4.10896 14.325C4.18079 14.0866 4.21795 13.8392 4.21928 13.5903C4.22405 13.3743 4.27178 13.1614 4.35968 12.9641C4.44778 12.7456 4.59106 12.5537 4.77553 12.4072C4.95999 12.2607 5.17932 12.1645 5.41208 12.1281C5.44652 12.1228 5.48134 12.1203 5.51619 12.1206C5.83723 12.2761 6.09238 12.5409 6.23586 12.8674C6.37934 13.194 6.40176 13.561 6.29909 13.9026C6.23224 14.142 6.19518 14.3888 6.18875 14.6373Z" fill="#BF6C0D"/>
<g opacity="0.5">
<path d="M5.78097 5.58244C5.74701 5.57728 5.71608 5.55993 5.69398 5.53364C5.67188 5.50735 5.66011 5.47391 5.66087 5.43956C5.63833 5.21432 5.66482 4.98686 5.73852 4.77281C5.81221 4.55877 5.93137 4.36322 6.08781 4.19959C6.1576 4.146 6.23737 4.10684 6.32246 4.0844C6.40755 4.06197 6.49626 4.0567 6.5834 4.06891C6.61994 4.07742 6.65161 4.10006 6.67148 4.13188C6.69135 4.16369 6.69781 4.20208 6.68944 4.23864C6.67946 4.27365 6.65703 4.3038 6.62637 4.32342C6.59571 4.34304 6.55894 4.35078 6.52297 4.34518C6.47516 4.33857 6.42649 4.34241 6.38031 4.35646C6.33413 4.3705 6.29156 4.3944 6.25552 4.4265C6.12112 4.5345 5.9576 4.7997 5.94301 5.44625C5.94261 5.46478 5.93854 5.48305 5.93106 5.50001C5.92358 5.51697 5.91282 5.53229 5.8994 5.54508C5.88599 5.55788 5.87018 5.5679 5.85289 5.57457C5.83559 5.58124 5.81715 5.58443 5.79862 5.58396C5.7927 5.58399 5.78679 5.58348 5.78097 5.58244Z" fill="white"/>
</g>
<g opacity="0.5">
<path d="M5.27536 9.82755C5.2414 9.8224 5.21048 9.80505 5.18838 9.77876C5.16627 9.75246 5.1545 9.71902 5.15525 9.68468C5.13272 9.45943 5.1592 9.23197 5.2329 9.01793C5.3066 8.80389 5.42576 8.60834 5.58219 8.44471C5.65199 8.39112 5.73176 8.35196 5.81685 8.32952C5.90194 8.30708 5.99064 8.30182 6.07779 8.31403C6.11432 8.32254 6.14599 8.34518 6.16587 8.37699C6.18574 8.40881 6.1922 8.4472 6.18382 8.48377C6.17384 8.51877 6.15141 8.54892 6.12075 8.56854C6.0901 8.58816 6.05332 8.59589 6.01736 8.59029C5.96955 8.58368 5.92087 8.58753 5.87469 8.60158C5.82852 8.61562 5.78594 8.63952 5.7499 8.67163C5.6155 8.77963 5.45199 9.04483 5.4374 9.69136C5.43699 9.7099 5.43293 9.72816 5.42544 9.74512C5.41796 9.76208 5.4072 9.7774 5.39379 9.79019C5.38037 9.80299 5.36456 9.81301 5.34727 9.81968C5.32998 9.82635 5.31153 9.82954 5.293 9.82908C5.28709 9.8291 5.28118 9.82859 5.27536 9.82755Z" fill="white"/>
</g>
<g opacity="0.5">
<path d="M4.76973 14.0727C4.73577 14.0675 4.70485 14.0502 4.68275 14.0239C4.66065 13.9976 4.64888 13.9641 4.64964 13.9298C4.6271 13.7045 4.65359 13.4771 4.72729 13.263C4.80098 13.049 4.92014 12.8535 5.07657 12.6898C5.14637 12.6362 5.22614 12.5971 5.31123 12.5746C5.39632 12.5522 5.48503 12.5469 5.57217 12.5591C5.60871 12.5677 5.64038 12.5903 5.66025 12.6221C5.68013 12.6539 5.68659 12.6923 5.67822 12.7289C5.66824 12.7639 5.64581 12.794 5.61515 12.8137C5.58449 12.8333 5.54772 12.841 5.51175 12.8354C5.46394 12.8288 5.41527 12.8326 5.36909 12.8467C5.32291 12.8607 5.28033 12.8846 5.2443 12.9167C5.1099 13.0247 4.94639 13.2899 4.93179 13.9365C4.93138 13.955 4.92732 13.9733 4.91983 13.9903C4.91234 14.0072 4.90159 14.0225 4.88817 14.0353C4.87475 14.0481 4.85895 14.0581 4.84165 14.0648C4.82436 14.0715 4.80592 14.0747 4.78739 14.0742C4.78147 14.0742 4.77556 14.0737 4.76973 14.0727Z" fill="white"/>
</g>
<path d="M8.64549 5.50769C8.64549 5.4158 8.571 5.34131 8.47912 5.34131C8.38723 5.34131 8.31274 5.4158 8.31274 5.50769V21.9471C8.31274 22.039 8.38723 22.1135 8.47912 22.1135C8.571 22.1135 8.64549 22.039 8.64549 21.9471V5.50769Z" fill="#8C4C17"/>
<path d="M9.83661 6.69594C9.84677 6.76405 9.85189 6.83282 9.85191 6.90169C9.8658 7.10249 9.83488 7.30388 9.7614 7.49127C9.68791 7.67866 9.57368 7.84738 9.42699 7.98521C9.2803 8.12304 9.1048 8.22654 8.9132 8.28823C8.7216 8.34991 8.51868 8.36824 8.31913 8.34188C8.28858 8.33615 8.25802 8.32472 8.22237 8.31899C7.9976 8.24846 7.79497 8.1208 7.63431 7.94851C7.47364 7.77621 7.36044 7.56517 7.30576 7.33603C7.24834 7.12779 7.23276 6.91024 7.25992 6.69594C7.29558 6.44958 7.29558 6.19937 7.25992 5.953C7.23257 5.73871 7.24816 5.52112 7.30576 5.31292C7.36045 5.08377 7.47365 4.87273 7.63432 4.70043C7.79498 4.52813 7.9976 4.40046 8.22237 4.32992C8.25566 4.3196 8.28972 4.31198 8.32423 4.30712C8.52315 4.2802 8.72558 4.29798 8.91677 4.35916C9.10796 4.42035 9.2831 4.52339 9.42944 4.6608C9.57578 4.79822 9.68963 4.96653 9.76272 5.1535C9.8358 5.34046 9.86627 5.54137 9.85191 5.7416C9.8521 5.81236 9.84698 5.88305 9.83661 5.95305C9.80606 6.19974 9.80606 6.44925 9.83661 6.69594Z" fill="#A56021"/>
<path d="M9.36303 6.69547C9.3732 6.76358 9.37831 6.83235 9.37833 6.90121C9.39214 7.22599 9.29468 7.54576 9.10208 7.80764C8.90948 8.06952 8.63327 8.25782 8.31913 8.3414C8.28858 8.33568 8.25802 8.32424 8.22237 8.31852C7.9976 8.24798 7.79497 8.12033 7.63431 7.94803C7.47364 7.77574 7.36044 7.5647 7.30576 7.33555C7.24834 7.12731 7.23276 6.90976 7.25992 6.69547C7.29558 6.4491 7.29558 6.19889 7.25992 5.95253C7.23257 5.73824 7.24816 5.52065 7.30576 5.31244C7.36045 5.08329 7.47365 4.87226 7.63432 4.69995C7.79498 4.52765 7.9976 4.39999 8.22237 4.32944C8.25566 4.31913 8.28972 4.3115 8.32423 4.30664C8.63607 4.39163 8.90997 4.57965 9.10136 4.84011C9.29276 5.10057 9.39037 5.41813 9.37833 5.74112C9.37852 5.81189 9.3734 5.88257 9.36303 5.95257C9.33248 6.19926 9.33248 6.44878 9.36303 6.69547Z" fill="#BF6C0D"/>
<path d="M9.83661 10.945C9.84677 11.0131 9.85189 11.0818 9.85191 11.1507C9.8658 11.3515 9.83488 11.5529 9.7614 11.7403C9.68791 11.9277 9.57368 12.0964 9.42699 12.2342C9.2803 12.3721 9.1048 12.4756 8.9132 12.5372C8.7216 12.5989 8.51868 12.6173 8.31913 12.5909C8.28858 12.5852 8.25802 12.5737 8.22237 12.568C7.9976 12.4975 7.79497 12.3698 7.63431 12.1975C7.47365 12.0252 7.36044 11.8142 7.30576 11.585C7.24834 11.3768 7.23276 11.1593 7.25992 10.945C7.29558 10.6986 7.29558 10.4484 7.25992 10.202C7.23257 9.98773 7.24816 9.77015 7.30576 9.56194C7.36045 9.33279 7.47365 9.12175 7.63432 8.94945C7.79498 8.77715 7.9976 8.64949 8.22237 8.57894C8.25566 8.56863 8.28972 8.56101 8.32423 8.55614C8.52315 8.52922 8.72558 8.547 8.91677 8.60819C9.10796 8.66937 9.2831 8.77242 9.42943 8.90983C9.57577 9.04724 9.68963 9.21555 9.76271 9.40252C9.8358 9.58948 9.86627 9.79039 9.85191 9.99062C9.8521 10.0614 9.84698 10.1321 9.83661 10.2021C9.80606 10.4488 9.80606 10.6983 9.83661 10.945Z" fill="#A56021"/>
<path d="M9.36303 10.945C9.3732 11.0131 9.37831 11.0819 9.37833 11.1507C9.39214 11.4755 9.29468 11.7953 9.10208 12.0571C8.90948 12.319 8.63327 12.5073 8.31913 12.5909C8.28858 12.5852 8.25802 12.5738 8.22237 12.568C7.9976 12.4975 7.79497 12.3698 7.63431 12.1975C7.47365 12.0252 7.36044 11.8142 7.30576 11.5851C7.24834 11.3768 7.23276 11.1593 7.25992 10.945C7.29558 10.6986 7.29558 10.4484 7.25992 10.202C7.23257 9.98775 7.24816 9.77016 7.30576 9.56196C7.36045 9.33281 7.47365 9.12177 7.63432 8.94947C7.79498 8.77716 7.9976 8.6495 8.22237 8.57895C8.25566 8.56865 8.28972 8.56102 8.32423 8.55615C8.63607 8.64114 8.90997 8.82916 9.10136 9.08962C9.29276 9.35008 9.39037 9.66764 9.37833 9.99063C9.37852 10.0614 9.3734 10.1321 9.36303 10.2021C9.33248 10.4488 9.33248 10.6983 9.36303 10.945Z" fill="#BF6C0D"/>
<path d="M9.83661 15.194C9.84677 15.2621 9.85188 15.3309 9.8519 15.3997C9.86579 15.6005 9.83487 15.8019 9.76138 15.9893C9.6879 16.1767 9.57367 16.3454 9.42698 16.4832C9.28029 16.6211 9.1048 16.7246 8.9132 16.7863C8.7216 16.848 8.51868 16.8663 8.31913 16.8399C8.28858 16.8342 8.25802 16.8228 8.22237 16.817C7.9976 16.7465 7.79498 16.6189 7.63431 16.4466C7.47365 16.2743 7.36044 16.0632 7.30576 15.8341C7.24834 15.6258 7.23276 15.4083 7.25992 15.194C7.29558 14.9476 7.29558 14.6974 7.25992 14.451C7.23257 14.2368 7.24816 14.0192 7.30576 13.811C7.36045 13.5818 7.47366 13.3708 7.63432 13.1985C7.79498 13.0262 7.9976 12.8985 8.22237 12.828C8.25566 12.8177 8.28972 12.81 8.32423 12.8052C8.52315 12.7782 8.72558 12.796 8.91677 12.8572C9.10795 12.9184 9.28309 13.0214 9.42943 13.1589C9.57577 13.2963 9.68962 13.4646 9.7627 13.6515C9.83579 13.8385 9.86626 14.0394 9.8519 14.2396C9.85209 14.3104 9.84698 14.3811 9.83661 14.4511C9.80606 14.6978 9.80606 14.9473 9.83661 15.194Z" fill="#A56021"/>
<path d="M9.36303 15.194C9.3732 15.2621 9.37831 15.3309 9.37833 15.3997C9.39214 15.7245 9.29468 16.0443 9.10208 16.3062C8.90948 16.5681 8.63327 16.7564 8.31913 16.8399C8.28858 16.8342 8.25802 16.8228 8.22237 16.8171C7.9976 16.7465 7.79498 16.6189 7.63431 16.4466C7.47365 16.2743 7.36044 16.0632 7.30576 15.8341C7.24834 15.6259 7.23276 15.4083 7.25992 15.194C7.29558 14.9476 7.29558 14.6974 7.25992 14.4511C7.23257 14.2368 7.24816 14.0192 7.30576 13.811C7.36045 13.5818 7.47366 13.3708 7.63432 13.1985C7.79498 13.0262 7.9976 12.8985 8.22237 12.828C8.25566 12.8177 8.28972 12.81 8.32423 12.8052C8.63607 12.8902 8.90997 13.0782 9.10136 13.3386C9.29276 13.5991 9.39037 13.9167 9.37833 14.2397C9.37852 14.3104 9.3734 14.3811 9.36303 14.4511C9.33248 14.6978 9.33248 14.9473 9.36303 15.194Z" fill="#BF6C0D"/>
<g opacity="0.5">
<path d="M7.61526 6.30044C7.58092 6.30039 7.54776 6.28782 7.522 6.26511C7.49624 6.24239 7.47963 6.21107 7.47528 6.177C7.41955 5.95759 7.41197 5.72872 7.45306 5.50611C7.49416 5.28349 7.58296 5.07241 7.71336 4.88737C7.77443 4.82402 7.84749 4.77345 7.9283 4.73863C8.00911 4.70382 8.09604 4.68544 8.18403 4.68457C8.22142 4.68757 8.2561 4.70525 8.28048 4.73376C8.30485 4.76227 8.31694 4.79928 8.3141 4.83668C8.30942 4.87278 8.29172 4.90592 8.26431 4.92988C8.23691 4.95383 8.20169 4.96695 8.1653 4.96675C8.11703 4.96731 8.06947 4.97834 8.02589 4.99909C7.98231 5.01983 7.94376 5.04979 7.91289 5.08689C7.79604 5.21365 7.6737 5.50023 7.75527 6.14169C7.75761 6.16009 7.75631 6.17876 7.75142 6.19664C7.74653 6.21453 7.73816 6.23127 7.72679 6.24592C7.71542 6.26056 7.70127 6.27281 7.68515 6.28198C7.66904 6.29114 7.65127 6.29703 7.63287 6.29931L7.61526 6.30044Z" fill="white"/>
</g>
<g opacity="0.5">
<path d="M7.74564 10.5739C7.71129 10.5738 7.67814 10.5613 7.65238 10.5385C7.62661 10.5158 7.61 10.4845 7.60565 10.4504C7.54992 10.231 7.54234 10.0022 7.58344 9.77954C7.62454 9.55693 7.71334 9.34585 7.84374 9.16081C7.9048 9.09745 7.97787 9.04689 8.05867 9.01207C8.13948 8.97725 8.22641 8.95887 8.3144 8.95801C8.35179 8.961 8.38647 8.97869 8.41085 9.0072C8.43523 9.03571 8.44731 9.07272 8.44446 9.11012C8.43979 9.14622 8.42209 9.17936 8.39468 9.20332C8.36728 9.22727 8.33206 9.24039 8.29566 9.24019C8.2474 9.24075 8.19984 9.25178 8.15626 9.27252C8.11268 9.29327 8.07412 9.32323 8.04326 9.36033C7.92642 9.48709 7.80407 9.77367 7.88564 10.4151C7.88798 10.4335 7.88668 10.4522 7.88179 10.4701C7.8769 10.488 7.86854 10.5047 7.85716 10.5194C7.84579 10.534 7.83164 10.5463 7.81552 10.5554C7.7994 10.5646 7.78164 10.5705 7.76324 10.5728L7.74564 10.5739Z" fill="white"/>
</g>
<g opacity="0.5">
<path d="M7.87601 14.8463C7.84166 14.8463 7.80851 14.8337 7.78275 14.811C7.75698 14.7883 7.74037 14.757 7.73602 14.7229C7.68029 14.5035 7.67271 14.2746 7.71381 14.052C7.75491 13.8294 7.84371 13.6183 7.97412 13.4333C8.03517 13.3699 8.10824 13.3194 8.18904 13.2845C8.26985 13.2497 8.35678 13.2313 8.44477 13.2305C8.48216 13.2335 8.51684 13.2512 8.54122 13.2797C8.5656 13.3082 8.57768 13.3452 8.57483 13.3826C8.57017 13.4187 8.55246 13.4518 8.52506 13.4758C8.49765 13.4997 8.46243 13.5128 8.42603 13.5126C8.37777 13.5132 8.3302 13.5242 8.28662 13.545C8.24304 13.5657 8.20448 13.5957 8.17361 13.6328C8.05678 13.7595 7.93443 14.0461 8.01599 14.6876C8.01834 14.706 8.01704 14.7247 8.01215 14.7425C8.00726 14.7604 7.99889 14.7772 7.98752 14.7918C7.97615 14.8065 7.962 14.8187 7.94588 14.8279C7.92976 14.837 7.91199 14.8429 7.89359 14.8452L7.87601 14.8463Z" fill="white"/>
</g>
<path d="M10.4957 4.93319C10.4828 4.84222 10.3985 4.77899 10.3075 4.79195C10.2166 4.80492 10.1533 4.88918 10.1663 4.98014L12.4861 21.2551C12.4991 21.3461 12.5834 21.4093 12.6743 21.3963C12.7653 21.3834 12.8285 21.2991 12.8156 21.2081L10.4957 4.93319Z" fill="#8C4C17"/>
<path d="M11.8426 5.94148C11.8622 6.00748 11.877 6.07483 11.8867 6.143C11.9288 6.33984 11.9266 6.54357 11.8803 6.73945C11.834 6.93534 11.7447 7.11848 11.6189 7.27563C11.4931 7.43278 11.334 7.56 11.153 7.6481C10.972 7.73621 10.7737 7.78298 10.5725 7.78504C10.5414 7.7837 10.5096 7.77664 10.4735 7.77604C10.241 7.73793 10.0224 7.64015 9.839 7.49225C9.65563 7.34435 9.51378 7.1514 9.42731 6.93226C9.34107 6.73422 9.29494 6.52104 9.29159 6.30506C9.29212 6.05612 9.25681 5.80841 9.18675 5.56954C9.12943 5.36126 9.11415 5.14365 9.14181 4.9294C9.1636 4.69483 9.2459 4.46993 9.38063 4.27668C9.51537 4.08343 9.69795 3.92845 9.91052 3.82689C9.94201 3.81196 9.97465 3.79959 10.0081 3.78989C10.2013 3.73518 10.4042 3.72422 10.6021 3.75781C10.8 3.7914 10.9879 3.86871 11.1522 3.98409C11.3164 4.09947 11.4529 4.25003 11.5516 4.42481C11.6504 4.59959 11.7089 4.79418 11.7229 4.99443C11.7331 5.06445 11.738 5.13513 11.7377 5.20588C11.7422 5.45446 11.7775 5.70153 11.8426 5.94148Z" fill="#A56021"/>
<path d="M11.3737 6.00842C11.3934 6.07441 11.4081 6.14177 11.4179 6.20994C11.4774 6.52953 11.426 6.85985 11.2723 7.14629C11.1186 7.43272 10.8717 7.65811 10.5725 7.78519C10.5414 7.78384 10.5096 7.77679 10.4735 7.77619C10.241 7.73808 10.0224 7.6403 9.839 7.4924C9.65563 7.3445 9.51378 7.15155 9.42731 6.93241C9.34107 6.73436 9.29494 6.52119 9.29159 6.3052C9.29212 6.05627 9.25681 5.80856 9.18675 5.56969C9.12943 5.36141 9.11415 5.1438 9.14181 4.92955C9.1636 4.69498 9.2459 4.47007 9.38063 4.27683C9.51537 4.08358 9.69795 3.9286 9.91052 3.82704C9.94201 3.81211 9.97465 3.79974 10.0081 3.79004C10.3602 3.84696 10.6806 4.0275 10.9116 4.29926C11.1427 4.57101 11.2693 4.91621 11.2688 5.2729C11.2734 5.52146 11.3086 5.7685 11.3737 6.00842Z" fill="#BF6C0D"/>
<path d="M12.4422 10.148C12.4619 10.214 12.4767 10.2813 12.4864 10.3495C12.5285 10.5463 12.5263 10.7501 12.48 10.946C12.4337 11.1418 12.3444 11.325 12.2186 11.4821C12.0929 11.6393 11.9337 11.7665 11.7528 11.8546C11.5718 11.9427 11.3735 11.9895 11.1722 11.9916C11.1411 11.9902 11.1093 11.9832 11.0732 11.9826C10.8407 11.9445 10.6221 11.8467 10.4387 11.6988C10.2554 11.5509 10.1135 11.358 10.027 11.1388C9.9408 10.9408 9.89467 10.7276 9.89132 10.5116C9.89185 10.2627 9.85654 10.015 9.78647 9.77609C9.72916 9.56781 9.71389 9.3502 9.74153 9.13595C9.76333 8.90138 9.84562 8.67648 9.98036 8.48323C10.1151 8.28998 10.2977 8.13499 10.5102 8.03343C10.5417 8.01851 10.5744 8.00614 10.6079 7.99643C10.801 7.94172 11.0039 7.93076 11.2018 7.96435C11.3997 7.99795 11.5876 8.07525 11.7519 8.19064C11.9162 8.30602 12.0526 8.45658 12.1514 8.63136C12.2501 8.80614 12.3086 9.00073 12.3226 9.20098C12.3328 9.27101 12.3377 9.3417 12.3374 9.41247C12.3419 9.66102 12.3772 9.90806 12.4422 10.148Z" fill="#A56021"/>
<path d="M11.9734 10.215C11.9931 10.281 12.0078 10.3483 12.0176 10.4165C12.0771 10.7361 12.0257 11.0664 11.872 11.3528C11.7183 11.6393 11.4714 11.8647 11.1722 11.9917C11.1411 11.9904 11.1093 11.9833 11.0732 11.9827C10.8407 11.9446 10.6221 11.8469 10.4387 11.699C10.2554 11.5511 10.1135 11.3581 10.027 11.139C9.9408 10.9409 9.89467 10.7277 9.89132 10.5118C9.89185 10.2628 9.85654 10.0151 9.78647 9.77624C9.72916 9.56796 9.71389 9.35035 9.74153 9.1361C9.76333 8.90153 9.84562 8.67662 9.98036 8.48337C10.1151 8.29013 10.2977 8.13514 10.5102 8.03358C10.5417 8.01866 10.5744 8.00629 10.6078 7.99658C10.9286 8.03671 11.2263 8.18419 11.4525 8.41502C11.6787 8.64586 11.8202 8.94646 11.8538 9.26791C11.864 9.33794 11.8689 9.40863 11.8685 9.4794C11.8731 9.72796 11.9083 9.97502 11.9734 10.215Z" fill="#BF6C0D"/>
<path d="M13.0418 14.355C13.0615 14.421 13.0763 14.4884 13.086 14.5565C13.1281 14.7534 13.1259 14.9571 13.0796 15.153C13.0333 15.3489 12.944 15.532 12.8183 15.6892C12.6925 15.8463 12.5333 15.9736 12.3524 16.0617C12.1714 16.1498 11.9731 16.1966 11.7718 16.1986C11.7408 16.1973 11.7089 16.1902 11.6728 16.1896C11.4403 16.1515 11.2217 16.0537 11.0383 15.9058C10.855 15.7579 10.7131 15.565 10.6266 15.3458C10.5404 15.1478 10.4943 14.9346 10.4909 14.7186C10.4915 14.4697 10.4561 14.222 10.3861 13.9831C10.3288 13.7748 10.3135 13.5572 10.3411 13.343C10.3629 13.1084 10.4452 12.8835 10.58 12.6903C10.7147 12.497 10.8973 12.342 11.1099 12.2405C11.1414 12.2255 11.174 12.2132 11.2075 12.2035C11.4006 12.1488 11.6035 12.1378 11.8014 12.1714C11.9993 12.205 12.1873 12.2823 12.3515 12.3977C12.5158 12.513 12.6522 12.6636 12.751 12.8384C12.8497 13.0132 12.9082 13.2078 12.9223 13.408C12.9324 13.478 12.9374 13.5487 12.937 13.6195C12.9415 13.8681 12.9768 14.1151 13.0418 14.355Z" fill="#A56021"/>
<path d="M12.573 14.4215C12.5927 14.4875 12.6074 14.5549 12.6172 14.623C12.6767 14.9426 12.6253 15.2729 12.4716 15.5594C12.3179 15.8458 12.071 16.0712 11.7718 16.1983C11.7408 16.1969 11.7089 16.1899 11.6728 16.1893C11.4403 16.1512 11.2217 16.0534 11.0383 15.9055C10.855 15.7576 10.7131 15.5646 10.6266 15.3455C10.5404 15.1474 10.4943 14.9343 10.4909 14.7183C10.4915 14.4694 10.4562 14.2216 10.3861 13.9828C10.3288 13.7745 10.3135 13.5569 10.3411 13.3426C10.3629 13.1081 10.4452 12.8832 10.58 12.6899C10.7147 12.4967 10.8973 12.3417 11.1099 12.2401C11.1414 12.2252 11.174 12.2128 11.2075 12.2031C11.5282 12.2433 11.8259 12.3907 12.0521 12.6216C12.2783 12.8524 12.4198 13.153 12.4535 13.4745C12.4636 13.5445 12.4685 13.6152 12.4682 13.686C12.4727 13.9345 12.5079 14.1816 12.573 14.4215Z" fill="#BF6C0D"/>
<g opacity="0.5">
<path d="M9.58761 5.8639C9.5536 5.86869 9.51901 5.86094 9.4903 5.84208C9.46159 5.82322 9.44073 5.79456 9.43161 5.76144C9.34546 5.55209 9.30565 5.32657 9.31491 5.10038C9.32418 4.87418 9.3823 4.65267 9.48529 4.45107C9.5368 4.37973 9.602 4.31936 9.67708 4.27349C9.75217 4.22761 9.83563 4.19714 9.92262 4.18386C9.96006 4.18155 9.99689 4.19417 10.025 4.21895C10.0532 4.24374 10.0704 4.27867 10.0728 4.3161C10.0733 4.3525 10.0605 4.38781 10.0367 4.41539C10.013 4.44298 9.97995 4.46093 9.94389 4.46586C9.89619 4.47323 9.85066 4.49087 9.81045 4.51755C9.77023 4.54424 9.73628 4.57934 9.71096 4.62042C9.61317 4.7624 9.5325 5.06338 9.70376 5.68696C9.70868 5.70483 9.71002 5.7235 9.70771 5.74189C9.7054 5.76028 9.69948 5.77804 9.6903 5.79414C9.68111 5.81024 9.66884 5.82437 9.65418 5.83572C9.63952 5.84706 9.62277 5.8554 9.60488 5.86026L9.58761 5.8639Z" fill="white"/>
</g>
<g opacity="0.5">
<path d="M10.3196 10.0758C10.2856 10.0805 10.251 10.0728 10.2223 10.0539C10.1936 10.0351 10.1728 10.0064 10.1636 9.9733C10.0775 9.76395 10.0377 9.53844 10.047 9.31226C10.0562 9.08607 10.1144 8.86457 10.2174 8.66298C10.2689 8.59164 10.3341 8.53128 10.4091 8.4854C10.4842 8.43952 10.5677 8.40906 10.6547 8.39578C10.6921 8.39347 10.7289 8.40608 10.7571 8.43086C10.7853 8.45565 10.8024 8.49058 10.8049 8.52801C10.8054 8.5644 10.7925 8.59972 10.7688 8.6273C10.745 8.65488 10.712 8.67284 10.6759 8.67778C10.6282 8.68514 10.5827 8.70278 10.5425 8.72946C10.5023 8.75615 10.4683 8.79125 10.443 8.83234C10.3452 8.97431 10.2645 9.27529 10.4358 9.89886C10.4407 9.91674 10.4421 9.9354 10.4398 9.9538C10.4374 9.97219 10.4315 9.98995 10.4223 10.006C10.4132 10.0221 10.4009 10.0363 10.3862 10.0476C10.3716 10.059 10.3548 10.0673 10.3369 10.0722L10.3196 10.0758Z" fill="white"/>
</g>
<g opacity="0.5">
<path d="M11.0518 14.2872C11.0178 14.292 10.9832 14.2842 10.9545 14.2654C10.9258 14.2465 10.9049 14.2178 10.8958 14.1847C10.8097 13.9754 10.7699 13.7499 10.7791 13.5237C10.7884 13.2975 10.8465 13.076 10.9495 12.8744C11.001 12.8031 11.0662 12.7427 11.1413 12.6968C11.2164 12.651 11.2999 12.6205 11.3869 12.6072C11.4243 12.6049 11.4611 12.6175 11.4893 12.6423C11.5174 12.6671 11.5346 12.702 11.5371 12.7394C11.5376 12.7758 11.5247 12.8111 11.501 12.8387C11.4772 12.8663 11.4442 12.8843 11.4081 12.8892C11.3604 12.8966 11.3149 12.9142 11.2747 12.9409C11.2345 12.9676 11.2005 13.0027 11.1752 13.0438C11.0774 13.1857 10.9967 13.4867 11.168 14.1103C11.1729 14.1282 11.1743 14.1468 11.1719 14.1652C11.1696 14.1836 11.1637 14.2014 11.1545 14.2175C11.1453 14.2336 11.1331 14.2477 11.1184 14.2591C11.1038 14.2704 11.087 14.2787 11.0691 14.2836L11.0518 14.2872Z" fill="white"/>
</g>
<path d="M15.1066 4.57625C15.0936 4.48528 15.0093 4.42205 14.9184 4.43502C14.8274 4.44798 14.7642 4.53224 14.7771 4.62321L17.0971 20.8981C17.1101 20.9891 17.1943 21.0523 17.2853 21.0394C17.3762 21.0264 17.4395 20.9421 17.4265 20.8512L15.1066 4.57625Z" fill="#8C4C17"/>
<path d="M16.4537 5.58401C16.4734 5.65001 16.4881 5.71736 16.4979 5.78553C16.54 5.98237 16.5378 6.1861 16.4915 6.38198C16.4452 6.57787 16.3559 6.76102 16.2301 6.91817C16.1043 7.07533 15.9452 7.20256 15.7642 7.29067C15.5832 7.37877 15.3849 7.42555 15.1837 7.42762C15.1526 7.42627 15.1208 7.41922 15.0847 7.41862C14.8522 7.38051 14.6336 7.28273 14.4502 7.13483C14.2668 6.98693 14.125 6.79398 14.0385 6.57484C13.9523 6.37679 13.9061 6.16362 13.9028 5.94764C13.9033 5.6987 13.868 5.45099 13.7979 5.21212C13.7406 5.00384 13.7254 4.78623 13.753 4.57198C13.7748 4.33741 13.8571 4.11251 13.9918 3.91926C14.1266 3.72601 14.3092 3.57103 14.5217 3.46947C14.5532 3.45455 14.5859 3.44218 14.6193 3.43247C14.8125 3.37775 15.0154 3.36679 15.2133 3.40039C15.4112 3.43398 15.5991 3.51128 15.7634 3.62667C15.9276 3.74205 16.0641 3.89261 16.1628 4.06739C16.2616 4.24217 16.3201 4.43676 16.3341 4.63701C16.3443 4.70704 16.3492 4.77774 16.3488 4.84851C16.3534 5.09706 16.3886 5.34409 16.4537 5.58401Z" fill="#A56021"/>
<path d="M15.9849 5.651C16.0045 5.71699 16.0193 5.78434 16.029 5.85251C16.0885 6.1721 16.0372 6.50242 15.8835 6.78885C15.7298 7.07529 15.4829 7.30068 15.1837 7.42776C15.1526 7.42642 15.1208 7.41937 15.0847 7.41877C14.8522 7.38066 14.6336 7.28287 14.4502 7.13497C14.2668 6.98708 14.125 6.79412 14.0385 6.57498C13.9523 6.37694 13.9062 6.16376 13.9028 5.94778C13.9033 5.69885 13.868 5.45114 13.798 5.21227C13.7406 5.00398 13.7254 4.78637 13.753 4.57213C13.7748 4.33755 13.8571 4.11265 13.9918 3.9194C14.1266 3.72616 14.3092 3.57118 14.5217 3.46961C14.5532 3.45469 14.5859 3.44232 14.6193 3.43262C14.94 3.47275 15.2377 3.62023 15.464 3.85107C15.6902 4.08191 15.8317 4.38252 15.8653 4.70398C15.8755 4.77401 15.8804 4.84471 15.88 4.91548C15.8846 5.16403 15.9198 5.41107 15.9849 5.651Z" fill="#BF6C0D"/>
<path d="M17.0532 9.79056C17.0729 9.85655 17.0876 9.92391 17.0974 9.99207C17.1395 10.1889 17.1373 10.3926 17.091 10.5885C17.0447 10.7844 16.9554 10.9676 16.8296 11.1247C16.7038 11.2819 16.5447 11.4091 16.3637 11.4972C16.1827 11.5853 15.9844 11.6321 15.7832 11.6342C15.7521 11.6328 15.7202 11.6258 15.6841 11.6252C15.4517 11.5871 15.2331 11.4893 15.0497 11.3414C14.8663 11.1935 14.7245 11.0005 14.638 10.7814C14.5518 10.5833 14.5056 10.3702 14.5023 10.1542C14.5028 9.90525 14.4675 9.65754 14.3974 9.41867C14.3401 9.21038 14.3248 8.99277 14.3525 8.77853C14.3743 8.54395 14.4566 8.31905 14.5913 8.1258C14.7261 7.93255 14.9086 7.77757 15.1212 7.676C15.1527 7.66108 15.1854 7.64871 15.2188 7.63902C15.412 7.5843 15.6149 7.57334 15.8128 7.60693C16.0107 7.64052 16.1986 7.71782 16.3629 7.83321C16.5271 7.94859 16.6636 8.09915 16.7623 8.27393C16.8611 8.44871 16.9196 8.64331 16.9336 8.84355C16.9438 8.91358 16.9487 8.98428 16.9483 9.05504C16.9529 9.30359 16.9881 9.55063 17.0532 9.79056Z" fill="#A56021"/>
<path d="M16.5845 9.85802C16.6041 9.92401 16.6189 9.99136 16.6286 10.0595C16.6881 10.3791 16.6368 10.7094 16.4831 10.9959C16.3294 11.2823 16.0825 11.5077 15.7833 11.6348C15.7522 11.6334 15.7204 11.6264 15.6843 11.6258C15.4518 11.5877 15.2332 11.4899 15.0498 11.342C14.8664 11.1941 14.7246 11.0012 14.6381 10.782C14.5519 10.584 14.5058 10.3708 14.5024 10.1548C14.5029 9.90588 14.4676 9.65817 14.3976 9.4193C14.3403 9.21101 14.325 8.9934 14.3526 8.77916C14.3744 8.54458 14.4567 8.31968 14.5915 8.12643C14.7262 7.93318 14.9088 7.7782 15.1213 7.67663C15.1528 7.66171 15.1855 7.64934 15.2189 7.63965C15.5397 7.67978 15.8374 7.82726 16.0636 8.0581C16.2898 8.28894 16.4313 8.58955 16.4649 8.91101C16.4751 8.98105 16.48 9.05174 16.4796 9.12251C16.4842 9.37106 16.5194 9.61809 16.5845 9.85802Z" fill="#BF6C0D"/>
<path d="M17.6529 13.9976C17.6726 14.0636 17.6874 14.1309 17.6971 14.1991C17.7392 14.396 17.737 14.5997 17.6907 14.7956C17.6444 14.9915 17.5551 15.1746 17.4293 15.3318C17.3036 15.4889 17.1444 15.6162 16.9634 15.7043C16.7825 15.7924 16.5842 15.8391 16.3829 15.8412C16.3518 15.8399 16.32 15.8328 16.2839 15.8322C16.0514 15.7941 15.8328 15.6963 15.6494 15.5484C15.466 15.4005 15.3242 15.2076 15.2377 14.9884C15.1515 14.7904 15.1054 14.5772 15.102 14.3612C15.1025 14.1123 15.0672 13.8646 14.9972 13.6257C14.9399 13.4174 14.9246 13.1998 14.9522 12.9856C14.974 12.751 15.0563 12.5261 15.1911 12.3328C15.3258 12.1396 15.5084 11.9846 15.7209 11.883C15.7524 11.8681 15.7851 11.8557 15.8186 11.846C16.0117 11.7913 16.2146 11.7804 16.4125 11.814C16.6104 11.8476 16.7983 11.9249 16.9626 12.0402C17.1269 12.1556 17.2633 12.3062 17.3621 12.481C17.4608 12.6557 17.5193 12.8503 17.5334 13.0506C17.5435 13.1206 17.5484 13.1913 17.5481 13.2621C17.5526 13.5106 17.5879 13.7577 17.6529 13.9976Z" fill="#A56021"/>
<path d="M17.1841 14.0646C17.2038 14.1306 17.2185 14.1979 17.2283 14.2661C17.2878 14.5857 17.2364 14.916 17.0827 15.2024C16.929 15.4889 16.6821 15.7143 16.3829 15.8414C16.3518 15.84 16.32 15.833 16.2839 15.8324C16.0514 15.7942 15.8328 15.6964 15.6494 15.5485C15.4661 15.4006 15.3242 15.2077 15.2377 14.9886C15.1515 14.7905 15.1054 14.5773 15.102 14.3614C15.1025 14.1124 15.0672 13.8647 14.9972 13.6259C14.9399 13.4176 14.9246 13.2 14.9522 12.9857C14.974 12.7511 15.0563 12.5262 15.1911 12.333C15.3258 12.1397 15.5084 11.9847 15.7209 11.8832C15.7524 11.8683 15.7851 11.8559 15.8186 11.8462C16.1393 11.8863 16.437 12.0338 16.6632 12.2647C16.8894 12.4955 17.0309 12.7961 17.0645 13.1176C17.0747 13.1876 17.0796 13.2583 17.0792 13.3291C17.0838 13.5776 17.119 13.8246 17.1841 14.0646Z" fill="#BF6C0D"/>
<g opacity="0.5">
<path d="M14.1987 5.50643C14.1646 5.51122 14.13 5.50347 14.1013 5.48461C14.0726 5.46575 14.0518 5.43708 14.0427 5.40396C13.9565 5.19462 13.9167 4.96912 13.926 4.74294C13.9353 4.51676 13.9934 4.29527 14.0964 4.09368C14.1479 4.02234 14.2131 3.96197 14.2881 3.91609C14.3632 3.8702 14.4467 3.83973 14.5337 3.82644C14.5711 3.82413 14.6079 3.83675 14.6361 3.86153C14.6642 3.88632 14.6814 3.92125 14.6839 3.95868C14.6844 3.99508 14.6715 4.03039 14.6478 4.05797C14.624 4.08555 14.591 4.1035 14.5549 4.10844C14.5072 4.11581 14.4617 4.13344 14.4215 4.16013C14.3813 4.18681 14.3473 4.22191 14.322 4.263C14.2242 4.40497 14.1435 4.70596 14.3148 5.32954C14.3197 5.34741 14.3211 5.36608 14.3187 5.38447C14.3164 5.40286 14.3105 5.42062 14.3013 5.43672C14.2921 5.45282 14.2799 5.46695 14.2652 5.47829C14.2506 5.48964 14.2338 5.49798 14.2159 5.50284L14.1987 5.50643Z" fill="white"/>
</g>
<g opacity="0.5">
<path d="M14.9309 9.7183C14.8969 9.72309 14.8623 9.71533 14.8336 9.69647C14.8048 9.67762 14.784 9.64896 14.7749 9.61584C14.6887 9.4065 14.6489 9.181 14.6582 8.95482C14.6674 8.72865 14.7255 8.50715 14.8285 8.30556C14.88 8.23422 14.9452 8.17385 15.0203 8.12798C15.0954 8.0821 15.1789 8.05163 15.2658 8.03836C15.3033 8.03604 15.3401 8.04866 15.3683 8.07345C15.3964 8.09823 15.4136 8.13316 15.4161 8.1706C15.4165 8.20699 15.4037 8.2423 15.3799 8.26989C15.3562 8.29747 15.3232 8.31542 15.2871 8.32036C15.2394 8.32772 15.1939 8.34536 15.1537 8.37204C15.1134 8.39873 15.0795 8.43383 15.0542 8.47492C14.9564 8.61689 14.8757 8.91787 15.047 9.54145C15.0519 9.55932 15.0532 9.57799 15.0509 9.59638C15.0486 9.61477 15.0427 9.63253 15.0335 9.64863C15.0243 9.66473 15.012 9.67886 14.9974 9.6902C14.9827 9.70155 14.966 9.70989 14.9481 9.71476L14.9309 9.7183Z" fill="white"/>
</g>
<g opacity="0.5">
<path d="M15.6629 13.9302C15.6289 13.935 15.5943 13.9273 15.5656 13.9084C15.5369 13.8896 15.516 13.8609 15.5069 13.8278C15.4208 13.6184 15.381 13.3929 15.3902 13.1667C15.3995 12.9406 15.4576 12.7191 15.5606 12.5175C15.6121 12.4461 15.6773 12.3858 15.7524 12.3399C15.8275 12.294 15.911 12.2635 15.9979 12.2503C16.0354 12.248 16.0722 12.2606 16.1004 12.2854C16.1285 12.3101 16.1457 12.3451 16.1482 12.3825C16.1486 12.4189 16.1358 12.4542 16.112 12.4818C16.0883 12.5094 16.0553 12.5273 16.0192 12.5323C15.9715 12.5396 15.926 12.5573 15.8858 12.584C15.8455 12.6106 15.8116 12.6457 15.7863 12.6868C15.6885 12.8288 15.6078 13.1298 15.7791 13.7534C15.784 13.7712 15.7853 13.7899 15.783 13.8083C15.7807 13.8267 15.7748 13.8444 15.7656 13.8605C15.7564 13.8766 15.7442 13.8908 15.7295 13.9021C15.7148 13.9135 15.6981 13.9218 15.6802 13.9267L15.6629 13.9302Z" fill="white"/>
</g>
<path d="M13.1501 5.19824C13.1943 5.19824 13.2366 5.21577 13.2678 5.24697C13.299 5.27818 13.3165 5.3205 13.3165 5.36462V21.8041C13.3165 21.8482 13.299 21.8905 13.2678 21.9217C13.2366 21.9529 13.1943 21.9705 13.1501 21.9705C13.106 21.9705 13.0637 21.9529 13.0325 21.9217C13.0013 21.8905 12.9838 21.8482 12.9838 21.8041V5.36462C12.9838 5.3205 13.0013 5.27818 13.0325 5.24698C13.0637 5.21578 13.106 5.19825 13.1501 5.19824Z" fill="#8C4C17"/>
<path d="M14.5078 6.55239C14.5179 6.6205 14.523 6.68927 14.523 6.75813C14.5369 6.95894 14.506 7.16032 14.4325 7.34771C14.359 7.53511 14.2448 7.70382 14.0981 7.84165C13.9514 7.97948 13.7759 8.08299 13.5843 8.14467C13.3927 8.20636 13.1898 8.22468 12.9903 8.19832C12.9597 8.19261 12.9292 8.18116 12.8935 8.17545C12.6687 8.10491 12.4661 7.97726 12.3055 7.80496C12.1448 7.63267 12.0316 7.42163 11.9769 7.19248C11.9195 6.98424 11.9039 6.76669 11.9311 6.55239C11.9667 6.30603 11.9667 6.05581 11.9311 5.80945C11.9037 5.59516 11.9193 5.37757 11.9769 5.16937C12.0316 4.94022 12.1448 4.72918 12.3055 4.55688C12.4661 4.38458 12.6687 4.25691 12.8935 4.18636C12.9268 4.17605 12.9609 4.16843 12.9954 4.16356C13.1943 4.13664 13.3967 4.15442 13.5879 4.21561C13.7791 4.27679 13.9542 4.37984 14.1006 4.51725C14.2469 4.65466 14.3608 4.82298 14.4339 5.00994C14.5069 5.19691 14.5374 5.39781 14.523 5.59804C14.5232 5.66881 14.5181 5.73949 14.5078 5.80949C14.4772 6.05618 14.4772 6.3057 14.5078 6.55239Z" fill="#A56021"/>
<path d="M14.0342 6.5524C14.0443 6.62051 14.0494 6.68928 14.0495 6.75814C14.0633 7.08293 13.9658 7.4027 13.7732 7.66457C13.5806 7.92645 13.3044 8.11475 12.9903 8.19833C12.9597 8.19262 12.9292 8.18117 12.8935 8.17546C12.6687 8.10492 12.4661 7.97727 12.3055 7.80497C12.1448 7.63268 12.0316 7.42164 11.9769 7.19249C11.9195 6.98426 11.9039 6.7667 11.9311 6.5524C11.9667 6.30604 11.9667 6.05582 11.9311 5.80946C11.9037 5.59517 11.9193 5.37758 11.9769 5.16938C12.0316 4.94023 12.1448 4.72919 12.3055 4.55689C12.4661 4.38459 12.6687 4.25693 12.8935 4.18637C12.9268 4.17607 12.9609 4.16844 12.9954 4.16357C13.3359 4.26963 13.6276 4.49356 13.8179 4.7952C14.0083 5.09684 14.085 5.45645 14.0342 5.80951C14.0036 6.0562 14.0036 6.30571 14.0342 6.5524Z" fill="#BF6C0D"/>
<path d="M14.5078 10.8019C14.5179 10.87 14.523 10.9388 14.5231 11.0076C14.5369 11.2085 14.506 11.4098 14.4325 11.5972C14.3591 11.7846 14.2448 11.9533 14.0981 12.0912C13.9514 12.229 13.7759 12.3325 13.5843 12.3942C13.3927 12.4559 13.1898 12.4742 12.9903 12.4478C12.9597 12.4421 12.9292 12.4307 12.8935 12.425C12.6687 12.3544 12.4661 12.2268 12.3055 12.0545C12.1448 11.8822 12.0316 11.6711 11.9769 11.442C11.9195 11.2338 11.9039 11.0162 11.9311 10.8019C11.9667 10.5555 11.9667 10.3053 11.9311 10.059C11.9037 9.84467 11.9193 9.62708 11.9769 9.41888C12.0316 9.18973 12.1448 8.97869 12.3055 8.80639C12.4661 8.63409 12.6687 8.50642 12.8935 8.43587C12.9268 8.42557 12.9609 8.41794 12.9954 8.41307C13.1943 8.38615 13.3967 8.40393 13.5879 8.46512C13.7791 8.5263 13.9542 8.62935 14.1006 8.76676C14.2469 8.90417 14.3608 9.07249 14.4339 9.25945C14.5069 9.44642 14.5374 9.64733 14.5231 9.84755C14.5232 9.91832 14.5181 9.989 14.5078 10.059C14.4772 10.3057 14.4772 10.5552 14.5078 10.8019Z" fill="#A56021"/>
<path d="M14.0342 10.8019C14.0443 10.87 14.0494 10.9388 14.0495 11.0077C14.0633 11.3324 13.9658 11.6522 13.7732 11.9141C13.5806 12.176 13.3044 12.3643 12.9903 12.4479C12.9597 12.4421 12.9292 12.4307 12.8935 12.425C12.6687 12.3544 12.4661 12.2268 12.3055 12.0545C12.1448 11.8822 12.0316 11.6712 11.9769 11.442C11.9195 11.2338 11.9039 11.0162 11.9311 10.8019C11.9667 10.5556 11.9667 10.3053 11.9311 10.059C11.9037 9.84468 11.9193 9.62709 11.9769 9.41889C12.0316 9.18974 12.1448 8.9787 12.3055 8.8064C12.4661 8.6341 12.6687 8.50644 12.8935 8.43589C12.9268 8.42558 12.9609 8.41795 12.9954 8.41309C13.3359 8.51914 13.6276 8.74308 13.8179 9.04472C14.0083 9.34636 14.085 9.70596 14.0342 10.059C14.0036 10.3057 14.0036 10.5552 14.0342 10.8019Z" fill="#BF6C0D"/>
<path d="M14.5078 15.0509C14.5179 15.119 14.523 15.1878 14.5231 15.2567C14.5369 15.4575 14.506 15.6588 14.4325 15.8462C14.3591 16.0336 14.2448 16.2023 14.0981 16.3402C13.9514 16.478 13.7759 16.5815 13.5843 16.6432C13.3927 16.7049 13.1898 16.7232 12.9903 16.6969C12.9597 16.6911 12.9292 16.6797 12.8935 16.674C12.6687 16.6034 12.4661 16.4758 12.3055 16.3035C12.1448 16.1312 12.0316 15.9202 11.9769 15.691C11.9195 15.4828 11.9039 15.2652 11.9311 15.0509C11.9667 14.8046 11.9667 14.5543 11.9311 14.308C11.9037 14.0937 11.9193 13.8761 11.9769 13.6679C12.0316 13.4387 12.1448 13.2277 12.3055 13.0554C12.4661 12.8831 12.6687 12.7554 12.8935 12.6849C12.9268 12.6746 12.9609 12.667 12.9954 12.6621C13.1943 12.6352 13.3967 12.653 13.5879 12.7141C13.7791 12.7753 13.9542 12.8784 14.1006 13.0158C14.2469 13.1532 14.3608 13.3215 14.4339 13.5085C14.5069 13.6954 14.5374 13.8963 14.5231 14.0966C14.5232 14.1673 14.5181 14.238 14.5078 14.308C14.4772 14.5547 14.4772 14.8042 14.5078 15.0509Z" fill="#A56021"/>
<path d="M14.0342 15.0509C14.0443 15.119 14.0495 15.1878 14.0495 15.2567C14.0633 15.5814 13.9658 15.9012 13.7732 16.1631C13.5806 16.425 13.3044 16.6133 12.9903 16.6969C12.9597 16.6911 12.9292 16.6797 12.8935 16.674C12.6687 16.6034 12.4661 16.4758 12.3055 16.3035C12.1448 16.1312 12.0316 15.9202 11.9769 15.691C11.9195 15.4828 11.9039 15.2652 11.9311 15.0509C11.9667 14.8046 11.9667 14.5544 11.9311 14.308C11.9037 14.0937 11.9193 13.8761 11.9769 13.6679C12.0316 13.4388 12.1448 13.2277 12.3055 13.0554C12.4661 12.8831 12.6687 12.7555 12.8935 12.6849C12.9268 12.6746 12.9609 12.667 12.9954 12.6621C13.3359 12.7682 13.6276 12.9921 13.8179 13.2937C14.0083 13.5954 14.085 13.955 14.0342 14.308C14.0036 14.5547 14.0036 14.8042 14.0342 15.0509Z" fill="#BF6C0D"/>
<g opacity="0.5">
<path d="M12.2863 6.15689C12.2519 6.15683 12.2188 6.14428 12.193 6.12156C12.1673 6.09884 12.1506 6.06752 12.1463 6.03344C12.0906 5.81403 12.083 5.58516 12.1241 5.36255C12.1652 5.13993 12.254 4.92886 12.3844 4.74382C12.4455 4.68046 12.5185 4.6299 12.5993 4.59508C12.6801 4.56026 12.7671 4.54188 12.8551 4.54102C12.8925 4.54401 12.9271 4.5617 12.9515 4.59021C12.9759 4.61872 12.988 4.65572 12.9851 4.69313C12.9805 4.72923 12.9628 4.76237 12.9354 4.78633C12.9079 4.81029 12.8727 4.8234 12.8363 4.8232C12.7881 4.82376 12.7405 4.83479 12.6969 4.85553C12.6533 4.87628 12.6148 4.90623 12.5839 4.94334C12.4671 5.0701 12.3447 5.35668 12.4263 5.99814C12.4286 6.01653 12.4273 6.0352 12.4224 6.05309C12.4176 6.07097 12.4092 6.08772 12.3978 6.10236C12.3864 6.11701 12.3723 6.12926 12.3562 6.13842C12.3401 6.14759 12.3223 6.15348 12.3039 6.15576C12.2981 6.15666 12.2922 6.15704 12.2863 6.15689Z" fill="white"/>
</g>
<g opacity="0.5">
<path d="M12.4168 10.4303C12.3824 10.4303 12.3493 10.4177 12.3235 10.395C12.2978 10.3723 12.2811 10.341 12.2768 10.3069C12.2211 10.0875 12.2135 9.8586 12.2546 9.63599C12.2957 9.41337 12.3845 9.2023 12.5149 9.01725C12.5759 8.9539 12.649 8.90334 12.7298 8.86852C12.8106 8.8337 12.8976 8.81532 12.9855 8.81445C13.0229 8.81745 13.0576 8.83513 13.082 8.86364C13.1064 8.89215 13.1185 8.92916 13.1156 8.96656C13.1109 9.00266 13.0932 9.03581 13.0658 9.05977C13.0384 9.08372 13.0032 9.09683 12.9668 9.09663C12.9185 9.0972 12.871 9.10823 12.8274 9.12897C12.7838 9.14972 12.7453 9.17968 12.7144 9.21678C12.5976 9.34353 12.4752 9.63012 12.5568 10.2716C12.5591 10.29 12.5578 10.3086 12.5529 10.3265C12.548 10.3444 12.5397 10.3612 12.5283 10.3758C12.5169 10.3904 12.5028 10.4027 12.4867 10.4119C12.4705 10.421 12.4528 10.4269 12.4344 10.4292C12.4286 10.4301 12.4227 10.4305 12.4168 10.4303Z" fill="white"/>
</g>
<g opacity="0.5">
<path d="M12.5471 14.7033C12.5128 14.7032 12.4796 14.6907 12.4539 14.6679C12.4281 14.6452 12.4115 14.6139 12.4072 14.5798C12.3514 14.3604 12.3439 14.1316 12.3849 13.9089C12.426 13.6863 12.5148 13.4752 12.6452 13.2902C12.7063 13.2268 12.7794 13.1763 12.8602 13.1415C12.941 13.1066 13.0279 13.0883 13.1159 13.0874C13.1533 13.0904 13.188 13.1081 13.2124 13.1366C13.2367 13.1651 13.2488 13.2021 13.246 13.2395C13.2413 13.2756 13.2236 13.3088 13.1962 13.3327C13.1688 13.3567 13.1336 13.3698 13.0972 13.3696C13.0489 13.3701 13.0013 13.3812 12.9578 13.4019C12.9142 13.4227 12.8756 13.4526 12.8447 13.4897C12.7279 13.6165 12.6056 13.9031 12.6871 14.5445C12.6895 14.5629 12.6882 14.5816 12.6833 14.5995C12.6784 14.6173 12.67 14.6341 12.6587 14.6487C12.6473 14.6634 12.6332 14.6756 12.6171 14.6848C12.6009 14.694 12.5832 14.6999 12.5648 14.7021C12.559 14.7031 12.5531 14.7034 12.5471 14.7033Z" fill="white"/>
</g>
<path d="M3.48152 6.47805C4.07159 5.46205 4.95678 4.6496 6.01952 4.14858C7.02526 3.68097 8.05716 3.2718 9.11006 2.92311C10.0643 2.46855 11.0714 2.13479 12.1082 1.92957C13.1322 1.83634 14.1616 2.03613 15.0763 2.50562C15.9911 2.97511 16.7535 3.69497 17.2747 4.58125C17.5416 5.31365 17.572 6.11133 17.3616 6.8619C17.0226 7.45936 16.7318 8.08287 16.4918 8.7265C16.3972 9.27889 16.5285 9.89277 16.251 10.3422C15.7002 11.2238 14.8487 10.278 14.2611 10.6171C14.0346 10.7444 13.7077 11.3843 13.4485 11.5756C13.1079 11.8876 12.6957 12.111 12.2483 12.226C10.9501 12.4445 9.80566 11.0731 8.49646 11.023C7.34381 10.9909 6.33178 11.9731 5.17416 12.1471C5.0552 12.1729 4.93193 12.1712 4.81371 12.1422C4.6955 12.1133 4.58543 12.0577 4.49187 11.9799C4.23244 11.7363 4.21746 11.2962 4.02916 10.9644C3.73367 10.4244 3.11307 10.3926 2.604 10.1169C2.60847 9.92072 2.62679 9.72508 2.65883 9.53146C2.75751 8.47429 3.03573 7.44169 3.48152 6.47805Z" fill="#FFB366"/>
<path d="M17.3344 6.8557C16.9938 7.45267 16.7031 8.0768 16.4653 8.7217C16.3637 9.27759 16.4991 9.8863 16.2169 10.3363C15.7655 11.0774 15.0995 10.548 14.5578 10.5348C14.6269 10.4806 14.6844 10.4131 14.7271 10.3363C15.0093 9.88628 14.8738 9.27759 14.9754 8.7217C15.2131 8.0768 15.5038 7.45267 15.8445 6.8557C16.057 6.1066 16.0254 5.3093 15.7542 4.57938C15.3341 3.89663 14.7755 3.30952 14.1145 2.85592C13.4535 2.40231 12.7048 2.09228 11.9166 1.94582C11.9731 1.93262 12.0182 1.93262 12.0747 1.91942C13.0996 1.82919 14.1291 2.03114 15.044 2.5019C15.9589 2.97266 16.7217 3.69296 17.2441 4.57938C17.5152 5.3093 17.5469 6.10659 17.3344 6.8557Z" fill="#ED9C54"/>
<path d="M10.2348 7.20341L10.2135 7.25118L10.2074 7.26485L10.1435 7.40814L10.1374 7.4218C10.1193 7.44815 10.0926 7.46734 10.0618 7.47604C10.031 7.48474 9.99819 7.4824 9.96897 7.46943L9.53902 7.27776C9.50983 7.26468 9.48614 7.24181 9.47204 7.2131C9.45795 7.18439 9.45433 7.15166 9.46182 7.12056L9.46792 7.10689L9.5318 6.96361L9.53788 6.94995L9.55918 6.90217C9.56631 6.886 9.57658 6.87139 9.58939 6.8592C9.60219 6.84701 9.61729 6.83747 9.6338 6.83114C9.65031 6.82481 9.66791 6.82182 9.68558 6.82232C9.70326 6.82283 9.72066 6.82682 9.73678 6.83409L10.1667 7.02575C10.1829 7.03288 10.1975 7.04315 10.2097 7.05596C10.2219 7.06877 10.2315 7.08387 10.2378 7.10039C10.2441 7.11691 10.2471 7.13452 10.2466 7.1522C10.2461 7.16988 10.2421 7.18729 10.2348 7.20341Z" fill="#B10000"/>
<path d="M10.2349 7.20335L10.2136 7.25112L10.2075 7.26479C10.1894 7.29114 10.1626 7.31031 10.1319 7.319C10.1011 7.32769 10.0682 7.32535 10.039 7.31237L9.60908 7.12071C9.57991 7.10764 9.55623 7.08478 9.54213 7.05609C9.52803 7.02741 9.5244 6.99469 9.53187 6.96362L9.53795 6.94995L9.55925 6.90218C9.56639 6.886 9.57666 6.87139 9.58946 6.8592C9.60227 6.84701 9.61736 6.83747 9.63387 6.83114C9.65038 6.82481 9.66798 6.82182 9.68566 6.82232C9.70333 6.82283 9.72073 6.82682 9.73685 6.83409L10.1668 7.02575C10.183 7.03288 10.1976 7.04315 10.2098 7.05595C10.222 7.06876 10.2315 7.08386 10.2378 7.10037C10.2442 7.11688 10.2472 7.13448 10.2467 7.15216C10.2462 7.16983 10.2421 7.18723 10.2349 7.20335Z" fill="#F50C15"/>
<path d="M5.03573 6.18132L5.0407 6.23339L5.04213 6.24828L5.05705 6.40446L5.05846 6.41934C5.05567 6.4512 5.04182 6.48107 5.01932 6.50379C4.99681 6.5265 4.96707 6.54063 4.93524 6.54372L4.46664 6.58848C4.43481 6.59146 4.40294 6.58322 4.37654 6.56517C4.35015 6.54713 4.33089 6.52043 4.32211 6.48969L4.32068 6.4748L4.30576 6.31863L4.30433 6.30374L4.29937 6.25167C4.29761 6.23407 4.29936 6.2163 4.30451 6.19939C4.30966 6.18247 4.3181 6.16674 4.32936 6.15311C4.34062 6.13947 4.35446 6.1282 4.3701 6.11994C4.38573 6.11168 4.40285 6.1066 4.42046 6.10499L4.88906 6.06023C4.90665 6.05848 4.92442 6.06022 4.94134 6.06537C4.95826 6.07052 4.97399 6.07896 4.98762 6.09022C5.00126 6.10148 5.01253 6.11532 5.02079 6.13096C5.02905 6.1466 5.03412 6.16371 5.03573 6.18132Z" fill="#B10000"/>
<path d="M5.03573 6.18132L5.0407 6.23339L5.04213 6.24828C5.03932 6.28013 5.02547 6.30999 5.00296 6.3327C4.98046 6.3554 4.95072 6.36952 4.9189 6.37262L4.4503 6.41739C4.41847 6.42036 4.38661 6.41212 4.36021 6.39409C4.33382 6.37605 4.31456 6.34936 4.30576 6.31863L4.30433 6.30374L4.29937 6.25167C4.29761 6.23407 4.29936 6.2163 4.30451 6.19939C4.30966 6.18247 4.3181 6.16674 4.32936 6.15311C4.34062 6.13947 4.35446 6.1282 4.3701 6.11994C4.38573 6.11168 4.40285 6.1066 4.42046 6.10499L4.88906 6.06023C4.90665 6.05848 4.92442 6.06022 4.94134 6.06537C4.95826 6.07052 4.97399 6.07896 4.98762 6.09022C5.00126 6.10148 5.01253 6.11532 5.02079 6.13096C5.02905 6.1466 5.03412 6.16371 5.03573 6.18132Z" fill="#F50C15"/>
<path d="M13.1697 11.3005L13.1747 11.3525L13.1761 11.3674L13.191 11.5236L13.1924 11.5385C13.1896 11.5704 13.1758 11.6002 13.1533 11.6229C13.1308 11.6457 13.101 11.6598 13.0692 11.6629L12.6006 11.7076C12.5688 11.7106 12.5369 11.7024 12.5105 11.6843C12.4841 11.6663 12.4649 11.6396 12.4561 11.6088L12.4546 11.5939L12.4397 11.4378L12.4383 11.4229L12.4333 11.3708C12.4315 11.3532 12.4333 11.3355 12.4384 11.3185C12.4436 11.3016 12.452 11.2859 12.4633 11.2723C12.4745 11.2586 12.4884 11.2473 12.504 11.2391C12.5196 11.2308 12.5368 11.2257 12.5544 11.2241L13.023 11.1794C13.0406 11.1776 13.0584 11.1794 13.0753 11.1845C13.0922 11.1896 13.1079 11.1981 13.1216 11.2093C13.1352 11.2206 13.1465 11.2345 13.1547 11.2501C13.163 11.2657 13.1681 11.2829 13.1697 11.3005Z" fill="#B10000"/>
<path d="M13.1696 11.3005L13.1746 11.3525L13.176 11.3674C13.1732 11.3993 13.1594 11.4291 13.1369 11.4518C13.1144 11.4746 13.0846 11.4887 13.0528 11.4918L12.5842 11.5365C12.5524 11.5395 12.5205 11.5313 12.4941 11.5132C12.4677 11.4952 12.4485 11.4685 12.4397 11.4378L12.4383 11.4229L12.4333 11.3708C12.4315 11.3532 12.4333 11.3354 12.4384 11.3185C12.4436 11.3016 12.452 11.2859 12.4633 11.2722C12.4745 11.2586 12.4884 11.2473 12.504 11.2391C12.5196 11.2308 12.5368 11.2257 12.5544 11.2241L13.023 11.1794C13.0406 11.1776 13.0583 11.1794 13.0753 11.1845C13.0922 11.1897 13.1079 11.1981 13.1215 11.2094C13.1352 11.2206 13.1464 11.2345 13.1547 11.2501C13.163 11.2657 13.168 11.2829 13.1696 11.3005Z" fill="#F50C15"/>
<path d="M15.8782 4.70589L15.8607 4.7552L15.8557 4.7693L15.8033 4.91717L15.7983 4.93127C15.7824 4.95897 15.7572 4.98022 15.7272 4.99131C15.6972 5.00241 15.6643 5.00267 15.6341 4.99204L15.1904 4.83484C15.1603 4.82411 15.1349 4.80318 15.1186 4.77568C15.1022 4.74819 15.0961 4.71585 15.1011 4.68428L15.106 4.67018L15.1584 4.52229L15.1634 4.50819L15.1809 4.45888C15.1867 4.44219 15.1958 4.42682 15.2076 4.41366C15.2194 4.40049 15.2337 4.3898 15.2497 4.38219C15.2656 4.37458 15.2829 4.3702 15.3006 4.36931C15.3182 4.36842 15.3359 4.37104 15.3526 4.37701L15.7963 4.5342C15.813 4.54004 15.8283 4.54912 15.8415 4.56092C15.8547 4.57273 15.8654 4.58702 15.873 4.60299C15.8806 4.61895 15.885 4.63626 15.8859 4.65392C15.8867 4.67158 15.8841 4.68925 15.8782 4.70589Z" fill="#B10000"/>
<path d="M15.8783 4.70589L15.8608 4.7552L15.8558 4.7693C15.8398 4.79699 15.8147 4.81821 15.7847 4.8293C15.7547 4.84039 15.7218 4.84064 15.6916 4.83002L15.2479 4.67282C15.2178 4.66208 15.1924 4.64116 15.1761 4.61367C15.1598 4.58619 15.1536 4.55386 15.1585 4.52229L15.1635 4.50819L15.181 4.45888C15.1868 4.44219 15.1959 4.42682 15.2077 4.41366C15.2195 4.40049 15.2338 4.3898 15.2498 4.38219C15.2657 4.37458 15.2831 4.3702 15.3007 4.36931C15.3184 4.36842 15.336 4.37104 15.3527 4.37701L15.7964 4.5342C15.8131 4.54004 15.8285 4.54912 15.8416 4.56092C15.8548 4.57273 15.8655 4.58702 15.8731 4.60299C15.8807 4.61895 15.8851 4.63626 15.886 4.65392C15.8869 4.67158 15.8843 4.68925 15.8783 4.70589Z" fill="#F50C15"/>
<path d="M7.94046 9.41961L7.96566 9.47841L7.97286 9.49521L8.04846 9.67143L8.05566 9.68823C8.06429 9.72635 8.0593 9.76628 8.04158 9.80111C8.02386 9.83594 7.99451 9.86348 7.95862 9.87894L7.42987 10.1057C7.39393 10.1211 7.35376 10.1234 7.3163 10.1122C7.27885 10.101 7.24648 10.0771 7.22479 10.0446L7.21759 10.0278L7.14199 9.85163L7.13479 9.83483L7.10959 9.77603C7.10099 9.75621 7.0964 9.73487 7.09609 9.71327C7.09577 9.69166 7.09974 9.6702 7.10776 9.65013C7.11578 9.63006 7.12769 9.61178 7.14281 9.59634C7.15793 9.5809 7.17595 9.5686 7.19585 9.56016L7.72459 9.33336C7.74442 9.32476 7.76575 9.32016 7.78736 9.31984C7.80897 9.31952 7.83043 9.32349 7.8505 9.33151C7.87057 9.33952 7.88885 9.35144 7.90429 9.36656C7.91973 9.38168 7.93203 9.39971 7.94046 9.41961Z" fill="#79A03C"/>
<path d="M7.94046 9.41961L7.96566 9.47841L7.97286 9.49521C7.98147 9.53332 7.97648 9.57325 7.95875 9.60807C7.94102 9.64289 7.91168 9.67041 7.87579 9.68588L7.34705 9.91268C7.31111 9.92801 7.27095 9.9303 7.23351 9.91915C7.19606 9.908 7.16369 9.88412 7.14199 9.85163L7.13479 9.83483L7.10959 9.77603C7.10099 9.75621 7.0964 9.73487 7.09609 9.71327C7.09577 9.69166 7.09974 9.6702 7.10776 9.65013C7.11578 9.63006 7.12769 9.61178 7.14281 9.59634C7.15793 9.5809 7.17595 9.5686 7.19585 9.56016L7.72459 9.33336C7.74442 9.32476 7.76575 9.32016 7.78736 9.31984C7.80897 9.31952 7.83043 9.32349 7.8505 9.33151C7.87057 9.33952 7.88885 9.35144 7.90429 9.36656C7.91973 9.38168 7.93202 9.39971 7.94046 9.41961Z" fill="#88B649"/>
<path d="M11.5677 4.40854V4.70078C11.5606 4.73921 11.5403 4.77395 11.5103 4.79898C11.4802 4.824 11.4424 4.83774 11.4033 4.83779H10.828C10.7889 4.83772 10.7511 4.82398 10.721 4.79896C10.691 4.77394 10.6707 4.73921 10.6636 4.70078V4.40854C10.6635 4.38693 10.6677 4.36551 10.6759 4.34552C10.6841 4.32553 10.6962 4.30737 10.7115 4.29209C10.7268 4.2768 10.745 4.2647 10.765 4.25647C10.7849 4.24824 10.8064 4.24405 10.828 4.24414H11.4033C11.4249 4.24405 11.4464 4.24823 11.4663 4.25646C11.4863 4.26469 11.5045 4.2768 11.5198 4.29208C11.5351 4.30737 11.5472 4.32553 11.5554 4.34552C11.5636 4.36551 11.5678 4.38693 11.5677 4.40854Z" fill="#79A03C"/>
<path d="M11.5677 4.40854V4.49075C11.5606 4.52918 11.5403 4.5639 11.5102 4.58892C11.4802 4.61393 11.4424 4.62765 11.4033 4.62771H10.828C10.7889 4.62764 10.7511 4.61391 10.7211 4.5889C10.691 4.56389 10.6707 4.52917 10.6636 4.49075V4.40854C10.6635 4.38693 10.6677 4.36551 10.6759 4.34552C10.6841 4.32553 10.6962 4.30737 10.7115 4.29209C10.7268 4.2768 10.745 4.2647 10.765 4.25647C10.7849 4.24824 10.8064 4.24405 10.828 4.24414H11.4033C11.4249 4.24405 11.4464 4.24823 11.4663 4.25646C11.4863 4.26469 11.5045 4.2768 11.5198 4.29208C11.5351 4.30737 11.5472 4.32553 11.5554 4.34552C11.5636 4.36551 11.5678 4.38693 11.5677 4.40854Z" fill="#88B649"/>
<path d="M15.3448 9.10337V9.3956C15.3377 9.43404 15.3174 9.46878 15.2874 9.4938C15.2573 9.51883 15.2195 9.53256 15.1804 9.53262H14.6051C14.566 9.53254 14.5282 9.5188 14.4981 9.49378C14.4681 9.46876 14.4478 9.43403 14.4407 9.3956V9.10337C14.4406 9.08175 14.4448 9.06033 14.453 9.04034C14.4612 9.02036 14.4733 9.0022 14.4886 8.98691C14.5039 8.97163 14.5221 8.95952 14.5421 8.95129C14.562 8.94306 14.5835 8.93887 14.6051 8.93897H15.1804C15.202 8.93887 15.2235 8.94306 15.2434 8.95129C15.2634 8.95951 15.2816 8.97162 15.2969 8.98691C15.3122 9.00219 15.3243 9.02035 15.3325 9.04034C15.3407 9.06033 15.3449 9.08175 15.3448 9.10337Z" fill="#79A03C"/>
<path d="M15.3448 9.10337V9.18558C15.3377 9.224 15.3174 9.25873 15.2873 9.28374C15.2573 9.30875 15.2195 9.32248 15.1804 9.32254H14.6051C14.566 9.32246 14.5282 9.30873 14.4982 9.28372C14.4681 9.25871 14.4478 9.224 14.4407 9.18558V9.10337C14.4406 9.08175 14.4448 9.06033 14.453 9.04034C14.4612 9.02036 14.4733 9.0022 14.4886 8.98691C14.5039 8.97163 14.5221 8.95952 14.5421 8.95129C14.562 8.94306 14.5835 8.93887 14.6051 8.93897H15.1804C15.202 8.93887 15.2235 8.94306 15.2434 8.95129C15.2634 8.95951 15.2816 8.97162 15.2969 8.98691C15.3122 9.00219 15.3243 9.02035 15.3325 9.04034C15.3407 9.06033 15.3449 9.08175 15.3448 9.10337Z" fill="#88B649"/>
<path d="M13.5612 7.39629C13.6964 7.39629 13.806 7.2867 13.806 7.15151C13.806 7.01633 13.6964 6.90674 13.5612 6.90674C13.426 6.90674 13.3164 7.01633 13.3164 7.15151C13.3164 7.2867 13.426 7.39629 13.5612 7.39629Z" fill="#ED9C54"/>
<path d="M5.67141 9.31328C5.8066 9.31328 5.91619 9.20369 5.91619 9.06851C5.91619 8.93332 5.8066 8.82373 5.67141 8.82373C5.53622 8.82373 5.42664 8.93332 5.42664 9.06851C5.42664 9.20369 5.53622 9.31328 5.67141 9.31328Z" fill="#ED9C54"/>
<path d="M6.99477 5.59404C7.12996 5.59404 7.23955 5.48445 7.23955 5.34927C7.23955 5.21408 7.12996 5.10449 6.99477 5.10449C6.85959 5.10449 6.75 5.21408 6.75 5.34927C6.75 5.48445 6.85959 5.59404 6.99477 5.59404Z" fill="#ED9C54"/>
</svg>
