<svg width="31" height="25" viewBox="0 0 31 25" fill="none" xmlns="http://www.w3.org/2000/svg">
<path d="M17.3695 12.6716L13.6388 14.1639L9.53503 17.8946M19.981 13.4711L15.5574 15.7095L12.6795 20.8259M23.3919 14.1639L18.2222 16.7754L16.3569 22.2115" stroke="#FF8173" stroke-width="1.06591" stroke-linecap="round"/>
<path d="M23.6085 20.3868C24.9901 20.3264 26.3057 19.8221 26.8801 19.522L28.6513 20.2786C28.2444 22.2927 26.4814 23.8407 25.1924 24.6545C25.0028 24.7742 24.7472 24.5113 24.8472 24.3106C24.9819 24.0405 25.1235 23.7432 25.2454 23.4817C25.3228 23.3156 25.1636 23.1264 24.9816 23.1475C23.9035 23.273 22.4756 22.8877 21.4476 22.5086C21.2365 22.4308 21.2808 22.0551 21.4989 21.9998C22.1555 21.8334 22.9852 21.5733 23.6022 21.3684C23.7723 21.3119 23.798 21.084 23.6461 20.989L23.4595 20.8723C23.2647 20.7504 23.379 20.3968 23.6085 20.3868Z" fill="#EF5948"/>
<path d="M27.975 19.9897C27.5591 21.7445 26.2152 23.1875 24.9096 24.1846C25.0249 23.9501 25.1422 23.7031 25.2454 23.4817C25.3228 23.3156 25.1636 23.1264 24.9816 23.1475C23.9035 23.273 22.4756 22.8877 21.4476 22.5086C21.2365 22.4308 21.2808 22.0551 21.4989 21.9998C22.1555 21.8334 22.9852 21.5733 23.6022 21.3684C23.7723 21.3119 23.798 21.084 23.6461 20.989L23.4595 20.8723C23.2647 20.7504 23.379 20.3968 23.6085 20.3868C24.9901 20.3264 26.3057 19.8221 26.8801 19.522L27.975 19.9897Z" fill="#FF8173"/>
<path d="M26.9553 20.7758C25.6644 19.4693 27.1809 18.1413 27.7858 17.6763L30.197 19.283C29.4445 20.3487 28.062 21.8958 26.9553 20.7758Z" fill="#FFC738"/>
<path d="M27.5582 17.8597L28.7473 19.1066C28.3158 19.7178 27.6771 20.4873 27.002 20.8213C26.9864 20.8066 26.9708 20.7914 26.9553 20.7757C25.8063 19.6129 26.8815 18.433 27.5582 17.8597Z" fill="#FFDC7E"/>
<path d="M29.3925 19.5673C27.0509 19.694 27.0667 17.1204 27.1348 16.1487L30.712 15.2059C31.0929 16.8276 31.3999 19.4587 29.3925 19.5673Z" fill="#FFC738"/>
<path d="M27.4887 18.5606C27.8082 18.7724 28.2277 18.8912 28.7768 18.8614C30.4692 18.7699 30.5166 16.8856 30.2616 15.3246L27.1348 16.1487C27.0962 16.6992 27.0744 17.764 27.4887 18.5606Z" fill="#FFDC7E"/>
<path d="M30.1255 17.0299C27.9651 18.7384 26.236 16.2588 25.6428 15.2805L28.4354 11.9517C29.8998 13.2493 31.9776 15.5652 30.1255 17.0299Z" fill="#EF5948"/>
<path d="M26.9342 16.8818C27.6592 17.2705 28.5289 17.3324 29.4826 16.5782C31.1015 15.2979 29.7178 13.3672 28.3657 12.0348L25.6428 15.2805C25.8912 15.6902 26.339 16.3633 26.9342 16.8818Z" fill="#FF8173"/>
<path d="M28.8819 14.403C27.2698 17.1569 24.3591 15.209 23.3068 14.403L24.9189 9.63391C27.0459 10.4176 30.2639 12.0419 28.8819 14.403Z" fill="#FFC738"/>
<path d="M23.6516 13.3832C24.8094 14.2395 27.535 15.9003 29.0752 13.2691C29.1218 13.1895 29.1631 13.1108 29.1995 13.0328C28.979 11.4057 26.6059 10.2554 24.919 9.63391L23.6516 13.3832Z" fill="#FFDC7E"/>
<path d="M28.234 1.00003H5.42347C2.98042 1.00003 0.999939 2.98051 0.999939 5.42356C0.999939 7.86661 2.98042 9.8471 5.42347 9.8471H12.725" stroke="#FFC738" stroke-width="1.06591" stroke-linecap="round"/>
<path d="M26.1555 11.9438C27.0082 7.89336 17.2373 6.80967 13.8442 6.98733L12.4052 12.5301C17.3617 14.2 25.1849 16.5538 26.1555 11.9438Z" fill="#EF5948"/>
<path d="M25.268 9.60196C25.3185 9.87625 25.315 10.1669 25.2502 10.4747C24.354 14.7317 17.6145 13.0506 12.6848 11.4533L13.8442 6.98733C16.4581 6.85047 22.8568 7.46215 25.268 9.60196Z" fill="#FF8173"/>
<path d="M25.1429 3.77161H8.49259C6.70931 3.77161 5.26367 5.21724 5.26367 7.00053V7.00053C5.26367 8.78381 6.70931 10.2294 8.49259 10.2294H13.8223" stroke="#FFC738" stroke-width="1.06591" stroke-linecap="round"/>
<path d="M16.2424 10.1668C16.2846 12.4862 14.349 13.2241 13.3441 13.3087C13.3219 13.3105 13.3002 13.3085 13.2785 13.3031L5.73358 11.4408C5.44489 11.3695 5.40124 10.9773 5.6672 10.8443L6.19006 10.5829C6.51637 10.4197 6.50036 9.94875 6.16372 9.80813L4.13895 8.96234C3.74734 8.79875 3.80916 8.22579 4.22665 8.1495L13.2649 6.49784C13.2954 6.49227 13.326 6.49308 13.3558 6.50137C14.329 6.77151 16.2005 7.85761 16.2424 10.1668Z" fill="#FFC738"/>
<path d="M11.2578 11.4976C12.3788 11.4064 14.5463 10.5964 14.4991 8.04303C14.4917 7.64059 14.4329 7.27194 14.3349 6.93529C13.9779 6.7193 13.631 6.57772 13.3558 6.50135C13.326 6.49306 13.2954 6.49225 13.2649 6.49782L4.22664 8.14948C3.80915 8.22578 3.74734 8.79874 4.13895 8.96232L6.16371 9.80811C6.38379 9.90004 6.46684 10.1332 6.40679 10.3292L11.1933 11.4922C11.2146 11.4974 11.2359 11.4994 11.2578 11.4976Z" fill="#FFDC7E"/>
<circle cx="12.0854" cy="7.39562" r="1.59887" fill="#777777"/>
</svg>
