<svg width="23" height="23" viewBox="0 0 23 23" fill="none" xmlns="http://www.w3.org/2000/svg">
<path d="M22.2778 11.6148C22.276 14.0186 21.4706 16.3528 19.9897 18.2463C18.5088 20.1397 16.4373 21.4837 14.1047 22.0646C11.7722 22.6454 9.31236 22.4297 7.11645 21.4519C4.92053 20.474 3.11456 18.7901 1.98571 16.6678C0.85685 14.5456 0.46991 12.1068 0.886411 9.73937C1.30291 7.37192 2.49895 5.21167 4.28433 3.60212C6.06972 1.99256 8.34197 1.0261 10.7398 0.856398C13.1376 0.686698 15.5233 1.32351 17.5176 2.66557C18.9837 3.65294 20.1846 4.98554 21.0146 6.54607C21.8447 8.1066 22.2785 9.84724 22.2778 11.6148Z" fill="#537E9B"/>
<path d="M21.9923 11.4109C21.9915 13.3671 21.4589 15.2863 20.4515 16.9631C19.4441 18.64 17.9997 20.0114 16.2729 20.9307C14.5462 21.8499 12.602 22.2824 10.6484 22.1819C8.69473 22.0814 6.80519 21.4516 5.18188 20.36C2.96693 18.6473 1.50443 16.1407 1.10334 13.3697C0.70224 10.5987 1.39395 7.78028 3.03236 5.50982C4.67076 3.23935 7.12755 1.69464 9.88376 1.20199C12.64 0.709334 15.4797 1.30732 17.8032 2.86962C19.1082 3.8781 20.1645 5.17251 20.8907 6.65325C21.6169 8.134 21.9938 9.76162 21.9923 11.4109Z" fill="#5D88AB"/>
<path d="M20.7446 11.6148C20.7443 13.4444 20.2016 15.2328 19.185 16.7539C18.1685 18.275 16.7237 19.4605 15.0334 20.1605C13.343 20.8605 11.4831 21.0436 9.68875 20.6866C7.89438 20.3297 6.24616 19.4486 4.95248 18.155C3.65881 16.8613 2.77778 15.213 2.4208 13.4187C2.06381 11.6243 2.24691 9.76439 2.94693 8.07407C3.64695 6.38376 4.83247 4.93897 6.35357 3.92239C7.87467 2.90581 9.66305 2.36309 11.4926 2.36285C12.7097 2.35529 13.9162 2.58945 15.0421 3.05173C16.168 3.51401 17.1909 4.19522 18.0516 5.05586C18.9122 5.91649 19.5934 6.93943 20.0557 8.06534C20.518 9.19126 20.7521 10.3977 20.7446 11.6148Z" fill="#964A17"/>
<path d="M20.1565 12.2748C20.1619 14.3894 19.437 16.4409 18.1045 18.0828C17.6234 18.5656 17.0924 18.996 16.5205 19.3667C16.4009 19.4497 16.2767 19.5258 16.1485 19.5947C14.3623 20.6574 12.2648 21.0727 10.2085 20.7707C8.58791 20.5447 7.05638 19.8927 5.77025 18.8812C4.48413 17.8698 3.48949 16.5351 2.88792 15.0134C2.28635 13.4918 2.0994 11.8378 2.34616 10.2203C2.59291 8.60279 3.26454 7.07975 4.29245 5.80672C5.94808 4.10706 8.19702 3.11374 10.5685 3.03472C10.6802 3.02472 10.7923 3.02072 10.9045 3.02272C12.1196 3.02233 13.3228 3.26138 14.4455 3.72621C15.5682 4.19103 16.5883 4.87252 17.4475 5.73173C18.3067 6.59094 18.9882 7.61104 19.453 8.73372C19.9178 9.85641 20.1568 11.0597 20.1565 12.2748Z" fill="#AB5A1D"/>
<path d="M3.96609 7.8966C3.92342 7.87185 3.88706 7.83755 3.85985 7.7964C3.83265 7.75524 3.81535 7.70835 3.8093 7.65939C3.80325 7.61043 3.80862 7.56073 3.82498 7.51419C3.84135 7.46765 3.86827 7.42554 3.90363 7.39114L5.22692 6.08493C5.27069 6.04121 5.32672 6.01182 5.38757 6.00067C5.44842 5.98951 5.51123 5.99712 5.56766 6.02247C5.62901 6.04721 5.68078 6.09101 5.71532 6.14742L6.7035 7.74328C6.72746 7.78087 6.74248 7.82345 6.7474 7.86775C6.75232 7.91205 6.74702 7.95689 6.73189 7.99882C6.71839 8.05322 6.68997 8.10277 6.64984 8.1419C6.60971 8.18103 6.55946 8.20819 6.50474 8.22032C5.64793 8.43556 4.74147 8.31997 3.96609 7.8966Z" fill="#964A17"/>
<path d="M4.52825 7.61826C4.48557 7.59351 4.44921 7.55921 4.422 7.51806C4.39479 7.47691 4.37749 7.43002 4.37143 7.38106C4.36538 7.3321 4.37075 7.2824 4.38711 7.23586C4.40347 7.18932 4.43039 7.1472 4.46575 7.1128L5.56752 6.0224C5.62887 6.04714 5.68064 6.09095 5.71518 6.14736L6.70336 7.74321C6.72732 7.7808 6.74234 7.82338 6.74726 7.86768C6.75218 7.91198 6.74688 7.95682 6.73175 7.99875C5.97535 8.12801 5.1975 7.9937 4.52825 7.61826Z" fill="#964A17"/>
<path d="M9.07784 16.9036V18.498C9.07636 18.5997 9.03473 18.6966 8.96205 18.7677C8.88936 18.8389 8.79151 18.8784 8.68982 18.8776H7.09536C6.99367 18.8784 6.8958 18.8389 6.82311 18.7677C6.75041 18.6966 6.70878 18.5997 6.70728 18.498V16.9036C6.70715 16.8526 6.71709 16.802 6.73655 16.7549C6.75601 16.7078 6.78459 16.6649 6.82065 16.6289C6.85672 16.5928 6.89955 16.5642 6.94669 16.5448C6.99384 16.5253 7.04436 16.5154 7.09536 16.5155H8.68977C8.74077 16.5154 8.7913 16.5253 8.83844 16.5448C8.88559 16.5642 8.92842 16.5928 8.96448 16.6289C9.00055 16.6649 9.02913 16.7078 9.04858 16.7549C9.06804 16.802 9.07798 16.8526 9.07784 16.9036Z" fill="#964A17"/>
<path d="M8.36924 16.9036V18.498C8.36946 18.5479 8.35979 18.5974 8.34078 18.6435C8.32178 18.6897 8.29383 18.7316 8.25853 18.7669C8.22324 18.8022 8.18131 18.8301 8.13515 18.8492C8.089 18.8682 8.03953 18.8778 7.98962 18.8776H7.09536C6.99366 18.8784 6.8958 18.8389 6.82311 18.7677C6.75041 18.6966 6.70878 18.5997 6.70728 18.498V16.9036C6.70715 16.8526 6.71709 16.802 6.73655 16.7549C6.75601 16.7078 6.78459 16.6649 6.82065 16.6289C6.85672 16.5928 6.89955 16.5642 6.94669 16.5448C6.99384 16.5253 7.04436 16.5154 7.09536 16.5155H7.98957C8.04013 16.5156 8.09018 16.5257 8.13677 16.5453C8.18337 16.5649 8.22559 16.5936 8.26094 16.6298C8.2963 16.6659 8.32409 16.7087 8.34269 16.7558C8.36129 16.8028 8.37031 16.853 8.36924 16.9036Z" fill="#964A17"/>
<path d="M5.31812 9.16901L5.80574 10.1704C5.83076 10.2461 5.82543 10.3286 5.79086 10.4004C5.75629 10.4723 5.69518 10.5279 5.62041 10.5556L4.38182 11.1587C4.3139 11.2005 4.23241 11.2143 4.15451 11.1972C4.07661 11.1802 4.00839 11.1335 3.96422 11.0671L3.4766 10.0657C3.44985 9.98964 3.45402 9.90612 3.4882 9.83309C3.52238 9.76007 3.58385 9.70338 3.65939 9.67519L4.89798 9.07207C4.96675 9.02998 5.0493 9.01655 5.12786 9.03467C5.20643 9.0528 5.27474 9.10104 5.31812 9.16901Z" fill="#964A17"/>
<path d="M4.76765 9.43702L5.25527 10.4384C5.28164 10.5128 5.27767 10.5946 5.24421 10.6661C5.21075 10.7376 5.15049 10.793 5.07647 10.8205L4.38182 11.1587C4.3139 11.2005 4.23241 11.2143 4.15451 11.1972C4.07661 11.1801 4.00839 11.1335 3.96422 11.0671L3.4766 10.0657C3.44985 9.98962 3.45402 9.9061 3.4882 9.83307C3.52238 9.76005 3.58385 9.70336 3.65939 9.67517L4.35405 9.33692C4.38777 9.31629 4.42522 9.30252 4.46427 9.29639C4.50332 9.29026 4.54319 9.29189 4.58161 9.30119C4.62003 9.31049 4.65624 9.32727 4.68816 9.35058C4.72008 9.37389 4.7471 9.40326 4.76765 9.43702Z" fill="#964A17"/>
<path d="M9.6043 5.71249V8.49626C9.58494 8.62473 9.51639 8.74064 9.41313 8.81949C9.30986 8.89834 9.17999 8.93394 9.05096 8.91878H8.05293C7.7466 8.91878 7.48969 8.73017 7.48969 8.49626V5.71249C7.50966 5.58185 7.57951 5.46404 7.68455 5.38384C7.78959 5.30364 7.92164 5.2673 8.05293 5.28245H9.05096C9.18114 5.26738 9.31203 5.30398 9.41551 5.38439C9.51898 5.46481 9.58677 5.58262 9.6043 5.71249Z" fill="#964A17"/>
<path d="M6.02041 13.526L5.30178 16.2154C5.24991 16.3346 5.15375 16.4288 5.03364 16.4784C4.91352 16.5279 4.77886 16.5287 4.65811 16.4808L3.69391 16.2232C3.39798 16.1441 3.19846 15.8956 3.25884 15.6695L3.97747 12.9801C4.03051 12.8591 4.12841 12.7633 4.2506 12.713C4.37279 12.6626 4.50975 12.6616 4.63267 12.7101L5.59687 12.9678C5.72651 12.9868 5.84351 13.056 5.92271 13.1604C6.0019 13.2647 6.03699 13.396 6.02041 13.526Z" fill="#964A17"/>
<path d="M8.99903 15.3747C8.96955 15.4255 8.9287 15.4688 8.87968 15.5012C8.83065 15.5336 8.7748 15.5543 8.71648 15.5615C8.65816 15.5687 8.59896 15.5623 8.54353 15.5428C8.48809 15.5233 8.43793 15.4912 8.39696 15.4491L6.84105 13.8728C6.78898 13.8207 6.75399 13.7539 6.7407 13.6815C6.72741 13.609 6.73646 13.5342 6.76665 13.467C6.79611 13.3939 6.84827 13.3322 6.91545 13.2911L8.81637 12.114C8.86114 12.0854 8.91186 12.0676 8.96463 12.0617C9.0174 12.0558 9.07081 12.0621 9.12075 12.0802C9.18555 12.0963 9.24457 12.1301 9.29118 12.1779C9.33779 12.2257 9.37014 12.2856 9.38459 12.3507C9.641 13.3713 9.50333 14.4511 8.99903 15.3747Z" fill="#964A17"/>
<path d="M8.66752 14.7049C8.63804 14.7557 8.59718 14.799 8.54816 14.8314C8.49914 14.8638 8.44328 14.8845 8.38496 14.8917C8.32664 14.8989 8.26744 14.8925 8.21201 14.873C8.15657 14.8535 8.1064 14.8214 8.06543 14.7793L6.7666 13.467C6.79606 13.3939 6.84822 13.3322 6.9154 13.2911L8.81632 12.114C8.86109 12.0854 8.91181 12.0676 8.96458 12.0617C9.01735 12.0558 9.07076 12.0621 9.1207 12.0802C9.27469 12.9812 9.11471 13.9077 8.66752 14.7049Z" fill="#964A17"/>
<path d="M20.1565 12.2748C20.1619 14.3894 19.4371 16.4409 18.1045 18.0828C17.6234 18.5656 17.0925 18.996 16.5205 19.3667C16.4245 19.3787 16.3285 19.3907 16.2445 19.4027L16.1725 19.4387C16.1704 19.4915 16.1624 19.5438 16.1485 19.5947C14.3624 20.6574 12.2648 21.0727 10.2085 20.7707C10.1295 20.6583 10.0875 20.5241 10.0885 20.3867C10.0924 20.2578 10.1271 20.1317 10.1897 20.0189C10.2523 19.9062 10.3411 19.8101 10.4485 19.7387C10.2191 19.4806 10.0912 19.148 10.0885 18.8027C10.0911 18.5608 10.1539 18.3233 10.2712 18.1117C10.3885 17.9001 10.5567 17.7211 10.7605 17.5907C10.5897 17.3483 10.4975 17.0593 10.4965 16.7627C10.4966 16.49 10.5758 16.2232 10.7245 15.9947C10.583 15.8597 10.4697 15.6979 10.3914 15.5186C10.3131 15.3394 10.2714 15.1463 10.2685 14.9507C10.272 14.594 10.409 14.2515 10.6525 13.9907C10.4783 13.8592 10.3368 13.6892 10.239 13.4941C10.1412 13.299 10.0897 13.0839 10.0886 12.8657C10.0874 12.6474 10.1366 12.4318 10.2323 12.2357C10.3281 12.0395 10.4677 11.8681 10.6405 11.7347C10.5436 11.5368 10.4943 11.319 10.4965 11.0987C10.4957 10.8862 10.5451 10.6766 10.6405 10.4867C10.4095 10.2344 10.2811 9.90483 10.2805 9.56272C10.2858 9.33761 10.3427 9.11672 10.4467 8.91701C10.5507 8.71731 10.6991 8.5441 10.8805 8.41072C10.6991 8.27734 10.5507 8.10414 10.4467 7.90443C10.3426 7.70473 10.2858 7.48383 10.2805 7.25872C10.2831 7.01679 10.3459 6.77933 10.4632 6.56774C10.5806 6.35615 10.7487 6.17709 10.9525 6.04672C10.837 5.83705 10.7752 5.60207 10.7725 5.36272C10.7737 5.03799 10.8883 4.72389 11.0965 4.47472V4.41472C10.9162 4.31799 10.7653 4.17443 10.6597 3.99915C10.5541 3.82386 10.4977 3.62335 10.4965 3.41872C10.496 3.28732 10.5205 3.15702 10.5685 3.03472C10.6802 3.02472 10.7924 3.02072 10.9045 3.02272C12.1196 3.02233 13.3229 3.26138 14.4456 3.72621C15.5683 4.19103 16.5883 4.87252 17.4476 5.73173C18.3068 6.59094 18.9882 7.61104 19.4531 8.73372C19.9179 9.85641 20.1569 11.0597 20.1565 12.2748Z" fill="#964A17"/>
<path d="M20.9284 11.9772C21.0497 11.8842 21.1501 11.7668 21.2232 11.6326C21.3445 11.2721 21.3417 10.8814 21.2153 10.5227C21.0889 10.164 20.846 9.85787 20.5255 9.6531C20.4831 9.4593 20.4326 9.26873 20.3782 9.07969C20.3933 9.05537 20.4146 9.03589 20.4277 9.01018C20.7895 8.30551 20.3022 7.33228 19.341 6.75538C19.3051 6.69778 19.2724 6.63798 19.2351 6.58114C19.252 6.13531 19.13 5.69525 18.8858 5.32184C18.6417 4.94843 18.2875 4.66012 17.8723 4.49681C17.5926 4.35313 17.2921 4.25394 16.9818 4.20281C16.8965 4.13982 16.8147 4.07251 16.7273 4.01245C16.6127 3.69534 16.4367 3.40391 16.2094 3.15484C15.9821 2.90577 15.7079 2.70393 15.4026 2.56086C15.0532 2.3484 14.6531 2.2337 14.2442 2.22874C13.8353 2.22378 13.4326 2.32874 13.0781 2.53266C12.9792 2.5156 12.8794 2.5011 12.7794 2.48706C12.5748 2.30259 12.3099 2.19908 12.0345 2.19595C11.8837 2.19595 11.7344 2.22565 11.5951 2.28335C11.4558 2.34105 11.3292 2.42563 11.2226 2.53224C11.116 2.63886 11.0315 2.76543 10.9738 2.90472C10.9161 3.04402 10.8864 3.19332 10.8864 3.34409C10.8883 3.54901 10.9456 3.74959 11.0524 3.92454C11.1591 4.09949 11.3112 4.24229 11.4925 4.33777V4.40024C11.2839 4.65156 11.1686 4.96723 11.1661 5.2938C11.1684 5.53253 11.232 5.76665 11.351 5.97364C11.1516 6.09703 10.9859 6.2679 10.8686 6.47098C10.7514 6.67407 10.6863 6.90304 10.6792 7.13742C10.672 7.37181 10.7231 7.60432 10.8277 7.81416C10.9324 8.024 11.0874 8.20464 11.2789 8.33994C11.0962 8.47307 10.9468 8.64681 10.8426 8.84748C10.7384 9.04815 10.6822 9.27028 10.6785 9.49636C10.6819 9.83606 10.807 10.1633 11.0312 10.4186C10.9344 10.6116 10.8848 10.825 10.8864 11.0409C10.8881 11.2569 10.9409 11.4695 11.0407 11.661C10.8655 11.7933 10.7235 11.9645 10.626 12.1612C10.5285 12.3578 10.4782 12.5745 10.4791 12.794C10.48 13.0135 10.532 13.2298 10.631 13.4257C10.73 13.6216 10.8734 13.7917 11.0496 13.9225C10.806 14.1823 10.6686 14.524 10.6645 14.8801C10.6666 15.0758 10.7086 15.269 10.7878 15.4479C10.8671 15.6268 10.982 15.7877 11.1255 15.9207C10.9644 16.1566 10.8809 16.4369 10.8866 16.7225C10.8924 17.0081 10.9871 17.2848 11.1576 17.5141C10.9533 17.645 10.7845 17.8244 10.6661 18.0362C10.5477 18.2481 10.4835 18.4858 10.4791 18.7285C10.4827 19.0736 10.6118 19.4055 10.8424 19.6624C10.7359 19.7355 10.6477 19.8323 10.5847 19.9451C10.5217 20.0579 10.4856 20.1837 10.4791 20.3127C10.4791 20.8477 11.0843 21.2815 11.8308 21.2815C12.1446 21.2836 12.4526 21.1966 12.7188 21.0305C13.0752 21.3624 13.5407 21.5522 14.0275 21.5642C14.5143 21.5761 14.9886 21.4094 15.3609 21.0955C15.677 20.9156 15.9492 20.6677 16.1578 20.3697C16.3664 20.0717 16.5061 19.731 16.5669 19.3724C16.5892 19.3577 16.6133 19.3457 16.6355 19.3308C17.1012 19.2915 17.5501 19.1387 17.943 18.8858C18.2664 18.7033 18.5437 18.4492 18.7536 18.1429C18.9634 17.8365 19.1003 17.4862 19.1536 17.1187C19.2753 17.0628 19.3934 16.9992 19.507 16.9283C20.5373 16.277 21.0078 15.1722 20.558 14.4605C20.5332 14.4279 20.5065 14.3968 20.4781 14.3674C20.8197 14.1381 21.071 13.7973 21.189 13.4032C21.3071 13.0091 21.2846 12.5862 21.1253 12.2069C21.0708 12.1214 21.0045 12.0441 20.9284 11.9772Z" fill="#FFFAEB"/>
<path d="M20.515 14.3077C20.539 14.3437 20.575 14.3677 20.599 14.4037C21.043 15.1117 20.575 16.2157 19.543 16.8757C19.801 16.642 19.9774 16.3319 20.0465 15.9908C20.1156 15.6496 20.0737 15.2953 19.927 14.9797C19.9024 14.9448 19.8743 14.9126 19.843 14.8837C20.1857 14.6555 20.4379 14.3148 20.5562 13.9205C20.6745 13.5261 20.6515 13.1028 20.491 12.7237C20.4372 12.6396 20.3727 12.5629 20.299 12.4957C20.423 12.4061 20.5221 12.2863 20.587 12.1477C20.7092 11.7874 20.707 11.3965 20.5809 11.0375C20.4547 10.6785 20.2118 10.3723 19.891 10.1677C19.8543 9.97302 19.8062 9.78069 19.747 9.59168C19.759 9.56768 19.783 9.55568 19.795 9.53168C20.155 8.82368 19.675 7.85168 18.715 7.27568L18.607 7.09568C18.6238 6.65023 18.501 6.21065 18.2557 5.83842C18.0104 5.4662 17.6549 5.17994 17.239 5.01968C16.9613 4.87184 16.6614 4.7705 16.351 4.71968C16.267 4.65968 16.183 4.58768 16.099 4.52768C15.8615 3.88839 15.3835 3.36729 14.767 3.07568C14.4185 2.86446 14.0197 2.75079 13.6122 2.74657C13.2048 2.74235 12.8037 2.84773 12.451 3.05168C12.343 3.02768 12.247 3.01568 12.151 3.00368C12.0066 2.87036 11.8288 2.77873 11.6365 2.73858C11.4442 2.69842 11.2446 2.71125 11.059 2.77568C11.1511 2.58383 11.296 2.42215 11.4766 2.30953C11.6572 2.19691 11.8661 2.138 12.079 2.13968C12.3531 2.14552 12.6164 2.24748 12.823 2.42774C12.919 2.43968 13.015 2.46374 13.123 2.47574C13.4757 2.27164 13.8768 2.16617 14.2842 2.17039C14.6917 2.17461 15.0906 2.28837 15.439 2.49974C16.0527 2.79507 16.5295 3.31487 16.771 3.95174C16.855 4.01174 16.939 4.08374 17.023 4.14374C17.3329 4.1964 17.6326 4.29765 17.911 4.44374C18.3261 4.60523 18.6807 4.89177 18.9258 5.26371C19.1709 5.63565 19.2943 6.07458 19.279 6.51974C19.315 6.57974 19.339 6.63974 19.375 6.69974C20.347 7.27574 20.827 8.24774 20.467 8.95574C20.455 8.97974 20.431 9.00374 20.419 9.02774C20.467 9.20774 20.527 9.39974 20.563 9.59174C20.8838 9.79632 21.1267 10.1026 21.2529 10.4616C21.3791 10.8205 21.3812 11.2114 21.259 11.5717C21.1902 11.7078 21.0918 11.8267 20.971 11.9197C21.0447 11.987 21.1092 12.0637 21.163 12.1477C21.3234 12.5269 21.3465 12.9502 21.2282 13.3445C21.1099 13.7388 20.8576 14.0795 20.515 14.3077Z" fill="#F4E9CE"/>
<path d="M9.57637 15.0527C9.54689 15.1036 9.50603 15.1469 9.45701 15.1793C9.40799 15.2117 9.35213 15.2323 9.29381 15.2395C9.23549 15.2467 9.17629 15.2403 9.12085 15.2208C9.06542 15.2013 9.01525 15.1693 8.97428 15.1271L7.41839 13.5509C7.36632 13.4988 7.33132 13.432 7.31803 13.3596C7.30475 13.2871 7.3138 13.2123 7.34398 13.1451C7.37345 13.072 7.42561 13.0103 7.49278 12.9692L9.39371 11.7921C9.43848 11.7635 9.48919 11.7457 9.54196 11.7398C9.59473 11.7339 9.64814 11.7403 9.69809 11.7583C9.76288 11.7743 9.82191 11.8082 9.86852 11.856C9.91514 11.9038 9.94748 11.9637 9.96193 12.0288C10.2183 13.0494 10.0806 14.1291 9.57637 15.0527Z" fill="#F6A635"/>
<path d="M9.24485 14.383C9.21537 14.4339 9.17452 14.4772 9.1255 14.5096C9.07648 14.542 9.02062 14.5626 8.9623 14.5698C8.90398 14.577 8.84478 14.5706 8.78935 14.5511C8.73391 14.5316 8.68375 14.4996 8.64278 14.4574L7.34393 13.1451C7.3734 13.072 7.42556 13.0103 7.49273 12.9692L9.39365 11.7921C9.43842 11.7635 9.48914 11.7457 9.54191 11.7398C9.59468 11.7339 9.64809 11.7403 9.69803 11.7583C9.85204 12.6593 9.69206 13.5858 9.24485 14.383Z" fill="#FBD73B"/>
<path d="M4.24712 7.48206C4.20445 7.4573 4.1681 7.423 4.1409 7.38185C4.1137 7.34069 4.0964 7.29379 4.09036 7.24484C4.08431 7.19588 4.08969 7.14618 4.10606 7.09965C4.12243 7.05311 4.14936 7.011 4.18472 6.97661L5.50799 5.67039C5.55176 5.62666 5.6078 5.59727 5.66866 5.58612C5.72953 5.57496 5.79235 5.58257 5.84879 5.60794C5.91014 5.63267 5.96191 5.67648 5.99646 5.73289L6.98463 7.32875C7.00859 7.36634 7.02361 7.40892 7.02853 7.45322C7.03345 7.49752 7.02814 7.54236 7.01302 7.58429C6.99951 7.63868 6.9711 7.68823 6.93097 7.72736C6.89085 7.76649 6.8406 7.79365 6.78588 7.80578C5.92903 8.02104 5.02253 7.90545 4.24712 7.48206Z" fill="#F6A635"/>
<path d="M4.8095 7.2038C4.76682 7.17905 4.73046 7.14475 4.70325 7.1036C4.67605 7.06244 4.65874 7.01555 4.65268 6.96659C4.64663 6.91763 4.65199 6.86793 4.66836 6.82139C4.68472 6.77485 4.71164 6.73273 4.747 6.69833L5.84877 5.60794C5.91012 5.63268 5.9619 5.67648 5.99644 5.7329L6.98462 7.32875C7.00858 7.36634 7.02359 7.40892 7.02851 7.45322C7.03343 7.49752 7.02813 7.54236 7.013 7.58429C6.2566 7.71355 5.47875 7.57924 4.8095 7.2038Z" fill="#FBD73B"/>
<path d="M9.98974 5.54265V8.32638C9.97038 8.45485 9.90182 8.57076 9.79856 8.64961C9.6953 8.72845 9.56543 8.76406 9.43639 8.7489H8.43837C8.13205 8.7489 7.87512 8.56029 7.87512 8.32638V5.54265C7.8951 5.41201 7.96495 5.29421 8.06999 5.21401C8.17503 5.13381 8.30708 5.09747 8.43837 5.11262H9.43645C9.56662 5.09756 9.6975 5.13417 9.80097 5.21459C9.90443 5.295 9.97221 5.4128 9.98974 5.54265Z" fill="#D22A22"/>
<path d="M9.2881 5.54266V8.32638C9.2881 8.5603 9.04107 8.7489 8.72487 8.7489H8.36915C8.06283 8.7489 7.80591 8.5603 7.80591 8.32638V5.54266C7.82588 5.41201 7.89573 5.29421 8.00077 5.21401C8.10582 5.13381 8.23787 5.09747 8.36915 5.11262H8.72487C9.04107 5.11262 9.2881 5.30118 9.2881 5.54266Z" fill="#F1592F"/>
<path d="M6.83973 13.6419L6.19923 16.351C6.15083 16.4716 6.05745 16.5686 5.93881 16.6216C5.82018 16.6745 5.6856 16.6793 5.56352 16.6349L4.59226 16.4052C4.29417 16.3348 4.08753 16.092 4.14135 15.8645L4.78184 13.1554C4.83133 13.0328 4.92641 12.9343 5.04709 12.8804C5.16777 12.8265 5.30464 12.8215 5.42891 12.8665L6.40016 13.0961C6.53031 13.1114 6.64928 13.1771 6.73148 13.2792C6.81367 13.3812 6.85254 13.5115 6.83973 13.6419Z" fill="#D22A22"/>
<path d="M6.15689 13.4804L5.51639 16.1894C5.46672 16.3112 5.37148 16.4088 5.25094 16.4614C5.1304 16.514 4.99409 16.5175 4.87104 16.471L4.52489 16.3892C4.22678 16.3187 4.02016 16.076 4.07396 15.8484L4.71449 13.1393C4.76398 13.0168 4.85906 12.9182 4.97974 12.8644C5.10041 12.8105 5.23728 12.8055 5.36155 12.8504L5.70773 12.9323C6.0154 13.005 6.2124 13.2454 6.15689 13.4804Z" fill="#F1592F"/>
<path d="M9.40642 17.1075V18.7019C9.40493 18.8036 9.36331 18.9006 9.29062 18.9717C9.21794 19.0428 9.12008 19.0823 9.0184 19.0816H7.42402C7.32233 19.0823 7.22447 19.0428 7.15177 18.9717C7.07908 18.9006 7.03745 18.8036 7.03595 18.7019V17.1075C7.03582 17.0565 7.04577 17.006 7.06523 16.9589C7.08468 16.9117 7.11326 16.8689 7.14933 16.8329C7.18539 16.7968 7.22822 16.7682 7.27536 16.7488C7.3225 16.7293 7.37302 16.7194 7.42402 16.7195H9.01845C9.06944 16.7194 9.11995 16.7293 9.16708 16.7488C9.21421 16.7682 9.25704 16.7968 9.29309 16.8329C9.32914 16.8689 9.35772 16.9118 9.37716 16.9589C9.39661 17.006 9.40656 17.0565 9.40642 17.1075Z" fill="#F4D39F"/>
<path d="M8.69787 17.1075V18.7019C8.69808 18.7519 8.6884 18.8013 8.66939 18.8475C8.65039 18.8936 8.62243 18.9356 8.58714 18.9709C8.55185 19.0061 8.50991 19.0341 8.46376 19.0531C8.41761 19.0721 8.36815 19.0818 8.31823 19.0816H7.42402C7.32233 19.0823 7.22447 19.0428 7.15177 18.9717C7.07908 18.9006 7.03745 18.8036 7.03595 18.7019V17.1075C7.03582 17.0565 7.04577 17.006 7.06523 16.9589C7.08468 16.9117 7.11326 16.8689 7.14933 16.8329C7.18539 16.7968 7.22822 16.7682 7.27536 16.7488C7.3225 16.7293 7.37302 16.7194 7.42402 16.7195H8.31823C8.36879 16.7195 8.41883 16.7297 8.46542 16.7493C8.51201 16.7689 8.55422 16.7976 8.58958 16.8338C8.62493 16.8699 8.65272 16.9127 8.67132 16.9597C8.68991 17.0067 8.69894 17.057 8.69787 17.1075Z" fill="#FFE4B0"/>
<path d="M3.77085 10.3964L4.72281 9.58565C4.78692 9.53105 4.8701 9.50415 4.95404 9.51088C5.03798 9.51761 5.11581 9.5574 5.1704 9.62151L6.01631 10.6148C6.07091 10.6789 6.09781 10.7621 6.09108 10.846C6.08436 10.93 6.04455 11.0078 5.98043 11.0624L5.02853 11.8731C4.96441 11.9277 4.88123 11.9546 4.79728 11.9479C4.71332 11.9412 4.63548 11.9014 4.58088 11.8372L3.73498 10.844C3.68038 10.7799 3.65348 10.6967 3.66021 10.6127C3.66694 10.5288 3.70673 10.451 3.77084 10.3964L3.77085 10.3964Z" fill="#F4D39F"/>
<path d="M5.61033 10.616L4.6414 11.4412C4.61047 11.4671 4.57472 11.4866 4.5362 11.4986C4.49769 11.5106 4.45718 11.5149 4.41701 11.5112C4.37684 11.5075 4.3378 11.4958 4.30215 11.477C4.2665 11.4581 4.23494 11.4323 4.2093 11.4012L3.73488 10.844C3.68038 10.7825 3.65241 10.7019 3.65705 10.6198C3.6617 10.5377 3.69859 10.4608 3.75968 10.4058L4.72862 9.58064C4.76027 9.55424 4.79682 9.53434 4.83618 9.52211C4.87554 9.50987 4.91693 9.50553 4.95797 9.50933C4.99901 9.51314 5.0389 9.52501 5.07534 9.54428C5.11178 9.56354 5.14405 9.58981 5.1703 9.62159L5.64472 10.1787C5.67159 10.2095 5.69204 10.2453 5.70487 10.2841C5.7177 10.3229 5.72266 10.3638 5.71946 10.4046C5.71626 10.4453 5.70495 10.485 5.68622 10.5213C5.66748 10.5576 5.64168 10.5898 5.61033 10.616Z" fill="#FFE4B0"/>
<path d="M16.2193 8.38522C16.1733 8.38506 16.128 8.37436 16.0868 8.35394C16.0456 8.33351 16.0096 8.30391 15.9817 8.26741C15.9537 8.2309 15.9345 8.18847 15.9255 8.14337C15.9165 8.09828 15.918 8.05172 15.9298 8.00729C16.0004 7.827 16.0323 7.63392 16.0235 7.44052C16.0147 7.24713 15.9654 7.05774 15.8788 6.88459C15.7922 6.71145 15.6702 6.55841 15.5208 6.43538C15.3713 6.31235 15.1977 6.22206 15.0111 6.17036C14.9355 6.14802 14.8718 6.09683 14.8336 6.02787C14.7955 5.9589 14.786 5.8777 14.8072 5.8018C14.8285 5.72591 14.8787 5.66142 14.9472 5.62228C15.0156 5.58314 15.0966 5.57249 15.1728 5.59264C15.4351 5.66471 15.6796 5.79017 15.8911 5.96115C16.1026 6.13213 16.2765 6.34495 16.4019 6.58627C16.5273 6.82759 16.6015 7.09221 16.6199 7.36355C16.6383 7.6349 16.6005 7.90711 16.5088 8.16314C16.4916 8.22683 16.454 8.28309 16.4017 8.32324C16.3493 8.36338 16.2852 8.38516 16.2193 8.38522Z" fill="#F4E9CE"/>
<path d="M13.5978 14.1121C13.5524 14.1123 13.5075 14.102 13.4667 14.0821C13.4258 14.0622 13.3901 14.0332 13.3623 13.9973C13.0501 13.6378 12.8794 13.1769 12.8824 12.7008C12.8853 12.2247 13.0615 11.766 13.3781 11.4103C13.4049 11.3814 13.4371 11.358 13.4729 11.3416C13.5087 11.3251 13.5474 11.3158 13.5868 11.3143C13.6262 11.3128 13.6655 11.319 13.7025 11.3327C13.7395 11.3463 13.7734 11.3672 13.8023 11.3939C13.8312 11.4207 13.8546 11.4529 13.8711 11.4887C13.8876 11.5246 13.8969 11.5633 13.8984 11.6027C13.8999 11.642 13.8936 11.6814 13.88 11.7183C13.8663 11.7553 13.8455 11.7892 13.8187 11.8182C13.5972 12.0682 13.4761 12.3914 13.4788 12.7254C13.4815 13.0594 13.6078 13.3806 13.8334 13.6269C13.8682 13.6712 13.8898 13.7243 13.8959 13.7802C13.9019 13.8362 13.8921 13.8927 13.8675 13.9433C13.8429 13.9939 13.8046 14.0366 13.7569 14.0664C13.7092 14.0963 13.6541 14.1121 13.5978 14.1121Z" fill="#F4E9CE"/>
<path d="M14.3016 17.1754C14.2233 17.1753 14.1482 17.1445 14.0922 17.0898C14.0363 17.035 14.0039 16.9605 14.0021 16.8823C14.0003 16.804 14.0291 16.7281 14.0824 16.6708C14.1357 16.6135 14.2093 16.5792 14.2875 16.5754C14.7134 16.5575 15.1193 16.3902 15.4341 16.1029C15.7489 15.8155 15.9525 15.4264 16.009 15.0039C16.0189 14.925 16.0598 14.8532 16.1227 14.8044C16.1855 14.7557 16.2652 14.7338 16.3441 14.7438C16.4231 14.7537 16.4948 14.7946 16.5436 14.8575C16.5924 14.9203 16.6142 15 16.6043 15.0789C16.5345 15.6437 16.2656 16.165 15.8458 16.5493C15.4261 16.9336 14.8831 17.1556 14.3144 17.1754H14.3016Z" fill="#F4E9CE"/>
<path d="M13.1817 6.93079C13.4481 6.93079 13.664 6.71486 13.664 6.44849C13.664 6.18212 13.4481 5.96619 13.1817 5.96619C12.9153 5.96619 12.6994 6.18212 12.6994 6.44849C12.6994 6.71486 12.9153 6.93079 13.1817 6.93079Z" fill="#F4E9CE"/>
<path d="M17.6028 13.2061C17.8078 13.2061 17.974 13.04 17.974 12.835C17.974 12.63 17.8078 12.4638 17.6028 12.4638C17.3978 12.4638 17.2316 12.63 17.2316 12.835C17.2316 13.04 17.3978 13.2061 17.6028 13.2061Z" fill="#F4E9CE"/>
<path d="M11.9769 18.1273C12.0958 18.1273 12.1923 18.0309 12.1923 17.9119C12.1923 17.793 12.0958 17.6966 11.9769 17.6966C11.858 17.6966 11.7615 17.793 11.7615 17.9119C11.7615 18.0309 11.858 18.1273 11.9769 18.1273Z" fill="#F4E9CE"/>
</svg>
