<svg width="23" height="24" viewBox="0 0 23 24" fill="none" xmlns="http://www.w3.org/2000/svg">
<path d="M8.44714 8.28807C12.5438 8.03252 15.7655 6.23283 15.6429 4.26834C15.5204 2.30385 12.1001 0.918472 8.00338 1.17402C3.9067 1.42956 0.685033 3.22925 0.807575 5.19375C0.930116 7.15824 4.35047 8.54361 8.44714 8.28807Z" fill="#0A564F"/>
<path d="M8.27893 17.231C5.42053 17.3638 2.93565 16.7308 1.69918 15.6312C1.46384 15.4589 1.26657 15.2399 1.11971 14.988C0.972848 14.736 0.879547 14.4564 0.845642 14.1668C0.836442 14.1228 0.83538 14.0775 0.842509 14.0331L0.797485 5.09734L14.1659 4.43863L15.6452 4.35791L15.6775 13.3103C15.6917 15.2905 12.3659 17.0365 8.27893 17.231Z" fill="#0C3A37"/>
<path d="M14.1985 12.4504C14.1985 14.412 10.9009 16.1707 6.79156 16.3905C6.52103 16.4074 6.26732 16.4074 6.01373 16.4074C4.54027 16.4204 3.07748 16.1565 1.7014 15.6296C1.46316 15.4579 1.2634 15.2383 1.1149 14.985C0.966401 14.7316 0.872439 14.45 0.839028 14.1583V14.04L0.805176 5.09413L8.34742 4.72213L14.1646 4.43457L14.1985 12.4504Z" fill="#0A564F"/>
<path d="M14.1985 12.4504C14.1985 14.412 10.9009 16.1706 6.79162 16.3905C6.5211 16.4074 6.26739 16.4074 6.0138 16.4074L5.96301 7.46165H5.97993C5.96301 6.43012 6.87615 5.44925 8.34753 4.72213L14.1647 4.43457L14.1985 12.4504Z" fill="#0C3A37"/>
<path d="M14.9614 4.40034C14.9682 6.05164 12.0736 7.53335 8.49625 7.70843C5.27631 7.86603 2.60454 6.91156 2.09561 5.51661C2.09038 5.50481 2.0858 5.49274 2.08191 5.48044C2.07132 5.45333 2.06369 5.42454 2.05605 5.39728C2.02372 5.27901 2.00705 5.157 2.00648 5.03439C1.99969 3.38313 4.89426 1.90292 8.47166 1.72782C9.59763 1.66404 10.727 1.7544 11.8285 1.9964C12.024 2.04209 12.2135 2.0912 12.394 2.14832C12.4827 2.17313 12.57 2.20112 12.6542 2.23074C14.0622 2.70828 14.9576 3.48414 14.9614 4.40034Z" fill="#FFFAEB"/>
<path d="M12.6047 2.76302C12.7855 2.64224 12.8762 2.46076 12.8073 2.35768C12.7384 2.25459 12.5361 2.26893 12.3553 2.38971C12.1745 2.51049 12.0838 2.69197 12.1527 2.79506C12.2215 2.89814 12.4239 2.8838 12.6047 2.76302Z" fill="#F4E9CE"/>
<path d="M5.78567 7.17753C5.88251 7.04868 5.71126 6.75652 5.40316 6.52496C5.09507 6.2934 4.76681 6.21013 4.66997 6.33897C4.57313 6.46782 4.74439 6.75998 5.05248 6.99154C5.36057 7.2231 5.68884 7.30637 5.78567 7.17753Z" fill="#F4E9CE"/>
<path d="M8.78884 2.24732C9.08605 2.23123 9.32277 2.14055 9.31759 2.04479C9.3124 1.94904 9.06727 1.88445 8.77007 1.90055C8.47286 1.91664 8.23614 2.00732 8.24132 2.10307C8.24651 2.19883 8.49164 2.26341 8.78884 2.24732Z" fill="#F4E9CE"/>
<path d="M12.5717 4.7186C12.6472 4.61812 12.5136 4.39027 12.2733 4.20969C12.0331 4.02911 11.7771 3.96417 11.7016 4.06465C11.626 4.16513 11.7596 4.39297 11.9999 4.57356C12.2401 4.75414 12.4961 4.81908 12.5717 4.7186Z" fill="#F4E9CE"/>
<path d="M10.8903 7.07478C10.9284 6.9453 10.699 6.76369 10.3779 6.66913C10.0568 6.57457 9.76561 6.60288 9.72749 6.73236C9.68936 6.86184 9.91874 7.04345 10.2398 7.13801C10.5609 7.23256 10.8521 7.20425 10.8903 7.07478Z" fill="#F4E9CE"/>
<path d="M6.12599 6.97109C6.38687 6.80242 6.55578 6.59985 6.50328 6.51865C6.45078 6.43744 6.19673 6.50835 5.93586 6.67702C5.67498 6.84569 5.50606 7.04825 5.55857 7.12946C5.61107 7.21066 5.86512 7.13976 6.12599 6.97109Z" fill="#F4E9CE"/>
<path d="M12.2207 4.21674C12.2094 4.38605 12.1613 4.55085 12.0796 4.69961C11.998 4.84837 11.8848 4.97751 11.7481 5.07798L11.7466 5.07958C10.8022 5.75096 9.67242 6.11204 8.51371 6.11278C7.58571 6.18147 6.65418 6.03974 5.7886 5.69817V5.6966C5.57128 5.6241 5.37229 5.50528 5.2054 5.34833C5.03851 5.19139 4.90769 5.00007 4.822 4.78761C4.80325 4.72007 4.79337 4.65038 4.79261 4.58029C4.78871 3.6334 6.4481 2.78469 8.49961 2.68429C8.67241 2.67589 8.84056 2.67374 9.00733 2.67632C9.48421 2.67916 9.95938 2.73362 10.4245 2.83874C11.4995 3.08545 12.2182 3.5952 12.2207 4.21674Z" fill="#FF8340"/>
<path d="M14.9615 4.40045C14.9683 6.05175 12.0737 7.53346 8.49635 7.70854C5.27641 7.86614 2.60464 6.91167 2.0957 5.51672C2.2313 5.60527 2.41199 5.72535 2.64545 5.87663C3.15968 6.26376 3.72072 6.58442 4.31527 6.83102C4.89575 6.99602 4.9115 6.80491 5.95758 6.94712C6.73014 7.05359 6.82374 7.17182 7.38275 7.22273C7.98172 7.20655 8.57856 7.14449 9.16805 7.03712C9.66809 6.99883 10.2133 6.97983 10.5918 6.96743C11.3112 6.94298 10.9286 6.92681 11.2437 6.85766C11.7675 6.74147 11.7324 6.55813 11.9662 6.4285C12.5561 6.0786 13.0514 5.58962 13.4088 5.00426C13.5012 4.83242 14.4194 4.79845 14.2985 4.27019C14.1836 3.8602 13.9252 3.50514 13.5704 3.26972C13.0625 2.87399 12.7745 2.97711 12.5538 2.62873C12.4646 2.4829 12.41 2.31862 12.3941 2.14844C12.4828 2.17325 12.5701 2.20124 12.6543 2.23087C14.0623 2.70839 14.9577 3.48425 14.9615 4.40045Z" fill="#F4E9CE"/>
<path d="M12.2852 4.18019C12.2855 4.22676 12.2812 4.27324 12.2723 4.31896C12.2618 4.37358 12.2454 4.42689 12.2233 4.47792C12.1834 4.57113 12.1301 4.65804 12.0652 4.73592C12.0324 4.77731 11.9964 4.81603 11.9575 4.8517C11.2101 5.44163 10.2846 5.76023 9.33244 5.7553C9.21378 5.76111 9.09816 5.7637 8.98396 5.76161C8.51724 5.81611 8.04426 5.7581 7.60455 5.59242C7.16483 5.42675 6.77117 5.15822 6.45646 4.80929C6.43153 4.76521 6.41216 4.71821 6.39879 4.66936V4.66782C6.36284 4.55263 6.3582 4.42995 6.38533 4.31237C6.39728 4.25653 6.41518 4.20214 6.43872 4.15012V4.14858C6.53009 3.96426 6.66316 3.80376 6.82737 3.67981C6.97564 3.56089 7.13699 3.45926 7.3083 3.37691C7.73903 3.17109 8.19824 3.03115 8.67056 2.96179C8.88588 2.92764 9.10291 2.90523 9.32068 2.89468C10.238 2.79299 11.162 3.01548 11.9325 3.52359C12.0553 3.62068 12.1535 3.74522 12.2194 3.88719C12.262 3.97905 12.2844 4.07895 12.2852 4.18019Z" fill="#D04C04"/>
<path d="M6.43876 4.1499C6.41522 4.20192 6.39732 4.25632 6.38538 4.31215L6.43876 4.1499Z" fill="#F0AC64"/>
<path d="M6.43589 4.1416C6.4151 4.20068 6.40335 4.26256 6.40102 4.32514L6.3844 4.31247C6.40577 4.24991 6.41448 4.20399 6.43589 4.1416Z" fill="#E55D1A"/>
<path d="M12.2189 4.47802C10.7197 3.30943 8.33536 3.75082 7.15894 4.08854C7.19645 4.00489 7.25273 3.93102 7.32342 3.87265C7.82436 3.73964 8.33487 3.64573 8.85035 3.59176C10.0395 3.40154 11.2571 3.6562 12.2703 4.30707C12.2725 4.36816 12.2544 4.42826 12.2189 4.47802Z" fill="#E55D1A"/>
<path d="M12.2276 3.88055C11.575 3.51515 10.856 3.28374 10.1127 3.19992C9.36951 3.11609 8.61702 3.18152 7.89941 3.39238C8.00861 3.31798 8.14702 3.23967 8.28553 3.16138L8.31475 3.15752C9.52571 2.88399 10.7927 3.01085 11.9254 3.51905C12.0536 3.61365 12.1572 3.73762 12.2276 3.88055Z" fill="#E55D1A"/>
<path d="M6.43177 4.66414C6.43582 4.69333 6.4271 4.73926 6.44377 4.75193C6.42192 4.72873 6.40756 4.69948 6.40259 4.66799C6.40422 4.66577 6.40628 4.66391 6.40864 4.66251C6.41101 4.66111 6.41363 4.6602 6.41636 4.65984C6.41908 4.65948 6.42186 4.65968 6.4245 4.66042C6.42715 4.66115 6.42962 4.66242 6.43177 4.66414Z" fill="#E55D1A"/>
<path d="M6.44371 4.75195C6.44543 4.76324 6.44966 4.774 6.45608 4.78344C6.4625 4.79288 6.47096 4.80077 6.48082 4.80652C6.47866 4.8048 6.47617 4.80353 6.47351 4.8028C6.47085 4.80206 6.46806 4.80188 6.46533 4.80225C6.46259 4.80262 6.45995 4.80354 6.45758 4.80495C6.45521 4.80637 6.45315 4.80825 6.45152 4.81048C6.43499 4.79789 6.44765 4.78126 6.44371 4.75195Z" fill="#E55D1A"/>
<path d="M12.0748 4.73569C12.0368 4.78558 11.9949 4.80624 11.957 4.85603C10.4357 3.85444 8.24347 4.28472 7.07964 4.60588C7.06006 4.58496 7.04637 4.55923 7.03997 4.5313C7.03358 4.50337 7.03471 4.47424 7.04324 4.44689C7.59666 4.29987 8.16017 4.19387 8.72918 4.12977C9.88093 3.93473 11.0646 4.14911 12.0748 4.73569Z" fill="#E55D1A"/>
<path d="M8.28566 3.16162C8.14716 3.23991 8.00875 3.31828 7.89955 3.39262C7.54464 3.46581 7.19391 3.55799 6.84888 3.66874C6.85464 3.65886 6.86254 3.6504 6.87199 3.64396C6.88144 3.63753 6.89221 3.63328 6.90351 3.63154C7.02562 3.53271 7.15958 3.44953 7.30231 3.38391L7.33153 3.38006C7.6451 3.28891 7.96367 3.21598 8.28566 3.16162Z" fill="#D14F15"/>
<path d="M8.28555 3.16128C7.96357 3.21562 7.64499 3.28855 7.33142 3.37968C7.75348 3.1671 8.20754 3.02515 8.67553 2.95947C8.55082 3.01697 8.43027 3.0831 8.31477 3.15739L8.28555 3.16128Z" fill="#BA4104"/>
<path d="M7.3233 3.87305C7.25261 3.93142 7.19633 4.00529 7.15881 4.08893C6.69838 4.21089 6.40088 4.32559 6.40088 4.32559C6.40321 4.26301 6.41497 4.20113 6.43575 4.14205L6.44842 4.12542C6.62008 4.07237 6.92144 3.98693 7.3233 3.87305Z" fill="#D14F15"/>
<path d="M7.32336 3.87281C6.9215 3.98669 6.62016 4.07215 6.44849 4.12518C6.54202 3.94221 6.67955 3.78535 6.84871 3.6687C7.19375 3.55794 7.54447 3.46577 7.89938 3.39258C7.68055 3.51743 7.48554 3.68001 7.32336 3.87281Z" fill="#BA4104"/>
<path d="M7.07968 4.60625C6.87581 4.65945 6.67576 4.72632 6.48088 4.80641C6.47101 4.80067 6.46256 4.79278 6.45613 4.78334C6.44971 4.7739 6.44549 4.76314 6.44376 4.75185C6.42713 4.73918 6.43584 4.69325 6.43176 4.66406C6.55761 4.60239 6.78786 4.54144 7.04329 4.44727C7.03476 4.47462 7.03363 4.50374 7.04002 4.53167C7.04641 4.5596 7.0601 4.58534 7.07968 4.60625Z" fill="#D14F15"/>
<path d="M7.04332 4.44732C6.78788 4.5415 6.55763 4.60244 6.43178 4.66411C6.39125 4.60519 6.37122 4.53457 6.3748 4.46315C6.38362 4.4173 6.3757 4.35875 6.40096 4.32553C6.40096 4.32553 6.69846 4.21084 7.15889 4.08887C7.07756 4.19005 7.03641 4.31768 7.04332 4.44732Z" fill="#BA4104"/>
<path d="M8.98001 5.76508C8.51701 5.81832 8.04799 5.75893 7.61287 5.59197C7.17774 5.42501 6.78939 5.15541 6.48083 4.80612C6.67571 4.72603 6.87577 4.65916 7.07964 4.60596C7.18099 5.02452 7.7546 5.409 8.98001 5.76508Z" fill="#BA4104"/>
<path d="M11.849 4.99139L11.8475 4.99314C10.8763 5.71805 9.69701 6.11 8.48513 6.11066C7.51743 6.18276 6.54635 6.02581 5.65063 5.65253V5.65086L6.33403 5.18508C6.89467 4.79259 7.5355 4.52952 8.2102 4.41489C8.88491 4.30026 9.57665 4.33693 10.2355 4.52224L11.849 4.99139Z" fill="#79A03C"/>
<path d="M11.7481 5.07778L11.7466 5.07939C10.8022 5.75077 9.6724 6.11184 8.51369 6.11259C7.58569 6.18128 6.65416 6.03955 5.78857 5.69798V5.69641L6.44571 5.26731C6.99147 4.9044 7.60818 4.66172 8.2549 4.55538C8.90162 4.44904 9.56357 4.48147 10.1968 4.65051L11.7481 5.07778Z" fill="#88B649"/>
<path d="M5.83935 6.07372C6.11536 6.07372 6.3391 5.84998 6.3391 5.57397C6.3391 5.29797 6.11536 5.07422 5.83935 5.07422C5.56335 5.07422 5.3396 5.29797 5.3396 5.57397C5.3396 5.84998 5.56335 6.07372 5.83935 6.07372Z" fill="white"/>
<path d="M5.39965 5.4912C5.67566 5.4912 5.89941 5.26746 5.89941 4.99145C5.89941 4.71545 5.67566 4.4917 5.39965 4.4917C5.12365 4.4917 4.8999 4.71545 4.8999 4.99145C4.8999 5.26746 5.12365 5.4912 5.39965 5.4912Z" fill="white"/>
<path d="M4.96899 5.68114C5.245 5.68114 5.46874 5.4574 5.46874 5.18139C5.46874 4.90539 5.245 4.68164 4.96899 4.68164C4.69298 4.68164 4.46924 4.90539 4.46924 5.18139C4.46924 5.4574 4.69298 5.68114 4.96899 5.68114Z" fill="white"/>
<path d="M4.73315 5.02685C5.00916 5.02685 5.2329 4.8031 5.2329 4.5271C5.2329 4.25109 5.00916 4.02734 4.73315 4.02734C4.45715 4.02734 4.2334 4.25109 4.2334 4.5271C4.2334 4.8031 4.45715 5.02685 4.73315 5.02685Z" fill="white"/>
<path d="M14.957 14.1255C19.0537 13.8699 22.2754 12.0702 22.1528 10.1057C22.0303 8.14125 18.6099 6.75587 14.5133 7.01142C10.4166 7.26696 7.19492 9.06666 7.31746 11.0311C7.44 12.9956 10.8604 14.381 14.957 14.1255Z" fill="#0A564F"/>
<path d="M14.7887 23.0689C11.9303 23.2017 9.44541 22.5687 8.20894 21.4691C7.9736 21.2968 7.77632 21.0778 7.62945 20.8259C7.48257 20.5739 7.38927 20.2943 7.35536 20.0047C7.34615 19.9607 7.34508 19.9154 7.35221 19.871L7.30725 10.9352L20.6757 10.2765L22.1551 10.1958L22.1873 19.1482C22.2015 21.1284 18.8756 22.8744 14.7887 23.0689Z" fill="#0C3A37"/>
<path d="M13.3038 22.2261C11.5709 22.3423 9.83319 22.0841 8.20894 21.4689C7.9736 21.2966 7.77632 21.0777 7.62945 20.8257C7.48257 20.5737 7.38927 20.2942 7.35536 20.0045C7.34615 19.9605 7.34508 19.9152 7.35221 19.8708L7.30725 10.9351L20.6757 10.2764L20.7151 18.2888C20.7128 20.2563 17.4034 22.0149 13.3038 22.2261Z" fill="#0A564F"/>
<path d="M21.4713 10.2382C21.4781 11.8895 18.5835 13.3712 15.0061 13.5463C11.7862 13.7039 9.11442 12.7495 8.60549 11.3545C8.60026 11.3427 8.59569 11.3306 8.59181 11.3183C8.58121 11.2912 8.57357 11.2624 8.56594 11.2352C8.53361 11.1169 8.51694 10.9949 8.51637 10.8723C8.50958 9.22097 11.4041 7.74081 14.9816 7.56571C16.1075 7.50193 17.2369 7.59229 18.3384 7.83429C18.5339 7.87998 18.7234 7.92909 18.9039 7.98621C18.9926 8.01103 19.0799 8.03901 19.1641 8.06863C20.5721 8.54619 21.4675 9.32203 21.4713 10.2382Z" fill="#FFFAEB"/>
<path d="M19.1146 8.60091C19.2954 8.48013 19.3861 8.29865 19.3172 8.19557C19.2483 8.09248 19.0459 8.10682 18.8652 8.2276C18.6844 8.34838 18.5937 8.52986 18.6625 8.63295C18.7314 8.73603 18.9338 8.72169 19.1146 8.60091Z" fill="#F4E9CE"/>
<path d="M12.2954 13.0154C12.3923 12.8866 12.221 12.5944 11.9129 12.3628C11.6048 12.1313 11.2766 12.048 11.1797 12.1769C11.0829 12.3057 11.2542 12.5979 11.5622 12.8294C11.8703 13.061 12.1986 13.1443 12.2954 13.0154Z" fill="#F4E9CE"/>
<path d="M15.2986 8.08472C15.5958 8.06863 15.8325 7.97795 15.8273 7.8822C15.8222 7.78644 15.577 7.72186 15.2798 7.73795C14.9826 7.75404 14.7459 7.84472 14.7511 7.94048C14.7563 8.03623 15.0014 8.10082 15.2986 8.08472Z" fill="#F4E9CE"/>
<path d="M19.0814 10.556C19.1569 10.4555 19.0234 10.2277 18.7831 10.0471C18.5428 9.86651 18.2868 9.80157 18.2113 9.90205C18.1358 10.0025 18.2694 10.2304 18.5096 10.411C18.7499 10.5915 19.0059 10.6565 19.0814 10.556Z" fill="#F4E9CE"/>
<path d="M17.4 12.9127C17.4382 12.7832 17.2088 12.6016 16.8877 12.507C16.5666 12.4125 16.2754 12.4408 16.2373 12.5702C16.1991 12.6997 16.4285 12.8813 16.7496 12.9759C17.0707 13.0705 17.3619 13.0421 17.4 12.9127Z" fill="#F4E9CE"/>
<path d="M12.6358 12.809C12.8966 12.6403 13.0655 12.4377 13.013 12.3565C12.9605 12.2753 12.7065 12.3462 12.4456 12.5149C12.1847 12.6836 12.0158 12.8861 12.0683 12.9673C12.1208 13.0486 12.3749 12.9776 12.6358 12.809Z" fill="#F4E9CE"/>
<path d="M18.7306 10.0551C18.7193 10.2244 18.6712 10.3892 18.5895 10.538C18.5079 10.6867 18.3947 10.8158 18.258 10.9163L18.2565 10.9179C17.3121 11.5893 16.1823 11.9504 15.0236 11.9511C14.0956 12.0198 13.1641 11.8781 12.2985 11.5365V11.535C12.0812 11.4625 11.8822 11.3437 11.7153 11.1867C11.5484 11.0298 11.4176 10.8385 11.3319 10.626C11.3131 10.5584 11.3033 10.4888 11.3025 10.4187C11.2986 9.47178 12.958 8.62307 15.0095 8.52267C15.1823 8.51427 15.3504 8.51212 15.5172 8.5147C15.9941 8.51755 16.4693 8.57201 16.9344 8.67713C18.0094 8.9238 18.728 9.43354 18.7306 10.0551Z" fill="#FF8340"/>
<path d="M21.4713 10.2384C21.478 11.8897 18.5835 13.3714 15.0061 13.5464C11.7862 13.704 9.1144 12.7496 8.60547 11.3546C8.74101 11.4432 8.92175 11.5633 9.15521 11.7145C9.66944 12.1017 10.2305 12.4223 10.825 12.6689C11.4055 12.8339 11.4213 12.6428 12.4673 12.785C13.2399 12.8915 13.3335 13.0097 13.8925 13.0606C14.4915 13.0444 15.0883 12.9824 15.6778 12.875C16.1779 12.8367 16.723 12.8177 17.1016 12.8053C17.821 12.7809 17.4383 12.7647 17.7535 12.6956C18.2772 12.5794 18.2421 12.396 18.4759 12.2664C19.0659 11.9165 19.5612 11.4275 19.9186 10.8422C20.011 10.6703 20.9291 10.6363 20.8083 10.1081C20.6933 9.6981 20.4349 9.34304 20.0801 9.10762C19.5723 8.7119 19.2843 8.81502 19.0635 8.46664C18.9744 8.3208 18.9198 8.15651 18.9038 7.98633C18.9926 8.01116 19.0798 8.03913 19.164 8.06876C20.572 8.54631 21.4675 9.32216 21.4713 10.2384Z" fill="#F4E9CE"/>
<path d="M18.7949 10.0181C18.7952 10.0646 18.7909 10.1111 18.782 10.1568C18.7716 10.2115 18.7552 10.2648 18.7331 10.3158C18.6931 10.409 18.6399 10.4959 18.5749 10.5738C18.5421 10.6152 18.5061 10.6539 18.4672 10.6896C17.7199 11.2795 16.7943 11.5981 15.8422 11.5932C15.7235 11.599 15.6079 11.6016 15.4937 11.5995C15.027 11.654 14.554 11.596 14.1143 11.4303C13.6746 11.2646 13.2809 10.9961 12.9662 10.6472C12.9413 10.6031 12.9219 10.5561 12.9085 10.5072V10.5057C12.8726 10.3905 12.868 10.2678 12.8951 10.1503C12.907 10.0944 12.9249 10.04 12.9485 9.988V9.98647C13.0398 9.80214 13.1729 9.64164 13.3371 9.5177C13.4854 9.39877 13.6467 9.29715 13.8181 9.2148C14.2488 9.00898 14.708 8.86904 15.1803 8.79968C15.3956 8.76553 15.6127 8.74313 15.8304 8.73256C16.7478 8.63089 17.6718 8.85338 18.4423 9.36147C18.565 9.45857 18.6633 9.5831 18.7292 9.72507C18.7717 9.81694 18.7941 9.91684 18.7949 10.0181Z" fill="#D04C04"/>
<path d="M12.9485 9.98779C12.925 10.0398 12.9071 10.0942 12.8951 10.15L12.9485 9.98779Z" fill="#F0AC64"/>
<path d="M12.9457 9.97998C12.9249 10.0391 12.9131 10.101 12.9108 10.1636L12.8942 10.1509C12.9155 10.0883 12.9242 10.0424 12.9457 9.97998Z" fill="#E55D1A"/>
<path d="M18.7287 10.3159C17.2295 9.14734 14.8451 9.58871 13.6687 9.92643C13.7062 9.84279 13.7625 9.76893 13.8332 9.71056C14.3341 9.57754 14.8446 9.48362 15.3601 9.42965C16.5493 9.23943 17.7669 9.49409 18.7801 10.145C18.7823 10.2061 18.7642 10.2662 18.7287 10.3159Z" fill="#E55D1A"/>
<path d="M18.7374 9.71893C18.0848 9.35352 17.3657 9.12212 16.6225 9.03829C15.8793 8.95446 15.1268 9.0199 14.4092 9.23076C14.5184 9.15642 14.6568 9.07804 14.7953 8.99976L14.8245 8.9959C16.0355 8.72236 17.3025 8.84923 18.4352 9.35744C18.5634 9.45203 18.667 9.576 18.7374 9.71893Z" fill="#E55D1A"/>
<path d="M12.9415 10.5015C12.9456 10.5307 12.9369 10.5767 12.9535 10.5893C12.9317 10.5661 12.9173 10.5369 12.9124 10.5054C12.914 10.5032 12.916 10.5013 12.9184 10.4999C12.9208 10.4985 12.9234 10.4976 12.9261 10.4972C12.9289 10.4969 12.9316 10.4971 12.9343 10.4978C12.9369 10.4986 12.9394 10.4998 12.9415 10.5015Z" fill="#E55D1A"/>
<path d="M12.9536 10.5898C12.9553 10.6011 12.9595 10.6119 12.966 10.6213C12.9724 10.6308 12.9808 10.6387 12.9907 10.6444C12.9885 10.6427 12.9861 10.6414 12.9834 10.6407C12.9807 10.64 12.9779 10.6398 12.9752 10.6401C12.9725 10.6405 12.9698 10.6414 12.9675 10.6428C12.9651 10.6443 12.963 10.6461 12.9614 10.6484C12.9449 10.6358 12.9575 10.6191 12.9536 10.5898Z" fill="#E55D1A"/>
<path d="M18.5847 10.5741C18.5467 10.624 18.5048 10.6446 18.4669 10.6944C16.9456 9.69283 14.7534 10.1231 13.5895 10.4443C13.5699 10.4233 13.5563 10.3976 13.5499 10.3697C13.5435 10.3417 13.5446 10.3126 13.5531 10.2853C14.1065 10.1382 14.6701 10.0322 15.2391 9.96814C16.3908 9.77311 17.5745 9.98749 18.5847 10.5741Z" fill="#E55D1A"/>
<path d="M14.7954 8.99951C14.6569 9.0778 14.5185 9.15617 14.4093 9.23051C14.0544 9.30371 13.7037 9.39588 13.3586 9.50663C13.3644 9.49675 13.3723 9.48829 13.3818 9.48185C13.3912 9.47542 13.402 9.47117 13.4133 9.46943C13.5354 9.3706 13.6693 9.28742 13.8121 9.2218L13.8413 9.21795C14.1549 9.12681 14.4734 9.05388 14.7954 8.99951Z" fill="#D14F15"/>
<path d="M14.7954 8.99966C14.4735 9.05401 14.1549 9.12693 13.8413 9.21806C14.2634 9.00548 14.7174 8.86353 15.1854 8.79785C15.0607 8.85534 14.9402 8.92148 14.8247 8.99578L14.7954 8.99966Z" fill="#BA4104"/>
<path d="M13.8331 9.71094C13.7624 9.76931 13.7061 9.84317 13.6686 9.9268C13.2081 10.0488 12.9106 10.1635 12.9106 10.1635C12.913 10.1009 12.9247 10.039 12.9455 9.97987L12.9582 9.96325C13.1299 9.91029 13.4312 9.82481 13.8331 9.71094Z" fill="#D14F15"/>
<path d="M13.8331 9.71071C13.4313 9.82458 13.1299 9.91005 12.9583 9.96308C13.0518 9.78011 13.1893 9.62324 13.3585 9.50659C13.7035 9.39584 14.0542 9.30367 14.4091 9.23047C14.1903 9.35532 13.9953 9.51791 13.8331 9.71071Z" fill="#BA4104"/>
<path d="M13.5896 10.4441C13.3857 10.4973 13.1856 10.5642 12.9908 10.6443C12.9809 10.6386 12.9724 10.6307 12.966 10.6212C12.9596 10.6118 12.9554 10.601 12.9537 10.5897C12.937 10.5771 12.9457 10.5311 12.9417 10.5019C13.0675 10.4403 13.2977 10.3793 13.5532 10.2852C13.5446 10.3125 13.5435 10.3416 13.5499 10.3696C13.5563 10.3975 13.57 10.4232 13.5896 10.4441Z" fill="#D14F15"/>
<path d="M13.5532 10.2852C13.2978 10.3794 13.0675 10.4403 12.9417 10.502C12.9011 10.4431 12.8811 10.3725 12.8847 10.301C12.8935 10.2552 12.8856 10.1966 12.9108 10.1634C12.9108 10.1634 13.2083 10.0487 13.6688 9.92676C13.5874 10.0279 13.5463 10.1556 13.5532 10.2852Z" fill="#BA4104"/>
<path d="M15.4899 11.6035C15.0269 11.6567 14.5579 11.5973 14.1228 11.4304C13.6876 11.2634 13.2993 10.9938 12.9907 10.6445C13.1856 10.5644 13.3857 10.4975 13.5895 10.4443C13.6909 10.8629 14.2645 11.2474 15.4899 11.6035Z" fill="#BA4104"/>
<path d="M18.3588 10.8293L18.3572 10.831C17.3861 11.556 16.2068 11.9479 14.9949 11.9485C14.0272 12.0206 13.0561 11.8637 12.1604 11.4904V11.4888L12.8438 11.023C13.4044 10.6305 14.0453 10.3674 14.72 10.2528C15.3947 10.1382 16.0864 10.1748 16.7452 10.3601L18.3588 10.8293Z" fill="#79A03C"/>
<path d="M18.258 10.9161L18.2565 10.9177C17.3121 11.5891 16.1823 11.9502 15.0236 11.9509C14.0956 12.0196 13.164 11.8779 12.2985 11.5363V11.5348L12.9556 11.1057C13.5014 10.7428 14.1181 10.5001 14.7648 10.3938C15.4115 10.2874 16.0735 10.3198 16.7067 10.4889L18.258 10.9161Z" fill="#88B649"/>
<path d="M12.3491 11.9116C12.6251 11.9116 12.8489 11.6879 12.8489 11.4119C12.8489 11.1359 12.6251 10.9121 12.3491 10.9121C12.0731 10.9121 11.8494 11.1359 11.8494 11.4119C11.8494 11.6879 12.0731 11.9116 12.3491 11.9116Z" fill="white"/>
<path d="M11.9094 11.3296C12.1854 11.3296 12.4092 11.1058 12.4092 10.8298C12.4092 10.5538 12.1854 10.3301 11.9094 10.3301C11.6334 10.3301 11.4097 10.5538 11.4097 10.8298C11.4097 11.1058 11.6334 11.3296 11.9094 11.3296Z" fill="white"/>
<path d="M11.4788 11.5195C11.7548 11.5195 11.9785 11.2958 11.9785 11.0198C11.9785 10.7438 11.7548 10.52 11.4788 10.52C11.2028 10.52 10.979 10.7438 10.979 11.0198C10.979 11.2958 11.2028 11.5195 11.4788 11.5195Z" fill="white"/>
<path d="M11.2429 10.8647C11.5189 10.8647 11.7427 10.641 11.7427 10.365C11.7427 10.089 11.5189 9.86523 11.2429 9.86523C10.9669 9.86523 10.7432 10.089 10.7432 10.365C10.7432 10.641 10.9669 10.8647 11.2429 10.8647Z" fill="white"/>
</svg>
