<svg width="15" height="33" viewBox="0 0 15 33" fill="none" xmlns="http://www.w3.org/2000/svg">
<path d="M13.441 11.5163C14.1668 10.4138 14.5807 9.13535 14.6388 7.81665C14.6968 6.49794 14.3968 5.18811 13.7706 4.02611C13.1444 2.86411 12.2154 1.89327 11.082 1.21659C9.9487 0.539909 8.65333 0.182617 7.33334 0.182617C6.01336 0.182617 4.71799 0.539909 3.58464 1.21659C2.4513 1.89327 1.52226 2.86411 0.896061 4.02611C0.269867 5.18811 -0.0301224 6.49794 0.0279171 7.81665C0.0859565 9.13535 0.49986 10.4138 1.22572 11.5163C0.837835 11.6315 0.504472 11.8827 0.286702 12.2238C0.0689317 12.5648 -0.018665 12.9729 0.039958 13.3733C0.098581 13.7737 0.299499 14.1396 0.605905 14.4039C0.912312 14.6682 1.30369 14.8133 1.70834 14.8125H12.9583C13.363 14.8133 13.7544 14.6682 14.0608 14.4039C14.3672 14.1396 14.5681 13.7737 14.6267 13.3733C14.6854 12.9729 14.5978 12.5648 14.38 12.2238C14.1622 11.8827 13.8289 11.6315 13.441 11.5163Z" fill="#F2B9B8"/>
<path d="M7.33334 32.8125L1.70834 14.8125H12.9583L7.33334 32.8125Z" fill="#D68033"/>
<path d="M1.70834 14.8125L7.33334 32.8125L9.60303 25.5506C9.99053 24.3123 10.0812 23.0001 9.86759 21.7203C9.65402 20.4404 9.14224 19.2287 8.37364 18.1833C7.60504 17.1379 6.60119 16.288 5.44328 15.7024C4.28537 15.1168 3.0059 14.812 1.70834 14.8125Z" fill="#F09E3E"/>
<path d="M5.64584 18.75H4.52084V19.875H5.64584V18.75Z" fill="#C96E23"/>
<path d="M5.64584 16.5H4.52084V17.625H5.64584V16.5Z" fill="#C96E23"/>
<path d="M5.64584 21H4.52084V22.125H5.64584V21Z" fill="#C96E23"/>
<path d="M7.89584 21H6.77084V22.125H7.89584V21Z" fill="#C96E23"/>
<path d="M7.89584 23.25H6.77084V24.375H7.89584V23.25Z" fill="#C96E23"/>
<path d="M7.89584 25.5H6.77084V26.625H7.89584V25.5Z" fill="#C96E23"/>
<path d="M7.89584 27.75H6.77084V28.875H7.89584V27.75Z" fill="#C96E23"/>
<path d="M7.89584 18.75H6.77084V19.875H7.89584V18.75Z" fill="#C96E23"/>
<path d="M5.64584 23.25H4.52084V23.8125L4.69634 24.375H5.64584V23.25Z" fill="#C96E23"/>
<path d="M10.1458 19.875V18.75H9.02084V19.2231C9.13334 19.4357 9.23853 19.6528 9.33247 19.875H10.1458Z" fill="#965735"/>
<path d="M12.3958 16.5H11.2708V17.625H12.0792L12.3958 16.6125V16.5Z" fill="#965735"/>
<path d="M10.1458 16.5H9.02084V17.625H10.1458V16.5Z" fill="#965735"/>
<path d="M13.441 11.5163C13.9895 10.684 14.3618 9.74817 14.5349 8.76651C14.708 7.78486 14.6782 6.77816 14.4473 5.80847C14.2165 4.83877 13.7895 3.92662 13.1927 3.12823C12.5959 2.32984 11.842 1.66213 10.9773 1.16626C10.7719 8.92201 6.51213 12.8803 3.10732 14.8125H12.9584C13.363 14.8133 13.7544 14.6682 14.0608 14.4039C14.3672 14.1396 14.5681 13.7737 14.6268 13.3733C14.6854 12.9729 14.5978 12.5648 14.38 12.2238C14.1622 11.8827 13.8289 11.6315 13.441 11.5163Z" fill="#F2AEAC"/>
</svg>
