<svg width="34" height="29" viewBox="0 0 34 29" fill="none" xmlns="http://www.w3.org/2000/svg">
<path d="M26.5625 0.4375H10.8125C8.12718 0.4375 5.55185 1.50424 3.65304 3.40304C1.75424 5.30185 0.6875 7.87718 0.6875 10.5625V13.9375C0.6875 14.1276 0.7055 14.3127 0.716188 14.5C0.7055 14.6873 0.6875 14.8729 0.6875 15.0625V18.4375C0.6875 21.1228 1.75424 23.6981 3.65304 25.597C5.55185 27.4958 8.12718 28.5625 10.8125 28.5625H14.75C17.4353 28.5625 20.0106 27.4958 21.9095 25.597C23.8083 23.6981 24.875 21.1228 24.875 18.4375H26.5625C28.3527 18.4375 30.0696 17.7263 31.3355 16.4605C32.6013 15.1946 33.3125 13.4777 33.3125 11.6875V7.1875C33.3125 5.39729 32.6013 3.6804 31.3355 2.41453C30.0696 1.14866 28.3527 0.4375 26.5625 0.4375Z" fill="#8F5436"/>
<path d="M10.8125 24.0625H14.75C17.4353 24.0625 20.0106 22.9958 21.9095 21.097C23.8083 19.1981 24.875 16.6228 24.875 13.9375H26.5625C28.3527 13.9375 30.0696 13.2263 31.3355 11.9605C32.6013 10.6946 33.3125 8.97771 33.3125 7.1875C33.3125 5.39729 32.6013 3.6804 31.3355 2.41453C30.0696 1.14866 28.3527 0.4375 26.5625 0.4375H10.8125C8.12718 0.4375 5.55185 1.50424 3.65304 3.40304C1.75424 5.30185 0.6875 7.87718 0.6875 10.5625V13.9375C0.6875 14.1276 0.7055 14.3127 0.716188 14.5C0.857833 17.0824 1.98314 19.5125 3.86089 21.291C5.73863 23.0694 8.22621 24.0612 10.8125 24.0625Z" fill="#A3603E"/>
<path d="M3.50002 9.43752C3.38878 9.43749 3.28005 9.40449 3.18757 9.34268C3.09509 9.28087 3.02301 9.19303 2.98045 9.09026C2.93788 8.98749 2.92675 8.87441 2.94844 8.76531C2.97013 8.65621 3.02369 8.55599 3.10233 8.47733L8.72733 2.85233C8.83342 2.74986 8.97551 2.69317 9.12299 2.69445C9.27048 2.69573 9.41156 2.75489 9.51585 2.85918C9.62015 2.96347 9.6793 3.10455 9.68058 3.25204C9.68187 3.39953 9.62517 3.54161 9.52271 3.6477L3.8977 9.2727C3.79224 9.3782 3.64919 9.43748 3.50002 9.43752Z" fill="#75462E"/>
<path d="M3.50002 15.625C3.38878 15.625 3.28005 15.592 3.18757 15.5302C3.09509 15.4684 3.02301 15.3805 2.98045 15.2778C2.93788 15.175 2.92675 15.0619 2.94844 14.9528C2.97013 14.8437 3.02369 14.7435 3.10233 14.6648L14.9148 2.85233C15.0209 2.74986 15.163 2.69317 15.3105 2.69445C15.458 2.69573 15.5991 2.75489 15.7034 2.85918C15.8076 2.96347 15.8668 3.10455 15.8681 3.25204C15.8694 3.39953 15.8127 3.54161 15.7102 3.6477L3.8977 15.4602C3.79224 15.5657 3.64919 15.625 3.50002 15.625Z" fill="#75462E"/>
<path d="M5.75002 19.5625C5.63878 19.5625 5.53005 19.5295 5.43757 19.4677C5.34509 19.4059 5.27301 19.318 5.23045 19.2153C5.18788 19.1125 5.17675 18.9994 5.19844 18.8903C5.22013 18.7812 5.27369 18.681 5.35233 18.6023L21.1023 2.85233C21.2084 2.74986 21.3505 2.69317 21.498 2.69445C21.6455 2.69573 21.7866 2.75489 21.8909 2.85918C21.9951 2.96347 22.0543 3.10455 22.0556 3.25204C22.0569 3.39953 22.0002 3.54161 21.8977 3.6477L6.1477 19.3977C6.04224 19.5032 5.89919 19.5625 5.75002 19.5625Z" fill="#75462E"/>
<path d="M9.68752 21.8125C9.57628 21.8125 9.46755 21.7795 9.37507 21.7177C9.28259 21.6559 9.21051 21.568 9.16795 21.4653C9.12538 21.3625 9.11425 21.2494 9.13594 21.1403C9.15763 21.0312 9.21119 20.931 9.28983 20.8523L27.2898 2.85233C27.3959 2.74986 27.538 2.69317 27.6855 2.69445C27.833 2.69573 27.9741 2.75489 28.0784 2.85918C28.1826 2.96347 28.2418 3.10455 28.2431 3.25204C28.2444 3.39953 28.1877 3.54161 28.0852 3.6477L10.0852 21.6477C9.97974 21.7532 9.83669 21.8125 9.68752 21.8125Z" fill="#75462E"/>
<path d="M16.4375 21.25C16.3263 21.25 16.2176 21.217 16.1251 21.1552C16.0326 21.0934 15.9605 21.0056 15.9179 20.9028C15.8754 20.8 15.8642 20.6869 15.8859 20.5778C15.9076 20.4687 15.9612 20.3685 16.0398 20.2899L29.8211 6.50861C29.9272 6.40614 30.0693 6.34945 30.2167 6.35073C30.3642 6.35201 30.5053 6.41117 30.6096 6.51546C30.7139 6.61975 30.7731 6.76084 30.7743 6.90832C30.7756 7.05581 30.7189 7.1979 30.6165 7.30398L16.8352 21.0852C16.7297 21.1907 16.5867 21.25 16.4375 21.25Z" fill="#75462E"/>
<path d="M29.9375 13.0268V17.5268C30.9633 16.9356 31.8153 16.0847 32.4078 15.0596C33.0003 14.0345 33.3123 12.8715 33.3125 11.6875V7.1875C33.3123 8.37148 33.0003 9.53452 32.4078 10.5596C31.8153 11.5847 30.9633 12.4356 29.9375 13.0268Z" fill="#75462E"/>
<path d="M20.375 22.3553V26.8553C21.7601 25.9311 22.8956 24.6792 23.6806 23.2107C24.4656 21.7422 24.8759 20.1026 24.875 18.4375V13.9375C24.8759 15.6026 24.4656 17.2422 23.6806 18.7107C22.8956 20.1792 21.7601 21.4311 20.375 22.3553Z" fill="#75462E"/>
</svg>
